<?xml version="1.0" standalone="no"?>
<!DOCTYPE svg PUBLIC "-//W3C//DTD SVG 1.1//EN" "http://www.w3.org/Graphics/SVG/1.1/DTD/svg11.dtd" >
<svg xmlns="http://www.w3.org/2000/svg" xmlns:xlink="http://www.w3.org/1999/xlink" version="1.1">
<metadata>
Created by FontForge 20150318 at Fri Aug 28 16:53:23 2015
 By uniteet7
2013 published by FontShop International GmbH
</metadata>
<defs>
<font id="MarkWebProBoldItalic" horiz-adv-x="1" >
  <font-face 
    font-family="MarkWebProBoldItalic"
    font-weight="700"
    font-style="italic"
    font-stretch="normal"
    units-per-em="2000"
    panose-1="2 11 8 4 2 1 1 1 1 2"
    ascent="1580"
    descent="-420"
    x-height="969"
    cap-height="1400"
    bbox="-1355 -473 2957 2227"
    underline-thickness="136"
    underline-position="-124"
    slope="-12"
    unicode-range="U+0020-FEFF"
  />
<missing-glyph horiz-adv-x="1161" 
d="M26 1400h1109v-1400h-1109v1400zM923 212v976h-685v-976h685z" />
    <glyph glyph-name=".notdef" horiz-adv-x="1161" 
d="M26 1400h1109v-1400h-1109v1400zM923 212v976h-685v-976h685z" />
    <glyph glyph-name=".null" horiz-adv-x="0" 
 />
    <glyph glyph-name="nonmarkingreturn" horiz-adv-x="495" 
 />
    <glyph glyph-name="space" unicode=" " horiz-adv-x="495" 
 />
    <glyph glyph-name="exclam" unicode="!" horiz-adv-x="538" 
d="M383 481h-227l143 919h313zM213 355q38 0 72 -15t60 -41t41.5 -60.5t15.5 -72.5t-15.5 -73t-41.5 -61t-60 -41.5t-72 -15.5t-73 15.5t-61 41.5t-41.5 61t-15.5 73t15.5 72.5t41.5 60.5t61 41t73 15z" />
    <glyph glyph-name="quotedbl" unicode="&#x22;" horiz-adv-x="1101" 
d="M676 1440l-127 -597h-260l127 597h260zM1092 1440l-127 -597h-260l127 597h260z" />
    <glyph glyph-name="numbersign" unicode="#" horiz-adv-x="1396" 
d="M508 1070l111 330h240l-111 -330h239l111 330h239l-111 -330h203l-75 -224h-203l-96 -285h202l-74 -224h-203l-113 -337h-239l113 337h-239l-113 -337h-240l113 337h-202l74 224h203l96 285h-204l76 224h203zM577 561h239l96 285h-239z" />
    <glyph glyph-name="dollar" unicode="$" horiz-adv-x="1400" 
d="M1210 1022q-61 42 -125 67t-125 38l-69 -324q76 -18 140.5 -46.5t111.5 -70.5t74 -98.5t27 -129.5q0 -96 -38 -174t-106 -135t-164 -90.5t-211 -39.5l-41 -192h-222l44 206q-51 9 -103.5 23.5t-103.5 35t-98.5 48t-87.5 63.5l150 208q31 -29 66.5 -51t73.5 -39t77 -29
t77 -19l68 320q-78 16 -142 45.5t-109.5 73t-70.5 101t-25 128.5q0 87 32.5 166t97.5 139.5t161 97.5t224 40l38 180h222l-42 -197q82 -15 167 -47.5t171 -89.5zM966 423q0 47 -32 76.5t-97 49.5l-60 -285q41 7 76 20.5t60 33.5t39 46t14 59zM557 977q0 -51 33 -81t89 -48
l62 291q-49 -7 -84 -23t-57 -37.5t-32.5 -48t-10.5 -53.5z" />
    <glyph glyph-name="percent" unicode="%" horiz-adv-x="2015" 
d="M593 1425q78 0 144 -26t114 -72.5t74.5 -111t26.5 -141.5q0 -83 -31 -157.5t-85.5 -130.5t-128.5 -89t-161 -33q-79 0 -145 26t-114 72.5t-75 111t-27 141.5q0 83 31 157.5t86 130.5t129.5 89t161.5 33zM581 1217q-38 0 -70 -15t-55 -40.5t-36 -60t-13 -72.5
q0 -35 11 -63.5t31 -49.5t47.5 -32.5t60.5 -11.5q38 0 70 15t55 40.5t36 60t13 72.5q0 34 -11 63t-31 50t-47.5 32.5t-60.5 11.5zM636 0h-275l1110 1400h275zM1562 736q78 0 144 -26t113.5 -72.5t74.5 -111.5t27 -142q0 -83 -31 -157.5t-85.5 -130.5t-129 -89t-161.5 -33
q-78 0 -144 26t-114 72.5t-75 111t-27 141.5q0 83 31 157.5t86 131t129.5 89.5t161.5 33zM1550 527q-38 0 -70 -15t-55 -40.5t-36 -60t-13 -72.5q0 -35 11 -63.5t31 -49t47.5 -32t59.5 -11.5q38 0 70 15t55 40.5t36 59.5t13 72q0 34 -11 63t-31 50t-47 32.5t-60 11.5z" />
    <glyph glyph-name="ampersand" unicode="&#x26;" horiz-adv-x="1436" 
d="M1334 633l-282 -315l254 -318h-329l-105 133q-39 -34 -83.5 -63t-95.5 -50t-109 -33t-125 -12q-90 0 -165 22.5t-128.5 66t-83.5 108t-30 147.5q0 82 27.5 147.5t73.5 119t106 96t125 78.5q-27 39 -46.5 75t-32.5 70.5t-19.5 69t-6.5 71.5q0 76 26 145t77.5 121t130 82.5
t183.5 30.5q85 0 157 -23.5t124.5 -65.5t81.5 -101.5t29 -131.5q0 -73 -28 -132t-75 -108t-108 -89.5t-127 -76.5l159 -200l252 281zM500 207q69 0 124.5 26t110.5 75l-212 267q-42 -24 -77.5 -49t-61.5 -53t-40.5 -58.5t-14.5 -65.5q0 -68 47.5 -105t123.5 -37zM541 1041
q0 -14 3.5 -29.5t12 -35t23 -44t36.5 -55.5q44 23 82 46t66 48t44 53t16 60q0 52 -36 81t-102 29q-39 0 -66.5 -12t-45 -33t-25.5 -49t-8 -59z" />
    <glyph glyph-name="quotesingle" unicode="'" horiz-adv-x="685" 
d="M676 1440l-127 -597h-260l127 597h260z" />
    <glyph glyph-name="parenleft" unicode="(" horiz-adv-x="789" 
d="M874 1215q-117 -44 -208.5 -126.5t-154 -188.5t-95.5 -228.5t-33 -245.5q0 -162 55 -284t171 -220l-119 -223q-189 125 -286 307t-97 420q0 107 21.5 215t63 209t102 194t138 170t171 136.5t202.5 95.5z" />
    <glyph glyph-name="parenright" unicode=")" horiz-adv-x="789" 
d="M-49 -78q117 44 208.5 126.5t154 188.5t95.5 228.5t33 245.5q0 162 -55 284t-171 220l119 223q189 -125 286 -307t97 -420q0 -107 -21.5 -215t-63 -209.5t-102 -193.5t-138 -170t-171.5 -137.5t-202 -94.5z" />
    <glyph glyph-name="asterisk" unicode="*" horiz-adv-x="946" 
d="M528 1199l46 241h203l-60 -261l249 56l22 -197l-253 -48l102 -202l-182 -100l-94 206l-176 -182l-138 135l183 177l-219 97l101 184z" />
    <glyph glyph-name="plus" unicode="+" horiz-adv-x="1200" 
d="M388 72l74 349h-346l47 223h347l74 349h228l-74 -349h346l-47 -223h-347l-74 -349h-228z" />
    <glyph glyph-name="comma" unicode="," horiz-adv-x="524" 
d="M403 316l-252 -596h-234l194 596h292z" />
    <glyph glyph-name="hyphen" unicode="-" horiz-adv-x="794" 
d="M673 418h-581l48 228h581z" />
    <glyph glyph-name="period" unicode="." horiz-adv-x="538" 
d="M206 363q39 0 74 -15.5t61.5 -42t42 -61.5t15.5 -74t-15.5 -74.5t-42 -62.5t-61.5 -42.5t-74 -15.5t-74.5 15.5t-62 42.5t-42.5 62.5t-16 74.5t16 74t42.5 61.5t62 42t74.5 15.5z" />
    <glyph glyph-name="slash" unicode="/" horiz-adv-x="1036" 
d="M134 -200h-281l1063 1740h281z" />
    <glyph glyph-name="zero" unicode="0" horiz-adv-x="1403" 
d="M848 1425q118 0 213.5 -40t163 -113t103.5 -176t36 -228q0 -102 -21.5 -208t-63.5 -205.5t-103.5 -186.5t-141.5 -152.5t-177.5 -103t-210.5 -37.5q-119 0 -214 40.5t-162.5 113.5t-103.5 175.5t-36 227.5q0 101 21.5 207t63.5 205t103.5 186.5t141.5 153t177 103.5
t211 38zM832 1167q-68 0 -125 -27t-103.5 -73t-81.5 -107t-58.5 -129t-35.5 -138.5t-12 -136.5q0 -74 16.5 -133.5t48 -101.5t77 -65t103.5 -23q68 0 125 27t103.5 72.5t81.5 106t59 128.5t36 139t12 138q0 75 -16.5 135t-48 101.5t-77.5 64t-104 22.5z" />
    <glyph glyph-name="one" unicode="1" horiz-adv-x="796" 
d="M536 0h-273l220 1040l-341 -118l61 284l635 216z" />
    <glyph glyph-name="two" unicode="2" horiz-adv-x="1121" 
d="M215 1200q34 41 80 81.5t103.5 72.5t127 51.5t150.5 19.5q113 0 196.5 -33.5t138 -89t81.5 -126t27 -145.5q0 -69 -17.5 -129t-54 -118t-92.5 -117.5t-134 -126.5l-331 -287h513l-55 -253h-912l47 214l559 484q56 48 93.5 88t60.5 76t32.5 69t9.5 68q0 33 -12 63
t-36.5 53.5t-61 37.5t-84.5 14q-42 0 -79.5 -11t-71.5 -31t-65 -47.5t-59 -60.5z" />
    <glyph glyph-name="three" unicode="3" horiz-adv-x="1125" 
d="M206 1225q41 45 89.5 82t107 63t127.5 40.5t152 14.5q104 0 186.5 -27t140.5 -74.5t88.5 -111.5t30.5 -139q0 -62 -19.5 -119t-55.5 -105.5t-88 -88t-116 -65.5q82 -38 127 -105.5t45 -158.5q0 -96 -39 -179t-110 -144.5t-172.5 -97t-225.5 -35.5q-165 0 -283 52
t-184 144l181 172q50 -61 126.5 -91.5t164.5 -30.5q65 0 115 16.5t83.5 45t51 68t17.5 84.5q0 38 -17 66.5t-47 47t-71.5 28t-91.5 9.5h-154l51 240h144q64 0 117 16.5t90.5 44.5t58 65.5t20.5 79.5q0 34 -15 61.5t-41.5 46.5t-63.5 29t-81 10q-48 0 -91 -12t-80.5 -32
t-69 -46t-56.5 -53z" />
    <glyph glyph-name="four" unicode="4" horiz-adv-x="1150" 
d="M921 508h195l-54 -252h-195l-54 -256h-270l54 256h-607l46 216l639 927h312l-615 -891h279l80 373h269z" />
    <glyph glyph-name="five" unicode="5" horiz-adv-x="1128" 
d="M1077 1149h-540l-66 -280h112q126 0 217 -38.5t146 -103.5t74 -151t1 -181q-22 -110 -72.5 -189.5t-123 -130.5t-162.5 -75.5t-191 -24.5q-149 0 -269 53.5t-198 159.5l177 170q60 -71 136.5 -102t165.5 -31q57 0 102.5 14t78.5 39t53 60t27 76t-0.5 79t-34.5 67.5
t-76.5 47t-126.5 17.5h-335l179 775h779z" />
    <glyph glyph-name="six" unicode="6" horiz-adv-x="1176" 
d="M630 917h11q96 0 181 -30.5t148.5 -86.5t100 -135.5t36.5 -176.5q0 -105 -41 -198.5t-114 -163t-174 -110.5t-222 -41q-103 0 -194 31.5t-159.5 89t-108 139.5t-39.5 183q0 46 9.5 94t31 100t56.5 108.5t86 118.5l468 561h342zM594 680q-58 0 -105 -19.5t-80.5 -53.5
t-51.5 -79t-18 -96q0 -47 16.5 -86t47 -67t73 -43.5t93.5 -15.5q56 0 103 19.5t80.5 53.5t52.5 79.5t19 97.5q0 48 -18 87t-49 66.5t-73 42t-90 14.5z" />
    <glyph glyph-name="seven" unicode="7" horiz-adv-x="1081" 
d="M1169 1176l-719 -1176h-322l715 1148h-653l53 252h970z" />
    <glyph glyph-name="eight" unicode="8" horiz-adv-x="1230" 
d="M770 1425q92 0 176.5 -25t149 -72t102.5 -114t38 -152q0 -60 -19.5 -115t-56.5 -102t-91.5 -85.5t-123.5 -64.5q82 -42 131.5 -108.5t49.5 -156.5q0 -94 -40.5 -177t-116 -144.5t-183.5 -97.5t-244 -36q-100 0 -188.5 25t-155 71.5t-105.5 112.5t-39 148q0 64 20.5 122
t59.5 107.5t96.5 88.5t132.5 65q-68 39 -108 100.5t-40 146.5q0 92 37.5 176t108.5 147.5t174.5 101.5t234.5 38zM618 596q-60 0 -109.5 -16.5t-85.5 -46t-55.5 -69t-19.5 -85.5q0 -38 17.5 -68.5t47 -51.5t69 -32t84.5 -11q61 0 111.5 16t87 44.5t56.5 68t20 86.5
q0 40 -18 70.5t-48.5 51.5t-71 32t-85.5 11zM751 1181q-59 0 -105.5 -16t-79 -44t-50 -66.5t-17.5 -82.5q0 -37 14.5 -65.5t40 -48t61.5 -30t80 -10.5q57 0 103.5 16t80 43.5t52 65.5t18.5 82q0 37 -16 66.5t-43.5 49t-63.5 30t-75 10.5z" />
    <glyph glyph-name="nine" unicode="9" horiz-adv-x="1176" 
d="M637 483h-10q-97 0 -182 30.5t-148 86.5t-99.5 135t-36.5 177q0 105 40.5 198.5t113.5 163t174 110.5t222 41q103 0 194.5 -31.5t159.5 -89t107.5 -139.5t39.5 -183q0 -46 -9 -94t-30.5 -100t-56.5 -108.5t-86 -118.5l-468 -561h-342zM674 720q57 0 104 19.5t80.5 53.5
t52 79t18.5 96q0 47 -17 86t-47.5 67t-73 43.5t-93.5 15.5q-56 0 -102.5 -19.5t-80.5 -53.5t-52.5 -79.5t-18.5 -97.5q0 -48 18 -87t49 -66.5t73 -42t90 -14.5z" />
    <glyph glyph-name="colon" unicode=":" horiz-adv-x="538" 
d="M339 995q39 0 74 -15.5t61.5 -42t42 -61.5t15.5 -74t-15.5 -74.5t-42 -62.5t-61.5 -42.5t-74 -15.5t-74.5 15.5t-62 42.5t-42.5 62.5t-16 74.5t16 74t42.5 61.5t62 42t74.5 15.5zM204 363q39 0 74 -15.5t61.5 -42t42 -61.5t15.5 -74t-15.5 -74.5t-42 -62.5t-61.5 -42.5
t-74 -15.5t-74 15.5t-62 42.5t-42.5 62.5t-15.5 74.5t15.5 74t42.5 61.5t62 42t74 15.5z" />
    <glyph glyph-name="semicolon" unicode=";" horiz-adv-x="524" 
d="M334 995q39 0 74 -15.5t61.5 -42t42 -61.5t15.5 -74t-15.5 -74.5t-42 -62.5t-61.5 -42.5t-74 -15.5t-74.5 15.5t-62 42.5t-42.5 62.5t-16 74.5t16 74t42.5 61.5t62 42t74.5 15.5zM403 316l-252 -596h-234l194 596h292z" />
    <glyph glyph-name="less" unicode="&#x3c;" horiz-adv-x="1200" 
d="M221 654l900 381l-60 -278l-620 -242l517 -243l-52 -242l-737 381z" />
    <glyph glyph-name="equal" unicode="=" horiz-adv-x="1200" 
d="M1001 209h-920l47 223h921zM1092 633h-921l47 223h921z" />
    <glyph glyph-name="greater" unicode="&#x3e;" horiz-adv-x="1200" 
d="M1002 411l-900 -381l60 278l620 242l-517 243l52 242l737 -381z" />
    <glyph glyph-name="question" unicode="?" horiz-adv-x="865" 
d="M167 478l72 340h109q149 0 217 49t68 130q0 40 -21.5 70t-59.5 50.5t-92 31t-118 10.5q-23 0 -52 -0.5t-47 -2.5l16 263q26 2 57 3.5t63 1.5q121 0 221.5 -26.5t172.5 -77t112 -123.5t40 -166q0 -91 -30.5 -167.5t-91.5 -133.5t-152.5 -93.5t-212.5 -47.5l-31 -111h-240z
M237 356q38 0 72 -15t60 -41t41.5 -60.5t15.5 -72.5q0 -39 -15.5 -73.5t-41.5 -61t-60 -42t-72 -15.5t-73 15.5t-61 41.5t-41.5 61t-15.5 73q0 39 15.5 73.5t41.5 60.5t61 41t73 15z" />
    <glyph glyph-name="at" unicode="@" horiz-adv-x="1866" 
d="M1323 -189q-107 -74 -223 -103.5t-240 -29.5q-107 0 -204 23.5t-179.5 68t-149.5 108.5t-113.5 145t-72 177.5t-25.5 205.5q0 124 29.5 239.5t85 217t135.5 185t181.5 144t222 93.5t257.5 33q156 0 291.5 -49.5t235.5 -139.5t157 -216.5t57 -281.5q0 -111 -27.5 -210.5
t-80.5 -174.5t-129.5 -119.5t-175.5 -44.5q-46 0 -84.5 10.5t-69 28.5t-53 42.5t-37.5 52.5q-42 -50 -102 -82t-142 -32q-73 0 -134.5 26t-105.5 73t-69 112.5t-25 144.5q0 88 29 168t80.5 140.5t122 96t153.5 35.5q81 0 137.5 -29.5t91.5 -81.5l19 91h211l-85 -396
q-5 -24 -7.5 -45.5t-2.5 -39.5q0 -61 24.5 -90.5t68.5 -29.5q41 0 72.5 29.5t53 78t32.5 111.5t11 129q0 113 -39.5 204.5t-110 156t-168.5 99t-215 34.5q-102 0 -190.5 -25.5t-162.5 -72t-132.5 -111t-99 -142.5t-61.5 -167.5t-21 -185.5q0 -128 40 -228t111 -168.5
t169.5 -104.5t214.5 -36q94 0 175 21.5t162 74.5zM942 695q-41 0 -75.5 -17.5t-59.5 -47.5t-38.5 -69.5t-13.5 -83.5q0 -41 12 -73.5t33.5 -55t50.5 -34.5t64 -12q42 0 76.5 17.5t59.5 47.5t39 70t14 84q0 39 -12 71.5t-33.5 55t-51 35t-65.5 12.5z" />
    <glyph glyph-name="A" unicode="A" horiz-adv-x="1465" 
d="M1335 0h-285l-51 326h-583l-188 -326h-304l831 1400h339zM564 583h395l-84 538z" />
    <glyph glyph-name="B" unicode="B" horiz-adv-x="1359" 
d="M892 1400q105 0 190 -24.5t145 -69t92.5 -107.5t32.5 -141q0 -60 -17.5 -114t-50.5 -100t-81 -81t-108 -56q44 -18 79.5 -52t58 -78t29 -97.5t-6.5 -110.5q-25 -108 -75.5 -179t-126.5 -113t-178.5 -59.5t-230.5 -17.5h-595l298 1400h545zM458 582l-72 -336l293 -1
q59 0 108 6.5t86.5 23.5t62 46t34.5 73q11 50 0.5 85.5t-40 58.5t-75 33.5t-104.5 10.5h-293zM579 1154l-69 -327h265q78 0 132.5 14t88.5 39.5t49.5 60.5t15.5 77q0 37 -17 62.5t-46 42t-68.5 24t-85.5 7.5h-265z" />
    <glyph glyph-name="C" unicode="C" horiz-adv-x="1451" 
d="M1354 224q-106 -119 -241 -184t-304 -65q-148 0 -272.5 48.5t-214.5 136t-140.5 209t-50.5 267.5q0 170 59.5 314.5t164.5 250t248 165t310 59.5q39 0 86.5 -4t99 -15.5t105 -33t105 -55.5t98.5 -82.5t86 -115.5l-232 -154q-58 95 -150 144t-214 49q-97 0 -183.5 -38
t-151 -105t-102 -159t-37.5 -199q0 -95 31 -171.5t85 -130.5t126.5 -83t155.5 -29q99 0 184 41t153 116z" />
    <glyph glyph-name="D" unicode="D" horiz-adv-x="1519" 
d="M842 1400q150 0 270 -44t203.5 -122.5t128 -187t44.5 -236.5q0 -168 -57.5 -315.5t-167.5 -257.5t-270 -173.5t-365 -63.5h-579l298 1400h495zM576 1139l-187 -878h272q125 0 224 39t167.5 108t104.5 163.5t36 205.5q0 80 -23 146.5t-70 114.5t-119 74.5t-171 26.5h-234z
" />
    <glyph glyph-name="E" unicode="E" horiz-adv-x="1294" 
d="M1162 578h-705l-69 -322h744l-55 -256h-1028l298 1400h1018l-55 -256h-733l-66 -310h706z" />
    <glyph glyph-name="F" unicode="F" horiz-adv-x="1250" 
d="M1150 567h-696l-120 -567h-285l298 1400h1007l-55 -257h-722l-68 -319h696z" />
    <glyph glyph-name="G" unicode="G" horiz-adv-x="1579" 
d="M1218 1015q-54 68 -135 107t-189 39q-99 0 -185.5 -38t-151 -106.5t-101.5 -163t-37 -208.5q0 -95 29.5 -171t83.5 -129t128.5 -81.5t164.5 -28.5q160 0 261.5 77.5t143.5 225.5h-362l51 233h621q2 -23 0 -49t-5 -52q-20 -161 -82.5 -290t-158.5 -219t-220 -138.5
t-268 -48.5q-146 0 -270 47.5t-214.5 133.5t-141.5 206t-51 265q0 173 60.5 319.5t166.5 253t250 166.5t311 60q51 0 117 -8.5t136 -33t138 -69t124 -116.5z" />
    <glyph glyph-name="H" unicode="H" horiz-adv-x="1532" 
d="M512 836h657l121 564h285l-299 -1400h-285l123 576h-658l-122 -576h-285l298 1400h285z" />
    <glyph glyph-name="I" unicode="I" horiz-adv-x="589" 
d="M334 0h-285l298 1400h285z" />
    <glyph glyph-name="J" unicode="J" horiz-adv-x="1074" 
d="M930 485q-28 -135 -77.5 -231.5t-118 -158.5t-156 -91t-192.5 -29q-67 0 -128.5 13.5t-115.5 39t-98.5 62t-77.5 83.5l177 197q19 -26 44 -49.5t56 -41t67.5 -27.5t77.5 -10q106 0 171 71.5t98 228.5l181 858h284z" />
    <glyph glyph-name="K" unicode="K" horiz-adv-x="1388" 
d="M511 833h105l549 567h362l-708 -701l476 -699h-327l-386 576h-126l-122 -576h-285l298 1400h285z" />
    <glyph glyph-name="L" unicode="L" horiz-adv-x="1184" 
d="M389 261h717l-56 -261h-1001l298 1400h285z" />
    <glyph glyph-name="M" unicode="M" horiz-adv-x="1824" 
d="M1569 0h-284l222 1039l-512 -904h-296l-146 905l-220 -1040h-284l298 1400h399l150 -952l547 952h424z" />
    <glyph glyph-name="N" unicode="N" horiz-adv-x="1545" 
d="M1290 0h-262l-490 964l-205 -964h-284l298 1400h263l489 -964l205 964h284z" />
    <glyph glyph-name="O" unicode="O" horiz-adv-x="1632" 
d="M915 1425q146 0 270.5 -47t215.5 -132.5t142.5 -206t51.5 -268.5q0 -109 -26 -210t-75 -189.5t-119 -161.5t-157.5 -125.5t-190.5 -81.5t-218 -29q-146 0 -270.5 47t-215.5 132.5t-142.5 206.5t-51.5 269q0 108 26 209t75 189.5t119 161.5t157.5 125.5t190.5 81.5t218 29
zM897 1158q-106 0 -193.5 -41.5t-150.5 -111.5t-97.5 -162.5t-34.5 -194.5q0 -93 30 -168t84 -128t128.5 -81.5t164.5 -28.5q105 0 192.5 41t150 111t97.5 162.5t35 195.5q0 92 -30 167t-84 128t-128.5 82t-163.5 29z" />
    <glyph glyph-name="P" unicode="P" horiz-adv-x="1279" 
d="M443 512l-109 -512h-285l298 1400h500q114 0 200.5 -29.5t145 -82t88.5 -123.5t30 -154q0 -113 -39 -205t-113.5 -157t-183 -101t-246.5 -36h-286zM577 1143l-80 -376h246q137 0 208.5 55.5t71.5 158.5q0 77 -52 119.5t-157 42.5h-237z" />
    <glyph glyph-name="Q" unicode="Q" horiz-adv-x="1664" 
d="M915 1425q146 0 270.5 -47t215.5 -132.5t142.5 -206t51.5 -268.5q0 -137 -41 -261t-117 -226l186 -284h-316l-66 99q-91 -60 -199.5 -92.5t-232.5 -32.5q-146 0 -270.5 47t-215.5 132.5t-142.5 206.5t-51.5 269q0 108 26 209t75 189.5t119 161.5t157.5 125.5t190.5 81.5
t218 29zM897 1158q-106 0 -193.5 -41.5t-150.5 -111.5t-97.5 -162.5t-34.5 -194.5q0 -93 30 -168t84 -128t128.5 -81.5t164.5 -28.5q75 0 140.5 21t120.5 59l-209 322h314l68 -104q20 49 30.5 102t10.5 110q0 92 -30 167t-84 128t-128.5 82t-163.5 29z" />
    <glyph glyph-name="R" unicode="R" horiz-adv-x="1329" 
d="M880 1400q113 0 200 -29.5t146 -80.5t89 -120t30 -148q0 -50 -11 -102.5t-35.5 -102.5t-64 -94.5t-96.5 -79.5t-134 -57.5t-175 -27.5l385 -558h-326l-362 557h-74l-118 -557h-285l298 1400h533zM577 1142l-73 -342h295q77 0 126.5 17t78.5 45t40.5 62t11.5 69
q0 69 -53.5 109t-156.5 40h-269z" />
    <glyph glyph-name="S" unicode="S" horiz-adv-x="1328" 
d="M1189 1037q-53 37 -108.5 61.5t-110.5 39.5t-106.5 21.5t-95.5 6.5q-69 0 -118 -14.5t-80 -39t-45.5 -56t-14.5 -64.5q0 -36 17 -61.5t46 -44t69 -31t87 -21.5l84 -16q88 -17 164 -46.5t131 -74.5t86.5 -108t31.5 -145q0 -107 -44 -194t-122.5 -148.5t-188.5 -94.5
t-242 -33q-64 0 -142 10t-158.5 33.5t-157.5 61t-138 91.5l161 224q50 -45 110 -76t121 -50t119 -27.5t103 -8.5q59 0 110 11.5t88.5 33t59 54t21.5 74.5q0 33 -15.5 57.5t-46 43.5t-77 33t-107.5 25l-89 17q-86 16 -156 47t-120.5 77.5t-78 108t-27.5 139.5q0 95 36 181
t107.5 150.5t177 102.5t245.5 38q63 0 131 -7t140 -25t145.5 -50t146.5 -82z" />
    <glyph glyph-name="T" unicode="T" horiz-adv-x="1193" 
d="M1301 1139h-419l-242 -1139h-285l242 1139h-427l56 261h1131z" />
    <glyph glyph-name="U" unicode="U" horiz-adv-x="1455" 
d="M1331 539q-31 -146 -89.5 -252.5t-142 -175.5t-191.5 -102.5t-237 -33.5q-116 0 -213.5 28.5t-168.5 84.5t-110.5 140.5t-39.5 196.5q0 68 17 151l176 824h286l-177 -827q-12 -57 -12 -102q0 -60 18.5 -103.5t53 -71t83 -41t108.5 -13.5q65 0 122.5 18t104 57.5t81 101
t52.5 148.5l176 833h285z" />
    <glyph glyph-name="V" unicode="V" horiz-adv-x="1433" 
d="M791 0h-340l-229 1400h284l164 -1118l630 1118h301z" />
    <glyph glyph-name="W" unicode="W" horiz-adv-x="2167" 
d="M1615 0h-330l-81 1003l-498 -1003h-344l-124 1400h282l79 -1078l529 1078h295l81 -1071l518 1071h297z" />
    <glyph glyph-name="X" unicode="X" horiz-adv-x="1341" 
d="M872 695l324 -695h-304l-213 486l-414 -486h-342l630 717l-312 683h303l202 -481l406 481h339z" />
    <glyph glyph-name="Y" unicode="Y" horiz-adv-x="1347" 
d="M832 552l-118 -552h-285l122 576l-348 824h298l230 -584l463 584h340z" />
    <glyph glyph-name="Z" unicode="Z" horiz-adv-x="1283" 
d="M1321 1175l-879 -918h717l-55 -257h-1090l50 231l877 912h-710l55 257h1082z" />
    <glyph glyph-name="bracketleft" unicode="[" horiz-adv-x="756" 
d="M536 -263h-543l354 1663h543l-50 -236h-279l-253 -1191h278z" />
    <glyph glyph-name="backslash" unicode="\" horiz-adv-x="1776" 
d="M288 1540h281l1063 -1740h-281z" />
    <glyph glyph-name="bracketright" unicode="]" horiz-adv-x="756" 
d="M256 1400h543l-354 -1663h-543l50 236h278l253 1191h-277z" />
    <glyph glyph-name="asciicircum" unicode="^" horiz-adv-x="1200" 
d="M184 635l357 765h243l357 -765h-266l-216 505l-214 -505h-261z" />
    <glyph glyph-name="underscore" unicode="_" horiz-adv-x="940" 
d="M775 -315h-950l45 212h950z" />
    <glyph glyph-name="grave" unicode="`" horiz-adv-x="1000" 
d="M628 1108l-264 315h312l201 -315h-249z" />
    <glyph glyph-name="a" unicode="a" horiz-adv-x="1199" 
d="M600 995q101 0 174 -32t118 -92l22 98h259l-206 -969h-254l17 80q-48 -48 -111.5 -77t-150.5 -29q-88 0 -163 34.5t-129.5 94.5t-85.5 141.5t-31 175.5q0 69 16.5 138.5t49 133.5t79 119t107 96t133 64.5t156.5 23.5zM548 218q54 0 101 20t83 55.5t59.5 83.5t30.5 105
q7 61 -6 110.5t-42.5 85t-72.5 55t-95 19.5q-59 0 -110 -24.5t-88 -66t-58 -97t-21 -117.5q0 -52 16 -94.5t45.5 -72.5t69.5 -46t88 -16z" />
    <glyph glyph-name="b" unicode="b" horiz-adv-x="1202" 
d="M602 -25q-102 0 -175 32t-118 92l-21 -99h-262l306 1440h262l-109 -510q44 30 99.5 48t129.5 18q92 0 170.5 -34.5t136 -94.5t90 -141.5t32.5 -175.5q0 -104 -37.5 -206.5t-107.5 -184.5t-170 -133t-226 -51zM653 751q-54 0 -101 -20t-83 -55t-59.5 -83t-30.5 -105
q-8 -61 5.5 -110.5t43 -85t72.5 -55t95 -19.5q60 0 110.5 24.5t88 66t58.5 96.5t21 117q0 52 -16.5 94.5t-45.5 72.5t-69.5 46t-88.5 16z" />
    <glyph glyph-name="c" unicode="c" horiz-adv-x="1023" 
d="M812 643q-24 34 -51 55.5t-54 33t-53 15.5t-49 4q-59 0 -109.5 -24t-87 -64.5t-57 -94.5t-20.5 -114q0 -52 16.5 -95t45.5 -74t68 -48t85 -17q60 0 112.5 23t97.5 71l171 -161q-75 -85 -175.5 -130.5t-215.5 -45.5q-107 0 -194 34.5t-149 96t-96 145.5t-34 183
q0 114 41 215t114.5 177t175.5 120.5t224 44.5q146 0 249.5 -58t163.5 -168z" />
    <glyph glyph-name="d" unicode="d" horiz-adv-x="1202" 
d="M600 995q101 0 174 -32t118 -92l122 569h262l-306 -1440h-257l17 79q-49 -47 -112 -76t-150 -29q-88 0 -163 34.5t-129.5 94.5t-85.5 141.5t-31 175.5q0 69 16.5 138.5t49 133.5t79 119t107 96t133 64.5t156.5 23.5zM548 218q54 0 101 20t83 55.5t59.5 83.5t30.5 105
q7 61 -6 110.5t-42.5 85t-72.5 55t-95 19.5q-59 0 -110 -24.5t-88 -66t-58 -97t-21 -117.5q0 -52 16 -94.5t45.5 -72.5t69.5 -46t88 -16z" />
    <glyph glyph-name="e" unicode="e" horiz-adv-x="1072" 
d="M910 111q-79 -70 -175 -103.5t-221 -33.5q-110 0 -195 32t-144 88.5t-89.5 134.5t-30.5 170q0 61 14 129t42.5 134.5t73.5 126.5t106.5 106t141.5 73t179 27q91 0 167 -28t131 -79.5t85 -124.5t30 -163q0 -25 -3 -52.5t-8 -54.5t-12 -51.5t-15 -43.5h-673
q3 -97 61 -149.5t161 -52.5q66 0 125 20t115 65zM597 770q-53 0 -93.5 -16.5t-71.5 -43.5t-52.5 -62t-35.5 -72h429q1 5 1 9v9q0 88 -48 132t-129 44z" />
    <glyph glyph-name="f" unicode="f" horiz-adv-x="818" 
d="M818 737h-284l-157 -737h-262l157 737h-179l49 232h179l31 144q37 171 132 261.5t255 90.5q90 0 160.5 -25t118.5 -66l-132 -195q-35 23 -71 33.5t-66 10.5q-52 0 -89 -35t-53 -112l-23 -107h283z" />
    <glyph glyph-name="g" unicode="g" horiz-adv-x="1194" 
d="M972 54q-24 -113 -71.5 -200t-116 -146t-156 -90t-191.5 -31q-133 0 -244.5 35t-211.5 104l122 206q72 -55 153.5 -85t171.5 -30q59 0 107.5 18t85 49.5t61 75.5t35.5 97l4 20q-45 -32 -101.5 -50.5t-131.5 -18.5q-92 0 -170 32t-135 88.5t-89 134t-32 169.5
q0 105 36.5 206.5t105.5 180.5t168 127.5t224 48.5q104 0 176 -32.5t115 -89.5l21 96h260zM544 248q59 0 109 21.5t86.5 59.5t57 90.5t20.5 115.5q0 48 -16 88t-44.5 69t-68.5 45.5t-87 16.5q-59 0 -109 -21.5t-86 -60t-56.5 -91.5t-20.5 -117q0 -47 16 -86.5t44.5 -68.5
t68 -45t86.5 -16z" />
    <glyph glyph-name="h" unicode="h" horiz-adv-x="1161" 
d="M742 995q76 0 136.5 -24t102.5 -67t64.5 -103t22.5 -131q0 -25 -2.5 -51.5t-8.5 -53.5l-121 -565h-262l117 544q7 31 7 64q0 30 -8 56t-26 45t-47 30t-70 11t-79.5 -12t-71.5 -39.5t-58.5 -71.5t-38.5 -107l-110 -520h-263l306 1440h262l-117 -553q59 61 126.5 84.5
t138.5 23.5z" />
    <glyph glyph-name="i" unicode="i" horiz-adv-x="521" 
d="M289 0h-263l206 969h263zM430 1454q35 0 65.5 -13t53 -35.5t35.5 -53.5t13 -66t-13 -65.5t-35.5 -53t-53 -35t-65.5 -12.5t-65.5 12.5t-53 35t-35 53t-12.5 65.5t12.5 66t35 53.5t53 35.5t65.5 13z" />
    <glyph glyph-name="j" unicode="j" horiz-adv-x="528" 
d="M272 -113q-17 -78 -49.5 -136t-77.5 -96.5t-100.5 -57t-119.5 -18.5q-49 0 -95 10.5t-81 27.5l81 219q17 -8 35 -11t34 -3q39 0 73 26.5t47 86.5l219 1034h264zM435 1454q35 0 65.5 -13t53 -35.5t35.5 -53.5t13 -66t-13 -65.5t-35.5 -53t-53 -35t-65.5 -12.5t-65.5 12.5
t-53 35t-35 53t-12.5 65.5t12.5 66t35 53.5t53 35.5t65.5 13z" />
    <glyph glyph-name="k" unicode="k" horiz-adv-x="1070" 
d="M422 624h78l321 345h329l-467 -477l288 -492h-289l-220 392h-90l-83 -392h-263l306 1440h263z" />
    <glyph glyph-name="l" unicode="l" horiz-adv-x="521" 
d="M289 0h-263l306 1440h263z" />
    <glyph glyph-name="m" unicode="m" horiz-adv-x="1809" 
d="M1379 995q78 0 140.5 -24t106 -67t67 -103t23.5 -131q0 -25 -2.5 -51.5t-8.5 -53.5l-122 -565h-262l117 544q7 31 7 64q0 30 -8 56t-26 45t-47.5 30t-71.5 11q-41 0 -79.5 -12t-71.5 -39.5t-58.5 -71.5t-38.5 -107l-110 -520h-261l116 544q8 39 7 76t-16.5 66t-47.5 46.5
t-86 17.5q-41 0 -79.5 -12t-71.5 -39.5t-58.5 -71.5t-38.5 -107l-110 -520h-262l206 969h252l-22 -98q61 70 133 97t147 27q104 0 177 -43.5t111 -118.5q36 45 77 76t85.5 50t91.5 27.5t95 8.5z" />
    <glyph glyph-name="n" unicode="n" horiz-adv-x="1161" 
d="M742 995q76 0 136.5 -24t102.5 -67t64.5 -103t22.5 -131q0 -25 -2.5 -51.5t-8.5 -53.5l-121 -565h-262l117 544q7 31 7 64q0 30 -8 56t-26 45t-47 30t-71 11q-41 0 -79.5 -12t-71.5 -39.5t-58.5 -71.5t-38.5 -107l-110 -520h-262l206 969h252l-22 -98q61 70 133 97
t147 27z" />
    <glyph glyph-name="o" unicode="o" horiz-adv-x="1171" 
d="M624 995q105 0 193.5 -34t153 -95t101 -146.5t36.5 -188.5q0 -114 -42 -215.5t-117 -177t-178 -120t-224 -44.5q-104 0 -193 33.5t-153.5 95t-101 147t-36.5 189.5q0 114 42 215t117 176.5t178 120t224 44.5zM606 752q-59 0 -109.5 -23.5t-87.5 -63.5t-58 -94.5
t-21 -115.5q0 -53 17 -96.5t48 -75t74 -49t94 -17.5q59 0 110 23.5t88.5 64t58.5 94.5t21 115q0 52 -17 96t-48 75.5t-74.5 49t-95.5 17.5z" />
    <glyph glyph-name="p" unicode="p" horiz-adv-x="1201" 
d="M601 -25q-101 0 -174 31.5t-118 91.5l-105 -498h-263l291 1369h256l-17 -79q48 46 111.5 76t150.5 30q88 0 163 -34.5t129.5 -94.5t85.5 -141.5t31 -175.5q0 -69 -16.5 -138.5t-49 -133.5t-79 -119t-107 -96t-133 -64.5t-156.5 -23.5zM653 751q-54 0 -101 -20t-83 -55
t-59.5 -83t-30.5 -105q-8 -61 5.5 -110.5t43 -85t72.5 -55t95 -19.5q59 0 110 24.5t88 66t58 96.5t21 117q0 52 -16 94.5t-45.5 72.5t-69.5 46t-88 16z" />
    <glyph glyph-name="q" unicode="q" horiz-adv-x="1200" 
d="M600 995q101 0 174 -32t118 -92l22 98h260l-291 -1369h-263l93 437q-43 -29 -98.5 -46t-127.5 -17q-92 0 -170.5 34.5t-135.5 94.5t-89.5 141.5t-32.5 175.5q0 69 16.5 138.5t49 133.5t79 119t107 96t133 64.5t156.5 23.5zM548 218q54 0 101 20t83 55.5t59.5 83.5
t30.5 105q7 61 -6 110.5t-42.5 85t-72.5 55t-95 19.5q-59 0 -110 -24.5t-88 -66t-58 -97t-21 -117.5q0 -52 16 -94.5t45.5 -72.5t69.5 -46t88 -16z" />
    <glyph glyph-name="r" unicode="r" horiz-adv-x="817" 
d="M288 0h-262l206 969h252l-23 -102q61 73 132 100.5t144 27.5q35 0 72.5 -7.5t71.5 -21.5l-84 -251q-29 15 -66.5 23t-74.5 8q-46 0 -87 -14t-75 -42.5t-59 -71.5t-38 -102z" />
    <glyph glyph-name="s" unicode="s" horiz-adv-x="967" 
d="M843 692q-34 21 -74.5 37t-82 26.5t-79.5 16t-68 5.5q-72 0 -111 -20.5t-44 -58.5q-3 -26 5.5 -41.5t26.5 -26t44.5 -17t59.5 -12.5l65 -12q82 -15 140 -42.5t93 -66t48 -87t6 -104.5q-9 -73 -42.5 -131t-90 -98.5t-135 -62.5t-176.5 -22q-58 0 -118.5 8.5t-118 25
t-110.5 41t-95 56.5l125 191q67 -46 149.5 -75.5t171.5 -29.5q86 0 128 23.5t47 66.5q4 37 -27.5 58t-106.5 34l-67 11q-83 13 -141.5 41t-94 67t-48.5 89t-6 109q9 74 42.5 130.5t88 95t128.5 58t164 19.5q123 0 228 -27.5t195 -79.5z" />
    <glyph glyph-name="t" unicode="t" horiz-adv-x="923" 
d="M876 737h-339l-75 -351q-9 -44 -5.5 -75.5t18.5 -52t40 -30.5t57 -10q42 0 84.5 14.5t84.5 40.5l92 -206q-68 -44 -144.5 -68t-164.5 -24q-101 0 -171.5 28.5t-111.5 82t-52 129t9 169.5l75 353h-181l50 232h181l62 288h263l-62 -288h340z" />
    <glyph glyph-name="u" unicode="u" horiz-adv-x="1152" 
d="M1013 401q-25 -119 -75.5 -200t-118.5 -131.5t-150.5 -72.5t-171.5 -22q-87 0 -160 23t-126 67.5t-82.5 110t-29.5 151.5q0 53 14 118l111 524h263l-116 -544q-7 -34 -7 -64q0 -75 43.5 -109t113.5 -34q43 0 81 14t69 42.5t54 71.5t35 101l110 522h264z" />
    <glyph glyph-name="v" unicode="v" horiz-adv-x="1085" 
d="M605 0h-301l-186 969h268l113 -704l390 704h284z" />
    <glyph glyph-name="w" unicode="w" horiz-adv-x="1703" 
d="M1156 295l345 674h283l-527 -969h-290l-76 656l-333 -656h-299l-133 969h262l75 -674l344 674h268z" />
    <glyph glyph-name="x" unicode="x" horiz-adv-x="1085" 
d="M694 475l262 -475h-285l-159 300l-258 -300h-315l449 495l-259 474h288l151 -305l256 305h316z" />
    <glyph glyph-name="y" unicode="y" horiz-adv-x="1120" 
d="M273 -404h-298l451 638l-313 735h282l196 -493l328 493h297z" />
    <glyph glyph-name="z" unicode="z" horiz-adv-x="1007" 
d="M964 770l-560 -537h472l-49 -233h-827l41 199l567 538h-464l50 232h813z" />
    <glyph glyph-name="braceleft" unicode="{" horiz-adv-x="874" 
d="M939 1168h-46q-95 0 -149.5 -42.5t-70.5 -140.5l-16 -94q-11 -68 -31 -121t-52.5 -93.5t-79 -69.5t-109.5 -48q53 -23 85.5 -56.5t47.5 -74t15 -86.5t-13 -95l-25 -94q-12 -47 -7.5 -81t24 -57t52 -34t75.5 -11h65l-50 -232h-86q-106 0 -179 36.5t-113.5 99t-48.5 146.5
t16 180l17 68q23 90 -24.5 138t-150.5 48l49 229q118 0 178 50t77 150l22 128q33 192 151.5 290.5t336.5 98.5h90z" />
    <glyph glyph-name="bar" unicode="|" horiz-adv-x="685" 
d="M313 -265h-260l354 1665h260z" />
    <glyph glyph-name="braceright" unicode="}" horiz-adv-x="874" 
d="M-29 -30h46q95 0 149 42.5t71 140.5l16 94q12 67 32 120.5t52.5 94t78 69.5t108.5 48q-53 22 -85.5 55.5t-47.5 74t-14.5 87t13.5 95.5l25 94q12 46 7.5 80.5t-24 57.5t-52 34t-75.5 11h-65l50 232h86q106 0 179 -36.5t113.5 -99t48.5 -146.5t-16 -180l-17 -68
q-23 -90 24.5 -138t150.5 -48l-49 -229q-118 0 -178 -50t-77 -150l-22 -128q-33 -192 -152 -290.5t-336 -98.5h-90z" />
    <glyph glyph-name="asciitilde" unicode="~" horiz-adv-x="1200" 
d="M1091 508q-74 -63 -151 -95.5t-162 -32.5q-67 0 -113.5 14t-85 30.5t-75.5 30.5t-84 14q-25 0 -47 -5.5t-44 -16t-45 -27t-48 -37.5l-100 173q74 63 151 95.5t162 32.5q67 0 113.5 -14t85 -30.5t75.5 -30.5t84 -14q49 0 91 21.5t93 64.5z" />
    <glyph glyph-name="uni00A0" unicode="&#xa0;" horiz-adv-x="495" 
 />
    <glyph glyph-name="exclamdown" unicode="&#xa1;" horiz-adv-x="538" 
d="M155 489h227l-143 -919h-313zM325 615q-38 0 -72 15t-60 41t-41.5 60.5t-15.5 72.5t15.5 72.5t41.5 61t60 42t72 15.5t72.5 -15.5t61 -42t42 -61t15.5 -72.5t-15.5 -72.5t-42 -60.5t-61 -41t-72.5 -15z" />
    <glyph glyph-name="cent" unicode="&#xa2;" horiz-adv-x="1400" 
d="M1058 861q-23 30 -47.5 49.5t-49.5 32.5l-107 -506q82 22 145 85l163 -158q-69 -78 -161.5 -122t-198.5 -50l-41 -192h-222l47 220q-69 24 -124.5 66t-94.5 98t-59.5 123.5t-20.5 143.5q0 107 37 203t104 170t160.5 121.5t206.5 57.5l42 197h222l-46 -216
q167 -50 255 -199zM548 668q0 -64 24.5 -114t66.5 -82l103 481q-44 -15 -79.5 -43.5t-61 -66t-39.5 -82t-14 -93.5z" />
    <glyph glyph-name="sterling" unicode="&#xa3;" horiz-adv-x="1400" 
d="M1130 0h-1044l54 253h152l72 338h-153l47 218h152l27 127q26 124 78.5 215.5t125.5 152.5t163 91t192 30q126 0 221.5 -41t155.5 -122l-199 -175q-74 80 -201 80q-48 0 -91 -14t-78 -47t-62 -86.5t-43 -131.5l-17 -79h473l-47 -218h-472l-71 -338h619z" />
    <glyph glyph-name="currency" unicode="&#xa4;" horiz-adv-x="1400" 
d="M1356 1082l-173 -143q29 -58 41.5 -125t3.5 -139q-9 -74 -38 -139.5t-74 -119.5l101 -127l-168 -139l-102 128q-59 -30 -124.5 -45.5t-134.5 -11.5q-73 4 -136 27.5t-115 62.5l-179 -149l-122 156l174 144q-30 58 -41.5 124.5t-3.5 138.5q9 73 37.5 138t73.5 119
l-102 129l168 140l103 -131q60 31 125.5 46.5t135.5 11.5q71 -4 134 -27t114 -61l179 147zM713 428q57 -3 109.5 15t94 53t69 84t34.5 106t-8 107.5t-47.5 89t-79.5 62t-104 26.5q-58 3 -110.5 -15.5t-94 -53t-69 -83t-34.5 -105.5t8 -108t47 -89.5t79.5 -62t105.5 -26.5z
" />
    <glyph glyph-name="yen" unicode="&#xa5;" horiz-adv-x="1400" 
d="M1151 269h-357l-57 -269h-270l57 269h-355l40 185h355l29 135h-357l41 185h273l-284 626h297l211 -508l424 508h324l-543 -626h280l-41 -185h-355l-29 -135h356z" />
    <glyph glyph-name="brokenbar" unicode="&#xa6;" horiz-adv-x="685" 
d="M519 706h-260l148 694h260zM313 -265h-260l148 694h260z" />
    <glyph glyph-name="section" unicode="&#xa7;" horiz-adv-x="1231" 
d="M1122 1091q-63 38 -146.5 67t-188.5 29q-49 0 -92.5 -9t-76.5 -25t-54.5 -38.5t-26.5 -49.5q-8 -40 5.5 -66.5t42.5 -44t70.5 -28t90.5 -17.5l64 -10q193 -30 278 -124t54 -240q-18 -82 -64.5 -138.5t-112.5 -94.5q45 -49 62 -113t1 -141q-19 -94 -72 -163t-128 -114.5
t-166 -67.5t-185 -22q-71 0 -142 10.5t-136 30.5t-121 50t-96 69l162 198q28 -23 65 -45t81.5 -39t95.5 -27t107 -10q49 0 93.5 8.5t79.5 24.5t57.5 39.5t28.5 53.5q7 37 -5 61.5t-41 41.5t-74.5 28t-103.5 21l-74 12q-82 14 -146 43.5t-105 73t-57 100.5t-1 126
q17 81 63.5 140.5t118.5 101.5q-48 49 -65 116t0 154q16 82 63.5 149t118 114.5t160.5 73t192 25.5q140 0 262.5 -35t214.5 -96zM534 692q-47 -19 -78.5 -49.5t-39.5 -71.5q-8 -36 6 -59t44.5 -38t74 -24.5t94.5 -16.5l64 -9q18 -3 35.5 -6t34.5 -8q42 18 70 46t36 63
q8 37 -4.5 63.5t-42.5 44.5t-76.5 29.5t-106.5 19.5l-73 10z" />
    <glyph glyph-name="dieresis" unicode="&#xa8;" horiz-adv-x="1070" 
d="M485 1424q35 0 66 -13t53.5 -35.5t35.5 -53.5t13 -66t-13 -65.5t-35.5 -53t-53.5 -35t-66 -12.5t-65.5 12.5t-53 35t-35 53t-12.5 65.5t12.5 66t35 53.5t53 35.5t65.5 13zM916 1424q35 0 66 -13t53.5 -35.5t35.5 -53.5t13 -66t-13 -65.5t-35.5 -53t-53.5 -35t-66 -12.5
t-65.5 12.5t-53 35t-35 53t-12.5 65.5t12.5 66t35 53.5t53 35.5t65.5 13z" />
    <glyph glyph-name="copyright" unicode="&#xa9;" horiz-adv-x="1859" 
d="M923 -95q-159 0 -299.5 56.5t-246 157t-167 238t-61.5 299.5q0 113 31 221t88.5 203t137.5 175t178.5 138t212 90t236.5 32q106 0 204.5 -25.5t184 -73t156.5 -115t121.5 -151t78.5 -181t28 -205.5q0 -113 -31 -221t-88 -203t-137.5 -175t-178.5 -138t-211.5 -90
t-236.5 -32zM1018 1296q-90 0 -172 -23.5t-152.5 -66t-128.5 -101t-98.5 -128t-63 -147.5t-22.5 -160q0 -119 44.5 -219.5t120.5 -173t177.5 -113t214.5 -40.5q90 0 172 23.5t152.5 66t128.5 101t98.5 128t63 147.5t22.5 160q0 119 -44.5 219.5t-120.5 173t-177.5 113
t-214.5 40.5zM1188 811q-26 54 -71.5 82.5t-109.5 28.5q-48 0 -87.5 -19t-67.5 -51t-43 -74.5t-15 -90.5q0 -46 14.5 -81t40 -58.5t58.5 -35.5t71 -12q53 0 99.5 25t83.5 74l161 -121q-61 -86 -149.5 -135t-206.5 -49q-80 0 -152.5 25t-127.5 73.5t-87.5 119t-32.5 162.5
t32.5 174.5t92 144.5t142 98t183.5 36q64 0 122 -15t106.5 -43.5t85.5 -69t59 -92.5z" />
    <glyph glyph-name="ordfeminine" unicode="&#xaa;" horiz-adv-x="762" 
d="M501 1287q68 0 123 -17t93.5 -49t59 -78.5t20.5 -104.5q0 -37 -9 -79l-81 -381h-187l10 50q-35 -29 -81.5 -48.5t-103.5 -19.5q-51 0 -92.5 14.5t-71.5 40t-46 61.5t-16 78q0 54 21 98.5t60 76t95.5 49t127.5 17.5h178q1 5 1 10v10q0 48 -32.5 75t-103.5 27
q-57 0 -102 -17t-84 -38l-51 156q65 36 129 52.5t143 16.5zM407 715q40 0 80 18.5t72 48.5l17 79h-135q-56 0 -86.5 -22t-30.5 -59q0 -29 21 -47t62 -18z" />
    <glyph glyph-name="guillemotleft" unicode="&#xab;" horiz-adv-x="1087" 
d="M793 505l102 -363h-249l-109 390l276 390h275zM344 505l102 -363h-249l-109 390l276 390h275z" />
    <glyph glyph-name="logicalnot" unicode="&#xac;" horiz-adv-x="1200" 
d="M736 108l66 313h-693l47 223h921l-113 -536h-228z" />
    <glyph glyph-name="uni00AD" unicode="&#xad;" horiz-adv-x="794" 
d="M673 418h-581l48 228h581z" />
    <glyph glyph-name="registered" unicode="&#xae;" horiz-adv-x="1051" 
d="M662 1443q88 0 167.5 -31t139.5 -87t95 -134t35 -172q0 -95 -38.5 -182.5t-105 -155t-157 -107.5t-194.5 -40q-89 0 -168.5 31t-139.5 87t-95 134t-35 172q0 96 38 183.5t105 154.5t157.5 107t195.5 40zM611 668q71 0 133 28.5t107.5 76.5t72 110t26.5 128
q0 65 -23.5 120t-64 94.5t-94 61.5t-113.5 22q-73 0 -135.5 -28.5t-108.5 -76.5t-72 -109.5t-26 -127.5t24 -120.5t65 -94.5t95 -62t114 -22zM693 1195q41 0 71.5 -12.5t50 -33.5t27 -47.5t1.5 -54.5q-11 -51 -48.5 -79.5t-100.5 -36.5l108 -143h-131l-93 141h-7l-30 -141
h-116l86 407h182zM605 1094l-15 -71h75q25 0 40.5 7.5t19.5 25.5q5 18 -7.5 28t-37.5 10h-75z" />
    <glyph glyph-name="macron" unicode="&#xaf;" horiz-adv-x="1054" 
d="M387 1360h661l-45 -209h-661z" />
    <glyph glyph-name="degree" unicode="&#xb0;" horiz-adv-x="852" 
d="M517 654q-78 0 -144.5 28.5t-115 77t-76.5 113t-28 137.5q0 84 31.5 159.5t87 131.5t132.5 89t167 33q77 0 143.5 -28.5t115 -77.5t76.5 -114.5t28 -138.5q0 -83 -32.5 -157.5t-88.5 -130.5t-132 -89t-164 -33zM530 857q36 0 69.5 15t60 41t42.5 61t16 75q0 34 -13 64.5
t-34.5 53.5t-51 36t-62.5 13q-36 0 -70 -15t-60 -40.5t-42 -60.5t-16 -75q0 -35 12.5 -66t34 -53.5t51 -35.5t63.5 -13z" />
    <glyph glyph-name="plusminus" unicode="&#xb1;" horiz-adv-x="1200" 
d="M452 317l55 259h-345l46 223h347l69 322h227l-69 -322h347l-47 -223h-347l-55 -259h-228zM959 0h-920l47 223h921z" />
    <glyph glyph-name="twosuperior" unicode="&#xb2;" horiz-adv-x="727" 
d="M222 1283q22 24 50 47.5t64 42t80 30t98 11.5q70 0 122 -20.5t86 -54.5t50.5 -77.5t16.5 -88.5q0 -41 -9.5 -76t-31.5 -69.5t-58.5 -71t-89.5 -79.5l-148 -119h282l-38 -180h-566l33 156l315 256q31 25 52 46t33.5 39.5t18 35t5.5 33.5q0 35 -27 59.5t-76 24.5
q-51 0 -85 -21.5t-69 -54.5z" />
    <glyph glyph-name="threesuperior" unicode="&#xb3;" horiz-adv-x="719" 
d="M215 1306q54 50 124 79t169 29q65 0 116.5 -17.5t87.5 -46.5t55.5 -68t19.5 -82q0 -35 -11.5 -67.5t-32.5 -61t-51 -51.5t-67 -38q49 -24 74.5 -64.5t25.5 -89.5q0 -54 -22.5 -102.5t-65.5 -84.5t-105.5 -57t-142.5 -21q-102 0 -174 31.5t-112 88.5l127 121
q28 -34 70 -51t92 -17q69 0 101.5 27.5t32.5 69.5q0 38 -34 57.5t-87 19.5h-90l34 166h89q70 0 107.5 27.5t37.5 67.5q0 33 -29 52t-77 19q-52 0 -96.5 -22.5t-76.5 -51.5z" />
    <glyph glyph-name="acute" unicode="&#xb4;" horiz-adv-x="1000" 
d="M403 1107l232 316h319l-296 -316h-255z" />
    <glyph glyph-name="mu" unicode="&#xb5;" horiz-adv-x="1161" 
d="M-68 -400l293 1369h262l-117 -544q-7 -31 -7 -64q0 -30 8 -56t26 -45t47 -30t71 -11q41 0 79.5 12t71.5 39.5t58 71.5t39 107l110 520h262l-206 -969h-252l22 98q-61 -70 -133 -97t-147 -27q-81 0 -146 28l-85 -402h-256z" />
    <glyph glyph-name="paragraph" unicode="&#xb6;" horiz-adv-x="1287" 
d="M591 596q-95 4 -167 33t-120.5 77.5t-73 113.5t-24.5 141q0 47 10 97.5t33.5 99.5t61.5 93t95 77t134.5 52.5t178.5 19.5h245l-298 -1400h-202zM1067 1400h202l-298 -1400h-202z" />
    <glyph glyph-name="periodcentered" unicode="&#xb7;" horiz-adv-x="637" 
d="M335 726q39 0 74 -15.5t61.5 -42t42 -61.5t15.5 -74t-15.5 -74.5t-42 -62.5t-61.5 -42.5t-74 -15.5t-74.5 15.5t-62 42.5t-42.5 62.5t-16 74.5t16 74t42.5 61.5t62 42t74.5 15.5z" />
    <glyph glyph-name="cedilla" unicode="&#xb8;" horiz-adv-x="1000" 
d="M416 -321h-265l181 328h246z" />
    <glyph glyph-name="onesuperior" unicode="&#xb9;" horiz-adv-x="530" 
d="M435 578h-195l121 570l-191 -59l42 200l400 124z" />
    <glyph glyph-name="ordmasculine" unicode="&#xba;" horiz-adv-x="855" 
d="M548 1287q74 0 137.5 -24t110 -67.5t72.5 -104.5t26 -135q0 -81 -30 -153t-83.5 -126t-126.5 -85.5t-160 -31.5q-74 0 -137 23.5t-109.5 67t-73 105t-26.5 136.5q0 81 30 152.5t83.5 125.5t126.5 85.5t160 31.5zM534 1106q-40 0 -74 -16t-59 -43.5t-39.5 -64.5t-14.5 -79
q0 -36 11.5 -65.5t32.5 -51.5t50 -34t64 -12q40 0 75 16t61 43.5t40.5 65t14.5 79.5q0 36 -12 66t-33.5 51t-51 33t-65.5 12z" />
    <glyph glyph-name="guillemotright" unicode="&#xbb;" horiz-adv-x="1087" 
d="M314 560l-102 363h249l109 -390l-276 -390h-275zM763 560l-102 363h249l109 -390l-276 -390h-275z" />
    <glyph glyph-name="onequarter" unicode="&#xbc;" horiz-adv-x="1654" 
d="M406 0h-253l1055 1400h253zM1485 320h104l-38 -181h-105l-29 -139h-195l29 139h-357l33 155l355 527h222l-337 -501h123l19 91l83 124h139zM435 578h-195l121 570l-191 -59l42 200l400 124z" />
    <glyph glyph-name="onehalf" unicode="&#xbd;" horiz-adv-x="1763" 
d="M406 0h-253l1055 1400h253zM1134 705q22 24 50 47.5t64 42t80 30t98 11.5q70 0 122 -20.5t86 -54.5t50.5 -77.5t16.5 -88.5q0 -41 -9.5 -76t-31.5 -69.5t-58.5 -71t-89.5 -79.5l-148 -119h282l-38 -180h-566l33 156l315 256q31 25 52 46t33.5 39.5t18 35t5.5 33.5
q0 35 -27 59.5t-76 24.5q-51 0 -85 -21.5t-69 -54.5zM435 578h-195l121 570l-191 -59l42 200l400 124z" />
    <glyph glyph-name="threequarters" unicode="&#xbe;" horiz-adv-x="1820" 
d="M572 0h-253l1055 1400h253zM1651 320h104l-38 -181h-105l-29 -139h-195l29 139h-357l33 155l355 527h222l-337 -501h123l19 91l83 124h139zM215 1306q54 50 124 79t169 29q65 0 116.5 -17.5t87.5 -46.5t55.5 -68t19.5 -82q0 -35 -11.5 -67.5t-32.5 -61t-51 -51.5t-67 -38
q49 -24 74.5 -64.5t25.5 -89.5q0 -54 -22.5 -102.5t-65.5 -84.5t-105.5 -57t-142.5 -21q-102 0 -174 31.5t-112 88.5l127 121q28 -34 70 -51t92 -17q69 0 101.5 27.5t32.5 69.5q0 38 -34 57.5t-87 19.5h-90l34 166h89q70 0 107.5 27.5t37.5 67.5q0 33 -29 52t-77 19
q-52 0 -96.5 -22.5t-76.5 -51.5z" />
    <glyph glyph-name="questiondown" unicode="&#xbf;" horiz-adv-x="865" 
d="M698 492l-72 -340h-109q-149 0 -217 -49t-68 -130q0 -40 21.5 -70.5t59.5 -50.5t91.5 -30.5t118.5 -10.5q23 0 52 0.5t47 2.5l-16 -263q-26 -2 -57 -3.5t-63 -1.5q-122 0 -222.5 26.5t-172.5 77t-111.5 123.5t-39.5 166q0 91 30.5 167t91.5 133.5t152 94t212 47.5l32 111
h240zM628 614q-38 0 -72 15t-60 41t-41.5 60.5t-15.5 72.5q0 39 15.5 73.5t41.5 61t60 42t72 15.5t72.5 -15.5t61 -42t42 -61t15.5 -72.5q0 -39 -15.5 -73.5t-42 -60.5t-61 -41t-72.5 -15z" />
    <glyph glyph-name="Agrave" unicode="&#xc0;" horiz-adv-x="1465" 
d="M1335 0h-285l-51 326h-583l-188 -326h-304l831 1400h339zM564 583h395l-84 538zM588 1833h312l201 -315h-249z" />
    <glyph glyph-name="Aacute" unicode="&#xc1;" horiz-adv-x="1465" 
d="M1335 0h-285l-51 326h-583l-188 -326h-304l831 1400h339zM564 583h395l-84 538zM753 1517l232 316h319l-296 -316h-255z" />
    <glyph glyph-name="Acircumflex" unicode="&#xc2;" horiz-adv-x="1465" 
d="M1335 0h-285l-51 326h-583l-188 -326h-304l831 1400h339zM564 583h395l-84 538zM1049 1508l-87 155l-148 -155h-264l277 315h315l153 -315h-246z" />
    <glyph glyph-name="Atilde" unicode="&#xc3;" horiz-adv-x="1465" 
d="M1335 0h-285l-51 326h-583l-188 -326h-304l831 1400h339zM564 583h395l-84 538zM545 1685q64 71 129 98.5t140 27.5q55 0 93.5 -11t67 -24t51 -24t45.5 -11q35 0 66 19.5t69 51.5l128 -158q-63 -71 -128.5 -99t-140.5 -28q-55 0 -93 11t-66.5 24t-50.5 24t-46 11
q-35 0 -66.5 -19t-68.5 -51z" />
    <glyph glyph-name="Adieresis" unicode="&#xc4;" horiz-adv-x="1465" 
d="M1335 0h-285l-51 326h-583l-188 -326h-304l831 1400h339zM564 583h395l-84 538zM745 1834q35 0 66 -13t53.5 -35.5t35.5 -53.5t13 -66t-13 -65.5t-35.5 -53t-53.5 -35t-66 -12.5t-65.5 12.5t-53 35t-35 53t-12.5 65.5t12.5 66t35 53.5t53 35.5t65.5 13zM1176 1834
q35 0 66 -13t53.5 -35.5t35.5 -53.5t13 -66t-13 -65.5t-35.5 -53t-53.5 -35t-66 -12.5t-65.5 12.5t-53 35t-35 53t-12.5 65.5t12.5 66t35 53.5t53 35.5t65.5 13z" />
    <glyph glyph-name="Aring" unicode="&#xc5;" horiz-adv-x="1465" 
d="M1335 0h-285l-51 326h-583l-188 -326h-304l831 1400h339zM564 583h395l-84 538zM953 1486q-54 0 -101.5 20t-83 55t-56 82t-20.5 101q0 53 20.5 99.5t56 81.5t83 55.5t101.5 20.5t102 -20.5t84 -55.5t56.5 -81.5t20.5 -99.5q0 -54 -20.5 -101t-56.5 -82t-84 -55t-102 -20
zM953 1635q22 0 41.5 8.5t34 23t23 34.5t8.5 43q0 22 -8.5 42t-23 34.5t-34 23t-41.5 8.5q-21 0 -40 -8.5t-33.5 -23t-23 -34.5t-8.5 -42q0 -23 8.5 -43t23 -34.5t33.5 -23t40 -8.5z" />
    <glyph glyph-name="AE" unicode="&#xc6;" horiz-adv-x="2301" 
d="M2084 0h-1028l62 294h-572l-269 -294h-358l1307 1400h1146l-55 -256h-733l-66 -310h706l-55 -256h-705l-69 -322h744zM1173 551l119 559l-511 -559h392z" />
    <glyph glyph-name="Ccedilla" unicode="&#xc7;" horiz-adv-x="1451" 
d="M1354 224q-106 -119 -241 -184t-304 -65q-148 0 -272.5 48.5t-214.5 136t-140.5 209t-50.5 267.5q0 170 59.5 314.5t164.5 250t248 165t310 59.5q39 0 86.5 -4t99 -15.5t105 -33t105 -55.5t98.5 -82.5t86 -115.5l-232 -154q-58 95 -150 144t-214 49q-97 0 -183.5 -38
t-151 -105t-102 -159t-37.5 -199q0 -95 31 -171.5t85 -130.5t126.5 -83t155.5 -29q99 0 184 41t153 116zM751 -321h-282l180 328h263z" />
    <glyph glyph-name="Egrave" unicode="&#xc8;" horiz-adv-x="1294" 
d="M1162 578h-705l-69 -322h744l-55 -256h-1028l298 1400h1018l-55 -256h-733l-66 -310h706zM514 1833h312l201 -315h-249z" />
    <glyph glyph-name="Eacute" unicode="&#xc9;" horiz-adv-x="1294" 
d="M1162 578h-705l-69 -322h744l-55 -256h-1028l298 1400h1018l-55 -256h-733l-66 -310h706zM679 1517l232 316h319l-296 -316h-255z" />
    <glyph glyph-name="Ecircumflex" unicode="&#xca;" horiz-adv-x="1294" 
d="M1162 578h-705l-69 -322h744l-55 -256h-1028l298 1400h1018l-55 -256h-733l-66 -310h706zM975 1508l-87 155l-148 -155h-264l277 315h315l153 -315h-246z" />
    <glyph glyph-name="Edieresis" unicode="&#xcb;" horiz-adv-x="1294" 
d="M1162 578h-705l-69 -322h744l-55 -256h-1028l298 1400h1018l-55 -256h-733l-66 -310h706zM671 1834q35 0 66 -13t53.5 -35.5t35.5 -53.5t13 -66t-13 -65.5t-35.5 -53t-53.5 -35t-66 -12.5t-65.5 12.5t-53 35t-35 53t-12.5 65.5t12.5 66t35 53.5t53 35.5t65.5 13z
M1102 1834q35 0 66 -13t53.5 -35.5t35.5 -53.5t13 -66t-13 -65.5t-35.5 -53t-53.5 -35t-66 -12.5t-65.5 12.5t-53 35t-35 53t-12.5 65.5t12.5 66t35 53.5t53 35.5t65.5 13z" />
    <glyph glyph-name="Igrave" unicode="&#xcc;" horiz-adv-x="589" 
d="M334 0h-285l298 1400h285zM152 1833h312l201 -315h-249z" />
    <glyph glyph-name="Iacute" unicode="&#xcd;" horiz-adv-x="589" 
d="M334 0h-285l298 1400h285zM317 1517l232 316h319l-296 -316h-255z" />
    <glyph glyph-name="Icircumflex" unicode="&#xce;" horiz-adv-x="589" 
d="M334 0h-285l298 1400h285zM613 1508l-87 155l-148 -155h-264l277 315h315l153 -315h-246z" />
    <glyph glyph-name="Idieresis" unicode="&#xcf;" horiz-adv-x="589" 
d="M334 0h-285l298 1400h285zM309 1834q35 0 66 -13t53.5 -35.5t35.5 -53.5t13 -66t-13 -65.5t-35.5 -53t-53.5 -35t-66 -12.5t-65.5 12.5t-53 35t-35 53t-12.5 65.5t12.5 66t35 53.5t53 35.5t65.5 13zM740 1834q35 0 66 -13t53.5 -35.5t35.5 -53.5t13 -66t-13 -65.5
t-35.5 -53t-53.5 -35t-66 -12.5t-65.5 12.5t-53 35t-35 53t-12.5 65.5t12.5 66t35 53.5t53 35.5t65.5 13z" />
    <glyph glyph-name="Eth" unicode="&#xd0;" horiz-adv-x="1635" 
d="M958 1400q150 0 270 -44t203.5 -122.5t128 -187t44.5 -236.5q0 -168 -57.5 -315.5t-167.5 -257.5t-270 -173.5t-365 -63.5h-579l123 581h-176l53 250h177l121 569h495zM895 581h-322l-68 -320h272q125 0 224 39t167.5 108t104.5 163.5t36 205.5q0 80 -23 146.5t-70 114.5
t-119 74.5t-171 26.5h-234l-65 -308h322z" />
    <glyph glyph-name="Ntilde" unicode="&#xd1;" horiz-adv-x="1545" 
d="M1290 0h-262l-490 964l-205 -964h-284l298 1400h263l489 -964l205 964h284zM575 1685q64 71 129 98.5t140 27.5q55 0 93.5 -11t67 -24t51 -24t45.5 -11q35 0 66 19.5t69 51.5l128 -158q-63 -71 -128.5 -99t-140.5 -28q-55 0 -93 11t-66.5 24t-50.5 24t-46 11
q-35 0 -66.5 -19t-68.5 -51z" />
    <glyph glyph-name="Ograve" unicode="&#xd2;" horiz-adv-x="1632" 
d="M915 1425q146 0 270.5 -47t215.5 -132.5t142.5 -206t51.5 -268.5q0 -109 -26 -210t-75 -189.5t-119 -161.5t-157.5 -125.5t-190.5 -81.5t-218 -29q-146 0 -270.5 47t-215.5 132.5t-142.5 206.5t-51.5 269q0 108 26 209t75 189.5t119 161.5t157.5 125.5t190.5 81.5t218 29
zM897 1158q-106 0 -193.5 -41.5t-150.5 -111.5t-97.5 -162.5t-34.5 -194.5q0 -93 30 -168t84 -128t128.5 -81.5t164.5 -28.5q105 0 192.5 41t150 111t97.5 162.5t35 195.5q0 92 -30 167t-84 128t-128.5 82t-163.5 29zM602 1833h312l201 -315h-249z" />
    <glyph glyph-name="Oacute" unicode="&#xd3;" horiz-adv-x="1632" 
d="M915 1425q146 0 270.5 -47t215.5 -132.5t142.5 -206t51.5 -268.5q0 -109 -26 -210t-75 -189.5t-119 -161.5t-157.5 -125.5t-190.5 -81.5t-218 -29q-146 0 -270.5 47t-215.5 132.5t-142.5 206.5t-51.5 269q0 108 26 209t75 189.5t119 161.5t157.5 125.5t190.5 81.5t218 29
zM897 1158q-106 0 -193.5 -41.5t-150.5 -111.5t-97.5 -162.5t-34.5 -194.5q0 -93 30 -168t84 -128t128.5 -81.5t164.5 -28.5q105 0 192.5 41t150 111t97.5 162.5t35 195.5q0 92 -30 167t-84 128t-128.5 82t-163.5 29zM767 1517l232 316h319l-296 -316h-255z" />
    <glyph glyph-name="Ocircumflex" unicode="&#xd4;" horiz-adv-x="1632" 
d="M915 1425q146 0 270.5 -47t215.5 -132.5t142.5 -206t51.5 -268.5q0 -109 -26 -210t-75 -189.5t-119 -161.5t-157.5 -125.5t-190.5 -81.5t-218 -29q-146 0 -270.5 47t-215.5 132.5t-142.5 206.5t-51.5 269q0 108 26 209t75 189.5t119 161.5t157.5 125.5t190.5 81.5t218 29
zM897 1158q-106 0 -193.5 -41.5t-150.5 -111.5t-97.5 -162.5t-34.5 -194.5q0 -93 30 -168t84 -128t128.5 -81.5t164.5 -28.5q105 0 192.5 41t150 111t97.5 162.5t35 195.5q0 92 -30 167t-84 128t-128.5 82t-163.5 29zM1063 1508l-87 155l-148 -155h-264l277 315h315
l153 -315h-246z" />
    <glyph glyph-name="Otilde" unicode="&#xd5;" horiz-adv-x="1632" 
d="M915 1425q146 0 270.5 -47t215.5 -132.5t142.5 -206t51.5 -268.5q0 -109 -26 -210t-75 -189.5t-119 -161.5t-157.5 -125.5t-190.5 -81.5t-218 -29q-146 0 -270.5 47t-215.5 132.5t-142.5 206.5t-51.5 269q0 108 26 209t75 189.5t119 161.5t157.5 125.5t190.5 81.5t218 29
zM897 1158q-106 0 -193.5 -41.5t-150.5 -111.5t-97.5 -162.5t-34.5 -194.5q0 -93 30 -168t84 -128t128.5 -81.5t164.5 -28.5q105 0 192.5 41t150 111t97.5 162.5t35 195.5q0 92 -30 167t-84 128t-128.5 82t-163.5 29zM559 1685q64 71 129 98.5t140 27.5q55 0 93.5 -11
t67 -24t51 -24t45.5 -11q35 0 66 19.5t69 51.5l128 -158q-63 -71 -128.5 -99t-140.5 -28q-55 0 -93 11t-66.5 24t-50.5 24t-46 11q-35 0 -66.5 -19t-68.5 -51z" />
    <glyph glyph-name="Odieresis" unicode="&#xd6;" horiz-adv-x="1632" 
d="M915 1425q146 0 270.5 -47t215.5 -132.5t142.5 -206t51.5 -268.5q0 -109 -26 -210t-75 -189.5t-119 -161.5t-157.5 -125.5t-190.5 -81.5t-218 -29q-146 0 -270.5 47t-215.5 132.5t-142.5 206.5t-51.5 269q0 108 26 209t75 189.5t119 161.5t157.5 125.5t190.5 81.5t218 29
zM897 1158q-106 0 -193.5 -41.5t-150.5 -111.5t-97.5 -162.5t-34.5 -194.5q0 -93 30 -168t84 -128t128.5 -81.5t164.5 -28.5q105 0 192.5 41t150 111t97.5 162.5t35 195.5q0 92 -30 167t-84 128t-128.5 82t-163.5 29zM759 1834q35 0 66 -13t53.5 -35.5t35.5 -53.5t13 -66
t-13 -65.5t-35.5 -53t-53.5 -35t-66 -12.5t-65.5 12.5t-53 35t-35 53t-12.5 65.5t12.5 66t35 53.5t53 35.5t65.5 13zM1190 1834q35 0 66 -13t53.5 -35.5t35.5 -53.5t13 -66t-13 -65.5t-35.5 -53t-53.5 -35t-66 -12.5t-65.5 12.5t-53 35t-35 53t-12.5 65.5t12.5 66t35 53.5
t53 35.5t65.5 13z" />
    <glyph glyph-name="multiply" unicode="&#xd7;" horiz-adv-x="1200" 
d="M801 107l-210 266l-352 -292l-137 172l338 279l-219 279l178 147l210 -266l352 291l137 -172l-338 -278l219 -279z" />
    <glyph glyph-name="Oslash" unicode="&#xd8;" horiz-adv-x="1632" 
d="M915 1425q131 0 243.5 -37t200.5 -106l165 147l152 -172l-167 -148q42 -72 64 -156.5t22 -181.5q0 -109 -26 -210t-75 -189.5t-119 -161.5t-157.5 -125.5t-190.5 -81.5t-218 -29q-125 0 -233 34t-195 97l-150 -134l-152 171l146 130q-46 75 -71 164.5t-25 192.5
q0 108 26 209t75 189.5t119 161.5t157.5 125.5t190.5 81.5t218 29zM897 1158q-106 0 -193.5 -41.5t-150.5 -111.5t-97.5 -162.5t-34.5 -194.5q0 -95 32 -173l687 612q-50 35 -111 53t-132 18zM1303 752q0 81 -25 151l-677 -602q48 -29 104.5 -44t122.5 -15q105 0 192.5 41
t150 111t97.5 162.5t35 195.5z" />
    <glyph glyph-name="Ugrave" unicode="&#xd9;" horiz-adv-x="1455" 
d="M1331 539q-31 -146 -89.5 -252.5t-142 -175.5t-191.5 -102.5t-237 -33.5q-116 0 -213.5 28.5t-168.5 84.5t-110.5 140.5t-39.5 196.5q0 68 17 151l176 824h286l-177 -827q-12 -57 -12 -102q0 -60 18.5 -103.5t53 -71t83 -41t108.5 -13.5q65 0 122.5 18t104 57.5t81 101
t52.5 148.5l176 833h285zM586 1833h312l201 -315h-249z" />
    <glyph glyph-name="Uacute" unicode="&#xda;" horiz-adv-x="1455" 
d="M1331 539q-31 -146 -89.5 -252.5t-142 -175.5t-191.5 -102.5t-237 -33.5q-116 0 -213.5 28.5t-168.5 84.5t-110.5 140.5t-39.5 196.5q0 68 17 151l176 824h286l-177 -827q-12 -57 -12 -102q0 -60 18.5 -103.5t53 -71t83 -41t108.5 -13.5q65 0 122.5 18t104 57.5t81 101
t52.5 148.5l176 833h285zM751 1517l232 316h319l-296 -316h-255z" />
    <glyph glyph-name="Ucircumflex" unicode="&#xdb;" horiz-adv-x="1455" 
d="M1331 539q-31 -146 -89.5 -252.5t-142 -175.5t-191.5 -102.5t-237 -33.5q-116 0 -213.5 28.5t-168.5 84.5t-110.5 140.5t-39.5 196.5q0 68 17 151l176 824h286l-177 -827q-12 -57 -12 -102q0 -60 18.5 -103.5t53 -71t83 -41t108.5 -13.5q65 0 122.5 18t104 57.5t81 101
t52.5 148.5l176 833h285zM1047 1508l-87 155l-148 -155h-264l277 315h315l153 -315h-246z" />
    <glyph glyph-name="Udieresis" unicode="&#xdc;" horiz-adv-x="1455" 
d="M1331 539q-31 -146 -89.5 -252.5t-142 -175.5t-191.5 -102.5t-237 -33.5q-116 0 -213.5 28.5t-168.5 84.5t-110.5 140.5t-39.5 196.5q0 68 17 151l176 824h286l-177 -827q-12 -57 -12 -102q0 -60 18.5 -103.5t53 -71t83 -41t108.5 -13.5q65 0 122.5 18t104 57.5t81 101
t52.5 148.5l176 833h285zM743 1834q35 0 66 -13t53.5 -35.5t35.5 -53.5t13 -66t-13 -65.5t-35.5 -53t-53.5 -35t-66 -12.5t-65.5 12.5t-53 35t-35 53t-12.5 65.5t12.5 66t35 53.5t53 35.5t65.5 13zM1174 1834q35 0 66 -13t53.5 -35.5t35.5 -53.5t13 -66t-13 -65.5t-35.5 -53
t-53.5 -35t-66 -12.5t-65.5 12.5t-53 35t-35 53t-12.5 65.5t12.5 66t35 53.5t53 35.5t65.5 13z" />
    <glyph glyph-name="Yacute" unicode="&#xdd;" horiz-adv-x="1347" 
d="M832 552l-118 -552h-285l122 576l-348 824h298l230 -584l463 584h340zM676 1517l232 316h319l-296 -316h-255z" />
    <glyph glyph-name="Thorn" unicode="&#xde;" horiz-adv-x="1294" 
d="M581 1160h231q113 0 199.5 -29.5t145 -82t88.5 -124t30 -154.5q0 -113 -39 -204.5t-113.5 -157t-183 -101t-246.5 -35.5h-301l-58 -272h-285l298 1400h285zM526 902l-80 -375h261q137 0 208.5 55.5t71.5 158.5q0 76 -52 118.5t-157 42.5h-252z" />
    <glyph glyph-name="germandbls" unicode="&#xdf;" horiz-adv-x="1205" 
d="M231 993q24 111 67 198.5t109.5 148.5t158 93t211.5 32q105 0 187 -29t138.5 -79t86 -116.5t29.5 -141.5q0 -64 -20.5 -124t-57.5 -110t-89.5 -88.5t-115.5 -59.5q49 -16 88 -51.5t64 -84t34 -106t-3 -116.5q-22 -107 -69 -180.5t-113 -118.5t-149 -65t-177 -20
q-67 0 -121.5 9.5t-94.5 26.5l74 218q27 -12 62.5 -19t71.5 -7q47 0 89.5 9t76 30.5t57.5 57t33 89.5q8 48 -2.5 87.5t-39.5 68t-75.5 44t-109.5 15.5h-42l49 225h10q72 0 124 13.5t92 43.5q21 15 36.5 36.5t26.5 45t16.5 47.5t5.5 46q0 37 -15 67t-40.5 51.5t-59 33.5
t-71.5 12q-107 0 -175.5 -59t-96.5 -191l-207 -975h-263z" />
    <glyph glyph-name="agrave" unicode="&#xe0;" horiz-adv-x="1199" 
d="M600 995q101 0 174 -32t118 -92l22 98h259l-206 -969h-254l17 80q-48 -48 -111.5 -77t-150.5 -29q-88 0 -163 34.5t-129.5 94.5t-85.5 141.5t-31 175.5q0 69 16.5 138.5t49 133.5t79 119t107 96t133 64.5t156.5 23.5zM548 218q54 0 101 20t83 55.5t59.5 83.5t30.5 105
q7 61 -6 110.5t-42.5 85t-72.5 55t-95 19.5q-59 0 -110 -24.5t-88 -66t-58 -97t-21 -117.5q0 -52 16 -94.5t45.5 -72.5t69.5 -46t88 -16zM344 1423h312l201 -315h-249z" />
    <glyph glyph-name="aacute" unicode="&#xe1;" horiz-adv-x="1199" 
d="M600 995q101 0 174 -32t118 -92l22 98h259l-206 -969h-254l17 80q-48 -48 -111.5 -77t-150.5 -29q-88 0 -163 34.5t-129.5 94.5t-85.5 141.5t-31 175.5q0 69 16.5 138.5t49 133.5t79 119t107 96t133 64.5t156.5 23.5zM548 218q54 0 101 20t83 55.5t59.5 83.5t30.5 105
q7 61 -6 110.5t-42.5 85t-72.5 55t-95 19.5q-59 0 -110 -24.5t-88 -66t-58 -97t-21 -117.5q0 -52 16 -94.5t45.5 -72.5t69.5 -46t88 -16zM511 1107l232 316h319l-296 -316h-255z" />
    <glyph glyph-name="acircumflex" unicode="&#xe2;" horiz-adv-x="1199" 
d="M600 995q101 0 174 -32t118 -92l22 98h259l-206 -969h-254l17 80q-48 -48 -111.5 -77t-150.5 -29q-88 0 -163 34.5t-129.5 94.5t-85.5 141.5t-31 175.5q0 69 16.5 138.5t49 133.5t79 119t107 96t133 64.5t156.5 23.5zM548 218q54 0 101 20t83 55.5t59.5 83.5t30.5 105
q7 61 -6 110.5t-42.5 85t-72.5 55t-95 19.5q-59 0 -110 -24.5t-88 -66t-58 -97t-21 -117.5q0 -52 16 -94.5t45.5 -72.5t69.5 -46t88 -16zM805 1098l-87 155l-148 -155h-264l277 315h315l153 -315h-246z" />
    <glyph glyph-name="atilde" unicode="&#xe3;" horiz-adv-x="1199" 
d="M600 995q101 0 174 -32t118 -92l22 98h259l-206 -969h-254l17 80q-48 -48 -111.5 -77t-150.5 -29q-88 0 -163 34.5t-129.5 94.5t-85.5 141.5t-31 175.5q0 69 16.5 138.5t49 133.5t79 119t107 96t133 64.5t156.5 23.5zM548 218q54 0 101 20t83 55.5t59.5 83.5t30.5 105
q7 61 -6 110.5t-42.5 85t-72.5 55t-95 19.5q-59 0 -110 -24.5t-88 -66t-58 -97t-21 -117.5q0 -52 16 -94.5t45.5 -72.5t69.5 -46t88 -16zM300 1275q64 71 129 98.5t140 27.5q55 0 93.5 -11t67 -24t51 -24t45.5 -11q35 0 66 19.5t69 51.5l128 -158q-63 -71 -128.5 -99
t-140.5 -28q-55 0 -93 11t-66.5 24t-50.5 24t-46 11q-35 0 -66.5 -19t-68.5 -51z" />
    <glyph glyph-name="adieresis" unicode="&#xe4;" horiz-adv-x="1199" 
d="M600 995q101 0 174 -32t118 -92l22 98h259l-206 -969h-254l17 80q-48 -48 -111.5 -77t-150.5 -29q-88 0 -163 34.5t-129.5 94.5t-85.5 141.5t-31 175.5q0 69 16.5 138.5t49 133.5t79 119t107 96t133 64.5t156.5 23.5zM548 218q54 0 101 20t83 55.5t59.5 83.5t30.5 105
q7 61 -6 110.5t-42.5 85t-72.5 55t-95 19.5q-59 0 -110 -24.5t-88 -66t-58 -97t-21 -117.5q0 -52 16 -94.5t45.5 -72.5t69.5 -46t88 -16zM500 1424q35 0 66 -13t53.5 -35.5t35.5 -53.5t13 -66t-13 -65.5t-35.5 -53t-53.5 -35t-66 -12.5t-65.5 12.5t-53 35t-35 53t-12.5 65.5
t12.5 66t35 53.5t53 35.5t65.5 13zM931 1424q35 0 66 -13t53.5 -35.5t35.5 -53.5t13 -66t-13 -65.5t-35.5 -53t-53.5 -35t-66 -12.5t-65.5 12.5t-53 35t-35 53t-12.5 65.5t12.5 66t35 53.5t53 35.5t65.5 13z" />
    <glyph glyph-name="aring" unicode="&#xe5;" horiz-adv-x="1199" 
d="M600 995q101 0 174 -32t118 -92l22 98h259l-206 -969h-254l17 80q-48 -48 -111.5 -77t-150.5 -29q-88 0 -163 34.5t-129.5 94.5t-85.5 141.5t-31 175.5q0 69 16.5 138.5t49 133.5t79 119t107 96t133 64.5t156.5 23.5zM548 218q54 0 101 20t83 55.5t59.5 83.5t30.5 105
q7 61 -6 110.5t-42.5 85t-72.5 55t-95 19.5q-59 0 -110 -24.5t-88 -66t-58 -97t-21 -117.5q0 -52 16 -94.5t45.5 -72.5t69.5 -46t88 -16zM697 1076q-54 0 -101.5 20t-83 55t-56 82t-20.5 101q0 53 20.5 99.5t56 81.5t83 55.5t101.5 20.5t102 -20.5t84 -55.5t56.5 -81.5
t20.5 -99.5q0 -54 -20.5 -101t-56.5 -82t-84 -55t-102 -20zM697 1225q22 0 41.5 8.5t34 23t23 34.5t8.5 43q0 22 -8.5 42t-23 34.5t-34 23t-41.5 8.5q-21 0 -40 -8.5t-33.5 -23t-23 -34.5t-8.5 -42q0 -23 8.5 -43t23 -34.5t33.5 -23t40 -8.5z" />
    <glyph glyph-name="ae" unicode="&#xe6;" horiz-adv-x="1700" 
d="M1537 111q-79 -70 -175 -103.5t-221 -33.5q-128 0 -221 43t-150 118q-77 -73 -173 -116.5t-219 -43.5q-79 0 -142.5 19t-107.5 54.5t-68 86t-24 112.5q0 76 29.5 137.5t84 104.5t132 66t173.5 23h257q3 19 3 39q0 69 -46.5 108.5t-150.5 39.5q-77 0 -138 -22t-114 -51
l-79 205q89 52 179 75t199 23q113 0 195 -35t129 -107q64 69 151 105.5t199 36.5q91 0 167.5 -28t131 -79.5t85 -124.5t30.5 -163q0 -25 -3 -52.5t-8.5 -54.5t-12.5 -51.5t-15 -43.5h-673q3 -97 61 -149.5t161 -52.5q67 0 126 20t114 65zM435 185q62 0 131.5 29t129.5 90
q-9 45 -9 95v3h-206q-81 0 -127 -32t-46 -88q0 -45 33 -71t94 -26zM1224 770q-53 0 -94.5 -16.5t-72.5 -44.5t-52.5 -63.5t-34.5 -73.5h430q1 5 1 11v11q0 88 -48 132t-129 44z" />
    <glyph glyph-name="ccedilla" unicode="&#xe7;" horiz-adv-x="1023" 
d="M812 643q-24 34 -51 55.5t-54 33t-53 15.5t-49 4q-59 0 -109.5 -24t-87 -64.5t-57 -94.5t-20.5 -114q0 -52 16.5 -95t45.5 -74t68 -48t85 -17q60 0 112.5 23t97.5 71l171 -161q-75 -85 -175.5 -130.5t-215.5 -45.5q-107 0 -194 34.5t-149 96t-96 145.5t-34 183
q0 114 41 215t114.5 177t175.5 120.5t224 44.5q146 0 249.5 -58t163.5 -168zM470 -321h-265l181 328h246z" />
    <glyph glyph-name="egrave" unicode="&#xe8;" horiz-adv-x="1072" 
d="M910 111q-79 -70 -175 -103.5t-221 -33.5q-110 0 -195 32t-144 88.5t-89.5 134.5t-30.5 170q0 61 14 129t42.5 134.5t73.5 126.5t106.5 106t141.5 73t179 27q91 0 167 -28t131 -79.5t85 -124.5t30 -163q0 -25 -3 -52.5t-8 -54.5t-12 -51.5t-15 -43.5h-673
q3 -97 61 -149.5t161 -52.5q66 0 125 20t115 65zM597 770q-53 0 -93.5 -16.5t-71.5 -43.5t-52.5 -62t-35.5 -72h429q1 5 1 9v9q0 88 -48 132t-129 44zM305 1423h312l201 -315h-249z" />
    <glyph glyph-name="eacute" unicode="&#xe9;" horiz-adv-x="1072" 
d="M910 111q-79 -70 -175 -103.5t-221 -33.5q-110 0 -195 32t-144 88.5t-89.5 134.5t-30.5 170q0 61 14 129t42.5 134.5t73.5 126.5t106.5 106t141.5 73t179 27q91 0 167 -28t131 -79.5t85 -124.5t30 -163q0 -25 -3 -52.5t-8 -54.5t-12 -51.5t-15 -43.5h-673
q3 -97 61 -149.5t161 -52.5q66 0 125 20t115 65zM597 770q-53 0 -93.5 -16.5t-71.5 -43.5t-52.5 -62t-35.5 -72h429q1 5 1 9v9q0 88 -48 132t-129 44zM472 1107l232 316h319l-296 -316h-255z" />
    <glyph glyph-name="ecircumflex" unicode="&#xea;" horiz-adv-x="1072" 
d="M910 111q-79 -70 -175 -103.5t-221 -33.5q-110 0 -195 32t-144 88.5t-89.5 134.5t-30.5 170q0 61 14 129t42.5 134.5t73.5 126.5t106.5 106t141.5 73t179 27q91 0 167 -28t131 -79.5t85 -124.5t30 -163q0 -25 -3 -52.5t-8 -54.5t-12 -51.5t-15 -43.5h-673
q3 -97 61 -149.5t161 -52.5q66 0 125 20t115 65zM597 770q-53 0 -93.5 -16.5t-71.5 -43.5t-52.5 -62t-35.5 -72h429q1 5 1 9v9q0 88 -48 132t-129 44zM766 1098l-87 155l-148 -155h-264l277 315h315l153 -315h-246z" />
    <glyph glyph-name="edieresis" unicode="&#xeb;" horiz-adv-x="1072" 
d="M910 111q-79 -70 -175 -103.5t-221 -33.5q-110 0 -195 32t-144 88.5t-89.5 134.5t-30.5 170q0 61 14 129t42.5 134.5t73.5 126.5t106.5 106t141.5 73t179 27q91 0 167 -28t131 -79.5t85 -124.5t30 -163q0 -25 -3 -52.5t-8 -54.5t-12 -51.5t-15 -43.5h-673
q3 -97 61 -149.5t161 -52.5q66 0 125 20t115 65zM597 770q-53 0 -93.5 -16.5t-71.5 -43.5t-52.5 -62t-35.5 -72h429q1 5 1 9v9q0 88 -48 132t-129 44zM461 1424q35 0 66 -13t53.5 -35.5t35.5 -53.5t13 -66t-13 -65.5t-35.5 -53t-53.5 -35t-66 -12.5t-65.5 12.5t-53 35
t-35 53t-12.5 65.5t12.5 66t35 53.5t53 35.5t65.5 13zM892 1424q35 0 66 -13t53.5 -35.5t35.5 -53.5t13 -66t-13 -65.5t-35.5 -53t-53.5 -35t-66 -12.5t-65.5 12.5t-53 35t-35 53t-12.5 65.5t12.5 66t35 53.5t53 35.5t65.5 13z" />
    <glyph glyph-name="igrave" unicode="&#xec;" horiz-adv-x="521" 
d="M289 0h-263l206 969h263zM47 1423h312l201 -315h-249z" />
    <glyph glyph-name="iacute" unicode="&#xed;" horiz-adv-x="521" 
d="M289 0h-263l206 969h263zM214 1107l232 316h319l-296 -316h-255z" />
    <glyph glyph-name="icircumflex" unicode="&#xee;" horiz-adv-x="521" 
d="M289 0h-263l206 969h263zM508 1098l-87 155l-148 -155h-264l277 315h315l153 -315h-246z" />
    <glyph glyph-name="idieresis" unicode="&#xef;" horiz-adv-x="521" 
d="M289 0h-263l206 969h263zM203 1424q35 0 66 -13t53.5 -35.5t35.5 -53.5t13 -66t-13 -65.5t-35.5 -53t-53.5 -35t-66 -12.5t-65.5 12.5t-53 35t-35 53t-12.5 65.5t12.5 66t35 53.5t53 35.5t65.5 13zM634 1424q35 0 66 -13t53.5 -35.5t35.5 -53.5t13 -66t-13 -65.5
t-35.5 -53t-53.5 -35t-66 -12.5t-65.5 12.5t-53 35t-35 53t-12.5 65.5t12.5 66t35 53.5t53 35.5t65.5 13z" />
    <glyph glyph-name="eth" unicode="&#xf0;" horiz-adv-x="1170" 
d="M1029 1289l-158 -90q121 -129 180.5 -285.5t59.5 -324.5q0 -61 -9 -131q-13 -105 -60.5 -194t-120.5 -153.5t-167 -100.5t-201 -36q-108 0 -199 34t-156.5 94t-102 142t-36.5 178q0 107 39.5 201t108 164.5t159.5 111.5t194 41q84 0 152.5 -25t119.5 -71
q-52 135 -176 241l-211 -120l-81 141l147 82q-79 46 -169 84l141 186q74 -29 139 -65.5t122 -78.5l204 116zM599 709q-69 0 -120 -26t-84.5 -66t-50 -88.5t-16.5 -93.5q0 -50 17.5 -92t49.5 -72t76.5 -47t97.5 -17q75 0 127.5 27.5t85 68.5t47.5 88.5t15 87.5q0 51 -18 93.5
t-50.5 72.5t-77.5 47t-99 17z" />
    <glyph glyph-name="ntilde" unicode="&#xf1;" horiz-adv-x="1161" 
d="M742 995q76 0 136.5 -24t102.5 -67t64.5 -103t22.5 -131q0 -25 -2.5 -51.5t-8.5 -53.5l-121 -565h-262l117 544q7 31 7 64q0 30 -8 56t-26 45t-47 30t-71 11q-41 0 -79.5 -12t-71.5 -39.5t-58.5 -71.5t-38.5 -107l-110 -520h-262l206 969h252l-22 -98q61 70 133 97
t147 27zM311 1275q64 71 129 98.5t140 27.5q55 0 93.5 -11t67 -24t51 -24t45.5 -11q35 0 66 19.5t69 51.5l128 -158q-63 -71 -128.5 -99t-140.5 -28q-55 0 -93 11t-66.5 24t-50.5 24t-46 11q-35 0 -66.5 -19t-68.5 -51z" />
    <glyph glyph-name="ograve" unicode="&#xf2;" horiz-adv-x="1171" 
d="M624 995q105 0 193.5 -34t153 -95t101 -146.5t36.5 -188.5q0 -114 -42 -215.5t-117 -177t-178 -120t-224 -44.5q-104 0 -193 33.5t-153.5 95t-101 147t-36.5 189.5q0 114 42 215t117 176.5t178 120t224 44.5zM606 752q-59 0 -109.5 -23.5t-87.5 -63.5t-58 -94.5
t-21 -115.5q0 -53 17 -96.5t48 -75t74 -49t94 -17.5q59 0 110 23.5t88.5 64t58.5 94.5t21 115q0 52 -17 96t-48 75.5t-74.5 49t-95.5 17.5zM328 1422h312l201 -315h-249z" />
    <glyph glyph-name="oacute" unicode="&#xf3;" horiz-adv-x="1171" 
d="M624 995q105 0 193.5 -34t153 -95t101 -146.5t36.5 -188.5q0 -114 -42 -215.5t-117 -177t-178 -120t-224 -44.5q-104 0 -193 33.5t-153.5 95t-101 147t-36.5 189.5q0 114 42 215t117 176.5t178 120t224 44.5zM606 752q-59 0 -109.5 -23.5t-87.5 -63.5t-58 -94.5
t-21 -115.5q0 -53 17 -96.5t48 -75t74 -49t94 -17.5q59 0 110 23.5t88.5 64t58.5 94.5t21 115q0 52 -17 96t-48 75.5t-74.5 49t-95.5 17.5zM495 1106l232 316h319l-296 -316h-255z" />
    <glyph glyph-name="ocircumflex" unicode="&#xf4;" horiz-adv-x="1171" 
d="M624 995q105 0 193.5 -34t153 -95t101 -146.5t36.5 -188.5q0 -114 -42 -215.5t-117 -177t-178 -120t-224 -44.5q-104 0 -193 33.5t-153.5 95t-101 147t-36.5 189.5q0 114 42 215t117 176.5t178 120t224 44.5zM606 752q-59 0 -109.5 -23.5t-87.5 -63.5t-58 -94.5
t-21 -115.5q0 -53 17 -96.5t48 -75t74 -49t94 -17.5q59 0 110 23.5t88.5 64t58.5 94.5t21 115q0 52 -17 96t-48 75.5t-74.5 49t-95.5 17.5zM789 1097l-87 155l-148 -155h-264l277 315h315l153 -315h-246z" />
    <glyph glyph-name="otilde" unicode="&#xf5;" horiz-adv-x="1171" 
d="M624 995q105 0 193.5 -34t153 -95t101 -146.5t36.5 -188.5q0 -114 -42 -215.5t-117 -177t-178 -120t-224 -44.5q-104 0 -193 33.5t-153.5 95t-101 147t-36.5 189.5q0 114 42 215t117 176.5t178 120t224 44.5zM606 752q-59 0 -109.5 -23.5t-87.5 -63.5t-58 -94.5
t-21 -115.5q0 -53 17 -96.5t48 -75t74 -49t94 -17.5q59 0 110 23.5t88.5 64t58.5 94.5t21 115q0 52 -17 96t-48 75.5t-74.5 49t-95.5 17.5zM284 1274q64 71 129 98.5t140 27.5q55 0 93.5 -11t67 -24t51 -24t45.5 -11q35 0 66 19.5t69 51.5l128 -158q-63 -71 -128.5 -99
t-140.5 -28q-55 0 -93 11t-66.5 24t-50.5 24t-46 11q-35 0 -66.5 -19t-68.5 -51z" />
    <glyph glyph-name="odieresis" unicode="&#xf6;" horiz-adv-x="1171" 
d="M624 995q105 0 193.5 -34t153 -95t101 -146.5t36.5 -188.5q0 -114 -42 -215.5t-117 -177t-178 -120t-224 -44.5q-104 0 -193 33.5t-153.5 95t-101 147t-36.5 189.5q0 114 42 215t117 176.5t178 120t224 44.5zM606 752q-59 0 -109.5 -23.5t-87.5 -63.5t-58 -94.5
t-21 -115.5q0 -53 17 -96.5t48 -75t74 -49t94 -17.5q59 0 110 23.5t88.5 64t58.5 94.5t21 115q0 52 -17 96t-48 75.5t-74.5 49t-95.5 17.5zM484 1423q35 0 66 -13t53.5 -35.5t35.5 -53.5t13 -66t-13 -65.5t-35.5 -53t-53.5 -35t-66 -12.5t-65.5 12.5t-53 35t-35 53
t-12.5 65.5t12.5 66t35 53.5t53 35.5t65.5 13zM915 1423q35 0 66 -13t53.5 -35.5t35.5 -53.5t13 -66t-13 -65.5t-35.5 -53t-53.5 -35t-66 -12.5t-65.5 12.5t-53 35t-35 53t-12.5 65.5t12.5 66t35 53.5t53 35.5t65.5 13z" />
    <glyph glyph-name="divide" unicode="&#xf7;" horiz-adv-x="1200" 
d="M1049 431h-921l47 223h921zM675 1058q33 0 62 -13t51.5 -35t35.5 -51.5t13 -62.5t-13 -63t-35.5 -52.5t-51.5 -35.5t-62 -13t-63 13t-52.5 35.5t-35.5 52.5t-13 63t13 62.5t35.5 51.5t52.5 35t63 13zM562 354q33 0 62 -13t51.5 -35.5t35.5 -52t13 -62.5t-13 -63
t-35.5 -52.5t-51.5 -35.5t-62 -13t-63 13t-52.5 35.5t-35.5 52.5t-13 63t13 62.5t35.5 52t52.5 35.5t63 13z" />
    <glyph glyph-name="oslash" unicode="&#xf8;" horiz-adv-x="1171" 
d="M624 995q84 0 157 -21.5t133 -61.5l124 110l135 -151l-122 -108q28 -51 43 -108.5t15 -123.5q0 -114 -42 -215.5t-117 -177t-178 -120t-224 -44.5q-84 0 -156.5 21t-132.5 61l-124 -110l-135 151l121 108q-28 51 -43 109.5t-15 124.5q0 114 42 215t117 176.5t178 120
t224 44.5zM607 759q-60 0 -112 -24t-90 -65.5t-59.5 -97t-21.5 -118.5q0 -40 9 -73l393 350q-54 28 -119 28zM848 515q0 18 -2 34.5t-6 33.5l-391 -348q52 -25 113 -25t113.5 24t90.5 65.5t60 97t22 118.5z" />
    <glyph glyph-name="ugrave" unicode="&#xf9;" horiz-adv-x="1152" 
d="M1013 401q-25 -119 -75.5 -200t-118.5 -131.5t-150.5 -72.5t-171.5 -22q-87 0 -160 23t-126 67.5t-82.5 110t-29.5 151.5q0 53 14 118l111 524h263l-116 -544q-7 -34 -7 -64q0 -75 43.5 -109t113.5 -34q43 0 81 14t69 42.5t54 71.5t35 101l110 522h264zM362 1423h312
l201 -315h-249z" />
    <glyph glyph-name="uacute" unicode="&#xfa;" horiz-adv-x="1152" 
d="M1013 401q-25 -119 -75.5 -200t-118.5 -131.5t-150.5 -72.5t-171.5 -22q-87 0 -160 23t-126 67.5t-82.5 110t-29.5 151.5q0 53 14 118l111 524h263l-116 -544q-7 -34 -7 -64q0 -75 43.5 -109t113.5 -34q43 0 81 14t69 42.5t54 71.5t35 101l110 522h264zM529 1107l232 316
h319l-296 -316h-255z" />
    <glyph glyph-name="ucircumflex" unicode="&#xfb;" horiz-adv-x="1152" 
d="M1013 401q-25 -119 -75.5 -200t-118.5 -131.5t-150.5 -72.5t-171.5 -22q-87 0 -160 23t-126 67.5t-82.5 110t-29.5 151.5q0 53 14 118l111 524h263l-116 -544q-7 -34 -7 -64q0 -75 43.5 -109t113.5 -34q43 0 81 14t69 42.5t54 71.5t35 101l110 522h264zM823 1098l-87 155
l-148 -155h-264l277 315h315l153 -315h-246z" />
    <glyph glyph-name="udieresis" unicode="&#xfc;" horiz-adv-x="1152" 
d="M1013 401q-25 -119 -75.5 -200t-118.5 -131.5t-150.5 -72.5t-171.5 -22q-87 0 -160 23t-126 67.5t-82.5 110t-29.5 151.5q0 53 14 118l111 524h263l-116 -544q-7 -34 -7 -64q0 -75 43.5 -109t113.5 -34q43 0 81 14t69 42.5t54 71.5t35 101l110 522h264zM518 1424
q35 0 66 -13t53.5 -35.5t35.5 -53.5t13 -66t-13 -65.5t-35.5 -53t-53.5 -35t-66 -12.5t-65.5 12.5t-53 35t-35 53t-12.5 65.5t12.5 66t35 53.5t53 35.5t65.5 13zM949 1424q35 0 66 -13t53.5 -35.5t35.5 -53.5t13 -66t-13 -65.5t-35.5 -53t-53.5 -35t-66 -12.5t-65.5 12.5
t-53 35t-35 53t-12.5 65.5t12.5 66t35 53.5t53 35.5t65.5 13z" />
    <glyph glyph-name="yacute" unicode="&#xfd;" horiz-adv-x="1120" 
d="M273 -404h-298l451 638l-313 735h282l196 -493l328 493h297zM497 1107l232 316h319l-296 -316h-255z" />
    <glyph glyph-name="thorn" unicode="&#xfe;" horiz-adv-x="1201" 
d="M601 -25q-102 0 -174.5 31.5t-117.5 91.5l-105 -498h-263l391 1840h263l-109 -509q43 30 98.5 47.5t129.5 17.5q92 0 170.5 -34.5t135.5 -94.5t89.5 -142t32.5 -176q0 -69 -17 -138.5t-49 -133t-79 -119t-107 -96t-132.5 -64t-156.5 -23.5zM652 751q-54 0 -101 -20
t-83 -55t-59.5 -83t-30.5 -105q-8 -61 5.5 -110.5t43 -85t72.5 -55t95 -19.5q60 0 110.5 24.5t88 66t58.5 96.5t21 117q0 52 -16.5 94.5t-45.5 72.5t-69.5 46t-88.5 16z" />
    <glyph glyph-name="ydieresis" unicode="&#xff;" horiz-adv-x="1120" 
d="M273 -404h-298l451 638l-313 735h282l196 -493l328 493h297zM486 1424q35 0 66 -13t53.5 -35.5t35.5 -53.5t13 -66t-13 -65.5t-35.5 -53t-53.5 -35t-66 -12.5t-65.5 12.5t-53 35t-35 53t-12.5 65.5t12.5 66t35 53.5t53 35.5t65.5 13zM917 1424q35 0 66 -13t53.5 -35.5
t35.5 -53.5t13 -66t-13 -65.5t-35.5 -53t-53.5 -35t-66 -12.5t-65.5 12.5t-53 35t-35 53t-12.5 65.5t12.5 66t35 53.5t53 35.5t65.5 13z" />
    <glyph glyph-name="Amacron" unicode="&#x100;" horiz-adv-x="1465" 
d="M1335 0h-285l-51 326h-583l-188 -326h-304l831 1400h339zM564 583h395l-84 538zM660 1770h661l-45 -209h-661z" />
    <glyph glyph-name="amacron" unicode="&#x101;" horiz-adv-x="1199" 
d="M600 995q101 0 174 -32t118 -92l22 98h259l-206 -969h-254l17 80q-48 -48 -111.5 -77t-150.5 -29q-88 0 -163 34.5t-129.5 94.5t-85.5 141.5t-31 175.5q0 69 16.5 138.5t49 133.5t79 119t107 96t133 64.5t156.5 23.5zM548 218q54 0 101 20t83 55.5t59.5 83.5t30.5 105
q7 61 -6 110.5t-42.5 85t-72.5 55t-95 19.5q-59 0 -110 -24.5t-88 -66t-58 -97t-21 -117.5q0 -52 16 -94.5t45.5 -72.5t69.5 -46t88 -16zM414 1360h661l-45 -209h-661z" />
    <glyph glyph-name="Abreve" unicode="&#x102;" horiz-adv-x="1465" 
d="M1335 0h-285l-51 326h-583l-188 -326h-304l831 1400h339zM564 583h395l-84 538zM812 1867q16 -164 149 -164q63 0 113.5 40t92.5 124l197 -58q-73 -155 -176.5 -235t-250.5 -80q-70 0 -128 20.5t-100.5 60.5t-67.5 98.5t-29 135.5z" />
    <glyph glyph-name="abreve" unicode="&#x103;" horiz-adv-x="1199" 
d="M600 995q101 0 174 -32t118 -92l22 98h259l-206 -969h-254l17 80q-48 -48 -111.5 -77t-150.5 -29q-88 0 -163 34.5t-129.5 94.5t-85.5 141.5t-31 175.5q0 69 16.5 138.5t49 133.5t79 119t107 96t133 64.5t156.5 23.5zM548 218q54 0 101 20t83 55.5t59.5 83.5t30.5 105
q7 61 -6 110.5t-42.5 85t-72.5 55t-95 19.5q-59 0 -110 -24.5t-88 -66t-58 -97t-21 -117.5q0 -52 16 -94.5t45.5 -72.5t69.5 -46t88 -16zM558 1457q16 -164 149 -164q63 0 113.5 40t92.5 124l197 -58q-73 -155 -176.5 -235t-250.5 -80q-70 0 -128 20.5t-100.5 60.5
t-67.5 98.5t-29 135.5z" />
    <glyph glyph-name="Aogonek" unicode="&#x104;" horiz-adv-x="1465" 
d="M1335 0h-285l-51 326h-583l-188 -326h-304l831 1400h339zM564 583h395l-84 538zM1293 -330q-46 -41 -104.5 -65t-126.5 -24q-53 0 -98 12.5t-77.5 36.5t-51 58.5t-18.5 78.5q0 52 23.5 95.5t69.5 81.5t113.5 72t156.5 67l62 -80q-56 -25 -93 -48t-58.5 -44.5t-30.5 -41
t-9 -36.5q0 -22 14.5 -33.5t38.5 -11.5q20 0 39.5 9t40.5 26z" />
    <glyph glyph-name="aogonek" unicode="&#x105;" horiz-adv-x="1199" 
d="M600 995q101 0 174 -32t118 -92l22 98h259l-206 -969h-254l17 80q-48 -48 -111.5 -77t-150.5 -29q-88 0 -163 34.5t-129.5 94.5t-85.5 141.5t-31 175.5q0 69 16.5 138.5t49 133.5t79 119t107 96t133 64.5t156.5 23.5zM548 218q54 0 101 20t83 55.5t59.5 83.5t30.5 105
q7 61 -6 110.5t-42.5 85t-72.5 55t-95 19.5q-59 0 -110 -24.5t-88 -66t-58 -97t-21 -117.5q0 -52 16 -94.5t45.5 -72.5t69.5 -46t88 -16zM1005 -330q-46 -41 -104.5 -65t-126.5 -24q-53 0 -98 12.5t-77.5 36.5t-51 58.5t-18.5 78.5q0 52 23.5 95.5t69.5 81.5t113.5 72
t156.5 67l62 -80q-56 -25 -93 -48t-58.5 -44.5t-30.5 -41t-9 -36.5q0 -22 14.5 -33.5t38.5 -11.5q20 0 39.5 9t40.5 26z" />
    <glyph glyph-name="Cacute" unicode="&#x106;" horiz-adv-x="1451" 
d="M1354 224q-106 -119 -241 -184t-304 -65q-148 0 -272.5 48.5t-214.5 136t-140.5 209t-50.5 267.5q0 170 59.5 314.5t164.5 250t248 165t310 59.5q39 0 86.5 -4t99 -15.5t105 -33t105 -55.5t98.5 -82.5t86 -115.5l-232 -154q-58 95 -150 144t-214 49q-97 0 -183.5 -38
t-151 -105t-102 -159t-37.5 -199q0 -95 31 -171.5t85 -130.5t126.5 -83t155.5 -29q99 0 184 41t153 116zM752 1517l232 316h319l-296 -316h-255z" />
    <glyph glyph-name="cacute" unicode="&#x107;" horiz-adv-x="1023" 
d="M812 643q-24 34 -51 55.5t-54 33t-53 15.5t-49 4q-59 0 -109.5 -24t-87 -64.5t-57 -94.5t-20.5 -114q0 -52 16.5 -95t45.5 -74t68 -48t85 -17q60 0 112.5 23t97.5 71l171 -161q-75 -85 -175.5 -130.5t-215.5 -45.5q-107 0 -194 34.5t-149 96t-96 145.5t-34 183
q0 114 41 215t114.5 177t175.5 120.5t224 44.5q146 0 249.5 -58t163.5 -168zM463 1107l232 316h319l-296 -316h-255z" />
    <glyph glyph-name="Ccircumflex" unicode="&#x108;" horiz-adv-x="1451" 
d="M1354 224q-106 -119 -241 -184t-304 -65q-148 0 -272.5 48.5t-214.5 136t-140.5 209t-50.5 267.5q0 170 59.5 314.5t164.5 250t248 165t310 59.5q39 0 86.5 -4t99 -15.5t105 -33t105 -55.5t98.5 -82.5t86 -115.5l-232 -154q-58 95 -150 144t-214 49q-97 0 -183.5 -38
t-151 -105t-102 -159t-37.5 -199q0 -95 31 -171.5t85 -130.5t126.5 -83t155.5 -29q99 0 184 41t153 116zM1048 1508l-87 155l-148 -155h-264l277 315h315l153 -315h-246z" />
    <glyph glyph-name="ccircumflex" unicode="&#x109;" horiz-adv-x="1023" 
d="M812 643q-24 34 -51 55.5t-54 33t-53 15.5t-49 4q-59 0 -109.5 -24t-87 -64.5t-57 -94.5t-20.5 -114q0 -52 16.5 -95t45.5 -74t68 -48t85 -17q60 0 112.5 23t97.5 71l171 -161q-75 -85 -175.5 -130.5t-215.5 -45.5q-107 0 -194 34.5t-149 96t-96 145.5t-34 183
q0 114 41 215t114.5 177t175.5 120.5t224 44.5q146 0 249.5 -58t163.5 -168zM757 1098l-87 155l-148 -155h-264l277 315h315l153 -315h-246z" />
    <glyph glyph-name="Cdotaccent" unicode="&#x10a;" horiz-adv-x="1451" 
d="M1354 224q-106 -119 -241 -184t-304 -65q-148 0 -272.5 48.5t-214.5 136t-140.5 209t-50.5 267.5q0 170 59.5 314.5t164.5 250t248 165t310 59.5q39 0 86.5 -4t99 -15.5t105 -33t105 -55.5t98.5 -82.5t86 -115.5l-232 -154q-58 95 -150 144t-214 49q-97 0 -183.5 -38
t-151 -105t-102 -159t-37.5 -199q0 -95 31 -171.5t85 -130.5t126.5 -83t155.5 -29q99 0 184 41t153 116zM954.006 1848.63q36.749 0 68.7744 -13.6494q32.0244 -13.6494 55.6484 -37.2744q23.625 -23.625 37.2754 -56.1748q13.6494 -32.5488 13.6494 -69.2988
t-13.6494 -68.7744q-13.6504 -32.0244 -37.2754 -55.6494q-23.624 -23.625 -55.6484 -36.749q-32.0254 -13.125 -68.7744 -13.125q-36.75 0 -68.7744 13.125q-32.0244 13.124 -55.6494 36.749t-36.75 55.6494q-13.124 32.0244 -13.124 68.7744t13.124 69.2988
q13.125 32.5498 36.75 56.1748t55.6494 37.2744t68.7744 13.6494z" />
    <glyph glyph-name="cdotaccent" unicode="&#x10b;" horiz-adv-x="1023" 
d="M812 643q-24 34 -51 55.5t-54 33t-53 15.5t-49 4q-59 0 -109.5 -24t-87 -64.5t-57 -94.5t-20.5 -114q0 -52 16.5 -95t45.5 -74t68 -48t85 -17q60 0 112.5 23t97.5 71l171 -161q-75 -85 -175.5 -130.5t-215.5 -45.5q-107 0 -194 34.5t-149 96t-96 145.5t-34 183
q0 114 41 215t114.5 177t175.5 120.5t224 44.5q146 0 249.5 -58t163.5 -168zM679 1454q35 0 65.5 -13t53 -35.5t35.5 -53.5t13 -66t-13 -65.5t-35.5 -53t-53 -35t-65.5 -12.5t-65.5 12.5t-53 35t-35 53t-12.5 65.5t12.5 66t35 53.5t53 35.5t65.5 13z" />
    <glyph glyph-name="Ccaron" unicode="&#x10c;" horiz-adv-x="1451" 
d="M1354 224q-106 -119 -241 -184t-304 -65q-148 0 -272.5 48.5t-214.5 136t-140.5 209t-50.5 267.5q0 170 59.5 314.5t164.5 250t248 165t310 59.5q39 0 86.5 -4t99 -15.5t105 -33t105 -55.5t98.5 -82.5t86 -115.5l-232 -154q-58 95 -150 144t-214 49q-97 0 -183.5 -38
t-151 -105t-102 -159t-37.5 -199q0 -95 31 -171.5t85 -130.5t126.5 -83t155.5 -29q99 0 184 41t153 116zM866 1823l86 -155l149 155h264l-277 -315h-315l-153 315h246z" />
    <glyph glyph-name="ccaron" unicode="&#x10d;" horiz-adv-x="1023" 
d="M812 643q-24 34 -51 55.5t-54 33t-53 15.5t-49 4q-59 0 -109.5 -24t-87 -64.5t-57 -94.5t-20.5 -114q0 -52 16.5 -95t45.5 -74t68 -48t85 -17q60 0 112.5 23t97.5 71l171 -161q-75 -85 -175.5 -130.5t-215.5 -45.5q-107 0 -194 34.5t-149 96t-96 145.5t-34 183
q0 114 41 215t114.5 177t175.5 120.5t224 44.5q146 0 249.5 -58t163.5 -168zM576 1413l86 -155l149 155h264l-277 -315h-315l-153 315h246z" />
    <glyph glyph-name="Dcaron" unicode="&#x10e;" horiz-adv-x="1519" 
d="M842 1400q150 0 270 -44t203.5 -122.5t128 -187t44.5 -236.5q0 -168 -57.5 -315.5t-167.5 -257.5t-270 -173.5t-365 -63.5h-579l298 1400h495zM576 1139l-187 -878h272q125 0 224 39t167.5 108t104.5 163.5t36 205.5q0 80 -23 146.5t-70 114.5t-119 74.5t-171 26.5h-234z
M811 1823l86 -155l149 155h264l-277 -315h-315l-153 315h246z" />
    <glyph glyph-name="dcaron" unicode="&#x10f;" horiz-adv-x="1343" 
d="M600 995q101 0 174 -32t118 -92l122 569h262l-306 -1440h-257l17 79q-49 -47 -112 -76t-150 -29q-88 0 -163 34.5t-129.5 94.5t-85.5 141.5t-31 175.5q0 69 16.5 138.5t49 133.5t79 119t107 96t133 64.5t156.5 23.5zM548 218q54 0 101 20t83 55.5t59.5 83.5t30.5 105
q7 61 -6 110.5t-42.5 85t-72.5 55t-95 19.5q-59 0 -110 -24.5t-88 -66t-58 -97t-21 -117.5q0 -52 16 -94.5t45.5 -72.5t69.5 -46t88 -16zM1294 1012l91 428h273l-158 -428h-206z" />
    <glyph glyph-name="Dcroat" unicode="&#x110;" horiz-adv-x="1635" 
d="M958 1400q150 0 270 -44t203.5 -122.5t128 -187t44.5 -236.5q0 -168 -57.5 -315.5t-167.5 -257.5t-270 -173.5t-365 -63.5h-579l123 581h-176l53 250h177l121 569h495zM895 581h-322l-68 -320h272q125 0 224 39t167.5 108t104.5 163.5t36 205.5q0 80 -23 146.5t-70 114.5
t-119 74.5t-171 26.5h-234l-65 -308h322z" />
    <glyph glyph-name="dcroat" unicode="&#x111;" horiz-adv-x="1209" 
d="M1338 1090h-137l-231 -1090h-257l17 79q-49 -47 -112 -76t-150 -29q-88 0 -163 34.5t-129.5 94.5t-85.5 141.5t-31 175.5q0 69 16.5 138.5t49 133.5t79 119t107 96t133 64.5t156.5 23.5q101 0 174 -32t118 -92l47 219h-329l43 215h332l29 135h262l-29 -135h135zM548 218
q54 0 101 20t83 55.5t59.5 83.5t30.5 105q7 61 -6 110.5t-42.5 85t-72.5 55t-95 19.5q-59 0 -110 -24.5t-88 -66t-58 -97t-21 -117.5q0 -52 16 -94.5t45.5 -72.5t69.5 -46t88 -16z" />
    <glyph glyph-name="Emacron" unicode="&#x112;" horiz-adv-x="1294" 
d="M1162 578h-705l-69 -322h744l-55 -256h-1028l298 1400h1018l-55 -256h-733l-66 -310h706zM586 1770h661l-45 -209h-661z" />
    <glyph glyph-name="emacron" unicode="&#x113;" horiz-adv-x="1072" 
d="M910 111q-79 -70 -175 -103.5t-221 -33.5q-110 0 -195 32t-144 88.5t-89.5 134.5t-30.5 170q0 61 14 129t42.5 134.5t73.5 126.5t106.5 106t141.5 73t179 27q91 0 167 -28t131 -79.5t85 -124.5t30 -163q0 -25 -3 -52.5t-8 -54.5t-12 -51.5t-15 -43.5h-673
q3 -97 61 -149.5t161 -52.5q66 0 125 20t115 65zM597 770q-53 0 -93.5 -16.5t-71.5 -43.5t-52.5 -62t-35.5 -72h429q1 5 1 9v9q0 88 -48 132t-129 44zM375 1360h661l-45 -209h-661z" />
    <glyph glyph-name="Ebreve" unicode="&#x114;" horiz-adv-x="1294" 
d="M1162 578h-705l-69 -322h744l-55 -256h-1028l298 1400h1018l-55 -256h-733l-66 -310h706zM738 1867q16 -164 149 -164q63 0 113.5 40t92.5 124l197 -58q-73 -155 -176.5 -235t-250.5 -80q-70 0 -128 20.5t-100.5 60.5t-67.5 98.5t-29 135.5z" />
    <glyph glyph-name="ebreve" unicode="&#x115;" horiz-adv-x="1072" 
d="M910 111q-79 -70 -175 -103.5t-221 -33.5q-110 0 -195 32t-144 88.5t-89.5 134.5t-30.5 170q0 61 14 129t42.5 134.5t73.5 126.5t106.5 106t141.5 73t179 27q91 0 167 -28t131 -79.5t85 -124.5t30 -163q0 -25 -3 -52.5t-8 -54.5t-12 -51.5t-15 -43.5h-673
q3 -97 61 -149.5t161 -52.5q66 0 125 20t115 65zM597 770q-53 0 -93.5 -16.5t-71.5 -43.5t-52.5 -62t-35.5 -72h429q1 5 1 9v9q0 88 -48 132t-129 44zM519 1457q16 -164 149 -164q63 0 113.5 40t92.5 124l197 -58q-73 -155 -176.5 -235t-250.5 -80q-70 0 -128 20.5
t-100.5 60.5t-67.5 98.5t-29 135.5z" />
    <glyph glyph-name="Edotaccent" unicode="&#x116;" horiz-adv-x="1294" 
d="M1162 578h-705l-69 -322h744l-55 -256h-1028l298 1400h1018l-55 -256h-733l-66 -310h706zM881.006 1848.63q36.749 0 68.7744 -13.6494q32.0244 -13.6494 55.6484 -37.2744q23.625 -23.625 37.2754 -56.1748q13.6494 -32.5488 13.6494 -69.2988t-13.6494 -68.7744
q-13.6504 -32.0244 -37.2754 -55.6494q-23.624 -23.625 -55.6484 -36.749q-32.0254 -13.125 -68.7744 -13.125q-36.75 0 -68.7744 13.125q-32.0244 13.124 -55.6494 36.749t-36.75 55.6494q-13.124 32.0244 -13.124 68.7744t13.124 69.2988q13.125 32.5498 36.75 56.1748
t55.6494 37.2744t68.7744 13.6494z" />
    <glyph glyph-name="edotaccent" unicode="&#x117;" horiz-adv-x="1072" 
d="M910 111q-79 -70 -175 -103.5t-221 -33.5q-110 0 -195 32t-144 88.5t-89.5 134.5t-30.5 170q0 61 14 129t42.5 134.5t73.5 126.5t106.5 106t141.5 73t179 27q91 0 167 -28t131 -79.5t85 -124.5t30 -163q0 -25 -3 -52.5t-8 -54.5t-12 -51.5t-15 -43.5h-673
q3 -97 61 -149.5t161 -52.5q66 0 125 20t115 65zM597 770q-53 0 -93.5 -16.5t-71.5 -43.5t-52.5 -62t-35.5 -72h429q1 5 1 9v9q0 88 -48 132t-129 44zM688 1454q35 0 65.5 -13t53 -35.5t35.5 -53.5t13 -66t-13 -65.5t-35.5 -53t-53 -35t-65.5 -12.5t-65.5 12.5t-53 35
t-35 53t-12.5 65.5t12.5 66t35 53.5t53 35.5t65.5 13z" />
    <glyph glyph-name="Eogonek" unicode="&#x118;" horiz-adv-x="1294" 
d="M1162 578h-705l-69 -322h744l-55 -256h-1028l298 1400h1018l-55 -256h-733l-66 -310h706zM976 17q-65 -23 -105.5 -46.5t-63.5 -45.5t-31 -42t-8 -38q0 -26 20 -41.5t57 -15.5q29 0 56.5 10t54.5 28l109 -158q-57 -42 -121.5 -64t-136.5 -22q-66 0 -119 15.5t-91 43
t-58.5 66t-20.5 84.5q0 50 21 93t67.5 80t122 69t184.5 59z" />
    <glyph glyph-name="eogonek" unicode="&#x119;" horiz-adv-x="1072" 
d="M910 111q-79 -70 -175 -103.5t-221 -33.5q-110 0 -195 32t-144 88.5t-89.5 134.5t-30.5 170q0 61 14 129t42.5 134.5t73.5 126.5t106.5 106t141.5 73t179 27q91 0 167 -28t131 -79.5t85 -124.5t30 -163q0 -25 -3 -52.5t-8 -54.5t-12 -51.5t-15 -43.5h-673
q3 -97 61 -149.5t161 -52.5q66 0 125 20t115 65zM597 770q-53 0 -93.5 -16.5t-71.5 -43.5t-52.5 -62t-35.5 -72h429q1 5 1 9v9q0 88 -48 132t-129 44zM865 -329q-52 -44 -115 -67t-134 -23q-68 0 -124 16.5t-95.5 46.5t-61.5 71.5t-22 90.5q0 42 16.5 82t58 76.5t113 68
t181.5 57.5l83 -71q-69 -23 -110.5 -46t-63 -44.5t-28 -41t-6.5 -35.5q0 -29 21.5 -47t61.5 -18q29 0 55.5 10t52.5 28z" />
    <glyph glyph-name="Ecaron" unicode="&#x11a;" horiz-adv-x="1294" 
d="M1162 578h-705l-69 -322h744l-55 -256h-1028l298 1400h1018l-55 -256h-733l-66 -310h706zM793 1823l86 -155l149 155h264l-277 -315h-315l-153 315h246z" />
    <glyph glyph-name="ecaron" unicode="&#x11b;" horiz-adv-x="1072" 
d="M910 111q-79 -70 -175 -103.5t-221 -33.5q-110 0 -195 32t-144 88.5t-89.5 134.5t-30.5 170q0 61 14 129t42.5 134.5t73.5 126.5t106.5 106t141.5 73t179 27q91 0 167 -28t131 -79.5t85 -124.5t30 -163q0 -25 -3 -52.5t-8 -54.5t-12 -51.5t-15 -43.5h-673
q3 -97 61 -149.5t161 -52.5q66 0 125 20t115 65zM597 770q-53 0 -93.5 -16.5t-71.5 -43.5t-52.5 -62t-35.5 -72h429q1 5 1 9v9q0 88 -48 132t-129 44zM585 1413l86 -155l149 155h264l-277 -315h-315l-153 315h246z" />
    <glyph glyph-name="Gcircumflex" unicode="&#x11c;" horiz-adv-x="1579" 
d="M1218 1015q-54 68 -135 107t-189 39q-99 0 -185.5 -38t-151 -106.5t-101.5 -163t-37 -208.5q0 -95 29.5 -171t83.5 -129t128.5 -81.5t164.5 -28.5q160 0 261.5 77.5t143.5 225.5h-362l51 233h621q2 -23 0 -49t-5 -52q-20 -161 -82.5 -290t-158.5 -219t-220 -138.5
t-268 -48.5q-146 0 -270 47.5t-214.5 133.5t-141.5 206t-51 265q0 173 60.5 319.5t166.5 253t250 166.5t311 60q51 0 117 -8.5t136 -33t138 -69t124 -116.5zM1043 1508l-87 155l-148 -155h-264l277 315h315l153 -315h-246z" />
    <glyph glyph-name="gcircumflex" unicode="&#x11d;" horiz-adv-x="1194" 
d="M972 54q-24 -113 -71.5 -200t-116 -146t-156 -90t-191.5 -31q-133 0 -244.5 35t-211.5 104l122 206q72 -55 153.5 -85t171.5 -30q59 0 107.5 18t85 49.5t61 75.5t35.5 97l4 20q-45 -32 -101.5 -50.5t-131.5 -18.5q-92 0 -170 32t-135 88.5t-89 134t-32 169.5
q0 105 36.5 206.5t105.5 180.5t168 127.5t224 48.5q104 0 176 -32.5t115 -89.5l21 96h260zM544 248q59 0 109 21.5t86.5 59.5t57 90.5t20.5 115.5q0 48 -16 88t-44.5 69t-68.5 45.5t-87 16.5q-59 0 -109 -21.5t-86 -60t-56.5 -91.5t-20.5 -117q0 -47 16 -86.5t44.5 -68.5
t68 -45t86.5 -16zM792 1098l-87 155l-148 -155h-264l277 315h315l153 -315h-246z" />
    <glyph glyph-name="Gbreve" unicode="&#x11e;" horiz-adv-x="1579" 
d="M1218 1015q-54 68 -135 107t-189 39q-99 0 -185.5 -38t-151 -106.5t-101.5 -163t-37 -208.5q0 -95 29.5 -171t83.5 -129t128.5 -81.5t164.5 -28.5q160 0 261.5 77.5t143.5 225.5h-362l51 233h621q2 -23 0 -49t-5 -52q-20 -161 -82.5 -290t-158.5 -219t-220 -138.5
t-268 -48.5q-146 0 -270 47.5t-214.5 133.5t-141.5 206t-51 265q0 173 60.5 319.5t166.5 253t250 166.5t311 60q51 0 117 -8.5t136 -33t138 -69t124 -116.5zM806 1867q16 -164 149 -164q63 0 113.5 40t92.5 124l197 -58q-73 -155 -176.5 -235t-250.5 -80q-70 0 -128 20.5
t-100.5 60.5t-67.5 98.5t-29 135.5z" />
    <glyph glyph-name="gbreve" unicode="&#x11f;" horiz-adv-x="1194" 
d="M972 54q-24 -113 -71.5 -200t-116 -146t-156 -90t-191.5 -31q-133 0 -244.5 35t-211.5 104l122 206q72 -55 153.5 -85t171.5 -30q59 0 107.5 18t85 49.5t61 75.5t35.5 97l4 20q-45 -32 -101.5 -50.5t-131.5 -18.5q-92 0 -170 32t-135 88.5t-89 134t-32 169.5
q0 105 36.5 206.5t105.5 180.5t168 127.5t224 48.5q104 0 176 -32.5t115 -89.5l21 96h260zM544 248q59 0 109 21.5t86.5 59.5t57 90.5t20.5 115.5q0 48 -16 88t-44.5 69t-68.5 45.5t-87 16.5q-59 0 -109 -21.5t-86 -60t-56.5 -91.5t-20.5 -117q0 -47 16 -86.5t44.5 -68.5
t68 -45t86.5 -16zM545 1457q16 -164 149 -164q63 0 113.5 40t92.5 124l197 -58q-73 -155 -176.5 -235t-250.5 -80q-70 0 -128 20.5t-100.5 60.5t-67.5 98.5t-29 135.5z" />
    <glyph glyph-name="Gdotaccent" unicode="&#x120;" horiz-adv-x="1579" 
d="M1218 1015q-54 68 -135 107t-189 39q-99 0 -185.5 -38t-151 -106.5t-101.5 -163t-37 -208.5q0 -95 29.5 -171t83.5 -129t128.5 -81.5t164.5 -28.5q160 0 261.5 77.5t143.5 225.5h-362l51 233h621q2 -23 0 -49t-5 -52q-20 -161 -82.5 -290t-158.5 -219t-220 -138.5
t-268 -48.5q-146 0 -270 47.5t-214.5 133.5t-141.5 206t-51 265q0 173 60.5 319.5t166.5 253t250 166.5t311 60q51 0 117 -8.5t136 -33t138 -69t124 -116.5zM949.006 1848.63q36.749 0 68.7744 -13.6494q32.0244 -13.6494 55.6484 -37.2744q23.625 -23.625 37.2754 -56.1748
q13.6494 -32.5488 13.6494 -69.2988t-13.6494 -68.7744q-13.6504 -32.0244 -37.2754 -55.6494q-23.624 -23.625 -55.6484 -36.749q-32.0254 -13.125 -68.7744 -13.125q-36.75 0 -68.7744 13.125q-32.0244 13.124 -55.6494 36.749t-36.75 55.6494
q-13.124 32.0244 -13.124 68.7744t13.124 69.2988q13.125 32.5498 36.75 56.1748t55.6494 37.2744t68.7744 13.6494z" />
    <glyph glyph-name="gdotaccent" unicode="&#x121;" horiz-adv-x="1194" 
d="M972 54q-24 -113 -71.5 -200t-116 -146t-156 -90t-191.5 -31q-133 0 -244.5 35t-211.5 104l122 206q72 -55 153.5 -85t171.5 -30q59 0 107.5 18t85 49.5t61 75.5t35.5 97l4 20q-45 -32 -101.5 -50.5t-131.5 -18.5q-92 0 -170 32t-135 88.5t-89 134t-32 169.5
q0 105 36.5 206.5t105.5 180.5t168 127.5t224 48.5q104 0 176 -32.5t115 -89.5l21 96h260zM544 248q59 0 109 21.5t86.5 59.5t57 90.5t20.5 115.5q0 48 -16 88t-44.5 69t-68.5 45.5t-87 16.5q-59 0 -109 -21.5t-86 -60t-56.5 -91.5t-20.5 -117q0 -47 16 -86.5t44.5 -68.5
t68 -45t86.5 -16zM714 1454q35 0 65.5 -13t53 -35.5t35.5 -53.5t13 -66t-13 -65.5t-35.5 -53t-53 -35t-65.5 -12.5t-65.5 12.5t-53 35t-35 53t-12.5 65.5t12.5 66t35 53.5t53 35.5t65.5 13z" />
    <glyph glyph-name="Gcommaaccent" unicode="&#x122;" horiz-adv-x="1579" 
d="M1218 1015q-54 68 -135 107t-189 39q-99 0 -185.5 -38t-151 -106.5t-101.5 -163t-37 -208.5q0 -95 29.5 -171t83.5 -129t128.5 -81.5t164.5 -28.5q160 0 261.5 77.5t143.5 225.5h-362l51 233h621q2 -23 0 -49t-5 -52q-20 -161 -82.5 -290t-158.5 -219t-220 -138.5
t-268 -48.5q-146 0 -270 47.5t-214.5 133.5t-141.5 206t-51 265q0 173 60.5 319.5t166.5 253t250 166.5t311 60q51 0 117 -8.5t136 -33t138 -69t124 -116.5zM894 -84l-166 -389h-229l126 389h269z" />
    <glyph glyph-name="gcommaaccent" unicode="&#x123;" horiz-adv-x="1194" 
d="M972 54q-24 -113 -71.5 -200t-116 -146t-156 -90t-191.5 -31q-133 0 -244.5 35t-211.5 104l122 206q72 -55 153.5 -85t171.5 -30q59 0 107.5 18t85 49.5t61 75.5t35.5 97l4 20q-45 -32 -101.5 -50.5t-131.5 -18.5q-92 0 -170 32t-135 88.5t-89 134t-32 169.5
q0 105 36.5 206.5t105.5 180.5t168 127.5t224 48.5q104 0 176 -32.5t115 -89.5l21 96h260zM544 248q59 0 109 21.5t86.5 59.5t57 90.5t20.5 115.5q0 48 -16 88t-44.5 69t-68.5 45.5t-87 16.5q-59 0 -109 -21.5t-86 -60t-56.5 -91.5t-20.5 -117q0 -47 16 -86.5t44.5 -68.5
t68 -45t86.5 -16zM543 1108l165 389h230l-126 -389h-269z" />
    <glyph glyph-name="Hcircumflex" unicode="&#x124;" horiz-adv-x="1532" 
d="M512 836h657l121 564h285l-299 -1400h-285l123 576h-658l-122 -576h-285l298 1400h285zM1087 1508l-87 155l-148 -155h-264l277 315h315l153 -315h-246z" />
    <glyph glyph-name="hcircumflex" unicode="&#x125;" horiz-adv-x="1161" 
d="M742 995q76 0 136.5 -24t102.5 -67t64.5 -103t22.5 -131q0 -25 -2.5 -51.5t-8.5 -53.5l-121 -565h-262l117 544q7 31 7 64q0 30 -8 56t-26 45t-47 30t-70 11t-79.5 -12t-71.5 -39.5t-58.5 -71.5t-38.5 -107l-110 -520h-263l306 1440h262l-117 -553q59 61 126.5 84.5
t138.5 23.5zM907 1529l-87 155l-148 -155h-264l277 315h315l153 -315h-246z" />
    <glyph glyph-name="Hbar" unicode="&#x126;" horiz-adv-x="1590" 
d="M1652 992h-131l-212 -992h-285l123 576h-658l-122 -576h-285l211 992h-137l44 218h139l41 190h285l-41 -190h658l41 190h285l-41 -190h129zM1202 836l33 156h-657l-33 -156h657z" />
    <glyph glyph-name="hbar" unicode="&#x127;" horiz-adv-x="1161" 
d="M868 1090h-348l-43 -203q59 61 126.5 84.5t138.5 23.5q76 0 136.5 -24t102.5 -67t64.5 -103t22.5 -131q0 -25 -2.5 -51.5t-8.5 -53.5l-121 -565h-262l117 544q7 31 7 64q0 30 -8 56t-26 45t-47 30t-70 11t-79.5 -12t-71.5 -39.5t-58.5 -71.5t-38.5 -107l-110 -520h-263
l231 1090h-117l43 215h120l29 135h262l-29 -135h347z" />
    <glyph glyph-name="Itilde" unicode="&#x128;" horiz-adv-x="589" 
d="M334 0h-285l298 1400h285zM109 1685q64 71 129 98.5t140 27.5q55 0 93.5 -11t67 -24t51 -24t45.5 -11q35 0 66 19.5t69 51.5l128 -158q-63 -71 -128.5 -99t-140.5 -28q-55 0 -93 11t-66.5 24t-50.5 24t-46 11q-35 0 -66.5 -19t-68.5 -51z" />
    <glyph glyph-name="itilde" unicode="&#x129;" horiz-adv-x="521" 
d="M289 0h-263l206 969h263zM3 1275q64 71 129 98.5t140 27.5q55 0 93.5 -11t67 -24t51 -24t45.5 -11q35 0 66 19.5t69 51.5l128 -158q-63 -71 -128.5 -99t-140.5 -28q-55 0 -93 11t-66.5 24t-50.5 24t-46 11q-35 0 -66.5 -19t-68.5 -51z" />
    <glyph glyph-name="Imacron" unicode="&#x12a;" horiz-adv-x="589" 
d="M334 0h-285l298 1400h285zM224 1770h661l-45 -209h-661z" />
    <glyph glyph-name="imacron" unicode="&#x12b;" horiz-adv-x="521" 
d="M289 0h-263l206 969h263zM117 1360h661l-45 -209h-661z" />
    <glyph glyph-name="Ibreve" unicode="&#x12c;" horiz-adv-x="589" 
d="M334 0h-285l298 1400h285zM376 1867q16 -164 149 -164q63 0 113.5 40t92.5 124l197 -58q-73 -155 -176.5 -235t-250.5 -80q-70 0 -128 20.5t-100.5 60.5t-67.5 98.5t-29 135.5z" />
    <glyph glyph-name="ibreve" unicode="&#x12d;" horiz-adv-x="521" 
d="M289 0h-263l206 969h263zM261 1457q16 -164 149 -164q63 0 113.5 40t92.5 124l197 -58q-73 -155 -176.5 -235t-250.5 -80q-70 0 -128 20.5t-100.5 60.5t-67.5 98.5t-29 135.5z" />
    <glyph glyph-name="Iogonek" unicode="&#x12e;" horiz-adv-x="589" 
d="M334 0h-285l298 1400h285zM398 -343q-42 -35 -96.5 -55.5t-117.5 -20.5q-58 0 -105 13.5t-80.5 39t-52 61t-18.5 80.5q0 96 81 167t230 133l69 -75q-47 -25 -76.5 -48.5t-46 -45t-22.5 -40t-6 -32.5q0 -23 15.5 -35.5t41.5 -12.5q37 0 76 30z" />
    <glyph glyph-name="iogonek" unicode="&#x12f;" horiz-adv-x="521" 
d="M360 -343q-42 -35 -96.5 -55.5t-117.5 -20.5q-58 0 -105 13.5t-80.5 39t-52 61t-18.5 80.5q0 96 81 167t230 133l69 -75q-47 -25 -76.5 -48.5t-46 -45t-22.5 -40t-6 -32.5q0 -23 15.5 -35.5t41.5 -12.5q37 0 76 30zM289 0h-263l206 969h263zM430 1454q35 0 65.5 -13
t53 -35.5t35.5 -53.5t13 -66t-13 -65.5t-35.5 -53t-53 -35t-65.5 -12.5t-65.5 12.5t-53 35t-35 53t-12.5 65.5t12.5 66t35 53.5t53 35.5t65.5 13z" />
    <glyph glyph-name="Idotaccent" unicode="&#x130;" horiz-adv-x="589" 
d="M334 0h-285l298 1400h285zM519.006 1848.63q36.749 0 68.7744 -13.6494q32.0244 -13.6494 55.6484 -37.2744q23.625 -23.625 37.2754 -56.1748q13.6494 -32.5488 13.6494 -69.2988t-13.6494 -68.7744q-13.6504 -32.0244 -37.2754 -55.6494
q-23.624 -23.625 -55.6484 -36.749q-32.0254 -13.125 -68.7744 -13.125q-36.75 0 -68.7744 13.125q-32.0244 13.124 -55.6494 36.749t-36.75 55.6494q-13.124 32.0244 -13.124 68.7744t13.124 69.2988q13.125 32.5498 36.75 56.1748t55.6494 37.2744t68.7744 13.6494z" />
    <glyph glyph-name="dotlessi" unicode="&#x131;" horiz-adv-x="521" 
d="M289 0h-263l206 969h263z" />
    <glyph glyph-name="IJ" unicode="&#x132;" horiz-adv-x="1663" 
d="M334 0h-285l298 1400h285zM1519 485q-28 -135 -77.5 -231.5t-118 -158.5t-156 -91t-192.5 -29q-67 0 -128.5 13.5t-115.5 39t-98.5 62t-77.5 83.5l177 197q19 -26 44 -49.5t56 -41t67.5 -27.5t77.5 -10q106 0 171 71.5t98 228.5l181 858h284z" />
    <glyph glyph-name="ij" unicode="&#x133;" horiz-adv-x="1049" 
d="M793 -113q-17 -78 -49.5 -136t-77.5 -96.5t-100.5 -57t-119.5 -18.5q-49 0 -95 10.5t-81 27.5l81 219q17 -8 35 -11t34 -3q39 0 73 26.5t47 86.5l219 1034h264zM956 1454q35 0 65.5 -13t53 -35.5t35.5 -53.5t13 -66t-13 -65.5t-35.5 -53t-53 -35t-65.5 -12.5t-65.5 12.5
t-53 35t-35 53t-12.5 65.5t12.5 66t35 53.5t53 35.5t65.5 13zM289 0h-263l206 969h263zM430 1454q35 0 65.5 -13t53 -35.5t35.5 -53.5t13 -66t-13 -65.5t-35.5 -53t-53 -35t-65.5 -12.5t-65.5 12.5t-53 35t-35 53t-12.5 65.5t12.5 66t35 53.5t53 35.5t65.5 13z" />
    <glyph glyph-name="Jcircumflex" unicode="&#x134;" horiz-adv-x="1074" 
d="M930 485q-28 -135 -77.5 -231.5t-118 -158.5t-156 -91t-192.5 -29q-67 0 -128.5 13.5t-115.5 39t-98.5 62t-77.5 83.5l177 197q19 -26 44 -49.5t56 -41t67.5 -27.5t77.5 -10q106 0 171 71.5t98 228.5l181 858h284zM1104 1508l-87 155l-148 -155h-264l277 315h315
l153 -315h-246z" />
    <glyph glyph-name="jcircumflex" unicode="&#x135;" horiz-adv-x="528" 
d="M272 -113q-17 -78 -49.5 -136t-77.5 -96.5t-100.5 -57t-119.5 -18.5q-49 0 -95 10.5t-81 27.5l81 219q17 -8 35 -11t34 -3q39 0 73 26.5t47 86.5l219 1034h264zM513 1098l-87 155l-148 -155h-264l277 315h315l153 -315h-246z" />
    <glyph glyph-name="Kcommaaccent" unicode="&#x136;" horiz-adv-x="1388" 
d="M511 833h105l549 567h362l-708 -701l476 -699h-327l-386 576h-126l-122 -576h-285l298 1400h285zM764 -84l-166 -389h-229l126 389h269z" />
    <glyph glyph-name="kcommaaccent" unicode="&#x137;" horiz-adv-x="1070" 
d="M422 624h78l321 345h329l-467 -477l288 -492h-289l-220 392h-90l-83 -392h-263l306 1440h263zM598 -84l-166 -389h-229l126 389h269z" />
    <glyph glyph-name="kgreenlandic" unicode="&#x138;" horiz-adv-x="1068" 
d="M970 0h-290l-219 392h-89l-83 -392h-263l206 969h263l-73 -345h77l321 345h328l-467 -477z" />
    <glyph glyph-name="Lacute" unicode="&#x139;" horiz-adv-x="1184" 
d="M389 261h717l-56 -261h-1001l298 1400h285zM317 1517l232 316h319l-296 -316h-255z" />
    <glyph glyph-name="lacute" unicode="&#x13a;" horiz-adv-x="521" 
d="M289 0h-263l306 1440h263zM282 1517l232 316h319l-296 -316h-255z" />
    <glyph glyph-name="Lcommaaccent" unicode="&#x13b;" horiz-adv-x="1184" 
d="M389 261h717l-56 -261h-1001l298 1400h285zM702 -84l-166 -389h-229l126 389h269z" />
    <glyph glyph-name="lcommaaccent" unicode="&#x13c;" horiz-adv-x="521" 
d="M289 0h-263l306 1440h263zM276 -84l-166 -389h-229l126 389h269z" />
    <glyph glyph-name="Lcaron" unicode="&#x13d;" horiz-adv-x="1184" 
d="M389 261h717l-56 -261h-1001l298 1400h285zM716 973l91 428h273l-158 -428h-206z" />
    <glyph glyph-name="lcaron" unicode="&#x13e;" horiz-adv-x="662" 
d="M289 0h-263l306 1440h263zM613 1012l91 428h273l-158 -428h-206z" />
    <glyph glyph-name="Ldot" unicode="&#x13f;" horiz-adv-x="1184" 
d="M389 261h717l-56 -261h-1001l298 1400h285zM902.006 890.632q36.749 0 68.7744 -13.6494q32.0244 -13.6494 55.6484 -37.2744q23.625 -23.625 37.2754 -56.1748q13.6494 -32.5488 13.6494 -69.2988t-13.6494 -68.7744q-13.6504 -32.0244 -37.2754 -55.6494
q-23.624 -23.625 -55.6484 -36.749q-32.0254 -13.125 -68.7744 -13.125q-36.75 0 -68.7744 13.125q-32.0244 13.124 -55.6494 36.749t-36.75 55.6494q-13.124 32.0244 -13.124 68.7744t13.124 69.2988q13.125 32.5498 36.75 56.1748t55.6494 37.2744t68.7744 13.6494z" />
    <glyph glyph-name="ldot" unicode="&#x140;" horiz-adv-x="730" 
d="M289 0h-263l306 1440h263zM689.891 892.805q33.791 0 63.2373 -12.5508t51.1699 -34.2734q21.7227 -21.7227 34.2734 -51.6523q12.5508 -29.9287 12.5508 -63.7197t-12.5508 -63.2373t-34.2734 -51.1689q-21.7236 -21.7227 -51.1699 -33.791t-63.2373 -12.0684
q-33.79 0 -63.2363 12.0684q-29.4473 12.0684 -51.1699 33.791t-33.79 51.1689q-12.0684 29.4463 -12.0684 63.2373t12.0684 63.7197q12.0674 29.9297 33.79 51.6523t51.1699 34.2734q29.4463 12.5508 63.2363 12.5508z" />
    <glyph glyph-name="Lslash" unicode="&#x141;" horiz-adv-x="1304" 
d="M642 886l446 218l-62 -292l-446 -219l-71 -332h717l-56 -261h-1001l93 438l-202 -99l62 292l202 99l143 670h285z" />
    <glyph glyph-name="lslash" unicode="&#x142;" horiz-adv-x="701" 
d="M582 966l205 105l-58 -273l-205 -106l-147 -692h-263l115 541l-201 -103l58 273l201 103l133 626h263z" />
    <glyph glyph-name="Nacute" unicode="&#x143;" horiz-adv-x="1545" 
d="M1290 0h-262l-490 964l-205 -964h-284l298 1400h263l489 -964l205 964h284zM783 1517l232 316h319l-296 -316h-255z" />
    <glyph glyph-name="nacute" unicode="&#x144;" horiz-adv-x="1161" 
d="M742 995q76 0 136.5 -24t102.5 -67t64.5 -103t22.5 -131q0 -25 -2.5 -51.5t-8.5 -53.5l-121 -565h-262l117 544q7 31 7 64q0 30 -8 56t-26 45t-47 30t-71 11q-41 0 -79.5 -12t-71.5 -39.5t-58.5 -71.5t-38.5 -107l-110 -520h-262l206 969h252l-22 -98q61 70 133 97
t147 27zM522 1107l232 316h319l-296 -316h-255z" />
    <glyph glyph-name="Ncommaaccent" unicode="&#x145;" horiz-adv-x="1545" 
d="M1290 0h-262l-490 964l-205 -964h-284l298 1400h263l489 -964l205 964h284zM820 -84l-166 -389h-229l126 389h269z" />
    <glyph glyph-name="ncommaaccent" unicode="&#x146;" horiz-adv-x="1161" 
d="M742 995q76 0 136.5 -24t102.5 -67t64.5 -103t22.5 -131q0 -25 -2.5 -51.5t-8.5 -53.5l-121 -565h-262l117 544q7 31 7 64q0 30 -8 56t-26 45t-47 30t-71 11q-41 0 -79.5 -12t-71.5 -39.5t-58.5 -71.5t-38.5 -107l-110 -520h-262l206 969h252l-22 -98q61 70 133 97
t147 27zM600 -84l-166 -389h-229l126 389h269z" />
    <glyph glyph-name="Ncaron" unicode="&#x147;" horiz-adv-x="1545" 
d="M1290 0h-262l-490 964l-205 -964h-284l298 1400h263l489 -964l205 964h284zM897 1823l86 -155l149 155h264l-277 -315h-315l-153 315h246z" />
    <glyph glyph-name="ncaron" unicode="&#x148;" horiz-adv-x="1161" 
d="M742 995q76 0 136.5 -24t102.5 -67t64.5 -103t22.5 -131q0 -25 -2.5 -51.5t-8.5 -53.5l-121 -565h-262l117 544q7 31 7 64q0 30 -8 56t-26 45t-47 30t-71 11q-41 0 -79.5 -12t-71.5 -39.5t-58.5 -71.5t-38.5 -107l-110 -520h-262l206 969h252l-22 -98q61 70 133 97
t147 27zM635 1413l86 -155l149 155h264l-277 -315h-315l-153 315h246z" />
    <glyph glyph-name="napostrophe" unicode="&#x149;" horiz-adv-x="1468" 
d="M642 1440l-252 -596h-234l194 596h292zM1049 995q76 0 136.5 -24t102.5 -67t64.5 -103t22.5 -131q0 -25 -2.5 -51.5t-8.5 -53.5l-121 -565h-262l117 544q7 31 7 64q0 30 -8 56t-26 45t-47 30t-71 11q-41 0 -79.5 -12t-71.5 -39.5t-58.5 -71.5t-38.5 -107l-110 -520h-262
l206 969h252l-22 -98q61 70 133 97t147 27z" />
    <glyph glyph-name="Eng" unicode="&#x14a;" horiz-adv-x="1545" 
d="M1278 -58q-18 -85 -54 -151.5t-89.5 -113t-124.5 -71t-160 -24.5q-91 0 -170 24t-128 66l137 224q32 -25 71 -38t88 -13q68 0 107.5 41t55.5 115l5 23l-478 940l-205 -964h-284l298 1400h263l489 -964l205 964h284z" />
    <glyph glyph-name="eng" unicode="&#x14b;" horiz-adv-x="1162" 
d="M742 995q76 0 136.5 -24t102.5 -67t64.5 -103t22.5 -131q0 -25 -2.5 -51.5t-8.5 -53.5l-134 -625q-17 -78 -49 -134t-76 -92.5t-97 -54t-110 -17.5q-53 0 -97.5 10t-75.5 25l72 220q18 -7 36 -9.5t36 -2.5q37 0 68 25.5t43 81.5l118 552q7 31 7 64q0 30 -8 56t-26 45
t-47 30t-71 11q-41 0 -79.5 -12t-71.5 -39.5t-58.5 -71.5t-38.5 -107l-110 -520h-262l206 969h252l-22 -98q61 70 133 97t147 27z" />
    <glyph glyph-name="Omacron" unicode="&#x14c;" horiz-adv-x="1632" 
d="M915 1425q146 0 270.5 -47t215.5 -132.5t142.5 -206t51.5 -268.5q0 -109 -26 -210t-75 -189.5t-119 -161.5t-157.5 -125.5t-190.5 -81.5t-218 -29q-146 0 -270.5 47t-215.5 132.5t-142.5 206.5t-51.5 269q0 108 26 209t75 189.5t119 161.5t157.5 125.5t190.5 81.5t218 29
zM897 1158q-106 0 -193.5 -41.5t-150.5 -111.5t-97.5 -162.5t-34.5 -194.5q0 -93 30 -168t84 -128t128.5 -81.5t164.5 -28.5q105 0 192.5 41t150 111t97.5 162.5t35 195.5q0 92 -30 167t-84 128t-128.5 82t-163.5 29zM674 1770h661l-45 -209h-661z" />
    <glyph glyph-name="omacron" unicode="&#x14d;" horiz-adv-x="1171" 
d="M624 995q105 0 193.5 -34t153 -95t101 -146.5t36.5 -188.5q0 -114 -42 -215.5t-117 -177t-178 -120t-224 -44.5q-104 0 -193 33.5t-153.5 95t-101 147t-36.5 189.5q0 114 42 215t117 176.5t178 120t224 44.5zM606 752q-59 0 -109.5 -23.5t-87.5 -63.5t-58 -94.5
t-21 -115.5q0 -53 17 -96.5t48 -75t74 -49t94 -17.5q59 0 110 23.5t88.5 64t58.5 94.5t21 115q0 52 -17 96t-48 75.5t-74.5 49t-95.5 17.5zM398 1359h661l-45 -209h-661z" />
    <glyph glyph-name="Obreve" unicode="&#x14e;" horiz-adv-x="1632" 
d="M915 1425q146 0 270.5 -47t215.5 -132.5t142.5 -206t51.5 -268.5q0 -109 -26 -210t-75 -189.5t-119 -161.5t-157.5 -125.5t-190.5 -81.5t-218 -29q-146 0 -270.5 47t-215.5 132.5t-142.5 206.5t-51.5 269q0 108 26 209t75 189.5t119 161.5t157.5 125.5t190.5 81.5t218 29
zM897 1158q-106 0 -193.5 -41.5t-150.5 -111.5t-97.5 -162.5t-34.5 -194.5q0 -93 30 -168t84 -128t128.5 -81.5t164.5 -28.5q105 0 192.5 41t150 111t97.5 162.5t35 195.5q0 92 -30 167t-84 128t-128.5 82t-163.5 29zM826 1867q16 -164 149 -164q63 0 113.5 40t92.5 124
l197 -58q-73 -155 -176.5 -235t-250.5 -80q-70 0 -128 20.5t-100.5 60.5t-67.5 98.5t-29 135.5z" />
    <glyph glyph-name="obreve" unicode="&#x14f;" horiz-adv-x="1171" 
d="M624 995q105 0 193.5 -34t153 -95t101 -146.5t36.5 -188.5q0 -114 -42 -215.5t-117 -177t-178 -120t-224 -44.5q-104 0 -193 33.5t-153.5 95t-101 147t-36.5 189.5q0 114 42 215t117 176.5t178 120t224 44.5zM606 752q-59 0 -109.5 -23.5t-87.5 -63.5t-58 -94.5
t-21 -115.5q0 -53 17 -96.5t48 -75t74 -49t94 -17.5q59 0 110 23.5t88.5 64t58.5 94.5t21 115q0 52 -17 96t-48 75.5t-74.5 49t-95.5 17.5zM542 1456q16 -164 149 -164q63 0 113.5 40t92.5 124l197 -58q-73 -155 -176.5 -235t-250.5 -80q-70 0 -128 20.5t-100.5 60.5
t-67.5 98.5t-29 135.5z" />
    <glyph glyph-name="Ohungarumlaut" unicode="&#x150;" horiz-adv-x="1632" 
d="M915 1425q146 0 270.5 -47t215.5 -132.5t142.5 -206t51.5 -268.5q0 -109 -26 -210t-75 -189.5t-119 -161.5t-157.5 -125.5t-190.5 -81.5t-218 -29q-146 0 -270.5 47t-215.5 132.5t-142.5 206.5t-51.5 269q0 108 26 209t75 189.5t119 161.5t157.5 125.5t190.5 81.5t218 29
zM897 1158q-106 0 -193.5 -41.5t-150.5 -111.5t-97.5 -162.5t-34.5 -194.5q0 -93 30 -168t84 -128t128.5 -81.5t164.5 -28.5q105 0 192.5 41t150 111t97.5 162.5t35 195.5q0 92 -30 167t-84 128t-128.5 82t-163.5 29zM1001 1518l253 315h288l-280 -315h-261zM627 1518
l226 315h283l-254 -315h-255z" />
    <glyph glyph-name="ohungarumlaut" unicode="&#x151;" horiz-adv-x="1171" 
d="M624 995q105 0 193.5 -34t153 -95t101 -146.5t36.5 -188.5q0 -114 -42 -215.5t-117 -177t-178 -120t-224 -44.5q-104 0 -193 33.5t-153.5 95t-101 147t-36.5 189.5q0 114 42 215t117 176.5t178 120t224 44.5zM606 752q-59 0 -109.5 -23.5t-87.5 -63.5t-58 -94.5
t-21 -115.5q0 -53 17 -96.5t48 -75t74 -49t94 -17.5q59 0 110 23.5t88.5 64t58.5 94.5t21 115q0 52 -17 96t-48 75.5t-74.5 49t-95.5 17.5zM711 1107l253 315h288l-280 -315h-261zM337 1107l226 315h283l-254 -315h-255z" />
    <glyph glyph-name="OE" unicode="&#x152;" horiz-adv-x="2163" 
d="M2031 578h-705l-69 -322h744l-55 -256h-1179q-150 0 -270 44t-203 122.5t-127.5 187t-44.5 236.5q0 168 57.5 315.5t167 257.5t269.5 173.5t365 63.5h1253l-55 -256h-733l-66 -310h706zM417 623q0 -80 22.5 -146.5t69.5 -114.5t119 -74.5t171 -26.5h174l187 878h-212
q-125 0 -224 -39t-167 -108t-104 -163.5t-36 -205.5z" />
    <glyph glyph-name="oe" unicode="&#x153;" horiz-adv-x="1843" 
d="M1681 111q-79 -70 -175 -103.5t-221 -33.5q-123 0 -212.5 44t-143.5 121q-72 -77 -169.5 -121t-212.5 -44q-104 0 -193 33.5t-153.5 95t-101 147t-36.5 189.5q0 114 42 215t117 176.5t178 120t224 44.5q118 0 213 -47.5t155 -132.5q32 40 72 73t89 57t106 37t124 13
q91 0 167 -28t131 -79.5t85 -124.5t30 -163q0 -25 -3 -52.5t-8 -54.5t-12 -51.5t-15 -43.5h-673q3 -97 61 -149.5t161 -52.5q67 0 126 20t114 65zM606 752q-59 0 -109.5 -23.5t-87.5 -63.5t-58 -94.5t-21 -115.5q0 -53 17 -96.5t48 -75t74 -49t94 -17.5q59 0 110 23.5
t88.5 64t58.5 94.5t21 115q0 52 -17 96t-48 75.5t-74.5 49t-95.5 17.5zM1368 770q-53 0 -93.5 -16.5t-71.5 -43.5t-52.5 -62t-35.5 -72h429q1 5 1 9v9q0 88 -48 132t-129 44z" />
    <glyph glyph-name="Racute" unicode="&#x154;" horiz-adv-x="1329" 
d="M880 1400q113 0 200 -29.5t146 -80.5t89 -120t30 -148q0 -50 -11 -102.5t-35.5 -102.5t-64 -94.5t-96.5 -79.5t-134 -57.5t-175 -27.5l385 -558h-326l-362 557h-74l-118 -557h-285l298 1400h533zM577 1142l-73 -342h295q77 0 126.5 17t78.5 45t40.5 62t11.5 69
q0 69 -53.5 109t-156.5 40h-269zM648 1517l232 316h319l-296 -316h-255z" />
    <glyph glyph-name="racute" unicode="&#x155;" horiz-adv-x="817" 
d="M288 0h-262l206 969h252l-23 -102q61 73 132 100.5t144 27.5q35 0 72.5 -7.5t71.5 -21.5l-84 -251q-29 15 -66.5 23t-74.5 8q-46 0 -87 -14t-75 -42.5t-59 -71.5t-38 -102zM390 1107l232 316h319l-296 -316h-255z" />
    <glyph glyph-name="Rcommaaccent" unicode="&#x156;" horiz-adv-x="1329" 
d="M880 1400q113 0 200 -29.5t146 -80.5t89 -120t30 -148q0 -50 -11 -102.5t-35.5 -102.5t-64 -94.5t-96.5 -79.5t-134 -57.5t-175 -27.5l385 -558h-326l-362 557h-74l-118 -557h-285l298 1400h533zM577 1142l-73 -342h295q77 0 126.5 17t78.5 45t40.5 62t11.5 69
q0 69 -53.5 109t-156.5 40h-269zM740 -84l-166 -389h-229l126 389h269z" />
    <glyph glyph-name="rcommaaccent" unicode="&#x157;" horiz-adv-x="817" 
d="M288 0h-262l206 969h252l-23 -102q61 73 132 100.5t144 27.5q35 0 72.5 -7.5t71.5 -21.5l-84 -251q-29 15 -66.5 23t-74.5 8q-46 0 -87 -14t-75 -42.5t-59 -71.5t-38 -102zM276 -84l-166 -389h-229l126 389h269z" />
    <glyph glyph-name="Rcaron" unicode="&#x158;" horiz-adv-x="1329" 
d="M880 1400q113 0 200 -29.5t146 -80.5t89 -120t30 -148q0 -50 -11 -102.5t-35.5 -102.5t-64 -94.5t-96.5 -79.5t-134 -57.5t-175 -27.5l385 -558h-326l-362 557h-74l-118 -557h-285l298 1400h533zM577 1142l-73 -342h295q77 0 126.5 17t78.5 45t40.5 62t11.5 69
q0 69 -53.5 109t-156.5 40h-269zM762 1823l86 -155l149 155h264l-277 -315h-315l-153 315h246z" />
    <glyph glyph-name="rcaron" unicode="&#x159;" horiz-adv-x="817" 
d="M288 0h-262l206 969h252l-23 -102q61 73 132 100.5t144 27.5q35 0 72.5 -7.5t71.5 -21.5l-84 -251q-29 15 -66.5 23t-74.5 8q-46 0 -87 -14t-75 -42.5t-59 -71.5t-38 -102zM503 1413l86 -155l149 155h264l-277 -315h-315l-153 315h246z" />
    <glyph glyph-name="Sacute" unicode="&#x15a;" horiz-adv-x="1328" 
d="M1189 1037q-53 37 -108.5 61.5t-110.5 39.5t-106.5 21.5t-95.5 6.5q-69 0 -118 -14.5t-80 -39t-45.5 -56t-14.5 -64.5q0 -36 17 -61.5t46 -44t69 -31t87 -21.5l84 -16q88 -17 164 -46.5t131 -74.5t86.5 -108t31.5 -145q0 -107 -44 -194t-122.5 -148.5t-188.5 -94.5
t-242 -33q-64 0 -142 10t-158.5 33.5t-157.5 61t-138 91.5l161 224q50 -45 110 -76t121 -50t119 -27.5t103 -8.5q59 0 110 11.5t88.5 33t59 54t21.5 74.5q0 33 -15.5 57.5t-46 43.5t-77 33t-107.5 25l-89 17q-86 16 -156 47t-120.5 77.5t-78 108t-27.5 139.5q0 95 36 181
t107.5 150.5t177 102.5t245.5 38q63 0 131 -7t140 -25t145.5 -50t146.5 -82zM646 1517l232 316h319l-296 -316h-255z" />
    <glyph glyph-name="sacute" unicode="&#x15b;" horiz-adv-x="967" 
d="M843 692q-34 21 -74.5 37t-82 26.5t-79.5 16t-68 5.5q-72 0 -111 -20.5t-44 -58.5q-3 -26 5.5 -41.5t26.5 -26t44.5 -17t59.5 -12.5l65 -12q82 -15 140 -42.5t93 -66t48 -87t6 -104.5q-9 -73 -42.5 -131t-90 -98.5t-135 -62.5t-176.5 -22q-58 0 -118.5 8.5t-118 25
t-110.5 41t-95 56.5l125 191q67 -46 149.5 -75.5t171.5 -29.5q86 0 128 23.5t47 66.5q4 37 -27.5 58t-106.5 34l-67 11q-83 13 -141.5 41t-94 67t-48.5 89t-6 109q9 74 42.5 130.5t88 95t128.5 58t164 19.5q123 0 228 -27.5t195 -79.5zM418 1107l232 316h319l-296 -316h-255
z" />
    <glyph glyph-name="Scircumflex" unicode="&#x15c;" horiz-adv-x="1328" 
d="M1189 1037q-53 37 -108.5 61.5t-110.5 39.5t-106.5 21.5t-95.5 6.5q-69 0 -118 -14.5t-80 -39t-45.5 -56t-14.5 -64.5q0 -36 17 -61.5t46 -44t69 -31t87 -21.5l84 -16q88 -17 164 -46.5t131 -74.5t86.5 -108t31.5 -145q0 -107 -44 -194t-122.5 -148.5t-188.5 -94.5
t-242 -33q-64 0 -142 10t-158.5 33.5t-157.5 61t-138 91.5l161 224q50 -45 110 -76t121 -50t119 -27.5t103 -8.5q59 0 110 11.5t88.5 33t59 54t21.5 74.5q0 33 -15.5 57.5t-46 43.5t-77 33t-107.5 25l-89 17q-86 16 -156 47t-120.5 77.5t-78 108t-27.5 139.5q0 95 36 181
t107.5 150.5t177 102.5t245.5 38q63 0 131 -7t140 -25t145.5 -50t146.5 -82zM942 1508l-87 155l-148 -155h-264l277 315h315l153 -315h-246z" />
    <glyph glyph-name="scircumflex" unicode="&#x15d;" horiz-adv-x="967" 
d="M843 692q-34 21 -74.5 37t-82 26.5t-79.5 16t-68 5.5q-72 0 -111 -20.5t-44 -58.5q-3 -26 5.5 -41.5t26.5 -26t44.5 -17t59.5 -12.5l65 -12q82 -15 140 -42.5t93 -66t48 -87t6 -104.5q-9 -73 -42.5 -131t-90 -98.5t-135 -62.5t-176.5 -22q-58 0 -118.5 8.5t-118 25
t-110.5 41t-95 56.5l125 191q67 -46 149.5 -75.5t171.5 -29.5q86 0 128 23.5t47 66.5q4 37 -27.5 58t-106.5 34l-67 11q-83 13 -141.5 41t-94 67t-48.5 89t-6 109q9 74 42.5 130.5t88 95t128.5 58t164 19.5q123 0 228 -27.5t195 -79.5zM712 1098l-87 155l-148 -155h-264
l277 315h315l153 -315h-246z" />
    <glyph glyph-name="Scedilla" unicode="&#x15e;" horiz-adv-x="1328" 
d="M1189 1037q-53 37 -108.5 61.5t-110.5 39.5t-106.5 21.5t-95.5 6.5q-69 0 -118 -14.5t-80 -39t-45.5 -56t-14.5 -64.5q0 -36 17 -61.5t46 -44t69 -31t87 -21.5l84 -16q88 -17 164 -46.5t131 -74.5t86.5 -108t31.5 -145q0 -107 -44 -194t-122.5 -148.5t-188.5 -94.5
t-242 -33q-64 0 -142 10t-158.5 33.5t-157.5 61t-138 91.5l161 224q50 -45 110 -76t121 -50t119 -27.5t103 -8.5q59 0 110 11.5t88.5 33t59 54t21.5 74.5q0 33 -15.5 57.5t-46 43.5t-77 33t-107.5 25l-89 17q-86 16 -156 47t-120.5 77.5t-78 108t-27.5 139.5q0 95 36 181
t107.5 150.5t177 102.5t245.5 38q63 0 131 -7t140 -25t145.5 -50t146.5 -82zM623 -321h-282l180 328h263z" />
    <glyph glyph-name="scedilla" unicode="&#x15f;" horiz-adv-x="967" 
d="M843 692q-34 21 -74.5 37t-82 26.5t-79.5 16t-68 5.5q-72 0 -111 -20.5t-44 -58.5q-3 -26 5.5 -41.5t26.5 -26t44.5 -17t59.5 -12.5l65 -12q82 -15 140 -42.5t93 -66t48 -87t6 -104.5q-9 -73 -42.5 -131t-90 -98.5t-135 -62.5t-176.5 -22q-58 0 -118.5 8.5t-118 25
t-110.5 41t-95 56.5l125 191q67 -46 149.5 -75.5t171.5 -29.5q86 0 128 23.5t47 66.5q4 37 -27.5 58t-106.5 34l-67 11q-83 13 -141.5 41t-94 67t-48.5 89t-6 109q9 74 42.5 130.5t88 95t128.5 58t164 19.5q123 0 228 -27.5t195 -79.5zM396 -321h-265l181 328h246z" />
    <glyph glyph-name="Scaron" unicode="&#x160;" horiz-adv-x="1328" 
d="M1189 1037q-53 37 -108.5 61.5t-110.5 39.5t-106.5 21.5t-95.5 6.5q-69 0 -118 -14.5t-80 -39t-45.5 -56t-14.5 -64.5q0 -36 17 -61.5t46 -44t69 -31t87 -21.5l84 -16q88 -17 164 -46.5t131 -74.5t86.5 -108t31.5 -145q0 -107 -44 -194t-122.5 -148.5t-188.5 -94.5
t-242 -33q-64 0 -142 10t-158.5 33.5t-157.5 61t-138 91.5l161 224q50 -45 110 -76t121 -50t119 -27.5t103 -8.5q59 0 110 11.5t88.5 33t59 54t21.5 74.5q0 33 -15.5 57.5t-46 43.5t-77 33t-107.5 25l-89 17q-86 16 -156 47t-120.5 77.5t-78 108t-27.5 139.5q0 95 36 181
t107.5 150.5t177 102.5t245.5 38q63 0 131 -7t140 -25t145.5 -50t146.5 -82zM760 1823l86 -155l149 155h264l-277 -315h-315l-153 315h246z" />
    <glyph glyph-name="scaron" unicode="&#x161;" horiz-adv-x="967" 
d="M843 692q-34 21 -74.5 37t-82 26.5t-79.5 16t-68 5.5q-72 0 -111 -20.5t-44 -58.5q-3 -26 5.5 -41.5t26.5 -26t44.5 -17t59.5 -12.5l65 -12q82 -15 140 -42.5t93 -66t48 -87t6 -104.5q-9 -73 -42.5 -131t-90 -98.5t-135 -62.5t-176.5 -22q-58 0 -118.5 8.5t-118 25
t-110.5 41t-95 56.5l125 191q67 -46 149.5 -75.5t171.5 -29.5q86 0 128 23.5t47 66.5q4 37 -27.5 58t-106.5 34l-67 11q-83 13 -141.5 41t-94 67t-48.5 89t-6 109q9 74 42.5 130.5t88 95t128.5 58t164 19.5q123 0 228 -27.5t195 -79.5zM531 1413l86 -155l149 155h264
l-277 -315h-315l-153 315h246z" />
    <glyph glyph-name="Tcommaaccent" unicode="&#x162;" horiz-adv-x="1193" 
d="M1301 1139h-419l-242 -1139h-285l242 1139h-427l56 261h1131zM469 -321h-282l180 328h263z" />
    <glyph glyph-name="tcommaaccent" unicode="&#x163;" horiz-adv-x="923" 
d="M876 737h-339l-75 -351q-9 -44 -5.5 -75.5t18.5 -52t40 -30.5t57 -10q42 0 84.5 14.5t84.5 40.5l92 -206q-68 -44 -144.5 -68t-164.5 -24q-101 0 -171.5 28.5t-111.5 82t-52 129t9 169.5l75 353h-181l50 232h181l62 288h263l-62 -288h340zM435 -321h-265l181 328h246z
" />
    <glyph glyph-name="Tcaron" unicode="&#x164;" horiz-adv-x="1193" 
d="M1301 1139h-419l-242 -1139h-285l242 1139h-427l56 261h1131zM743 1823l86 -155l149 155h264l-277 -315h-315l-153 315h246z" />
    <glyph glyph-name="tcaron" unicode="&#x165;" horiz-adv-x="923" 
d="M876 737h-339l-75 -351q-9 -44 -5.5 -75.5t18.5 -52t40 -30.5t57 -10q42 0 84.5 14.5t84.5 40.5l92 -206q-68 -44 -144.5 -68t-164.5 -24q-101 0 -171.5 28.5t-111.5 82t-52 129t9 169.5l75 353h-181l50 232h181l62 288h263l-62 -288h340zM675 1047l91 428h273l-158 -428
h-206z" />
    <glyph glyph-name="Tbar" unicode="&#x166;" horiz-adv-x="1193" 
d="M1020 581h-257l-123 -581h-285l123 581h-241l53 250h241l66 308h-427l56 261h1131l-56 -261h-419l-66 -308h258z" />
    <glyph glyph-name="tbar" unicode="&#x167;" horiz-adv-x="923" 
d="M876 737h-339l-27 -126h267l-43 -203h-268l-4 -22q-9 -44 -5.5 -75.5t18.5 -52t40 -30.5t57 -10q42 0 84.5 14.5t84.5 40.5l92 -206q-68 -44 -144.5 -68t-164.5 -24q-101 0 -171.5 28.5t-111.5 82t-52 129t9 169.5l5 24h-135l43 203h135l27 126h-181l50 232h181l62 288
h263l-62 -288h340z" />
    <glyph glyph-name="Utilde" unicode="&#x168;" horiz-adv-x="1455" 
d="M1331 539q-31 -146 -89.5 -252.5t-142 -175.5t-191.5 -102.5t-237 -33.5q-116 0 -213.5 28.5t-168.5 84.5t-110.5 140.5t-39.5 196.5q0 68 17 151l176 824h286l-177 -827q-12 -57 -12 -102q0 -60 18.5 -103.5t53 -71t83 -41t108.5 -13.5q65 0 122.5 18t104 57.5t81 101
t52.5 148.5l176 833h285zM543 1685q64 71 129 98.5t140 27.5q55 0 93.5 -11t67 -24t51 -24t45.5 -11q35 0 66 19.5t69 51.5l128 -158q-63 -71 -128.5 -99t-140.5 -28q-55 0 -93 11t-66.5 24t-50.5 24t-46 11q-35 0 -66.5 -19t-68.5 -51z" />
    <glyph glyph-name="utilde" unicode="&#x169;" horiz-adv-x="1152" 
d="M1013 401q-25 -119 -75.5 -200t-118.5 -131.5t-150.5 -72.5t-171.5 -22q-87 0 -160 23t-126 67.5t-82.5 110t-29.5 151.5q0 53 14 118l111 524h263l-116 -544q-7 -34 -7 -64q0 -75 43.5 -109t113.5 -34q43 0 81 14t69 42.5t54 71.5t35 101l110 522h264zM318 1275
q64 71 129 98.5t140 27.5q55 0 93.5 -11t67 -24t51 -24t45.5 -11q35 0 66 19.5t69 51.5l128 -158q-63 -71 -128.5 -99t-140.5 -28q-55 0 -93 11t-66.5 24t-50.5 24t-46 11q-35 0 -66.5 -19t-68.5 -51z" />
    <glyph glyph-name="Umacron" unicode="&#x16a;" horiz-adv-x="1455" 
d="M1331 539q-31 -146 -89.5 -252.5t-142 -175.5t-191.5 -102.5t-237 -33.5q-116 0 -213.5 28.5t-168.5 84.5t-110.5 140.5t-39.5 196.5q0 68 17 151l176 824h286l-177 -827q-12 -57 -12 -102q0 -60 18.5 -103.5t53 -71t83 -41t108.5 -13.5q65 0 122.5 18t104 57.5t81 101
t52.5 148.5l176 833h285zM658 1770h661l-45 -209h-661z" />
    <glyph glyph-name="umacron" unicode="&#x16b;" horiz-adv-x="1152" 
d="M1013 401q-25 -119 -75.5 -200t-118.5 -131.5t-150.5 -72.5t-171.5 -22q-87 0 -160 23t-126 67.5t-82.5 110t-29.5 151.5q0 53 14 118l111 524h263l-116 -544q-7 -34 -7 -64q0 -75 43.5 -109t113.5 -34q43 0 81 14t69 42.5t54 71.5t35 101l110 522h264zM432 1360h661
l-45 -209h-661z" />
    <glyph glyph-name="Ubreve" unicode="&#x16c;" horiz-adv-x="1455" 
d="M1331 539q-31 -146 -89.5 -252.5t-142 -175.5t-191.5 -102.5t-237 -33.5q-116 0 -213.5 28.5t-168.5 84.5t-110.5 140.5t-39.5 196.5q0 68 17 151l176 824h286l-177 -827q-12 -57 -12 -102q0 -60 18.5 -103.5t53 -71t83 -41t108.5 -13.5q65 0 122.5 18t104 57.5t81 101
t52.5 148.5l176 833h285zM810 1867q16 -164 149 -164q63 0 113.5 40t92.5 124l197 -58q-73 -155 -176.5 -235t-250.5 -80q-70 0 -128 20.5t-100.5 60.5t-67.5 98.5t-29 135.5z" />
    <glyph glyph-name="ubreve" unicode="&#x16d;" horiz-adv-x="1152" 
d="M1013 401q-25 -119 -75.5 -200t-118.5 -131.5t-150.5 -72.5t-171.5 -22q-87 0 -160 23t-126 67.5t-82.5 110t-29.5 151.5q0 53 14 118l111 524h263l-116 -544q-7 -34 -7 -64q0 -75 43.5 -109t113.5 -34q43 0 81 14t69 42.5t54 71.5t35 101l110 522h264zM576 1457
q16 -164 149 -164q63 0 113.5 40t92.5 124l197 -58q-73 -155 -176.5 -235t-250.5 -80q-70 0 -128 20.5t-100.5 60.5t-67.5 98.5t-29 135.5z" />
    <glyph glyph-name="Uring" unicode="&#x16e;" horiz-adv-x="1455" 
d="M1331 539q-31 -146 -89.5 -252.5t-142 -175.5t-191.5 -102.5t-237 -33.5q-116 0 -213.5 28.5t-168.5 84.5t-110.5 140.5t-39.5 196.5q0 68 17 151l176 824h286l-177 -827q-12 -57 -12 -102q0 -60 18.5 -103.5t53 -71t83 -41t108.5 -13.5q65 0 122.5 18t104 57.5t81 101
t52.5 148.5l176 833h285zM951 1486q-54 0 -101.5 20t-83 55t-56 82t-20.5 101q0 53 20.5 99.5t56 81.5t83 55.5t101.5 20.5t102 -20.5t84 -55.5t56.5 -81.5t20.5 -99.5q0 -54 -20.5 -101t-56.5 -82t-84 -55t-102 -20zM951 1635q22 0 41.5 8.5t34 23t23 34.5t8.5 43
q0 22 -8.5 42t-23 34.5t-34 23t-41.5 8.5q-21 0 -40 -8.5t-33.5 -23t-23 -34.5t-8.5 -42q0 -23 8.5 -43t23 -34.5t33.5 -23t40 -8.5z" />
    <glyph glyph-name="uring" unicode="&#x16f;" horiz-adv-x="1152" 
d="M1013 401q-25 -119 -75.5 -200t-118.5 -131.5t-150.5 -72.5t-171.5 -22q-87 0 -160 23t-126 67.5t-82.5 110t-29.5 151.5q0 53 14 118l111 524h263l-116 -544q-7 -34 -7 -64q0 -75 43.5 -109t113.5 -34q43 0 81 14t69 42.5t54 71.5t35 101l110 522h264zM715 1076
q-54 0 -101.5 20t-83 55t-56 82t-20.5 101q0 53 20.5 99.5t56 81.5t83 55.5t101.5 20.5t102 -20.5t84 -55.5t56.5 -81.5t20.5 -99.5q0 -54 -20.5 -101t-56.5 -82t-84 -55t-102 -20zM715 1225q22 0 41.5 8.5t34 23t23 34.5t8.5 43q0 22 -8.5 42t-23 34.5t-34 23t-41.5 8.5
q-21 0 -40 -8.5t-33.5 -23t-23 -34.5t-8.5 -42q0 -23 8.5 -43t23 -34.5t33.5 -23t40 -8.5z" />
    <glyph glyph-name="Uhungarumlaut" unicode="&#x170;" horiz-adv-x="1455" 
d="M1331 539q-31 -146 -89.5 -252.5t-142 -175.5t-191.5 -102.5t-237 -33.5q-116 0 -213.5 28.5t-168.5 84.5t-110.5 140.5t-39.5 196.5q0 68 17 151l176 824h286l-177 -827q-12 -57 -12 -102q0 -60 18.5 -103.5t53 -71t83 -41t108.5 -13.5q65 0 122.5 18t104 57.5t81 101
t52.5 148.5l176 833h285zM985 1518l253 315h288l-280 -315h-261zM611 1518l226 315h283l-254 -315h-255z" />
    <glyph glyph-name="uhungarumlaut" unicode="&#x171;" horiz-adv-x="1152" 
d="M1013 401q-25 -119 -75.5 -200t-118.5 -131.5t-150.5 -72.5t-171.5 -22q-87 0 -160 23t-126 67.5t-82.5 110t-29.5 151.5q0 53 14 118l111 524h263l-116 -544q-7 -34 -7 -64q0 -75 43.5 -109t113.5 -34q43 0 81 14t69 42.5t54 71.5t35 101l110 522h264zM745 1108l253 315
h288l-280 -315h-261zM371 1108l226 315h283l-254 -315h-255z" />
    <glyph glyph-name="Uogonek" unicode="&#x172;" horiz-adv-x="1455" 
d="M1331 539q-31 -146 -89.5 -252.5t-142 -175.5t-191.5 -102.5t-237 -33.5q-116 0 -213.5 28.5t-168.5 84.5t-110.5 140.5t-39.5 196.5q0 68 17 151l176 824h286l-177 -827q-12 -57 -12 -102q0 -60 18.5 -103.5t53 -71t83 -41t108.5 -13.5q65 0 122.5 18t104 57.5t81 101
t52.5 148.5l176 833h285zM1098 -329q-108 -90 -253 -90q-68 0 -123 16t-94.5 44.5t-61 68t-21.5 86.5q0 48 17 89t58.5 77.5t111 68t174.5 60.5l64 -59q-58 -25 -93.5 -50t-55 -48.5t-26 -44.5t-6.5 -39q0 -29 21.5 -46t61.5 -17q29 0 55.5 10t52.5 28z" />
    <glyph glyph-name="uogonek" unicode="&#x173;" horiz-adv-x="1152" 
d="M1013 401q-25 -119 -75.5 -200t-118.5 -131.5t-150.5 -72.5t-171.5 -22q-87 0 -160 23t-126 67.5t-82.5 110t-29.5 151.5q0 53 14 118l111 524h263l-116 -544q-7 -34 -7 -64q0 -75 43.5 -109t113.5 -34q43 0 81 14t69 42.5t54 71.5t35 101l110 522h264zM885 -329
q-108 -90 -253 -90q-68 0 -123 16t-94.5 44.5t-61 68t-21.5 86.5q0 48 17 89t58.5 77.5t111 68t174.5 60.5l64 -59q-58 -25 -93.5 -50t-55 -48.5t-26 -44.5t-6.5 -39q0 -29 21.5 -46t61.5 -17q29 0 55.5 10t52.5 28z" />
    <glyph glyph-name="Wcircumflex" unicode="&#x174;" horiz-adv-x="2167" 
d="M1615 0h-330l-81 1003l-498 -1003h-344l-124 1400h282l79 -1078l529 1078h295l81 -1071l518 1071h297zM1399 1508l-87 155l-148 -155h-264l277 315h315l153 -315h-246z" />
    <glyph glyph-name="wcircumflex" unicode="&#x175;" horiz-adv-x="1703" 
d="M1156 295l345 674h283l-527 -969h-290l-76 656l-333 -656h-299l-133 969h262l75 -674l344 674h268zM1085 1098l-87 155l-148 -155h-264l277 315h315l153 -315h-246z" />
    <glyph glyph-name="Ycircumflex" unicode="&#x176;" horiz-adv-x="1347" 
d="M832 552l-118 -552h-285l122 576l-348 824h298l230 -584l463 584h340zM972 1508l-87 155l-148 -155h-264l277 315h315l153 -315h-246z" />
    <glyph glyph-name="ycircumflex" unicode="&#x177;" horiz-adv-x="1120" 
d="M273 -404h-298l451 638l-313 735h282l196 -493l328 493h297zM791 1098l-87 155l-148 -155h-264l277 315h315l153 -315h-246z" />
    <glyph glyph-name="Ydieresis" unicode="&#x178;" horiz-adv-x="1347" 
d="M832 552l-118 -552h-285l122 576l-348 824h298l230 -584l463 584h340zM668 1834q35 0 66 -13t53.5 -35.5t35.5 -53.5t13 -66t-13 -65.5t-35.5 -53t-53.5 -35t-66 -12.5t-65.5 12.5t-53 35t-35 53t-12.5 65.5t12.5 66t35 53.5t53 35.5t65.5 13zM1099 1834q35 0 66 -13
t53.5 -35.5t35.5 -53.5t13 -66t-13 -65.5t-35.5 -53t-53.5 -35t-66 -12.5t-65.5 12.5t-53 35t-35 53t-12.5 65.5t12.5 66t35 53.5t53 35.5t65.5 13z" />
    <glyph glyph-name="Zacute" unicode="&#x179;" horiz-adv-x="1283" 
d="M1321 1175l-879 -918h717l-55 -257h-1090l50 231l877 912h-710l55 257h1082zM628 1517l232 316h319l-296 -316h-255z" />
    <glyph glyph-name="zacute" unicode="&#x17a;" horiz-adv-x="1007" 
d="M964 770l-560 -537h472l-49 -233h-827l41 199l567 538h-464l50 232h813zM426 1107l232 316h319l-296 -316h-255z" />
    <glyph glyph-name="Zdotaccent" unicode="&#x17b;" horiz-adv-x="1283" 
d="M1321 1175l-879 -918h717l-55 -257h-1090l50 231l877 912h-710l55 257h1082zM830.006 1848.63q36.749 0 68.7744 -13.6494q32.0244 -13.6494 55.6484 -37.2744q23.625 -23.625 37.2754 -56.1748q13.6494 -32.5488 13.6494 -69.2988t-13.6494 -68.7744
q-13.6504 -32.0244 -37.2754 -55.6494q-23.624 -23.625 -55.6484 -36.749q-32.0254 -13.125 -68.7744 -13.125q-36.75 0 -68.7744 13.125q-32.0244 13.124 -55.6494 36.749t-36.75 55.6494q-13.124 32.0244 -13.124 68.7744t13.124 69.2988q13.125 32.5498 36.75 56.1748
t55.6494 37.2744t68.7744 13.6494z" />
    <glyph glyph-name="zdotaccent" unicode="&#x17c;" horiz-adv-x="1007" 
d="M964 770l-560 -537h472l-49 -233h-827l41 199l567 538h-464l50 232h813zM642 1454q35 0 65.5 -13t53 -35.5t35.5 -53.5t13 -66t-13 -65.5t-35.5 -53t-53 -35t-65.5 -12.5t-65.5 12.5t-53 35t-35 53t-12.5 65.5t12.5 66t35 53.5t53 35.5t65.5 13z" />
    <glyph glyph-name="Zcaron" unicode="&#x17d;" horiz-adv-x="1283" 
d="M1321 1175l-879 -918h717l-55 -257h-1090l50 231l877 912h-710l55 257h1082zM742 1823l86 -155l149 155h264l-277 -315h-315l-153 315h246z" />
    <glyph glyph-name="zcaron" unicode="&#x17e;" horiz-adv-x="1007" 
d="M964 770l-560 -537h472l-49 -233h-827l41 199l567 538h-464l50 232h813zM539 1413l86 -155l149 155h264l-277 -315h-315l-153 315h246z" />
    <glyph glyph-name="longs" unicode="&#x17f;" horiz-adv-x="649" 
d="M792 1179q-35 23 -71.5 33.5t-66.5 10.5q-51 0 -88 -35t-54 -112l-229 -1076h-263l237 1113q36 171 131.5 261.5t255.5 90.5q90 0 160.5 -25t118.5 -66z" />
    <glyph glyph-name="uni018F" unicode="&#x18f;" horiz-adv-x="1560" 
d="M274 1173q58 58 121.5 105t135 79.5t151 50t169.5 17.5q147 0 270.5 -47.5t212.5 -134t138.5 -206.5t49.5 -265q0 -109 -26 -210.5t-74 -190t-116.5 -162t-152.5 -125.5t-182.5 -81t-207.5 -29q-144 0 -261.5 46.5t-201 130t-129 199t-45.5 254.5q0 55 6.5 104t16.5 103
h1078q-9 79 -41 143.5t-82.5 110.5t-117.5 71t-145 25q-62 0 -116.5 -13.5t-103.5 -38.5t-93 -60.5t-84 -79.5zM781 235q74 0 141 25.5t122 71t96.5 108t64.5 137.5h-787q3 -75 29.5 -138t74 -108t113 -70.5t146.5 -25.5z" />
    <glyph glyph-name="florin" unicode="&#x192;" horiz-adv-x="1400" 
d="M1108 615h-255l-61 -278q-20 -92 -51 -160t-75.5 -113t-105 -67t-139.5 -22q-90 0 -152 22t-108 54l124 197q26 -16 59 -27t68 -11q58 0 85.5 36t42.5 105l58 264h-241l46 220h244l52 231q20 91 51 158.5t75.5 112t104.5 66.5t140 22q90 0 152 -22t108 -54l-125 -197
q-26 16 -58.5 27t-68.5 11q-29 0 -50 -9t-35.5 -27t-24.5 -44.5t-18 -60.5l-48 -214h252z" />
    <glyph glyph-name="uni01B5" unicode="&#x1b5;" horiz-adv-x="1283" 
d="M1321 1175l-344 -353h163l-52 -246h-332l-314 -319h717l-55 -257h-1090l50 231l346 353h-182l52 246h355l306 313h-710l55 257h1082z" />
    <glyph glyph-name="uni01B6" unicode="&#x1b6;" horiz-adv-x="1007" 
d="M964 770l-212 -195h111l-37 -176h-242l-180 -166h472l-49 -233h-827l41 199l228 208h-118l37 176h253l167 154h-464l50 232h813z" />
    <glyph glyph-name="uni01CD" unicode="&#x1cd;" horiz-adv-x="1465" 
d="M1335 0h-285l-51 326h-583l-188 -326h-304l831 1400h339zM564 583h395l-84 538zM867 1823l86 -155l149 155h264l-277 -315h-315l-153 315h246z" />
    <glyph glyph-name="uni01CE" unicode="&#x1ce;" horiz-adv-x="1199" 
d="M600 995q101 0 174 -32t118 -92l22 98h259l-206 -969h-254l17 80q-48 -48 -111.5 -77t-150.5 -29q-88 0 -163 34.5t-129.5 94.5t-85.5 141.5t-31 175.5q0 69 16.5 138.5t49 133.5t79 119t107 96t133 64.5t156.5 23.5zM548 218q54 0 101 20t83 55.5t59.5 83.5t30.5 105
q7 61 -6 110.5t-42.5 85t-72.5 55t-95 19.5q-59 0 -110 -24.5t-88 -66t-58 -97t-21 -117.5q0 -52 16 -94.5t45.5 -72.5t69.5 -46t88 -16zM624 1413l86 -155l149 155h264l-277 -315h-315l-153 315h246z" />
    <glyph glyph-name="uni01CF" unicode="&#x1cf;" horiz-adv-x="589" 
d="M334 0h-285l298 1400h285zM431 1823l86 -155l149 155h264l-277 -315h-315l-153 315h246z" />
    <glyph glyph-name="uni01D0" unicode="&#x1d0;" horiz-adv-x="521" 
d="M289 0h-263l206 969h263zM327 1413l86 -155l149 155h264l-277 -315h-315l-153 315h246z" />
    <glyph glyph-name="uni01D1" unicode="&#x1d1;" horiz-adv-x="1632" 
d="M915 1425q146 0 270.5 -47t215.5 -132.5t142.5 -206t51.5 -268.5q0 -109 -26 -210t-75 -189.5t-119 -161.5t-157.5 -125.5t-190.5 -81.5t-218 -29q-146 0 -270.5 47t-215.5 132.5t-142.5 206.5t-51.5 269q0 108 26 209t75 189.5t119 161.5t157.5 125.5t190.5 81.5t218 29
zM897 1158q-106 0 -193.5 -41.5t-150.5 -111.5t-97.5 -162.5t-34.5 -194.5q0 -93 30 -168t84 -128t128.5 -81.5t164.5 -28.5q105 0 192.5 41t150 111t97.5 162.5t35 195.5q0 92 -30 167t-84 128t-128.5 82t-163.5 29zM881 1823l86 -155l149 155h264l-277 -315h-315l-153 315
h246z" />
    <glyph glyph-name="uni01D2" unicode="&#x1d2;" horiz-adv-x="1171" 
d="M624 995q105 0 193.5 -34t153 -95t101 -146.5t36.5 -188.5q0 -114 -42 -215.5t-117 -177t-178 -120t-224 -44.5q-104 0 -193 33.5t-153.5 95t-101 147t-36.5 189.5q0 114 42 215t117 176.5t178 120t224 44.5zM606 752q-59 0 -109.5 -23.5t-87.5 -63.5t-58 -94.5
t-21 -115.5q0 -53 17 -96.5t48 -75t74 -49t94 -17.5q59 0 110 23.5t88.5 64t58.5 94.5t21 115q0 52 -17 96t-48 75.5t-74.5 49t-95.5 17.5zM608 1412l86 -155l149 155h264l-277 -315h-315l-153 315h246z" />
    <glyph glyph-name="uni01D3" unicode="&#x1d3;" horiz-adv-x="1455" 
d="M1331 539q-31 -146 -89.5 -252.5t-142 -175.5t-191.5 -102.5t-237 -33.5q-116 0 -213.5 28.5t-168.5 84.5t-110.5 140.5t-39.5 196.5q0 68 17 151l176 824h286l-177 -827q-12 -57 -12 -102q0 -60 18.5 -103.5t53 -71t83 -41t108.5 -13.5q65 0 122.5 18t104 57.5t81 101
t52.5 148.5l176 833h285zM865 1823l86 -155l149 155h264l-277 -315h-315l-153 315h246z" />
    <glyph glyph-name="uni01D4" unicode="&#x1d4;" horiz-adv-x="1152" 
d="M1013 401q-25 -119 -75.5 -200t-118.5 -131.5t-150.5 -72.5t-171.5 -22q-87 0 -160 23t-126 67.5t-82.5 110t-29.5 151.5q0 53 14 118l111 524h263l-116 -544q-7 -34 -7 -64q0 -75 43.5 -109t113.5 -34q43 0 81 14t69 42.5t54 71.5t35 101l110 522h264zM642 1413l86 -155
l149 155h264l-277 -315h-315l-153 315h246z" />
    <glyph glyph-name="uni01D5" unicode="&#x1d5;" horiz-adv-x="1455" 
d="M1331 539q-31 -146 -89.5 -252.5t-142 -175.5t-191.5 -102.5t-237 -33.5q-116 0 -213.5 28.5t-168.5 84.5t-110.5 140.5t-39.5 196.5q0 68 17 151l176 824h286l-177 -827q-12 -57 -12 -102q0 -60 18.5 -103.5t53 -71t83 -41t108.5 -13.5q65 0 122.5 18t104 57.5t81 101
t52.5 148.5l176 833h285zM704 2122h661l-45 -209h-661zM743 1834q35 0 66 -13t53.5 -35.5t35.5 -53.5t13 -66t-13 -65.5t-35.5 -53t-53.5 -35t-66 -12.5t-65.5 12.5t-53 35t-35 53t-12.5 65.5t12.5 66t35 53.5t53 35.5t65.5 13zM1174 1834q35 0 66 -13t53.5 -35.5
t35.5 -53.5t13 -66t-13 -65.5t-35.5 -53t-53.5 -35t-66 -12.5t-65.5 12.5t-53 35t-35 53t-12.5 65.5t12.5 66t35 53.5t53 35.5t65.5 13z" />
    <glyph glyph-name="uni01D6" unicode="&#x1d6;" horiz-adv-x="1152" 
d="M1013 401q-25 -119 -75.5 -200t-118.5 -131.5t-150.5 -72.5t-171.5 -22q-87 0 -160 23t-126 67.5t-82.5 110t-29.5 151.5q0 53 14 118l111 524h263l-116 -544q-7 -34 -7 -64q0 -75 43.5 -109t113.5 -34q43 0 81 14t69 42.5t54 71.5t35 101l110 522h264zM518 1424
q35 0 66 -13t53.5 -35.5t35.5 -53.5t13 -66t-13 -65.5t-35.5 -53t-53.5 -35t-66 -12.5t-65.5 12.5t-53 35t-35 53t-12.5 65.5t12.5 66t35 53.5t53 35.5t65.5 13zM949 1424q35 0 66 -13t53.5 -35.5t35.5 -53.5t13 -66t-13 -65.5t-35.5 -53t-53.5 -35t-66 -12.5t-65.5 12.5
t-53 35t-35 53t-12.5 65.5t12.5 66t35 53.5t53 35.5t65.5 13zM501 1723h661l-45 -209h-661z" />
    <glyph glyph-name="uni01D7" unicode="&#x1d7;" horiz-adv-x="1455" 
d="M1331 539q-31 -146 -89.5 -252.5t-142 -175.5t-191.5 -102.5t-237 -33.5q-116 0 -213.5 28.5t-168.5 84.5t-110.5 140.5t-39.5 196.5q0 68 17 151l176 824h286l-177 -827q-12 -57 -12 -102q0 -60 18.5 -103.5t53 -71t83 -41t108.5 -13.5q65 0 122.5 18t104 57.5t81 101
t52.5 148.5l176 833h285zM804 1911l232 316h319l-296 -316h-255zM743 1834q35 0 66 -13t53.5 -35.5t35.5 -53.5t13 -66t-13 -65.5t-35.5 -53t-53.5 -35t-66 -12.5t-65.5 12.5t-53 35t-35 53t-12.5 65.5t12.5 66t35 53.5t53 35.5t65.5 13zM1174 1834q35 0 66 -13t53.5 -35.5
t35.5 -53.5t13 -66t-13 -65.5t-35.5 -53t-53.5 -35t-66 -12.5t-65.5 12.5t-53 35t-35 53t-12.5 65.5t12.5 66t35 53.5t53 35.5t65.5 13z" />
    <glyph glyph-name="uni01D8" unicode="&#x1d8;" horiz-adv-x="1152" 
d="M1013 401q-25 -119 -75.5 -200t-118.5 -131.5t-150.5 -72.5t-171.5 -22q-87 0 -160 23t-126 67.5t-82.5 110t-29.5 151.5q0 53 14 118l111 524h263l-116 -544q-7 -34 -7 -64q0 -75 43.5 -109t113.5 -34q43 0 81 14t69 42.5t54 71.5t35 101l110 522h264zM518 1424
q35 0 66 -13t53.5 -35.5t35.5 -53.5t13 -66t-13 -65.5t-35.5 -53t-53.5 -35t-66 -12.5t-65.5 12.5t-53 35t-35 53t-12.5 65.5t12.5 66t35 53.5t53 35.5t65.5 13zM949 1424q35 0 66 -13t53.5 -35.5t35.5 -53.5t13 -66t-13 -65.5t-35.5 -53t-53.5 -35t-66 -12.5t-65.5 12.5
t-53 35t-35 53t-12.5 65.5t12.5 66t35 53.5t53 35.5t65.5 13zM601 1512l232 316h319l-296 -316h-255z" />
    <glyph glyph-name="uni01D9" unicode="&#x1d9;" horiz-adv-x="1455" 
d="M1331 539q-31 -146 -89.5 -252.5t-142 -175.5t-191.5 -102.5t-237 -33.5q-116 0 -213.5 28.5t-168.5 84.5t-110.5 140.5t-39.5 196.5q0 68 17 151l176 824h286l-177 -827q-12 -57 -12 -102q0 -60 18.5 -103.5t53 -71t83 -41t108.5 -13.5q65 0 122.5 18t104 57.5t81 101
t52.5 148.5l176 833h285zM918 2217l86 -155l149 155h264l-277 -315h-315l-153 315h246zM743 1834q35 0 66 -13t53.5 -35.5t35.5 -53.5t13 -66t-13 -65.5t-35.5 -53t-53.5 -35t-66 -12.5t-65.5 12.5t-53 35t-35 53t-12.5 65.5t12.5 66t35 53.5t53 35.5t65.5 13zM1174 1834
q35 0 66 -13t53.5 -35.5t35.5 -53.5t13 -66t-13 -65.5t-35.5 -53t-53.5 -35t-66 -12.5t-65.5 12.5t-53 35t-35 53t-12.5 65.5t12.5 66t35 53.5t53 35.5t65.5 13z" />
    <glyph glyph-name="uni01DA" unicode="&#x1da;" horiz-adv-x="1152" 
d="M1013 401q-25 -119 -75.5 -200t-118.5 -131.5t-150.5 -72.5t-171.5 -22q-87 0 -160 23t-126 67.5t-82.5 110t-29.5 151.5q0 53 14 118l111 524h263l-116 -544q-7 -34 -7 -64q0 -75 43.5 -109t113.5 -34q43 0 81 14t69 42.5t54 71.5t35 101l110 522h264zM518 1424
q35 0 66 -13t53.5 -35.5t35.5 -53.5t13 -66t-13 -65.5t-35.5 -53t-53.5 -35t-66 -12.5t-65.5 12.5t-53 35t-35 53t-12.5 65.5t12.5 66t35 53.5t53 35.5t65.5 13zM949 1424q35 0 66 -13t53.5 -35.5t35.5 -53.5t13 -66t-13 -65.5t-35.5 -53t-53.5 -35t-66 -12.5t-65.5 12.5
t-53 35t-35 53t-12.5 65.5t12.5 66t35 53.5t53 35.5t65.5 13zM715 1818l86 -155l149 155h264l-277 -315h-315l-153 315h246z" />
    <glyph glyph-name="uni01DB" unicode="&#x1db;" horiz-adv-x="1455" 
d="M1331 539q-31 -146 -89.5 -252.5t-142 -175.5t-191.5 -102.5t-237 -33.5q-116 0 -213.5 28.5t-168.5 84.5t-110.5 140.5t-39.5 196.5q0 68 17 151l176 824h286l-177 -827q-12 -57 -12 -102q0 -60 18.5 -103.5t53 -71t83 -41t108.5 -13.5q65 0 122.5 18t104 57.5t81 101
t52.5 148.5l176 833h285zM639 2227h312l201 -315h-249zM743 1834q35 0 66 -13t53.5 -35.5t35.5 -53.5t13 -66t-13 -65.5t-35.5 -53t-53.5 -35t-66 -12.5t-65.5 12.5t-53 35t-35 53t-12.5 65.5t12.5 66t35 53.5t53 35.5t65.5 13zM1174 1834q35 0 66 -13t53.5 -35.5
t35.5 -53.5t13 -66t-13 -65.5t-35.5 -53t-53.5 -35t-66 -12.5t-65.5 12.5t-53 35t-35 53t-12.5 65.5t12.5 66t35 53.5t53 35.5t65.5 13z" />
    <glyph glyph-name="uni01DC" unicode="&#x1dc;" horiz-adv-x="1152" 
d="M1013 401q-25 -119 -75.5 -200t-118.5 -131.5t-150.5 -72.5t-171.5 -22q-87 0 -160 23t-126 67.5t-82.5 110t-29.5 151.5q0 53 14 118l111 524h263l-116 -544q-7 -34 -7 -64q0 -75 43.5 -109t113.5 -34q43 0 81 14t69 42.5t54 71.5t35 101l110 522h264zM518 1424
q35 0 66 -13t53.5 -35.5t35.5 -53.5t13 -66t-13 -65.5t-35.5 -53t-53.5 -35t-66 -12.5t-65.5 12.5t-53 35t-35 53t-12.5 65.5t12.5 66t35 53.5t53 35.5t65.5 13zM949 1424q35 0 66 -13t53.5 -35.5t35.5 -53.5t13 -66t-13 -65.5t-35.5 -53t-53.5 -35t-66 -12.5t-65.5 12.5
t-53 35t-35 53t-12.5 65.5t12.5 66t35 53.5t53 35.5t65.5 13zM436 1828h312l201 -315h-249z" />
    <glyph glyph-name="uni01E2" unicode="&#x1e2;" horiz-adv-x="2301" 
d="M2084 0h-1028l62 294h-572l-269 -294h-358l1307 1400h1146l-55 -256h-733l-66 -310h706l-55 -256h-705l-69 -322h744zM1173 551l119 559l-511 -559h392zM1480 1770h661l-45 -209h-661z" />
    <glyph glyph-name="uni01E3" unicode="&#x1e3;" horiz-adv-x="1700" 
d="M1537 111q-79 -70 -175 -103.5t-221 -33.5q-128 0 -221 43t-150 118q-77 -73 -173 -116.5t-219 -43.5q-79 0 -142.5 19t-107.5 54.5t-68 86t-24 112.5q0 76 29.5 137.5t84 104.5t132 66t173.5 23h257q3 19 3 39q0 69 -46.5 108.5t-150.5 39.5q-77 0 -138 -22t-114 -51
l-79 205q89 52 179 75t199 23q113 0 195 -35t129 -107q64 69 151 105.5t199 36.5q91 0 167.5 -28t131 -79.5t85 -124.5t30.5 -163q0 -25 -3 -52.5t-8.5 -54.5t-12.5 -51.5t-15 -43.5h-673q3 -97 61 -149.5t161 -52.5q67 0 126 20t114 65zM435 185q62 0 131.5 29t129.5 90
q-9 45 -9 95v3h-206q-81 0 -127 -32t-46 -88q0 -45 33 -71t94 -26zM1224 770q-53 0 -94.5 -16.5t-72.5 -44.5t-52.5 -63.5t-34.5 -73.5h430q1 5 1 11v11q0 88 -48 132t-129 44zM647 1360h661l-45 -209h-661z" />
    <glyph glyph-name="Gcaron" unicode="&#x1e6;" horiz-adv-x="1579" 
d="M1218 1015q-54 68 -135 107t-189 39q-99 0 -185.5 -38t-151 -106.5t-101.5 -163t-37 -208.5q0 -95 29.5 -171t83.5 -129t128.5 -81.5t164.5 -28.5q160 0 261.5 77.5t143.5 225.5h-362l51 233h621q2 -23 0 -49t-5 -52q-20 -161 -82.5 -290t-158.5 -219t-220 -138.5
t-268 -48.5q-146 0 -270 47.5t-214.5 133.5t-141.5 206t-51 265q0 173 60.5 319.5t166.5 253t250 166.5t311 60q51 0 117 -8.5t136 -33t138 -69t124 -116.5zM861 1823l86 -155l149 155h264l-277 -315h-315l-153 315h246z" />
    <glyph glyph-name="gcaron" unicode="&#x1e7;" horiz-adv-x="1194" 
d="M972 54q-24 -113 -71.5 -200t-116 -146t-156 -90t-191.5 -31q-133 0 -244.5 35t-211.5 104l122 206q72 -55 153.5 -85t171.5 -30q59 0 107.5 18t85 49.5t61 75.5t35.5 97l4 20q-45 -32 -101.5 -50.5t-131.5 -18.5q-92 0 -170 32t-135 88.5t-89 134t-32 169.5
q0 105 36.5 206.5t105.5 180.5t168 127.5t224 48.5q104 0 176 -32.5t115 -89.5l21 96h260zM544 248q59 0 109 21.5t86.5 59.5t57 90.5t20.5 115.5q0 48 -16 88t-44.5 69t-68.5 45.5t-87 16.5q-59 0 -109 -21.5t-86 -60t-56.5 -91.5t-20.5 -117q0 -47 16 -86.5t44.5 -68.5
t68 -45t86.5 -16zM611 1413l86 -155l149 155h264l-277 -315h-315l-153 315h246z" />
    <glyph glyph-name="Aringacute" unicode="&#x1fa;" horiz-adv-x="1465" 
d="M1335 0h-285l-51 326h-583l-188 -326h-304l831 1400h339zM564 583h395l-84 538zM731 1841l232 316h319l-296 -316h-255zM932 1259q-54 0 -101.5 20t-83 55t-56 82t-20.5 101q0 53 20.5 99.5t56 81.5t83 55.5t101.5 20.5t102 -20.5t84 -55.5t56.5 -81.5t20.5 -99.5
q0 -54 -20.5 -101t-56.5 -82t-84 -55t-102 -20zM932 1408q22 0 41.5 8.5t34 23t23 34.5t8.5 43q0 22 -8.5 42t-23 34.5t-34 23t-41.5 8.5q-21 0 -40 -8.5t-33.5 -23t-23 -34.5t-8.5 -42q0 -23 8.5 -43t23 -34.5t33.5 -23t40 -8.5z" />
    <glyph glyph-name="aringacute" unicode="&#x1fb;" horiz-adv-x="1199" 
d="M600 995q101 0 174 -32t118 -92l22 98h259l-206 -969h-254l17 80q-48 -48 -111.5 -77t-150.5 -29q-88 0 -163 34.5t-129.5 94.5t-85.5 141.5t-31 175.5q0 69 16.5 138.5t49 133.5t79 119t107 96t133 64.5t156.5 23.5zM548 218q54 0 101 20t83 55.5t59.5 83.5t30.5 105
q7 61 -6 110.5t-42.5 85t-72.5 55t-95 19.5q-59 0 -110 -24.5t-88 -66t-58 -97t-21 -117.5q0 -52 16 -94.5t45.5 -72.5t69.5 -46t88 -16zM726 1044q-54 0 -101.5 20t-83 55t-56 82t-20.5 101q0 53 20.5 99.5t56 81.5t83 55.5t101.5 20.5t102 -20.5t84 -55.5t56.5 -81.5
t20.5 -99.5q0 -54 -20.5 -101t-56.5 -82t-84 -55t-102 -20zM726 1193q22 0 41.5 8.5t34 23t23 34.5t8.5 43q0 22 -8.5 42t-23 34.5t-34 23t-41.5 8.5q-21 0 -40 -8.5t-33.5 -23t-23 -34.5t-8.5 -42q0 -23 8.5 -43t23 -34.5t33.5 -23t40 -8.5zM525 1604l232 316h319
l-296 -316h-255z" />
    <glyph glyph-name="AEacute" unicode="&#x1fc;" horiz-adv-x="2301" 
d="M2084 0h-1028l62 294h-572l-269 -294h-358l1307 1400h1146l-55 -256h-733l-66 -310h706l-55 -256h-705l-69 -322h744zM1173 551l119 559l-511 -559h392zM1573 1517l232 316h319l-296 -316h-255z" />
    <glyph glyph-name="aeacute" unicode="&#x1fd;" horiz-adv-x="1700" 
d="M1537 111q-79 -70 -175 -103.5t-221 -33.5q-128 0 -221 43t-150 118q-77 -73 -173 -116.5t-219 -43.5q-79 0 -142.5 19t-107.5 54.5t-68 86t-24 112.5q0 76 29.5 137.5t84 104.5t132 66t173.5 23h257q3 19 3 39q0 69 -46.5 108.5t-150.5 39.5q-77 0 -138 -22t-114 -51
l-79 205q89 52 179 75t199 23q113 0 195 -35t129 -107q64 69 151 105.5t199 36.5q91 0 167.5 -28t131 -79.5t85 -124.5t30.5 -163q0 -25 -3 -52.5t-8.5 -54.5t-12.5 -51.5t-15 -43.5h-673q3 -97 61 -149.5t161 -52.5q67 0 126 20t114 65zM435 185q62 0 131.5 29t129.5 90
q-9 45 -9 95v3h-206q-81 0 -127 -32t-46 -88q0 -45 33 -71t94 -26zM1224 770q-53 0 -94.5 -16.5t-72.5 -44.5t-52.5 -63.5t-34.5 -73.5h430q1 5 1 11v11q0 88 -48 132t-129 44zM744 1107l232 316h319l-296 -316h-255z" />
    <glyph glyph-name="Oslashacute" unicode="&#x1fe;" horiz-adv-x="1632" 
d="M915 1425q131 0 243.5 -37t200.5 -106l165 147l152 -172l-167 -148q42 -72 64 -156.5t22 -181.5q0 -109 -26 -210t-75 -189.5t-119 -161.5t-157.5 -125.5t-190.5 -81.5t-218 -29q-125 0 -233 34t-195 97l-150 -134l-152 171l146 130q-46 75 -71 164.5t-25 192.5
q0 108 26 209t75 189.5t119 161.5t157.5 125.5t190.5 81.5t218 29zM897 1158q-106 0 -193.5 -41.5t-150.5 -111.5t-97.5 -162.5t-34.5 -194.5q0 -95 32 -173l687 612q-50 35 -111 53t-132 18zM1303 752q0 81 -25 151l-677 -602q48 -29 104.5 -44t122.5 -15q105 0 192.5 41
t150 111t97.5 162.5t35 195.5zM774 1517l232 316h319l-296 -316h-255z" />
    <glyph glyph-name="oslashacute" unicode="&#x1ff;" horiz-adv-x="1171" 
d="M624 995q84 0 157 -21.5t133 -61.5l124 110l135 -151l-122 -108q28 -51 43 -108.5t15 -123.5q0 -114 -42 -215.5t-117 -177t-178 -120t-224 -44.5q-84 0 -156.5 21t-132.5 61l-124 -110l-135 151l121 108q-28 51 -43 109.5t-15 124.5q0 114 42 215t117 176.5t178 120
t224 44.5zM607 759q-60 0 -112 -24t-90 -65.5t-59.5 -97t-21.5 -118.5q0 -40 9 -73l393 350q-54 28 -119 28zM848 515q0 18 -2 34.5t-6 33.5l-391 -348q52 -25 113 -25t113.5 24t90.5 65.5t60 97t22 118.5zM514 1106l232 316h319l-296 -316h-255z" />
    <glyph glyph-name="Scommaaccent" unicode="&#x218;" horiz-adv-x="1328" 
d="M1189 1037q-53 37 -108.5 61.5t-110.5 39.5t-106.5 21.5t-95.5 6.5q-69 0 -118 -14.5t-80 -39t-45.5 -56t-14.5 -64.5q0 -36 17 -61.5t46 -44t69 -31t87 -21.5l84 -16q88 -17 164 -46.5t131 -74.5t86.5 -108t31.5 -145q0 -107 -44 -194t-122.5 -148.5t-188.5 -94.5
t-242 -33q-64 0 -142 10t-158.5 33.5t-157.5 61t-138 91.5l161 224q50 -45 110 -76t121 -50t119 -27.5t103 -8.5q59 0 110 11.5t88.5 33t59 54t21.5 74.5q0 33 -15.5 57.5t-46 43.5t-77 33t-107.5 25l-89 17q-86 16 -156 47t-120.5 77.5t-78 108t-27.5 139.5q0 95 36 181
t107.5 150.5t177 102.5t245.5 38q63 0 131 -7t140 -25t145.5 -50t146.5 -82zM770 -84l-166 -389h-229l126 389h269z" />
    <glyph glyph-name="scommaaccent" unicode="&#x219;" horiz-adv-x="967" 
d="M843 692q-34 21 -74.5 37t-82 26.5t-79.5 16t-68 5.5q-72 0 -111 -20.5t-44 -58.5q-3 -26 5.5 -41.5t26.5 -26t44.5 -17t59.5 -12.5l65 -12q82 -15 140 -42.5t93 -66t48 -87t6 -104.5q-9 -73 -42.5 -131t-90 -98.5t-135 -62.5t-176.5 -22q-58 0 -118.5 8.5t-118 25
t-110.5 41t-95 56.5l125 191q67 -46 149.5 -75.5t171.5 -29.5q86 0 128 23.5t47 66.5q4 37 -27.5 58t-106.5 34l-67 11q-83 13 -141.5 41t-94 67t-48.5 89t-6 109q9 74 42.5 130.5t88 95t128.5 58t164 19.5q123 0 228 -27.5t195 -79.5zM553 -84l-166 -389h-229l126 389h269z
" />
    <glyph glyph-name="uni021A" unicode="&#x21a;" horiz-adv-x="1193" 
d="M1301 1139h-419l-242 -1139h-285l242 1139h-427l56 261h1131zM616 -84l-166 -389h-229l126 389h269z" />
    <glyph glyph-name="uni021B" unicode="&#x21b;" horiz-adv-x="923" 
d="M876 737h-339l-75 -351q-9 -44 -5.5 -75.5t18.5 -52t40 -30.5t57 -10q42 0 84.5 14.5t84.5 40.5l92 -206q-68 -44 -144.5 -68t-164.5 -24q-101 0 -171.5 28.5t-111.5 82t-52 129t9 169.5l75 353h-181l50 232h181l62 288h263l-62 -288h340zM592 -84l-166 -389h-229
l126 389h269z" />
    <glyph glyph-name="uni0232" unicode="&#x232;" horiz-adv-x="1347" 
d="M832 552l-118 -552h-285l122 576l-348 824h298l230 -584l463 584h340zM583 1770h661l-45 -209h-661z" />
    <glyph glyph-name="uni0233" unicode="&#x233;" horiz-adv-x="1120" 
d="M273 -404h-298l451 638l-313 735h282l196 -493l328 493h297zM400 1360h661l-45 -209h-661z" />
    <glyph glyph-name="uni0237" unicode="&#x237;" horiz-adv-x="528" 
d="M272 -113q-17 -78 -49.5 -136t-77.5 -96.5t-100.5 -57t-119.5 -18.5q-49 0 -95 10.5t-81 27.5l81 219q17 -8 35 -11t34 -3q39 0 73 26.5t47 86.5l219 1034h264z" />
    <glyph glyph-name="uni0259" unicode="&#x259;" horiz-adv-x="1072" 
d="M162 858q79 70 175 103.5t221 33.5q109 0 194.5 -32t144.5 -88.5t89.5 -134.5t30.5 -170q0 -61 -14 -129t-42.5 -134.5t-73.5 -126.5t-106.5 -106t-141.5 -73t-179 -27q-92 0 -167.5 28t-130.5 79.5t-85 124.5t-30 163q0 25 3 52.5t8 54.5t12 51.5t15 43.5h673
q-3 97 -61 149.5t-161 52.5q-66 0 -125 -20t-115 -65zM475 199q52 0 93 16t72 43t52.5 62t35.5 73h-429q-1 -5 -1 -9v-9q0 -88 48 -132t129 -44z" />
    <glyph glyph-name="uni02BB" unicode="&#x2bb;" horiz-adv-x="524" 
d="M162 844l252 596h234l-194 -596h-292z" />
    <glyph glyph-name="afii57929" unicode="&#x2bc;" horiz-adv-x="524" 
d="M642 1440l-252 -596h-234l194 596h292z" />
    <glyph glyph-name="uni02BE" unicode="&#x2be;" horiz-adv-x="549" 
d="M312 1453q70 -8 129 -40t102 -81.5t67.5 -113.5t24.5 -135q0 -85 -32 -160t-88 -131.5t-132.5 -89t-166.5 -32.5q-17 0 -33 1t-36 5l47 219q16 -3 37 -3q34 0 65 14.5t55 39.5t38 58.5t14 71.5q0 32 -10.5 60.5t-29.5 49.5t-44 34.5t-53 15.5z" />
    <glyph glyph-name="uni02BF" unicode="&#x2bf;" horiz-adv-x="549" 
d="M482 670q-70 7 -129 39.5t-102 82t-67.5 113.5t-24.5 135q0 85 32 160t88 131.5t132.5 89t166.5 32.5q17 0 33 -1t36 -5l-47 -219q-17 3 -37 3q-34 0 -65 -14.5t-55 -39.5t-38 -58.5t-14 -71.5q0 -32 10.5 -60.5t29.5 -49.5t43.5 -34.5t53.5 -15.5z" />
    <glyph glyph-name="circumflex" unicode="&#x2c6;" horiz-adv-x="1069" 
d="M784 1098l-87 155l-148 -155h-264l277 315h315l153 -315h-246z" />
    <glyph glyph-name="caron" unicode="&#x2c7;" horiz-adv-x="1069" 
d="M587 1413l86 -155l149 155h264l-277 -315h-315l-153 315h246z" />
    <glyph glyph-name="breve" unicode="&#x2d8;" horiz-adv-x="1069" 
d="M549 1457q16 -164 149 -164q63 0 113.5 40t92.5 124l197 -58q-73 -155 -176.5 -235t-250.5 -80q-70 0 -128 20.5t-100.5 60.5t-67.5 98.5t-29 135.5z" />
    <glyph glyph-name="dotaccent" unicode="&#x2d9;" horiz-adv-x="598" 
d="M469 1454q35 0 65.5 -13t53 -35.5t35.5 -53.5t13 -66t-13 -65.5t-35.5 -53t-53 -35t-65.5 -12.5t-65.5 12.5t-53 35t-35 53t-12.5 65.5t12.5 66t35 53.5t53 35.5t65.5 13z" />
    <glyph glyph-name="ring" unicode="&#x2da;" horiz-adv-x="1000" 
d="M676 1076q-54 0 -101.5 20t-83 55t-56 82t-20.5 101q0 53 20.5 99.5t56 81.5t83 55.5t101.5 20.5t102 -20.5t84 -55.5t56.5 -81.5t20.5 -99.5q0 -54 -20.5 -101t-56.5 -82t-84 -55t-102 -20zM676 1225q22 0 41.5 8.5t34 23t23 34.5t8.5 43q0 22 -8.5 42t-23 34.5t-34 23
t-41.5 8.5q-21 0 -40 -8.5t-33.5 -23t-23 -34.5t-8.5 -42q0 -23 8.5 -43t23 -34.5t33.5 -23t40 -8.5z" />
    <glyph glyph-name="ogonek" unicode="&#x2db;" horiz-adv-x="1105" 
d="M929 -329q-108 -90 -253 -90q-68 0 -123 16t-94.5 44.5t-61 68t-21.5 86.5q0 48 17 89t58.5 77.5t111 68t174.5 60.5l64 -59q-58 -25 -93.5 -50t-55 -48.5t-26 -44.5t-6.5 -39q0 -29 21.5 -46t61.5 -17q29 0 55.5 10t52.5 28z" />
    <glyph glyph-name="tilde" unicode="&#x2dc;" horiz-adv-x="1069" 
d="M312 1275q64 71 129 98.5t140 27.5q55 0 93.5 -11t67 -24t51 -24t45.5 -11q35 0 66 19.5t69 51.5l128 -158q-63 -71 -128.5 -99t-140.5 -28q-55 0 -93 11t-66.5 24t-50.5 24t-46 11q-35 0 -66.5 -19t-68.5 -51z" />
    <glyph glyph-name="hungarumlaut" unicode="&#x2dd;" horiz-adv-x="1069" 
d="M626 1108l253 315h288l-280 -315h-261zM252 1108l226 315h283l-254 -315h-255z" />
    <glyph glyph-name="gravecomb" unicode="&#x300;" 
d="M-843 1422h312l201 -315h-249z" />
    <glyph glyph-name="acutecomb" unicode="&#x301;" 
d="M-676 1106l232 316h319l-296 -316h-255z" />
    <glyph glyph-name="uni0302" unicode="&#x302;" 
d="M-382 1097l-87 155l-148 -155h-264l277 315h315l153 -315h-246z" />
    <glyph glyph-name="tildecomb" unicode="&#x303;" 
d="M-887 1274q64 71 129 98.5t140 27.5q55 0 93.5 -11t67 -24t51 -24t45.5 -11q35 0 66 19.5t69 51.5l128 -158q-63 -71 -128.5 -99t-140.5 -28q-55 0 -93 11t-66.5 24t-50.5 24t-46 11q-35 0 -66.5 -19t-68.5 -51z" />
    <glyph glyph-name="uni0304" unicode="&#x304;" 
d="M-773 1359h661l-45 -209h-661z" />
    <glyph glyph-name="uni0306" unicode="&#x306;" 
d="M-629 1456q16 -164 149 -164q63 0 113.5 40t92.5 124l197 -58q-73 -155 -176.5 -235t-250.5 -80q-70 0 -128 20.5t-100.5 60.5t-67.5 98.5t-29 135.5z" />
    <glyph glyph-name="uni0307" unicode="&#x307;" 
d="M-460 1453q35 0 65.5 -13t53 -35.5t35.5 -53.5t13 -66t-13 -65.5t-35.5 -53t-53 -35t-65.5 -12.5t-65.5 12.5t-53 35t-35 53t-12.5 65.5t12.5 66t35 53.5t53 35.5t65.5 13z" />
    <glyph glyph-name="uni0308" unicode="&#x308;" 
d="M-687 1423q35 0 66 -13t53.5 -35.5t35.5 -53.5t13 -66t-13 -65.5t-35.5 -53t-53.5 -35t-66 -12.5t-65.5 12.5t-53 35t-35 53t-12.5 65.5t12.5 66t35 53.5t53 35.5t65.5 13zM-256 1423q35 0 66 -13t53.5 -35.5t35.5 -53.5t13 -66t-13 -65.5t-35.5 -53t-53.5 -35t-66 -12.5
t-65.5 12.5t-53 35t-35 53t-12.5 65.5t12.5 66t35 53.5t53 35.5t65.5 13z" />
    <glyph glyph-name="uni030A" unicode="&#x30a;" 
d="M-490 1075q-54 0 -101.5 20t-83 55t-56 82t-20.5 101q0 53 20.5 99.5t56 81.5t83 55.5t101.5 20.5t102 -20.5t84 -55.5t56.5 -81.5t20.5 -99.5q0 -54 -20.5 -101t-56.5 -82t-84 -55t-102 -20zM-490 1224q22 0 41.5 8.5t34 23t23 34.5t8.5 43q0 22 -8.5 42t-23 34.5
t-34 23t-41.5 8.5q-21 0 -40 -8.5t-33.5 -23t-23 -34.5t-8.5 -42q0 -23 8.5 -43t23 -34.5t33.5 -23t40 -8.5z" />
    <glyph glyph-name="uni030B" unicode="&#x30b;" 
d="M-460 1107l253 315h288l-280 -315h-261zM-834 1107l226 315h283l-254 -315h-255z" />
    <glyph glyph-name="uni030C" unicode="&#x30c;" 
d="M-563 1412l86 -155l149 155h264l-277 -315h-315l-153 315h246z" />
    <glyph glyph-name="uni0312" unicode="&#x312;" 
d="M-631 1107l165 389h230l-126 -389h-269z" />
    <glyph glyph-name="dotbelowcomb" unicode="&#x323;" 
d="M-546 -102q35 0 65.5 -13t53 -35.5t35.5 -53.5t13 -66t-13 -65.5t-35.5 -53t-53 -35t-65.5 -12.5t-65.5 12.5t-53 35t-35 53t-12.5 65.5t12.5 66t35 53.5t53 35.5t65.5 13z" />
    <glyph glyph-name="uni0326" unicode="&#x326;" 
d="M-428 -84l-166 -389h-229l126 389h269z" />
    <glyph glyph-name="uni0327" unicode="&#x327;" 
d="M-495 -321h-265l181 328h246z" />
    <glyph glyph-name="uni0328" unicode="&#x328;" 
d="M-270 -329q-108 -90 -253 -90q-68 0 -123 16t-94.5 44.5t-61 68t-21.5 86.5q0 48 17 89t58.5 77.5t111 68t174.5 60.5l64 -59q-58 -25 -93.5 -50t-55 -48.5t-26 -44.5t-6.5 -39q0 -29 21.5 -46t61.5 -17q29 0 55.5 10t52.5 28z" />
    <glyph glyph-name="uni032E" unicode="&#x32e;" 
d="M-741 -75q16 -164 149 -164q63 0 113.5 40t92.5 124l197 -58q-73 -155 -176.5 -235t-250.5 -80q-70 0 -128 20.5t-100.5 60.5t-67.5 98.5t-29 135.5z" />
    <glyph glyph-name="uni0331" unicode="&#x331;" 
d="M-911 -157h662l-45 -210h-662z" />
    <glyph glyph-name="uni0335" unicode="&#x335;" 
d="M-243 420h-728l43 215h729z" />
    <glyph glyph-name="uni0336" unicode="&#x336;" 
d="M141 418h-1496l44 218h1496z" />
    <glyph glyph-name="uni0394" unicode="&#x394;" horiz-adv-x="1381" 
d="M1263 218l-46 -218h-1259l46 218l712 1182h339zM839 1126l-508 -865h648z" />
    <glyph glyph-name="uni03A9" unicode="&#x3a9;" horiz-adv-x="1694" 
d="M1561 0h-636l49 231q83 23 150 73.5t113.5 119t71.5 151t25 170.5t-30 164t-85 131.5t-132 87t-170 31.5q-107 0 -195 -41.5t-151.5 -112t-98.5 -164t-35 -198.5q0 -75 19 -140.5t55 -117.5t86.5 -89.5t113.5 -57.5l-50 -238h-636l54 254h263q-93 84 -142.5 194
t-49.5 241q0 104 27.5 199t78 177t121 148t157 113t186.5 73t209 26q155 0 284 -47t222 -131.5t145 -201t52 -255.5q0 -153 -62.5 -291t-185.5 -245h231z" />
    <glyph glyph-name="uni03BC" unicode="&#x3bc;" horiz-adv-x="1161" 
d="M-68 -400l293 1369h262l-117 -544q-7 -31 -7 -64q0 -30 8 -56t26 -45t47 -30t71 -11q41 0 79.5 12t71.5 39.5t58 71.5t39 107l110 520h262l-206 -969h-252l22 98q-61 -70 -133 -97t-147 -27q-81 0 -146 28l-85 -402h-256z" />
    <glyph glyph-name="pi" unicode="&#x3c0;" horiz-adv-x="1157" 
d="M933 0h-261l156 737h-385l-156 -737h-261l206 969h907z" />
    <glyph glyph-name="uni1E0C" unicode="&#x1e0c;" horiz-adv-x="1519" 
d="M842 1400q150 0 270 -44t203.5 -122.5t128 -187t44.5 -236.5q0 -168 -57.5 -315.5t-167.5 -257.5t-270 -173.5t-365 -63.5h-579l298 1400h495zM576 1139l-187 -878h272q125 0 224 39t167.5 108t104.5 163.5t36 205.5q0 80 -23 146.5t-70 114.5t-119 74.5t-171 26.5h-234z
M630 -102q35 0 65.5 -13t53 -35.5t35.5 -53.5t13 -66t-13 -65.5t-35.5 -53t-53 -35t-65.5 -12.5t-65.5 12.5t-53 35t-35 53t-12.5 65.5t12.5 66t35 53.5t53 35.5t65.5 13z" />
    <glyph glyph-name="uni1E0D" unicode="&#x1e0d;" horiz-adv-x="1202" 
d="M600 995q101 0 174 -32t118 -92l122 569h262l-306 -1440h-257l17 79q-49 -47 -112 -76t-150 -29q-88 0 -163 34.5t-129.5 94.5t-85.5 141.5t-31 175.5q0 69 16.5 138.5t49 133.5t79 119t107 96t133 64.5t156.5 23.5zM548 218q54 0 101 20t83 55.5t59.5 83.5t30.5 105
q7 61 -6 110.5t-42.5 85t-72.5 55t-95 19.5q-59 0 -110 -24.5t-88 -66t-58 -97t-21 -117.5q0 -52 16 -94.5t45.5 -72.5t69.5 -46t88 -16zM498 -102q35 0 65.5 -13t53 -35.5t35.5 -53.5t13 -66t-13 -65.5t-35.5 -53t-53 -35t-65.5 -12.5t-65.5 12.5t-53 35t-35 53t-12.5 65.5
t12.5 66t35 53.5t53 35.5t65.5 13z" />
    <glyph glyph-name="uni1E0E" unicode="&#x1e0e;" horiz-adv-x="1519" 
d="M842 1400q150 0 270 -44t203.5 -122.5t128 -187t44.5 -236.5q0 -168 -57.5 -315.5t-167.5 -257.5t-270 -173.5t-365 -63.5h-579l298 1400h495zM576 1139l-187 -878h272q125 0 224 39t167.5 108t104.5 163.5t36 205.5q0 80 -23 146.5t-70 114.5t-119 74.5t-171 26.5h-234z
M318 -157h662l-45 -210h-662z" />
    <glyph glyph-name="uni1E0F" unicode="&#x1e0f;" horiz-adv-x="1202" 
d="M600 995q101 0 174 -32t118 -92l122 569h262l-306 -1440h-257l17 79q-49 -47 -112 -76t-150 -29q-88 0 -163 34.5t-129.5 94.5t-85.5 141.5t-31 175.5q0 69 16.5 138.5t49 133.5t79 119t107 96t133 64.5t156.5 23.5zM548 218q54 0 101 20t83 55.5t59.5 83.5t30.5 105
q7 61 -6 110.5t-42.5 85t-72.5 55t-95 19.5q-59 0 -110 -24.5t-88 -66t-58 -97t-21 -117.5q0 -52 16 -94.5t45.5 -72.5t69.5 -46t88 -16zM185 -157h662l-45 -210h-662z" />
    <glyph glyph-name="uni1E24" unicode="&#x1e24;" horiz-adv-x="1532" 
d="M512 836h657l121 564h285l-299 -1400h-285l123 576h-658l-122 -576h-285l298 1400h285zM610 -102q35 0 65.5 -13t53 -35.5t35.5 -53.5t13 -66t-13 -65.5t-35.5 -53t-53 -35t-65.5 -12.5t-65.5 12.5t-53 35t-35 53t-12.5 65.5t12.5 66t35 53.5t53 35.5t65.5 13z" />
    <glyph glyph-name="uni1E25" unicode="&#x1e25;" horiz-adv-x="1161" 
d="M742 995q76 0 136.5 -24t102.5 -67t64.5 -103t22.5 -131q0 -25 -2.5 -51.5t-8.5 -53.5l-121 -565h-262l117 544q7 31 7 64q0 30 -8 56t-26 45t-47 30t-70 11t-79.5 -12t-71.5 -39.5t-58.5 -71.5t-38.5 -107l-110 -520h-263l306 1440h262l-117 -553q59 61 126.5 84.5
t138.5 23.5zM431 -102q35 0 65.5 -13t53 -35.5t35.5 -53.5t13 -66t-13 -65.5t-35.5 -53t-53 -35t-65.5 -12.5t-65.5 12.5t-53 35t-35 53t-12.5 65.5t12.5 66t35 53.5t53 35.5t65.5 13z" />
    <glyph glyph-name="uni1E28" unicode="&#x1e28;" horiz-adv-x="1532" 
d="M512 836h657l121 564h285l-299 -1400h-285l123 576h-658l-122 -576h-285l298 1400h285zM164 -321h-282l180 328h263z" />
    <glyph glyph-name="uni1E29" unicode="&#x1e29;" horiz-adv-x="1161" 
d="M742 995q76 0 136.5 -24t102.5 -67t64.5 -103t22.5 -131q0 -25 -2.5 -51.5t-8.5 -53.5l-121 -565h-262l117 544q7 31 7 64q0 30 -8 56t-26 45t-47 30t-70 11t-79.5 -12t-71.5 -39.5t-58.5 -71.5t-38.5 -107l-110 -520h-263l306 1440h262l-117 -553q59 61 126.5 84.5
t138.5 23.5zM121 -321h-265l181 328h246z" />
    <glyph glyph-name="uni1E2A" unicode="&#x1e2a;" horiz-adv-x="1532" 
d="M512 836h657l121 564h285l-299 -1400h-285l123 576h-658l-122 -576h-285l298 1400h285zM468 -75q16 -164 149 -164q63 0 113.5 40t92.5 124l197 -58q-73 -155 -176.5 -235t-250.5 -80q-70 0 -128 20.5t-100.5 60.5t-67.5 98.5t-29 135.5z" />
    <glyph glyph-name="uni1E2B" unicode="&#x1e2b;" horiz-adv-x="1161" 
d="M742 995q76 0 136.5 -24t102.5 -67t64.5 -103t22.5 -131q0 -25 -2.5 -51.5t-8.5 -53.5l-121 -565h-262l117 544q7 31 7 64q0 30 -8 56t-26 45t-47 30t-70 11t-79.5 -12t-71.5 -39.5t-58.5 -71.5t-38.5 -107l-110 -520h-263l306 1440h262l-117 -553q59 61 126.5 84.5
t138.5 23.5zM288 -75q16 -164 149 -164q63 0 113.5 40t92.5 124l197 -58q-73 -155 -176.5 -235t-250.5 -80q-70 0 -128 20.5t-100.5 60.5t-67.5 98.5t-29 135.5z" />
    <glyph glyph-name="uni1E32" unicode="&#x1e32;" horiz-adv-x="1388" 
d="M511 833h105l549 567h362l-708 -701l476 -699h-327l-386 576h-126l-122 -576h-285l298 1400h285zM594 -102q35 0 65.5 -13t53 -35.5t35.5 -53.5t13 -66t-13 -65.5t-35.5 -53t-53 -35t-65.5 -12.5t-65.5 12.5t-53 35t-35 53t-12.5 65.5t12.5 66t35 53.5t53 35.5t65.5 13z
" />
    <glyph glyph-name="uni1E33" unicode="&#x1e33;" horiz-adv-x="1070" 
d="M422 624h78l321 345h329l-467 -477l288 -492h-289l-220 392h-90l-83 -392h-263l306 1440h263zM428 -102q35 0 65.5 -13t53 -35.5t35.5 -53.5t13 -66t-13 -65.5t-35.5 -53t-53 -35t-65.5 -12.5t-65.5 12.5t-53 35t-35 53t-12.5 65.5t12.5 66t35 53.5t53 35.5t65.5 13z" />
    <glyph glyph-name="uni1E36" unicode="&#x1e36;" horiz-adv-x="1184" 
d="M389 261h717l-56 -261h-1001l298 1400h285zM532 -102q35 0 65.5 -13t53 -35.5t35.5 -53.5t13 -66t-13 -65.5t-35.5 -53t-53 -35t-65.5 -12.5t-65.5 12.5t-53 35t-35 53t-12.5 65.5t12.5 66t35 53.5t53 35.5t65.5 13z" />
    <glyph glyph-name="uni1E37" unicode="&#x1e37;" horiz-adv-x="521" 
d="M289 0h-263l306 1440h263zM106 -102q35 0 65.5 -13t53 -35.5t35.5 -53.5t13 -66t-13 -65.5t-35.5 -53t-53 -35t-65.5 -12.5t-65.5 12.5t-53 35t-35 53t-12.5 65.5t12.5 66t35 53.5t53 35.5t65.5 13z" />
    <glyph glyph-name="uni1E38" unicode="&#x1e38;" horiz-adv-x="1184" 
d="M389 261h717l-56 -261h-1001l298 1400h285zM532 -102q35 0 65.5 -13t53 -35.5t35.5 -53.5t13 -66t-13 -65.5t-35.5 -53t-53 -35t-65.5 -12.5t-65.5 12.5t-53 35t-35 53t-12.5 65.5t12.5 66t35 53.5t53 35.5t65.5 13zM224 1770h661l-45 -209h-661z" />
    <glyph glyph-name="uni1E39" unicode="&#x1e39;" horiz-adv-x="521" 
d="M289 0h-263l306 1440h263zM207 1791h661l-45 -209h-661zM106 -102q35 0 65.5 -13t53 -35.5t35.5 -53.5t13 -66t-13 -65.5t-35.5 -53t-53 -35t-65.5 -12.5t-65.5 12.5t-53 35t-35 53t-12.5 65.5t12.5 66t35 53.5t53 35.5t65.5 13z" />
    <glyph glyph-name="uni1E3A" unicode="&#x1e3a;" horiz-adv-x="1184" 
d="M389 261h717l-56 -261h-1001l298 1400h285zM220 -157h662l-45 -210h-662z" />
    <glyph glyph-name="uni1E3B" unicode="&#x1e3b;" horiz-adv-x="521" 
d="M289 0h-263l306 1440h263zM-207 -157h662l-45 -210h-662z" />
    <glyph glyph-name="uni1E40" unicode="&#x1e40;" horiz-adv-x="1824" 
d="M1569 0h-284l222 1039l-512 -904h-296l-146 905l-220 -1040h-284l298 1400h399l150 -952l547 952h424zM1106.01 1848.63q36.749 0 68.7744 -13.6494q32.0244 -13.6494 55.6484 -37.2744q23.625 -23.625 37.2754 -56.1748q13.6494 -32.5488 13.6494 -69.2988
t-13.6494 -68.7744q-13.6504 -32.0244 -37.2754 -55.6494q-23.624 -23.625 -55.6484 -36.749q-32.0254 -13.125 -68.7744 -13.125q-36.75 0 -68.7744 13.125q-32.0244 13.124 -55.6494 36.749t-36.75 55.6494q-13.124 32.0244 -13.124 68.7744t13.124 69.2988
q13.125 32.5498 36.75 56.1748t55.6494 37.2744t68.7744 13.6494z" />
    <glyph glyph-name="uni1E41" unicode="&#x1e41;" horiz-adv-x="1809" 
d="M1379 995q78 0 140.5 -24t106 -67t67 -103t23.5 -131q0 -25 -2.5 -51.5t-8.5 -53.5l-122 -565h-262l117 544q7 31 7 64q0 30 -8 56t-26 45t-47.5 30t-71.5 11q-41 0 -79.5 -12t-71.5 -39.5t-58.5 -71.5t-38.5 -107l-110 -520h-261l116 544q8 39 7 76t-16.5 66t-47.5 46.5
t-86 17.5q-41 0 -79.5 -12t-71.5 -39.5t-58.5 -71.5t-38.5 -107l-110 -520h-262l206 969h252l-22 -98q61 70 133 97t147 27q104 0 177 -43.5t111 -118.5q36 45 77 76t85.5 50t91.5 27.5t95 8.5zM1072 1444q35 0 65.5 -13t53 -35.5t35.5 -53.5t13 -66t-13 -65.5t-35.5 -53
t-53 -35t-65.5 -12.5t-65.5 12.5t-53 35t-35 53t-12.5 65.5t12.5 66t35 53.5t53 35.5t65.5 13z" />
    <glyph glyph-name="uni1E42" unicode="&#x1e42;" horiz-adv-x="1824" 
d="M1569 0h-284l222 1039l-512 -904h-296l-146 905l-220 -1040h-284l298 1400h399l150 -952l547 952h424zM781 -102q35 0 65.5 -13t53 -35.5t35.5 -53.5t13 -66t-13 -65.5t-35.5 -53t-53 -35t-65.5 -12.5t-65.5 12.5t-53 35t-35 53t-12.5 65.5t12.5 66t35 53.5t53 35.5
t65.5 13z" />
    <glyph glyph-name="uni1E43" unicode="&#x1e43;" horiz-adv-x="1809" 
d="M1379 995q78 0 140.5 -24t106 -67t67 -103t23.5 -131q0 -25 -2.5 -51.5t-8.5 -53.5l-122 -565h-262l117 544q7 31 7 64q0 30 -8 56t-26 45t-47.5 30t-71.5 11q-41 0 -79.5 -12t-71.5 -39.5t-58.5 -71.5t-38.5 -107l-110 -520h-261l116 544q8 39 7 76t-16.5 66t-47.5 46.5
t-86 17.5q-41 0 -79.5 -12t-71.5 -39.5t-58.5 -71.5t-38.5 -107l-110 -520h-262l206 969h252l-22 -98q61 70 133 97t147 27q104 0 177 -43.5t111 -118.5q36 45 77 76t85.5 50t91.5 27.5t95 8.5zM751 -102q35 0 65.5 -13t53 -35.5t35.5 -53.5t13 -66t-13 -65.5t-35.5 -53
t-53 -35t-65.5 -12.5t-65.5 12.5t-53 35t-35 53t-12.5 65.5t12.5 66t35 53.5t53 35.5t65.5 13z" />
    <glyph glyph-name="uni1E44" unicode="&#x1e44;" horiz-adv-x="1545" 
d="M1290 0h-262l-490 964l-205 -964h-284l298 1400h263l489 -964l205 964h284zM985.006 1848.63q36.749 0 68.7744 -13.6494q32.0244 -13.6494 55.6484 -37.2744q23.625 -23.625 37.2754 -56.1748q13.6494 -32.5488 13.6494 -69.2988t-13.6494 -68.7744
q-13.6504 -32.0244 -37.2754 -55.6494q-23.624 -23.625 -55.6484 -36.749q-32.0254 -13.125 -68.7744 -13.125q-36.75 0 -68.7744 13.125q-32.0244 13.124 -55.6494 36.749t-36.75 55.6494q-13.124 32.0244 -13.124 68.7744t13.124 69.2988q13.125 32.5498 36.75 56.1748
t55.6494 37.2744t68.7744 13.6494z" />
    <glyph glyph-name="uni1E45" unicode="&#x1e45;" horiz-adv-x="1161" 
d="M742 995q76 0 136.5 -24t102.5 -67t64.5 -103t22.5 -131q0 -25 -2.5 -51.5t-8.5 -53.5l-121 -565h-262l117 544q7 31 7 64q0 30 -8 56t-26 45t-47 30t-71 11q-41 0 -79.5 -12t-71.5 -39.5t-58.5 -71.5t-38.5 -107l-110 -520h-262l206 969h252l-22 -98q61 70 133 97
t147 27zM738 1454q35 0 65.5 -13t53 -35.5t35.5 -53.5t13 -66t-13 -65.5t-35.5 -53t-53 -35t-65.5 -12.5t-65.5 12.5t-53 35t-35 53t-12.5 65.5t12.5 66t35 53.5t53 35.5t65.5 13z" />
    <glyph glyph-name="uni1E46" unicode="&#x1e46;" horiz-adv-x="1545" 
d="M1290 0h-262l-490 964l-205 -964h-284l298 1400h263l489 -964l205 964h284zM650 -102q35 0 65.5 -13t53 -35.5t35.5 -53.5t13 -66t-13 -65.5t-35.5 -53t-53 -35t-65.5 -12.5t-65.5 12.5t-53 35t-35 53t-12.5 65.5t12.5 66t35 53.5t53 35.5t65.5 13z" />
    <glyph glyph-name="uni1E47" unicode="&#x1e47;" horiz-adv-x="1161" 
d="M742 995q76 0 136.5 -24t102.5 -67t64.5 -103t22.5 -131q0 -25 -2.5 -51.5t-8.5 -53.5l-121 -565h-262l117 544q7 31 7 64q0 30 -8 56t-26 45t-47 30t-71 11q-41 0 -79.5 -12t-71.5 -39.5t-58.5 -71.5t-38.5 -107l-110 -520h-262l206 969h252l-22 -98q61 70 133 97
t147 27zM430 -102q35 0 65.5 -13t53 -35.5t35.5 -53.5t13 -66t-13 -65.5t-35.5 -53t-53 -35t-65.5 -12.5t-65.5 12.5t-53 35t-35 53t-12.5 65.5t12.5 66t35 53.5t53 35.5t65.5 13z" />
    <glyph glyph-name="uni1E48" unicode="&#x1e48;" horiz-adv-x="1545" 
d="M1290 0h-262l-490 964l-205 -964h-284l298 1400h263l489 -964l205 964h284zM338 -157h662l-45 -210h-662z" />
    <glyph glyph-name="uni1E49" unicode="&#x1e49;" horiz-adv-x="1161" 
d="M742 995q76 0 136.5 -24t102.5 -67t64.5 -103t22.5 -131q0 -25 -2.5 -51.5t-8.5 -53.5l-121 -565h-262l117 544q7 31 7 64q0 30 -8 56t-26 45t-47 30t-71 11q-41 0 -79.5 -12t-71.5 -39.5t-58.5 -71.5t-38.5 -107l-110 -520h-262l206 969h252l-22 -98q61 70 133 97
t147 27zM117 -157h662l-45 -210h-662z" />
    <glyph glyph-name="uni1E58" unicode="&#x1e58;" horiz-adv-x="1329" 
d="M880 1400q113 0 200 -29.5t146 -80.5t89 -120t30 -148q0 -50 -11 -102.5t-35.5 -102.5t-64 -94.5t-96.5 -79.5t-134 -57.5t-175 -27.5l385 -558h-326l-362 557h-74l-118 -557h-285l298 1400h533zM577 1142l-73 -342h295q77 0 126.5 17t78.5 45t40.5 62t11.5 69
q0 69 -53.5 109t-156.5 40h-269zM850.006 1848.63q36.749 0 68.7744 -13.6494q32.0244 -13.6494 55.6484 -37.2744q23.625 -23.625 37.2754 -56.1748q13.6494 -32.5488 13.6494 -69.2988t-13.6494 -68.7744q-13.6504 -32.0244 -37.2754 -55.6494
q-23.624 -23.625 -55.6484 -36.749q-32.0254 -13.125 -68.7744 -13.125q-36.75 0 -68.7744 13.125q-32.0244 13.124 -55.6494 36.749t-36.75 55.6494q-13.124 32.0244 -13.124 68.7744t13.124 69.2988q13.125 32.5498 36.75 56.1748t55.6494 37.2744t68.7744 13.6494z" />
    <glyph glyph-name="uni1E59" unicode="&#x1e59;" horiz-adv-x="817" 
d="M288 0h-262l206 969h252l-23 -102q61 73 132 100.5t144 27.5q35 0 72.5 -7.5t71.5 -21.5l-84 -251q-29 15 -66.5 23t-74.5 8q-46 0 -87 -14t-75 -42.5t-59 -71.5t-38 -102zM606 1454q35 0 65.5 -13t53 -35.5t35.5 -53.5t13 -66t-13 -65.5t-35.5 -53t-53 -35t-65.5 -12.5
t-65.5 12.5t-53 35t-35 53t-12.5 65.5t12.5 66t35 53.5t53 35.5t65.5 13z" />
    <glyph glyph-name="uni1E5A" unicode="&#x1e5a;" horiz-adv-x="1329" 
d="M880 1400q113 0 200 -29.5t146 -80.5t89 -120t30 -148q0 -50 -11 -102.5t-35.5 -102.5t-64 -94.5t-96.5 -79.5t-134 -57.5t-175 -27.5l385 -558h-326l-362 557h-74l-118 -557h-285l298 1400h533zM577 1142l-73 -342h295q77 0 126.5 17t78.5 45t40.5 62t11.5 69
q0 69 -53.5 109t-156.5 40h-269zM570 -102q35 0 65.5 -13t53 -35.5t35.5 -53.5t13 -66t-13 -65.5t-35.5 -53t-53 -35t-65.5 -12.5t-65.5 12.5t-53 35t-35 53t-12.5 65.5t12.5 66t35 53.5t53 35.5t65.5 13z" />
    <glyph glyph-name="uni1E5B" unicode="&#x1e5b;" horiz-adv-x="817" 
d="M288 0h-262l206 969h252l-23 -102q61 73 132 100.5t144 27.5q35 0 72.5 -7.5t71.5 -21.5l-84 -251q-29 15 -66.5 23t-74.5 8q-46 0 -87 -14t-75 -42.5t-59 -71.5t-38 -102zM106 -102q35 0 65.5 -13t53 -35.5t35.5 -53.5t13 -66t-13 -65.5t-35.5 -53t-53 -35t-65.5 -12.5
t-65.5 12.5t-53 35t-35 53t-12.5 65.5t12.5 66t35 53.5t53 35.5t65.5 13z" />
    <glyph glyph-name="uni1E5C" unicode="&#x1e5c;" horiz-adv-x="1329" 
d="M880 1400q113 0 200 -29.5t146 -80.5t89 -120t30 -148q0 -50 -11 -102.5t-35.5 -102.5t-64 -94.5t-96.5 -79.5t-134 -57.5t-175 -27.5l385 -558h-326l-362 557h-74l-118 -557h-285l298 1400h533zM577 1142l-73 -342h295q77 0 126.5 17t78.5 45t40.5 62t11.5 69
q0 69 -53.5 109t-156.5 40h-269zM570 -102q35 0 65.5 -13t53 -35.5t35.5 -53.5t13 -66t-13 -65.5t-35.5 -53t-53 -35t-65.5 -12.5t-65.5 12.5t-53 35t-35 53t-12.5 65.5t12.5 66t35 53.5t53 35.5t65.5 13zM555 1770h661l-45 -209h-661z" />
    <glyph glyph-name="uni1E5D" unicode="&#x1e5d;" horiz-adv-x="817" 
d="M288 0h-262l206 969h252l-23 -102q61 73 132 100.5t144 27.5q35 0 72.5 -7.5t71.5 -21.5l-84 -251q-29 15 -66.5 23t-74.5 8q-46 0 -87 -14t-75 -42.5t-59 -71.5t-38 -102zM293 1360h661l-45 -209h-661zM106 -102q35 0 65.5 -13t53 -35.5t35.5 -53.5t13 -66t-13 -65.5
t-35.5 -53t-53 -35t-65.5 -12.5t-65.5 12.5t-53 35t-35 53t-12.5 65.5t12.5 66t35 53.5t53 35.5t65.5 13z" />
    <glyph glyph-name="uni1E5E" unicode="&#x1e5e;" horiz-adv-x="1329" 
d="M880 1400q113 0 200 -29.5t146 -80.5t89 -120t30 -148q0 -50 -11 -102.5t-35.5 -102.5t-64 -94.5t-96.5 -79.5t-134 -57.5t-175 -27.5l385 -558h-326l-362 557h-74l-118 -557h-285l298 1400h533zM577 1142l-73 -342h295q77 0 126.5 17t78.5 45t40.5 62t11.5 69
q0 69 -53.5 109t-156.5 40h-269zM258 -157h662l-45 -210h-662z" />
    <glyph glyph-name="uni1E5F" unicode="&#x1e5f;" horiz-adv-x="817" 
d="M288 0h-262l206 969h252l-23 -102q61 73 132 100.5t144 27.5q35 0 72.5 -7.5t71.5 -21.5l-84 -251q-29 15 -66.5 23t-74.5 8q-46 0 -87 -14t-75 -42.5t-59 -71.5t-38 -102zM-207 -157h662l-45 -210h-662z" />
    <glyph glyph-name="uni1E62" unicode="&#x1e62;" horiz-adv-x="1328" 
d="M1189 1037q-53 37 -108.5 61.5t-110.5 39.5t-106.5 21.5t-95.5 6.5q-69 0 -118 -14.5t-80 -39t-45.5 -56t-14.5 -64.5q0 -36 17 -61.5t46 -44t69 -31t87 -21.5l84 -16q88 -17 164 -46.5t131 -74.5t86.5 -108t31.5 -145q0 -107 -44 -194t-122.5 -148.5t-188.5 -94.5
t-242 -33q-64 0 -142 10t-158.5 33.5t-157.5 61t-138 91.5l161 224q50 -45 110 -76t121 -50t119 -27.5t103 -8.5q59 0 110 11.5t88.5 33t59 54t21.5 74.5q0 33 -15.5 57.5t-46 43.5t-77 33t-107.5 25l-89 17q-86 16 -156 47t-120.5 77.5t-78 108t-27.5 139.5q0 95 36 181
t107.5 150.5t177 102.5t245.5 38q63 0 131 -7t140 -25t145.5 -50t146.5 -82zM600 -102q35 0 65.5 -13t53 -35.5t35.5 -53.5t13 -66t-13 -65.5t-35.5 -53t-53 -35t-65.5 -12.5t-65.5 12.5t-53 35t-35 53t-12.5 65.5t12.5 66t35 53.5t53 35.5t65.5 13z" />
    <glyph glyph-name="uni1E63" unicode="&#x1e63;" horiz-adv-x="967" 
d="M843 692q-34 21 -74.5 37t-82 26.5t-79.5 16t-68 5.5q-72 0 -111 -20.5t-44 -58.5q-3 -26 5.5 -41.5t26.5 -26t44.5 -17t59.5 -12.5l65 -12q82 -15 140 -42.5t93 -66t48 -87t6 -104.5q-9 -73 -42.5 -131t-90 -98.5t-135 -62.5t-176.5 -22q-58 0 -118.5 8.5t-118 25
t-110.5 41t-95 56.5l125 191q67 -46 149.5 -75.5t171.5 -29.5q86 0 128 23.5t47 66.5q4 37 -27.5 58t-106.5 34l-67 11q-83 13 -141.5 41t-94 67t-48.5 89t-6 109q9 74 42.5 130.5t88 95t128.5 58t164 19.5q123 0 228 -27.5t195 -79.5zM383 -102q35 0 65.5 -13t53 -35.5
t35.5 -53.5t13 -66t-13 -65.5t-35.5 -53t-53 -35t-65.5 -12.5t-65.5 12.5t-53 35t-35 53t-12.5 65.5t12.5 66t35 53.5t53 35.5t65.5 13z" />
    <glyph glyph-name="uni1E6C" unicode="&#x1e6c;" horiz-adv-x="1193" 
d="M1301 1139h-419l-242 -1139h-285l242 1139h-427l56 261h1131zM446 -102q35 0 65.5 -13t53 -35.5t35.5 -53.5t13 -66t-13 -65.5t-35.5 -53t-53 -35t-65.5 -12.5t-65.5 12.5t-53 35t-35 53t-12.5 65.5t12.5 66t35 53.5t53 35.5t65.5 13z" />
    <glyph glyph-name="uni1E6D" unicode="&#x1e6d;" horiz-adv-x="923" 
d="M876 737h-339l-75 -351q-9 -44 -5.5 -75.5t18.5 -52t40 -30.5t57 -10q42 0 84.5 14.5t84.5 40.5l92 -206q-68 -44 -144.5 -68t-164.5 -24q-101 0 -171.5 28.5t-111.5 82t-52 129t9 169.5l75 353h-181l50 232h181l62 288h263l-62 -288h340zM422 -102q35 0 65.5 -13
t53 -35.5t35.5 -53.5t13 -66t-13 -65.5t-35.5 -53t-53 -35t-65.5 -12.5t-65.5 12.5t-53 35t-35 53t-12.5 65.5t12.5 66t35 53.5t53 35.5t65.5 13z" />
    <glyph glyph-name="uni1E6E" unicode="&#x1e6e;" horiz-adv-x="1193" 
d="M1301 1139h-419l-242 -1139h-285l242 1139h-427l56 261h1131zM134 -157h662l-45 -210h-662z" />
    <glyph glyph-name="uni1E6F" unicode="&#x1e6f;" horiz-adv-x="923" 
d="M876 737h-339l-75 -351q-9 -44 -5.5 -75.5t18.5 -52t40 -30.5t57 -10q42 0 84.5 14.5t84.5 40.5l92 -206q-68 -44 -144.5 -68t-164.5 -24q-101 0 -171.5 28.5t-111.5 82t-52 129t9 169.5l75 353h-181l50 232h181l62 288h263l-62 -288h340zM109 -157h662l-45 -210h-662z
" />
    <glyph glyph-name="Wgrave" unicode="&#x1e80;" horiz-adv-x="2167" 
d="M1615 0h-330l-81 1003l-498 -1003h-344l-124 1400h282l79 -1078l529 1078h295l81 -1071l518 1071h297zM938 1833h312l201 -315h-249z" />
    <glyph glyph-name="wgrave" unicode="&#x1e81;" horiz-adv-x="1703" 
d="M1156 295l345 674h283l-527 -969h-290l-76 656l-333 -656h-299l-133 969h262l75 -674l344 674h268zM624 1423h312l201 -315h-249z" />
    <glyph glyph-name="Wacute" unicode="&#x1e82;" horiz-adv-x="2167" 
d="M1615 0h-330l-81 1003l-498 -1003h-344l-124 1400h282l79 -1078l529 1078h295l81 -1071l518 1071h297zM1103 1517l232 316h319l-296 -316h-255z" />
    <glyph glyph-name="wacute" unicode="&#x1e83;" horiz-adv-x="1703" 
d="M1156 295l345 674h283l-527 -969h-290l-76 656l-333 -656h-299l-133 969h262l75 -674l344 674h268zM791 1107l232 316h319l-296 -316h-255z" />
    <glyph glyph-name="Wdieresis" unicode="&#x1e84;" horiz-adv-x="2167" 
d="M1615 0h-330l-81 1003l-498 -1003h-344l-124 1400h282l79 -1078l529 1078h295l81 -1071l518 1071h297zM1095 1834q35 0 66 -13t53.5 -35.5t35.5 -53.5t13 -66t-13 -65.5t-35.5 -53t-53.5 -35t-66 -12.5t-65.5 12.5t-53 35t-35 53t-12.5 65.5t12.5 66t35 53.5t53 35.5
t65.5 13zM1526 1834q35 0 66 -13t53.5 -35.5t35.5 -53.5t13 -66t-13 -65.5t-35.5 -53t-53.5 -35t-66 -12.5t-65.5 12.5t-53 35t-35 53t-12.5 65.5t12.5 66t35 53.5t53 35.5t65.5 13z" />
    <glyph glyph-name="wdieresis" unicode="&#x1e85;" horiz-adv-x="1703" 
d="M1156 295l345 674h283l-527 -969h-290l-76 656l-333 -656h-299l-133 969h262l75 -674l344 674h268zM780 1424q35 0 66 -13t53.5 -35.5t35.5 -53.5t13 -66t-13 -65.5t-35.5 -53t-53.5 -35t-66 -12.5t-65.5 12.5t-53 35t-35 53t-12.5 65.5t12.5 66t35 53.5t53 35.5t65.5 13
zM1211 1424q35 0 66 -13t53.5 -35.5t35.5 -53.5t13 -66t-13 -65.5t-35.5 -53t-53.5 -35t-66 -12.5t-65.5 12.5t-53 35t-35 53t-12.5 65.5t12.5 66t35 53.5t53 35.5t65.5 13z" />
    <glyph glyph-name="uni1E88" unicode="&#x1e88;" horiz-adv-x="2167" 
d="M1615 0h-330l-81 1003l-498 -1003h-344l-124 1400h282l79 -1078l529 1078h295l81 -1071l518 1071h297zM970 -102q35 0 65.5 -13t53 -35.5t35.5 -53.5t13 -66t-13 -65.5t-35.5 -53t-53 -35t-65.5 -12.5t-65.5 12.5t-53 35t-35 53t-12.5 65.5t12.5 66t35 53.5t53 35.5
t65.5 13z" />
    <glyph glyph-name="uni1E89" unicode="&#x1e89;" horiz-adv-x="1703" 
d="M1156 295l345 674h283l-527 -969h-290l-76 656l-333 -656h-299l-133 969h262l75 -674l344 674h268zM721 -102q35 0 65.5 -13t53 -35.5t35.5 -53.5t13 -66t-13 -65.5t-35.5 -53t-53 -35t-65.5 -12.5t-65.5 12.5t-53 35t-35 53t-12.5 65.5t12.5 66t35 53.5t53 35.5t65.5 13
z" />
    <glyph glyph-name="uni1E92" unicode="&#x1e92;" horiz-adv-x="1283" 
d="M1321 1175l-879 -918h717l-55 -257h-1090l50 231l877 912h-710l55 257h1082zM538 -102q35 0 65.5 -13t53 -35.5t35.5 -53.5t13 -66t-13 -65.5t-35.5 -53t-53 -35t-65.5 -12.5t-65.5 12.5t-53 35t-35 53t-12.5 65.5t12.5 66t35 53.5t53 35.5t65.5 13z" />
    <glyph glyph-name="uni1E93" unicode="&#x1e93;" horiz-adv-x="1007" 
d="M964 770l-560 -537h472l-49 -233h-827l41 199l567 538h-464l50 232h813zM376 -102q35 0 65.5 -13t53 -35.5t35.5 -53.5t13 -66t-13 -65.5t-35.5 -53t-53 -35t-65.5 -12.5t-65.5 12.5t-53 35t-35 53t-12.5 65.5t12.5 66t35 53.5t53 35.5t65.5 13z" />
    <glyph glyph-name="uni1E94" unicode="&#x1e94;" horiz-adv-x="1283" 
d="M1321 1175l-879 -918h717l-55 -257h-1090l50 231l877 912h-710l55 257h1082zM226 -157h662l-45 -210h-662z" />
    <glyph glyph-name="uni1E95" unicode="&#x1e95;" horiz-adv-x="1007" 
d="M964 770l-560 -537h472l-49 -233h-827l41 199l567 538h-464l50 232h813zM63 -157h662l-45 -210h-662z" />
    <glyph glyph-name="uni1E96" unicode="&#x1e96;" horiz-adv-x="1161" 
d="M742 995q76 0 136.5 -24t102.5 -67t64.5 -103t22.5 -131q0 -25 -2.5 -51.5t-8.5 -53.5l-121 -565h-262l117 544q7 31 7 64q0 30 -8 56t-26 45t-47 30t-70 11t-79.5 -12t-71.5 -39.5t-58.5 -71.5t-38.5 -107l-110 -520h-263l306 1440h262l-117 -553q59 61 126.5 84.5
t138.5 23.5zM118 -157h662l-45 -210h-662z" />
    <glyph glyph-name="uni1E9E" unicode="&#x1e9e;" horiz-adv-x="1441" 
d="M228 918q22 102 69 193.5t123.5 161.5t183.5 111t248 41q95 0 181.5 -22t159 -61.5t130 -94t93.5 -119.5l-384 -355q80 -24 141 -62.5t100.5 -90t55.5 -115.5t6 -140q-12 -92 -58.5 -165t-118 -123t-164.5 -76.5t-199 -26.5q-38 0 -80 3t-84.5 9t-84 15t-79.5 22l90 250
q57 -22 116 -30.5t115 -8.5q237 0 257 149q6 42 -10 77t-53 60t-93 39t-131 14h-92l43 204l348 327q-25 20 -53.5 32t-58.5 19t-59 9t-55 2q-62 0 -116 -21t-96 -58.5t-71.5 -89.5t-42.5 -113l-187 -884h-285z" />
    <glyph glyph-name="Ygrave" unicode="&#x1ef2;" horiz-adv-x="1347" 
d="M832 552l-118 -552h-285l122 576l-348 824h298l230 -584l463 584h340zM511 1833h312l201 -315h-249z" />
    <glyph glyph-name="ygrave" unicode="&#x1ef3;" horiz-adv-x="1120" 
d="M273 -404h-298l451 638l-313 735h282l196 -493l328 493h297zM330 1423h312l201 -315h-249z" />
    <glyph glyph-name="uni1EF4" unicode="&#x1ef4;" horiz-adv-x="1347" 
d="M832 552l-118 -552h-285l122 576l-348 824h298l230 -584l463 584h340zM520 -102q35 0 65.5 -13t53 -35.5t35.5 -53.5t13 -66t-13 -65.5t-35.5 -53t-53 -35t-65.5 -12.5t-65.5 12.5t-53 35t-35 53t-12.5 65.5t12.5 66t35 53.5t53 35.5t65.5 13z" />
    <glyph glyph-name="uni1EF5" unicode="&#x1ef5;" horiz-adv-x="1120" 
d="M273 -404h-298l451 638l-313 735h282l196 -493l328 493h297zM745 -102q35 0 65.5 -13t53 -35.5t35.5 -53.5t13 -66t-13 -65.5t-35.5 -53t-53 -35t-65.5 -12.5t-65.5 12.5t-53 35t-35 53t-12.5 65.5t12.5 66t35 53.5t53 35.5t65.5 13z" />
    <glyph glyph-name="uni2007" unicode="&#x2007;" horiz-adv-x="1403" 
 />
    <glyph glyph-name="uni2008" unicode="&#x2008;" horiz-adv-x="538" 
 />
    <glyph glyph-name="uni2009" unicode="&#x2009;" horiz-adv-x="165" 
 />
    <glyph glyph-name="uni200B" unicode="&#x200b;" horiz-adv-x="0" 
 />
    <glyph glyph-name="uni2010" unicode="&#x2010;" horiz-adv-x="794" 
d="M673 418h-581l48 228h581z" />
    <glyph glyph-name="uni2011" unicode="&#x2011;" horiz-adv-x="794" 
d="M673 418h-581l48 228h581z" />
    <glyph glyph-name="figuredash" unicode="&#x2012;" horiz-adv-x="1200" 
d="M1051 421h-951l46 223h951z" />
    <glyph glyph-name="endash" unicode="&#x2013;" horiz-adv-x="1135" 
d="M1030 421h-951l46 223h951z" />
    <glyph glyph-name="emdash" unicode="&#x2014;" horiz-adv-x="1568" 
d="M1509 421h-1475l45 223h1476z" />
    <glyph glyph-name="quoteleft" unicode="&#x2018;" horiz-adv-x="524" 
d="M162 844l252 596h234l-194 -596h-292z" />
    <glyph glyph-name="quoteright" unicode="&#x2019;" horiz-adv-x="524" 
d="M642 1440l-252 -596h-234l194 596h292z" />
    <glyph glyph-name="quotesinglbase" unicode="&#x201a;" horiz-adv-x="524" 
d="M403 316l-252 -596h-234l194 596h292z" />
    <glyph glyph-name="quotedblleft" unicode="&#x201c;" horiz-adv-x="957" 
d="M162 844l252 596h234l-194 -596h-292zM595 844l252 596h234l-194 -596h-292z" />
    <glyph glyph-name="quotedblright" unicode="&#x201d;" horiz-adv-x="957" 
d="M1075 1440l-252 -596h-234l194 596h292zM642 1440l-252 -596h-234l194 596h292z" />
    <glyph glyph-name="quotedblbase" unicode="&#x201e;" horiz-adv-x="957" 
d="M836 316l-252 -596h-234l194 596h292zM403 316l-252 -596h-234l194 596h292z" />
    <glyph glyph-name="dagger" unicode="&#x2020;" horiz-adv-x="788" 
d="M318 602l89 422h-216l42 199h216l46 217h204l-46 -217h216l-43 -199h-216l-89 -422h-203z" />
    <glyph glyph-name="daggerdbl" unicode="&#x2021;" horiz-adv-x="788" 
d="M664 1274h216l-41 -191h-216l-28 -131h216l-41 -191h-215l-35 -166h-204l35 166h-216l41 191h215l28 131h-215l41 191h215l35 166h204z" />
    <glyph glyph-name="bullet" unicode="&#x2022;" horiz-adv-x="861" 
d="M445 849q65 0 123 -25t101 -67.5t68 -100.5t25 -124t-25 -124t-68 -100.5t-101 -67.5t-123 -25q-66 0 -123.5 25t-100.5 67.5t-68 100.5t-25 124t25 124t68 100.5t100.5 67.5t123.5 25z" />
    <glyph glyph-name="uni2023" unicode="&#x2023;" horiz-adv-x="1005" 
d="M97 103l182 858l650 -429z" />
    <glyph glyph-name="ellipsis" unicode="&#x2026;" horiz-adv-x="1644" 
d="M205 363q39 0 74 -15.5t61.5 -42t42 -61.5t15.5 -74t-15.5 -74.5t-42 -62.5t-61.5 -42.5t-74 -15.5t-74 15.5t-62 42.5t-42.5 62.5t-15.5 74.5t15.5 74t42.5 61.5t62 42t74 15.5zM759 363q39 0 74 -15.5t61.5 -42t42 -61.5t15.5 -74t-15.5 -74.5t-42 -62.5t-61.5 -42.5
t-74 -15.5t-74.5 15.5t-62 42.5t-42.5 62.5t-16 74.5t16 74t42.5 61.5t62 42t74.5 15.5zM1312 363q39 0 74 -15.5t61.5 -42t42 -61.5t15.5 -74t-15.5 -74.5t-42 -62.5t-61.5 -42.5t-74 -15.5t-74 15.5t-62 42.5t-42.5 62.5t-15.5 74.5t15.5 74t42.5 61.5t62 42t74 15.5z" />
    <glyph glyph-name="perthousand" unicode="&#x2030;" horiz-adv-x="2845" 
d="M593 1425q78 0 144 -26t114 -72.5t74.5 -111t26.5 -141.5q0 -83 -31 -157.5t-85.5 -130.5t-128.5 -89t-161 -33q-79 0 -145 26t-114 72.5t-75 111t-27 141.5q0 83 31 157.5t86 130.5t129.5 89t161.5 33zM581 1217q-38 0 -70 -15t-55 -40.5t-36 -60t-13 -72.5
q0 -35 11 -63.5t31 -49.5t47.5 -32.5t60.5 -11.5q38 0 70 15t55 40.5t36 60t13 72.5q0 34 -11 63t-31 50t-47.5 32.5t-60.5 11.5zM636 0h-275l1110 1400h275zM1562 736q78 0 144 -26t113.5 -72.5t74.5 -111.5t27 -142q0 -83 -31 -157.5t-85.5 -130.5t-129 -89t-161.5 -33
q-78 0 -144 26t-114 72.5t-75 111t-27 141.5q0 83 31 157.5t86 131t129.5 89.5t161.5 33zM1550 527q-38 0 -70 -15t-55 -40.5t-36 -60t-13 -72.5q0 -35 11 -63.5t31 -49t47.5 -32t59.5 -11.5q38 0 70 15t55 40.5t36 59.5t13 72q0 34 -11 63t-31 50t-47 32.5t-60 11.5z
M2392 736q78 0 144 -26t114 -72.5t74.5 -111.5t26.5 -142q0 -83 -31 -157.5t-85.5 -130.5t-128.5 -89t-161 -33q-79 0 -145 26t-114 72.5t-75 111t-27 141.5q0 83 31 157.5t86 131t129.5 89.5t161.5 33zM2380 527q-38 0 -70 -15t-55 -40.5t-36 -60t-13 -72.5q0 -35 11 -63.5
t31 -49t47.5 -32t60.5 -11.5q38 0 69.5 15t54.5 40.5t36 59.5t13 72q0 34 -11 63t-31 50t-47 32.5t-60 11.5z" />
    <glyph glyph-name="minute" unicode="&#x2032;" horiz-adv-x="568" 
d="M677 1400l-289 -681h-259l290 681h258z" />
    <glyph glyph-name="second" unicode="&#x2033;" horiz-adv-x="957" 
d="M1066 1400l-289 -681h-259l290 681h258zM677 1400l-289 -681h-259l290 681h258z" />
    <glyph glyph-name="uni2034" unicode="&#x2034;" horiz-adv-x="1303" 
d="M1044 1400l-289 -681h-259l290 681h258zM1412 1400l-289 -681h-259l290 681h258zM677 1400l-289 -681h-259l290 681h258z" />
    <glyph glyph-name="guilsinglleft" unicode="&#x2039;" horiz-adv-x="638" 
d="M344 505l102 -363h-249l-109 390l276 390h275z" />
    <glyph glyph-name="guilsinglright" unicode="&#x203a;" horiz-adv-x="638" 
d="M314 560l-102 363h249l109 -390l-276 -390h-275z" />
    <glyph glyph-name="fraction" unicode="&#x2044;" horiz-adv-x="476" 
d="M-157 0h-253l1055 1400h253z" />
    <glyph glyph-name="uni2070" unicode="&#x2070;" horiz-adv-x="891" 
d="M614 1415q70 0 128.5 -22.5t101 -65t66 -104t23.5 -140.5q0 -59 -12.5 -120t-37.5 -119t-61.5 -109t-84.5 -89.5t-107.5 -60.5t-128.5 -22q-70 0 -128.5 22.5t-101 65t-66.5 104t-24 139.5q0 59 13 120.5t37.5 119t61.5 109t85 89.5t107 60.5t129 22.5zM602 1228
q-53 0 -93 -30t-67 -76.5t-40.5 -102t-13.5 -106.5q0 -77 32.5 -120t91.5 -43q52 0 92.5 30t67.5 76t41 102t14 107q0 78 -32.5 120.5t-92.5 42.5z" />
    <glyph glyph-name="uni2071" unicode="&#x2071;" horiz-adv-x="438" 
d="M341 578h-193l146 690h194zM432 1613q26 0 48.5 -9t39 -25.5t26 -38.5t9.5 -48t-9.5 -48t-26 -38.5t-39 -26t-48.5 -9.5t-48 9.5t-38 26t-25.5 38.5t-9.5 48t9.5 48t25.5 38.5t38 25.5t48 9z" />
    <glyph glyph-name="uni2074" unicode="&#x2074;" horiz-adv-x="718" 
d="M673 898h104l-38 -181h-105l-29 -139h-195l29 139h-357l33 155l355 527h222l-337 -501h123l19 91l83 124h139z" />
    <glyph glyph-name="uni2075" unicode="&#x2075;" horiz-adv-x="716" 
d="M742 1221h-309l-32 -127h52q73 0 129 -22t91 -60t47.5 -89.5t0.5 -110.5q-13 -64 -43.5 -111t-75.5 -77.5t-102 -45.5t-123 -15q-89 0 -162.5 30.5t-119.5 87.5l115 129q33 -35 78.5 -52.5t97.5 -17.5q63 0 96 24t41 62q4 21 -1 39t-20 31.5t-41.5 21t-66.5 7.5h-202
l109 475h479z" />
    <glyph glyph-name="uni2076" unicode="&#x2076;" horiz-adv-x="747" 
d="M511 1123q58 -3 107 -21t85 -50.5t56 -77.5t20 -102q0 -63 -25 -119.5t-70 -98.5t-107.5 -66.5t-137.5 -24.5q-64 0 -120.5 19t-99 53.5t-67 83.5t-24.5 110q0 55 25 120t89 139l269 312h248zM460 960q-29 0 -52 -9.5t-39.5 -26t-25.5 -38.5t-9 -46q0 -46 30.5 -75
t81.5 -29q28 0 51.5 9.5t40.5 26t26 39t9 47.5q0 45 -32 73.5t-81 28.5z" />
    <glyph glyph-name="uni2077" unicode="&#x2077;" horiz-adv-x="682" 
d="M799 1237l-413 -659h-233l410 641h-366l38 181h597z" />
    <glyph glyph-name="uni2078" unicode="&#x2078;" horiz-adv-x="782" 
d="M569 1414q59 0 111 -14.5t90.5 -41.5t61 -65.5t22.5 -86.5q0 -72 -45.5 -130t-128.5 -90q49 -24 79 -62.5t30 -92.5t-24 -103t-70 -85.5t-113 -58t-153 -21.5q-63 0 -117.5 15t-94.5 42.5t-63 66.5t-23 88q0 73 48 131t136 90q-41 23 -64 59.5t-23 86.5q0 55 23.5 104.5
t67.5 86.5t107 59t143 22zM475 918q-27 0 -50.5 -7.5t-41 -21.5t-27.5 -33.5t-10 -43.5q0 -19 8.5 -34t23 -25t33 -15.5t39.5 -5.5q27 0 51 7.5t42 21t28 33t10 43.5q0 39 -31.5 60t-74.5 21zM551 1245q-54 0 -86 -28t-32 -70q0 -35 25.5 -55t67.5 -20q51 0 85 28t34 70
q0 35 -28 55t-66 20z" />
    <glyph glyph-name="uni2079" unicode="&#x2079;" horiz-adv-x="747" 
d="M449 854q-58 3 -107 21.5t-84.5 50.5t-55.5 77.5t-20 102.5q0 63 25 119t70 98t107.5 66.5t137.5 24.5q64 0 120.5 -18.5t99 -53t67 -83.5t24.5 -110q0 -55 -25 -120t-89 -139l-269 -312h-248zM502 1018q28 0 51.5 9.5t40 26t25.5 38.5t9 46q0 45 -31 74t-82 29
q-29 0 -52 -9.5t-40 -26t-26 -39t-9 -47.5q0 -45 32 -73t82 -28z" />
    <glyph glyph-name="uni207F" unicode="&#x207f;" horiz-adv-x="818" 
d="M622 1287q55 0 98.5 -17t74 -48t46.5 -74t16 -94q0 -38 -9 -77l-87 -399h-193l83 388q2 11 3.5 21t1.5 21q0 42 -23.5 69.5t-79.5 27.5q-59 0 -104.5 -36.5t-63.5 -121.5l-77 -369h-194l147 690h186l-14 -57q42 42 90 59t99 17z" />
    <glyph glyph-name="uni2080" unicode="&#x2080;" horiz-adv-x="891" 
d="M413 453q70 0 128.5 -22.5t101 -65t66 -104t23.5 -140.5q0 -59 -12.5 -120t-37.5 -119t-61.5 -109t-84.5 -89.5t-107.5 -60.5t-128.5 -22q-70 0 -128.5 22.5t-101 65t-66.5 104t-24 139.5q0 59 13 120.5t37.5 119t61.5 109t85 89.5t107 60.5t129 22.5zM401 266
q-53 0 -93 -30t-67 -76.5t-40.5 -102t-13.5 -106.5q0 -77 32.5 -120t91.5 -43q52 0 92.5 30t67.5 76t41 102t14 107q0 78 -32.5 120.5t-92.5 42.5z" />
    <glyph glyph-name="uni2081" unicode="&#x2081;" horiz-adv-x="527" 
d="M232 -384h-195l121 570l-191 -59l42 200l400 124z" />
    <glyph glyph-name="uni2082" unicode="&#x2082;" horiz-adv-x="727" 
d="M21 321q22 24 50 47.5t64 42t80 30t98 11.5q70 0 122 -20.5t86 -54.5t50.5 -77.5t16.5 -88.5q0 -41 -9.5 -76t-31.5 -69.5t-58.5 -71t-89.5 -79.5l-148 -119h282l-38 -180h-566l33 156l315 256q31 25 52 46t33.5 39.5t18 35t5.5 33.5q0 35 -27 59.5t-76 24.5
q-51 0 -85 -21.5t-69 -54.5z" />
    <glyph glyph-name="uni2083" unicode="&#x2083;" horiz-adv-x="721" 
d="M13 344q54 50 124 79t169 29q65 0 116.5 -17.5t87.5 -46.5t55.5 -68t19.5 -82q0 -35 -11.5 -67.5t-32.5 -61t-51 -51.5t-67 -38q49 -24 74.5 -64.5t25.5 -89.5q0 -54 -22.5 -102.5t-65.5 -84.5t-105.5 -57t-142.5 -21q-102 0 -174 31.5t-112 88.5l127 121q28 -34 70 -51
t92 -17q69 0 101.5 27.5t32.5 69.5q0 38 -34 57.5t-87 19.5h-90l34 166h89q70 0 107.5 27.5t37.5 67.5q0 33 -29 52t-77 19q-52 0 -96.5 -22.5t-76.5 -51.5z" />
    <glyph glyph-name="uni2084" unicode="&#x2084;" horiz-adv-x="718" 
d="M470 -64h104l-38 -181h-105l-29 -139h-195l29 139h-357l33 155l355 527h222l-337 -501h123l19 91l83 124h139z" />
    <glyph glyph-name="uni2085" unicode="&#x2085;" horiz-adv-x="715" 
d="M540 259h-309l-32 -127h52q73 0 129 -22t91 -60t47.5 -89.5t0.5 -110.5q-13 -64 -43.5 -111t-75.5 -77.5t-102 -45.5t-123 -15q-89 0 -162.5 30.5t-119.5 87.5l115 129q33 -35 78.5 -52.5t97.5 -17.5q63 0 96 24t41 62q4 21 -1 39t-20 31.5t-41.5 21t-66.5 7.5h-202
l109 475h479z" />
    <glyph glyph-name="uni2086" unicode="&#x2086;" horiz-adv-x="747" 
d="M309 161q58 -3 107 -21t85 -50.5t56 -77.5t20 -102q0 -63 -25 -119.5t-70 -98.5t-107.5 -66.5t-137.5 -24.5q-64 0 -120.5 19t-99 53.5t-67 83.5t-24.5 110q0 55 25 120t89 139l269 312h248zM258 -2q-29 0 -52 -9.5t-39.5 -26t-25.5 -38.5t-9 -46q0 -46 30.5 -75
t81.5 -29q28 0 51.5 9.5t40.5 26t26 39t9 47.5q0 45 -32 73.5t-81 28.5z" />
    <glyph glyph-name="uni2087" unicode="&#x2087;" horiz-adv-x="682" 
d="M597 275l-413 -659h-233l410 641h-366l38 181h597z" />
    <glyph glyph-name="uni2088" unicode="&#x2088;" horiz-adv-x="782" 
d="M368 452q59 0 111 -14.5t90.5 -41.5t61 -65.5t22.5 -86.5q0 -72 -45.5 -130t-128.5 -90q49 -24 79 -62.5t30 -92.5t-24 -103t-70 -85.5t-113 -58t-153 -21.5q-63 0 -117.5 15t-94.5 42.5t-63 66.5t-23 88q0 73 48 131t136 90q-41 23 -64 59.5t-23 86.5q0 55 23.5 104.5
t67.5 86.5t107 59t143 22zM274 -44q-27 0 -50.5 -7.5t-41 -21.5t-27.5 -33.5t-10 -43.5q0 -19 8.5 -34t23 -25t33 -15.5t39.5 -5.5q27 0 51 7.5t42 21t28 33t10 43.5q0 39 -31.5 60t-74.5 21zM350 283q-54 0 -86 -28t-32 -70q0 -35 25.5 -55t67.5 -20q51 0 85 28t34 70
q0 35 -28 55t-66 20z" />
    <glyph glyph-name="uni2089" unicode="&#x2089;" horiz-adv-x="747" 
d="M244 -108q-58 3 -107 21.5t-84.5 50.5t-55.5 77.5t-20 102.5q0 63 25 119t70 98t107.5 66.5t137.5 24.5q64 0 120.5 -18.5t99 -53t67 -83.5t24.5 -110q0 -55 -25 -120t-89 -139l-269 -312h-248zM297 56q28 0 51.5 9.5t40 26t25.5 38.5t9 46q0 45 -31 74t-82 29
q-29 0 -52 -9.5t-40 -26t-26 -39t-9 -47.5q0 -45 32 -73t82 -28z" />
    <glyph glyph-name="Euro" unicode="&#x20ac;" horiz-adv-x="1400" 
d="M1295 176q-84 -92 -192.5 -144t-238.5 -52q-114 0 -211 32.5t-171.5 93.5t-124.5 148.5t-71 197.5h-194l39 185h142q1 31 4.5 67t8.5 67h-134l39 185h144q42 110 108.5 196.5t152 146.5t188.5 91.5t219 31.5q49 0 107 -7.5t118.5 -30t122 -62.5t118.5 -106l-177 -185
q-37 45 -76.5 74t-78.5 45.5t-77 22.5t-72 6q-117 0 -210.5 -58.5t-153.5 -164.5h524l-40 -185h-549q-6 -32 -9.5 -64.5t-5.5 -69.5h536l-39 -185h-470q36 -109 116 -168.5t191 -59.5q88 0 160.5 39.5t124.5 101.5z" />
    <glyph glyph-name="uni20BA" unicode="&#x20ba;" horiz-adv-x="1400" 
d="M1266 353q-48 -101 -110 -168.5t-138.5 -108.5t-167.5 -58.5t-196 -17.5h-440l69 324l-181 -77l42 208l183 78l30 139l-183 -78l43 207l184 79l111 522h273l-84 -394l409 175l-43 -208l-410 -175l-30 -138l410 175l-43 -209l-411 -176l-42 -196h136q57 0 111 9t102 34
t90 70t75 117z" />
    <glyph glyph-name="uni2100" unicode="&#x2100;" horiz-adv-x="2000" 
d="M649 1425q68 0 123 -17t93.5 -49t59 -78.5t20.5 -104.5q0 -37 -9 -79l-81 -381h-187l10 50q-35 -29 -81.5 -48.5t-103.5 -19.5q-51 0 -92.5 14.5t-71.5 40t-46 61.5t-16 78q0 54 21 98.5t60 76t95.5 49t127.5 17.5h178q1 5 1 10v10q0 48 -32.5 75t-103.5 27
q-57 0 -102 -17t-84 -38l-51 156q65 36 129 52.5t143 16.5zM555 853q40 0 80 18.5t72 48.5l17 79h-135q-56 0 -86.5 -22t-30.5 -59q0 -29 21 -47t62 -18zM682 0h-253l1055 1400h253zM1706 442q-32 48 -70 62.5t-72 14.5q-41 0 -75 -16.5t-59 -44t-39 -64.5t-14 -78
q0 -36 11 -65.5t31 -50.5t46.5 -33t58.5 -12q41 0 77.5 16.5t66.5 50.5l131 -118q-54 -63 -126 -96t-157 -33q-75 0 -137.5 24.5t-107 68.5t-69 103.5t-24.5 130.5q0 81 29 153t81.5 126.5t125 86t160.5 31.5q105 0 180 -43t117 -124z" />
    <glyph glyph-name="uni2101" unicode="&#x2101;" horiz-adv-x="2000" 
d="M641 1425q68 0 123 -17t93.5 -49t59 -78.5t20.5 -104.5q0 -37 -9 -79l-81 -381h-187l10 50q-35 -29 -81.5 -48.5t-103.5 -19.5q-51 0 -92.5 14.5t-71.5 40t-46 61.5t-16 78q0 54 21 98.5t60 76t95.5 49t127.5 17.5h178q1 5 1 10v10q0 48 -32.5 75t-103.5 27
q-57 0 -102 -17t-84 -38l-51 156q65 36 129 52.5t143 16.5zM547 853q40 0 80 18.5t72 48.5l17 79h-135q-56 0 -86.5 -22t-30.5 -59q0 -29 21 -47t62 -18zM666 0h-253l1055 1400h253zM1748 479q-26 15 -55.5 26.5t-58.5 19t-56 11t-47 3.5q-99 0 -105 -52q-2 -17 4 -28
t18.5 -17.5t31 -11t42.5 -8.5l46 -9q116 -22 164 -78.5t38 -135.5q-12 -106 -94.5 -165.5t-223.5 -59.5q-42 0 -85.5 6t-85 18t-79 29t-66.5 39l90 143q48 -33 107.5 -54t122.5 -21q58 0 86 15t31 44q3 26 -19.5 40.5t-74.5 22.5l-47 7q-119 20 -167 77.5t-38 142.5
q13 106 93 161.5t211 55.5q86 0 161 -19.5t141 -57.5z" />
    <glyph glyph-name="afii61248" unicode="&#x2105;" horiz-adv-x="2000" 
d="M759 1167q-32 48 -70 62.5t-72 14.5q-41 0 -75 -16.5t-59 -44t-39 -64.5t-14 -78q0 -36 11 -65.5t31 -50.5t46.5 -33t58.5 -12q41 0 77.5 16.5t66.5 50.5l131 -118q-54 -63 -126 -96t-157 -33q-75 0 -137.5 24.5t-107 68.5t-69 103.5t-24.5 130.5q0 81 29 153t81.5 126.5
t125 86t160.5 31.5q105 0 180 -43t117 -124zM609 0h-253l1055 1400h253zM1514 700q74 0 137.5 -24t110 -67.5t72.5 -104.5t26 -135q0 -81 -30 -153t-83.5 -126t-126.5 -85.5t-160 -31.5q-74 0 -137 23.5t-109.5 67t-73 105t-26.5 136.5q0 81 30 152.5t83.5 125.5t126.5 85.5
t160 31.5zM1500 519q-40 0 -74 -16t-59 -43.5t-39.5 -64.5t-14.5 -79q0 -36 11.5 -65.5t32.5 -51.5t50 -34t64 -12q40 0 75 16t61 43.5t40.5 65t14.5 79.5q0 36 -12 66t-33.5 51t-51 33t-65.5 12z" />
    <glyph glyph-name="uni2106" unicode="&#x2106;" horiz-adv-x="2000" 
d="M763 1167q-32 48 -70 62.5t-72 14.5q-41 0 -75 -16.5t-59 -44t-39 -64.5t-14 -78q0 -36 11 -65.5t31 -50.5t46.5 -33t58.5 -12q41 0 77.5 16.5t66.5 50.5l131 -118q-54 -63 -126 -96t-157 -33q-75 0 -137.5 24.5t-107 68.5t-69 103.5t-24.5 130.5q0 81 29 153t81.5 126.5
t125 86t160.5 31.5q105 0 180 -43t117 -124zM606 0h-253l1055 1400h253zM1817 287q-18 -85 -54 -143.5t-84.5 -94.5t-107.5 -51.5t-122 -15.5q-62 0 -114.5 16.5t-90.5 48.5t-59.5 79t-21.5 109q0 20 2.5 41t7.5 44l78 371h194l-82 -387q-3 -12 -4 -22.5t-1 -21.5
q0 -51 30 -73.5t78 -22.5q60 0 103.5 38.5t60.5 118.5l79 370h193z" />
    <glyph glyph-name="afii61289" unicode="&#x2113;" horiz-adv-x="1045" 
d="M119 585q81 28 154 62l1 426q0 86 25.5 158t72 124t112 81t147.5 29q73 0 134.5 -24.5t106.5 -69t70 -106t25 -134.5q0 -101 -33 -189.5t-93 -165t-142.5 -142.5t-181.5 -122v-151q0 -38 10.5 -65.5t28.5 -45t42.5 -26t52.5 -8.5q51 0 97.5 18.5t88.5 45.5l102 -198
q-61 -43 -136.5 -71t-169.5 -28q-170 0 -265 92t-95 277v44q-20 -8 -38.5 -15.5t-38.5 -14.5zM517 789q97 74 151 157t55 174q0 54 -24 85.5t-69 31.5q-49 0 -80.5 -43.5t-31.5 -130.5z" />
    <glyph glyph-name="afii61352" unicode="&#x2116;" horiz-adv-x="2376" 
d="M2291 365h-707l47 217h706zM2088 1418q78 0 143 -24.5t112 -69t73 -106t26 -135.5q0 -80 -30 -150.5t-83.5 -124t-126.5 -84.5t-159 -31q-78 0 -143 25t-111.5 69.5t-72.5 105t-26 132.5q0 80 29.5 151.5t82.5 125t126 85t160 31.5zM2078 1232q-41 0 -75 -15.5t-58.5 -42
t-38 -61.5t-13.5 -75q0 -35 12 -64.5t33 -50.5t50.5 -33t64.5 -12q41 0 75.5 15.5t59 42t38 62t13.5 75.5q0 35 -12 64t-33.5 50t-51 33t-64.5 12zM1290 0h-262l-490 964l-205 -964h-284l298 1400h263l489 -964l205 964h284z" />
    <glyph glyph-name="uni2117" unicode="&#x2117;" horiz-adv-x="1859" 
d="M923 -95q-159 0 -299.5 56.5t-246 157t-167 238t-61.5 299.5q0 113 31 221t88.5 203t137.5 175t178.5 138t212 90t236.5 32q106 0 204.5 -25.5t184 -73t156.5 -115t121.5 -151t78.5 -181t28 -205.5q0 -113 -31 -221t-88 -203t-137.5 -175t-178.5 -138t-211.5 -90
t-236.5 -32zM1018 1296q-90 0 -172 -23.5t-152.5 -66t-128.5 -101t-98.5 -128t-63 -147.5t-22.5 -160q0 -119 44.5 -219.5t120.5 -173t177.5 -113t214.5 -40.5q90 0 172 23.5t152.5 66t128.5 101t98.5 128t63 147.5t22.5 160q0 119 -44.5 219.5t-120.5 173t-177.5 113
t-214.5 40.5zM1103 1117q90 0 155 -26t104.5 -69.5t53.5 -99t1 -113.5q-13 -62 -45 -108t-79.5 -76t-109.5 -45t-135 -15h-178l-58 -272h-216l175 824h332zM947 929l-38 -181h142q66 0 104.5 18t47.5 65q8 41 -19.5 69.5t-93.5 28.5h-143z" />
    <glyph glyph-name="uni2120" unicode="&#x2120;" horiz-adv-x="1619" 
d="M721 1203q-25 16 -53 27.5t-55.5 18t-52.5 9.5t-44 3q-54 0 -78.5 -15t-24.5 -37q0 -15 9 -25.5t24 -17t34.5 -11t39.5 -7.5l31 -5q94 -15 147 -59.5t53 -116.5q0 -52 -22 -94t-61 -71t-93.5 -45t-119.5 -16q-38 0 -80 5.5t-82.5 17t-77.5 28t-66 39.5l90 129
q54 -38 114 -55t113 -17q46 0 76.5 13t30.5 42q0 26 -28 37.5t-85 21.5l-33 5q-89 15 -140 60.5t-51 119.5q0 48 18.5 88.5t54 70t87.5 46.5t119 17q29 0 63 -2.5t71 -11t76 -23.5t78 -40zM1437 753l89 419l-208 -359h-178l-57 360l-89 -420h-176l137 647h242l68 -388
l231 388h256l-137 -647h-178z" />
    <glyph glyph-name="trademark" unicode="&#x2122;" horiz-adv-x="1615" 
d="M1433 753l89 419l-208 -359h-178l-57 360l-89 -420h-176l137 647h242l68 -388l231 388h256l-137 -647h-178zM322 753l103 485h-204l35 162h585l-35 -162h-204l-103 -485h-177z" />
    <glyph glyph-name="Omega" unicode="&#x2126;" horiz-adv-x="1694" 
d="M1561 0h-636l49 231q83 23 150 73.5t113.5 119t71.5 151t25 170.5t-30 164t-85 131.5t-132 87t-170 31.5q-107 0 -195 -41.5t-151.5 -112t-98.5 -164t-35 -198.5q0 -75 19 -140.5t55 -117.5t86.5 -89.5t113.5 -57.5l-50 -238h-636l54 254h263q-93 84 -142.5 194
t-49.5 241q0 104 27.5 199t78 177t121 148t157 113t186.5 73t209 26q155 0 284 -47t222 -131.5t145 -201t52 -255.5q0 -153 -62.5 -291t-185.5 -245h231z" />
    <glyph glyph-name="estimated" unicode="&#x212e;" horiz-adv-x="2000" 
d="M563 344q0 -89 29.5 -155.5t106.5 -110.5q80 -45 170.5 -70t190.5 -25q93 0 179.5 20.5t162 59.5t139 95.5t111.5 128.5l80 -62q-55 -81 -127.5 -144.5t-158.5 -108t-183.5 -67.5t-202.5 -23q-111 0 -215 26.5t-194 76.5t-164.5 122t-127.5 163t-82 199t-29 231
q0 122 29 230.5t82 199.5t127.5 163t164.5 122t193.5 76.5t215.5 26.5q168 0 315.5 -59t258 -166.5t174.5 -258t64 -334.5v-26q0 -12 -1 -24h-1308v-306zM1569 750v296q0 88 -28.5 154t-103.5 112q-82 50 -176.5 77.5t-200.5 27.5q-100 0 -190.5 -25t-170.5 -70
q-77 -44 -106.5 -111t-29.5 -155v-306h1006z" />
    <glyph glyph-name="uni214D" unicode="&#x214d;" horiz-adv-x="2053" 
d="M938 657h-193l-17 140h-270l-75 -140h-210l425 743h227zM1818 515q-26 19 -57 32t-61.5 20.5t-58.5 11t-47 3.5q-54 0 -79.5 -16.5t-25.5 -40.5q0 -16 10.5 -26.5t27 -18t38 -13t42.5 -10.5l30 -7q103 -24 159.5 -72t56.5 -128q0 -61 -24.5 -110t-68.5 -83t-105 -52.5
t-134 -18.5q-45 0 -93 6.5t-93 19.5t-85.5 32.5t-71.5 45.5l107 152q61 -45 125 -64.5t125 -19.5q48 0 78 15t30 47q0 29 -30.5 42t-90.5 24l-32 6q-100 19 -155 69.5t-55 134.5q0 57 21 104.5t61 82t98 54t132 19.5q32 0 69.5 -3t79 -12t85.5 -27t88 -48zM550 969h158
l-29 242zM733 0h-253l1055 1400h253z" />
    <glyph glyph-name="uni2150" unicode="&#x2150;" horiz-adv-x="1749" 
d="M406 0h-253l1055 1400h253zM1741 659l-413 -659h-233l410 641h-366l38 181h597zM435 578h-195l121 570l-191 -59l42 200l400 124z" />
    <glyph glyph-name="uni2151" unicode="&#x2151;" horiz-adv-x="1786" 
d="M406 0h-253l1055 1400h253zM1367 276q-58 3 -107 21.5t-84.5 50.5t-55.5 77.5t-20 102.5q0 63 25 119t70 98t107.5 66.5t137.5 24.5q64 0 120.5 -18.5t99 -53t67 -83.5t24.5 -110q0 -55 -25 -120t-89 -139l-269 -312h-248zM1420 440q28 0 51.5 9.5t40 26t25.5 38.5t9 46
q0 45 -31 74t-82 29q-29 0 -52 -9.5t-40 -26t-26 -39t-9 -47.5q0 -45 32 -73t82 -28zM435 578h-195l121 570l-191 -59l42 200l400 124z" />
    <glyph glyph-name="uni2152" unicode="&#x2152;" horiz-adv-x="2466" 
d="M406 0h-253l1055 1400h253zM1353 0h-195l121 570l-191 -59l42 200l400 124zM2063 837q70 0 128.5 -22.5t101 -65t66 -104t23.5 -140.5q0 -59 -12.5 -120t-37.5 -119t-61.5 -109t-84.5 -89.5t-107.5 -60.5t-128.5 -22q-70 0 -128.5 22.5t-101 65t-66.5 104t-24 139.5
q0 59 13 120.5t37.5 119t61.5 109t85 89.5t107 60.5t129 22.5zM2051 650q-53 0 -93 -30t-67 -76.5t-40.5 -102t-13.5 -106.5q0 -77 32.5 -120t91.5 -43q52 0 92.5 30t67.5 76t41 102t14 107q0 78 -32.5 120.5t-92.5 42.5zM435 578h-195l121 570l-191 -59l42 200l400 124z
" />
    <glyph glyph-name="onethird" unicode="&#x2153;" horiz-adv-x="1759" 
d="M406 0h-253l1055 1400h253zM1130 728q54 50 124 79t169 29q65 0 116.5 -17.5t87.5 -46.5t55.5 -68t19.5 -82q0 -35 -11.5 -67.5t-32.5 -61t-51 -51.5t-67 -38q49 -24 74.5 -64.5t25.5 -89.5q0 -54 -22.5 -102.5t-65.5 -84.5t-105.5 -57t-142.5 -21q-102 0 -174 31.5
t-112 88.5l127 121q28 -34 70 -51t92 -17q69 0 101.5 27.5t32.5 69.5q0 38 -34 57.5t-87 19.5h-90l34 166h89q70 0 107.5 27.5t37.5 67.5q0 33 -29 52t-77 19q-52 0 -96.5 -22.5t-76.5 -51.5zM435 578h-195l121 570l-191 -59l42 200l400 124z" />
    <glyph glyph-name="twothirds" unicode="&#x2154;" horiz-adv-x="1990" 
d="M637 0h-253l1055 1400h253zM1361 728q54 50 124 79t169 29q65 0 116.5 -17.5t87.5 -46.5t55.5 -68t19.5 -82q0 -35 -11.5 -67.5t-32.5 -61t-51 -51.5t-67 -38q49 -24 74.5 -64.5t25.5 -89.5q0 -54 -22.5 -102.5t-65.5 -84.5t-105.5 -57t-142.5 -21q-102 0 -174 31.5
t-112 88.5l127 121q28 -34 70 -51t92 -17q69 0 101.5 27.5t32.5 69.5q0 38 -34 57.5t-87 19.5h-90l34 166h89q70 0 107.5 27.5t37.5 67.5q0 33 -29 52t-77 19q-52 0 -96.5 -22.5t-76.5 -51.5zM222 1283q22 24 50 47.5t64 42t80 30t98 11.5q70 0 122 -20.5t86 -54.5
t50.5 -77.5t16.5 -88.5q0 -41 -9.5 -76t-31.5 -69.5t-58.5 -71t-89.5 -79.5l-148 -119h282l-38 -180h-566l33 156l315 256q31 25 52 46t33.5 39.5t18 35t5.5 33.5q0 35 -27 59.5t-76 24.5q-51 0 -85 -21.5t-69 -54.5z" />
    <glyph glyph-name="uni2155" unicode="&#x2155;" horiz-adv-x="1756" 
d="M406 0h-253l1055 1400h253zM1656 643h-309l-32 -127h52q73 0 129 -22t91 -60t47.5 -89.5t0.5 -110.5q-13 -64 -43.5 -111t-75.5 -77.5t-102 -45.5t-123 -15q-89 0 -162.5 30.5t-119.5 87.5l115 129q33 -35 78.5 -52.5t97.5 -17.5q63 0 96 24t41 62q4 21 -1 39t-20 31.5
t-41.5 21t-66.5 7.5h-202l109 475h479zM435 578h-195l121 570l-191 -59l42 200l400 124z" />
    <glyph glyph-name="uni2156" unicode="&#x2156;" horiz-adv-x="1987" 
d="M637 0h-253l1055 1400h253zM1887 643h-309l-32 -127h52q73 0 129 -22t91 -60t47.5 -89.5t0.5 -110.5q-13 -64 -43.5 -111t-75.5 -77.5t-102 -45.5t-123 -15q-89 0 -162.5 30.5t-119.5 87.5l115 129q33 -35 78.5 -52.5t97.5 -17.5q63 0 96 24t41 62q4 21 -1 39t-20 31.5
t-41.5 21t-66.5 7.5h-202l109 475h479zM222 1283q22 24 50 47.5t64 42t80 30t98 11.5q70 0 122 -20.5t86 -54.5t50.5 -77.5t16.5 -88.5q0 -41 -9.5 -76t-31.5 -69.5t-58.5 -71t-89.5 -79.5l-148 -119h282l-38 -180h-566l33 156l315 256q31 25 52 46t33.5 39.5t18 35
t5.5 33.5q0 35 -27 59.5t-76 24.5q-51 0 -85 -21.5t-69 -54.5z" />
    <glyph glyph-name="uni2157" unicode="&#x2157;" horiz-adv-x="1922" 
d="M572 0h-253l1055 1400h253zM1822 643h-309l-32 -127h52q73 0 129 -22t91 -60t47.5 -89.5t0.5 -110.5q-13 -64 -43.5 -111t-75.5 -77.5t-102 -45.5t-123 -15q-89 0 -162.5 30.5t-119.5 87.5l115 129q33 -35 78.5 -52.5t97.5 -17.5q63 0 96 24t41 62q4 21 -1 39t-20 31.5
t-41.5 21t-66.5 7.5h-202l109 475h479zM215 1306q54 50 124 79t169 29q65 0 116.5 -17.5t87.5 -46.5t55.5 -68t19.5 -82q0 -35 -11.5 -67.5t-32.5 -61t-51 -51.5t-67 -38q49 -24 74.5 -64.5t25.5 -89.5q0 -54 -22.5 -102.5t-65.5 -84.5t-105.5 -57t-142.5 -21
q-102 0 -174 31.5t-112 88.5l127 121q28 -34 70 -51t92 -17q69 0 101.5 27.5t32.5 69.5q0 38 -34 57.5t-87 19.5h-90l34 166h89q70 0 107.5 27.5t37.5 67.5q0 33 -29 52t-77 19q-52 0 -96.5 -22.5t-76.5 -51.5z" />
    <glyph glyph-name="uni2158" unicode="&#x2158;" horiz-adv-x="1942" 
d="M592 0h-253l1055 1400h253zM1841 643h-309l-32 -127h52q73 0 129 -22t91 -60t47.5 -89.5t0.5 -110.5q-13 -64 -43.5 -111t-75.5 -77.5t-102 -45.5t-123 -15q-89 0 -162.5 30.5t-119.5 87.5l115 129q33 -35 78.5 -52.5t97.5 -17.5q63 0 96 24t41 62q4 21 -1 39t-20 31.5
t-41.5 21t-66.5 7.5h-202l109 475h479zM673 898h104l-38 -181h-105l-29 -139h-195l29 139h-357l33 155l355 527h222l-337 -501h123l19 91l83 124h139z" />
    <glyph glyph-name="uni2159" unicode="&#x2159;" horiz-adv-x="1677" 
d="M406 0h-253l1055 1400h253zM1316 545q58 -3 107 -21t85 -50.5t56 -77.5t20 -102q0 -63 -25 -119.5t-70 -98.5t-107.5 -66.5t-137.5 -24.5q-64 0 -120.5 19t-99 53.5t-67 83.5t-24.5 110q0 55 25 120t89 139l269 312h248zM1265 382q-29 0 -52 -9.5t-39.5 -26t-25.5 -38.5
t-9 -46q0 -46 30.5 -75t81.5 -29q28 0 51.5 9.5t40.5 26t26 39t9 47.5q0 45 -32 73.5t-81 28.5zM435 578h-195l121 570l-191 -59l42 200l400 124z" />
    <glyph glyph-name="uni215A" unicode="&#x215a;" horiz-adv-x="1837" 
d="M567 0h-253l1055 1400h253zM1476 545q58 -3 107 -21t85 -50.5t56 -77.5t20 -102q0 -63 -25 -119.5t-70 -98.5t-107.5 -66.5t-137.5 -24.5q-64 0 -120.5 19t-99 53.5t-67 83.5t-24.5 110q0 55 25 120t89 139l269 312h248zM1425 382q-29 0 -52 -9.5t-39.5 -26t-25.5 -38.5
t-9 -46q0 -46 30.5 -75t81.5 -29q28 0 51.5 9.5t40.5 26t26 39t9 47.5q0 45 -32 73.5t-81 28.5zM742 1221h-309l-32 -127h52q73 0 129 -22t91 -60t47.5 -89.5t0.5 -110.5q-13 -64 -43.5 -111t-75.5 -77.5t-102 -45.5t-123 -15q-89 0 -162.5 30.5t-119.5 87.5l115 129
q33 -35 78.5 -52.5t97.5 -17.5q63 0 96 24t41 62q4 21 -1 39t-20 31.5t-41.5 21t-66.5 7.5h-202l109 475h479z" />
    <glyph glyph-name="oneeighth" unicode="&#x215b;" horiz-adv-x="1787" 
d="M406 0h-253l1055 1400h253zM1449 836q59 0 111 -14.5t90.5 -41.5t61 -65.5t22.5 -86.5q0 -72 -45.5 -130t-128.5 -90q49 -24 79 -62.5t30 -92.5t-24 -103t-70 -85.5t-113 -58t-153 -21.5q-63 0 -117.5 15t-94.5 42.5t-63 66.5t-23 88q0 73 48 131t136 90q-41 23 -64 59.5
t-23 86.5q0 55 23.5 104.5t67.5 86.5t107 59t143 22zM1355 340q-27 0 -50.5 -7.5t-41 -21.5t-27.5 -33.5t-10 -43.5q0 -19 8.5 -34t23 -25t33 -15.5t39.5 -5.5q27 0 51 7.5t42 21t28 33t10 43.5q0 39 -31.5 60t-74.5 21zM1431 667q-54 0 -86 -28t-32 -70q0 -35 25.5 -55
t67.5 -20q51 0 85 28t34 70q0 35 -28 55t-66 20zM435 578h-195l121 570l-191 -59l42 200l400 124z" />
    <glyph glyph-name="threeeighths" unicode="&#x215c;" horiz-adv-x="1953" 
d="M572 0h-253l1055 1400h253zM1615 836q59 0 111 -14.5t90.5 -41.5t61 -65.5t22.5 -86.5q0 -72 -45.5 -130t-128.5 -90q49 -24 79 -62.5t30 -92.5t-24 -103t-70 -85.5t-113 -58t-153 -21.5q-63 0 -117.5 15t-94.5 42.5t-63 66.5t-23 88q0 73 48 131t136 90q-41 23 -64 59.5
t-23 86.5q0 55 23.5 104.5t67.5 86.5t107 59t143 22zM1521 340q-27 0 -50.5 -7.5t-41 -21.5t-27.5 -33.5t-10 -43.5q0 -19 8.5 -34t23 -25t33 -15.5t39.5 -5.5q27 0 51 7.5t42 21t28 33t10 43.5q0 39 -31.5 60t-74.5 21zM1597 667q-54 0 -86 -28t-32 -70q0 -35 25.5 -55
t67.5 -20q51 0 85 28t34 70q0 35 -28 55t-66 20zM215 1306q54 50 124 79t169 29q65 0 116.5 -17.5t87.5 -46.5t55.5 -68t19.5 -82q0 -35 -11.5 -67.5t-32.5 -61t-51 -51.5t-67 -38q49 -24 74.5 -64.5t25.5 -89.5q0 -54 -22.5 -102.5t-65.5 -84.5t-105.5 -57t-142.5 -21
q-102 0 -174 31.5t-112 88.5l127 121q28 -34 70 -51t92 -17q69 0 101.5 27.5t32.5 69.5q0 38 -34 57.5t-87 19.5h-90l34 166h89q70 0 107.5 27.5t37.5 67.5q0 33 -29 52t-77 19q-52 0 -96.5 -22.5t-76.5 -51.5z" />
    <glyph glyph-name="fiveeighths" unicode="&#x215d;" horiz-adv-x="1947" 
d="M567 0h-253l1055 1400h253zM1609 836q59 0 111 -14.5t90.5 -41.5t61 -65.5t22.5 -86.5q0 -72 -45.5 -130t-128.5 -90q49 -24 79 -62.5t30 -92.5t-24 -103t-70 -85.5t-113 -58t-153 -21.5q-63 0 -117.5 15t-94.5 42.5t-63 66.5t-23 88q0 73 48 131t136 90q-41 23 -64 59.5
t-23 86.5q0 55 23.5 104.5t67.5 86.5t107 59t143 22zM1515 340q-27 0 -50.5 -7.5t-41 -21.5t-27.5 -33.5t-10 -43.5q0 -19 8.5 -34t23 -25t33 -15.5t39.5 -5.5q27 0 51 7.5t42 21t28 33t10 43.5q0 39 -31.5 60t-74.5 21zM1591 667q-54 0 -86 -28t-32 -70q0 -35 25.5 -55
t67.5 -20q51 0 85 28t34 70q0 35 -28 55t-66 20zM742 1221h-309l-32 -127h52q73 0 129 -22t91 -60t47.5 -89.5t0.5 -110.5q-13 -64 -43.5 -111t-75.5 -77.5t-102 -45.5t-123 -15q-89 0 -162.5 30.5t-119.5 87.5l115 129q33 -35 78.5 -52.5t97.5 -17.5q63 0 96 24t41 62
q4 21 -1 39t-20 31.5t-41.5 21t-66.5 7.5h-202l109 475h479z" />
    <glyph glyph-name="seveneighths" unicode="&#x215e;" horiz-adv-x="1840" 
d="M459 0h-253l1055 1400h253zM1502 836q59 0 111 -14.5t90.5 -41.5t61 -65.5t22.5 -86.5q0 -72 -45.5 -130t-128.5 -90q49 -24 79 -62.5t30 -92.5t-24 -103t-70 -85.5t-113 -58t-153 -21.5q-63 0 -117.5 15t-94.5 42.5t-63 66.5t-23 88q0 73 48 131t136 90q-41 23 -64 59.5
t-23 86.5q0 55 23.5 104.5t67.5 86.5t107 59t143 22zM1408 340q-27 0 -50.5 -7.5t-41 -21.5t-27.5 -33.5t-10 -43.5q0 -19 8.5 -34t23 -25t33 -15.5t39.5 -5.5q27 0 51 7.5t42 21t28 33t10 43.5q0 39 -31.5 60t-74.5 21zM1484 667q-54 0 -86 -28t-32 -70q0 -35 25.5 -55
t67.5 -20q51 0 85 28t34 70q0 35 -28 55t-66 20zM799 1237l-413 -659h-233l410 641h-366l38 181h597z" />
    <glyph glyph-name="uni215F" unicode="&#x215f;" horiz-adv-x="1039" 
d="M406 0h-253l1055 1400h253zM435 578h-195l121 570l-191 -59l42 200l400 124z" />
    <glyph glyph-name="uni2189" unicode="&#x2189;" horiz-adv-x="2087" 
d="M734 0h-253l1055 1400h253zM1457 728q54 50 124 79t169 29q65 0 116.5 -17.5t87.5 -46.5t55.5 -68t19.5 -82q0 -35 -11.5 -67.5t-32.5 -61t-51 -51.5t-67 -38q49 -24 74.5 -64.5t25.5 -89.5q0 -54 -22.5 -102.5t-65.5 -84.5t-105.5 -57t-142.5 -21q-102 0 -174 31.5
t-112 88.5l127 121q28 -34 70 -51t92 -17q69 0 101.5 27.5t32.5 69.5q0 38 -34 57.5t-87 19.5h-90l34 166h89q70 0 107.5 27.5t37.5 67.5q0 33 -29 52t-77 19q-52 0 -96.5 -22.5t-76.5 -51.5zM614 1415q70 0 128.5 -22.5t101 -65t66 -104t23.5 -140.5q0 -59 -12.5 -120
t-37.5 -119t-61.5 -109t-84.5 -89.5t-107.5 -60.5t-128.5 -22q-70 0 -128.5 22.5t-101 65t-66.5 104t-24 139.5q0 59 13 120.5t37.5 119t61.5 109t85 89.5t107 60.5t129 22.5zM602 1228q-53 0 -93 -30t-67 -76.5t-40.5 -102t-13.5 -106.5q0 -77 32.5 -120t91.5 -43
q52 0 92.5 30t67.5 76t41 102t14 107q0 78 -32.5 120.5t-92.5 42.5z" />
    <glyph glyph-name="arrowleft" unicode="&#x2190;" horiz-adv-x="2000" 
d="M819 548q-32 0 -65.5 1t-71 2.5t-82.5 4.5q72 -58 136 -118.5t128 -123.5l147 -146l-161 -161l-654 655l654 654l161 -161l-147 -145q-64 -64 -128 -124t-136 -119q45 3 82.5 5t71 3t65.5 1h1036v-228h-1036z" />
    <glyph glyph-name="arrowup" unicode="&#x2191;" horiz-adv-x="2000" 
d="M961 911q0 32 1 65.5t2.5 71t4.5 82.5q-58 -72 -118.5 -135.5t-123.5 -128.5l-146 -147l-161 161l655 654l654 -654l-161 -161l-145 147q-64 65 -124 128.5t-118 135.5q3 -45 4.5 -82.5t2.5 -71t1 -65.5v-1035h-228v1035z" />
    <glyph glyph-name="arrowright" unicode="&#x2192;" horiz-adv-x="2000" 
d="M1264 776q32 0 65.5 -1t71 -3t82.5 -5q-72 59 -136 119t-129 124l-146 145l161 161l654 -654l-654 -655l-161 161l146 146q64 64 128.5 124t136.5 118q-45 -3 -82.5 -4.5t-71 -2.5t-65.5 -1h-1036v228h1036z" />
    <glyph glyph-name="arrowdown" unicode="&#x2193;" horiz-adv-x="2000" 
d="M1131 499q0 -32 -1 -65.5t-2.5 -71t-4.5 -82.5q58 72 118 135.5t124 128.5l145 147l161 -161l-654 -654l-655 654l161 161l146 -147q63 -65 123.5 -128.5t118.5 -135.5q-3 45 -4.5 82.5t-2.5 71t-1 65.5v1035h228v-1035z" />
    <glyph glyph-name="uni2196" unicode="&#x2196;" horiz-adv-x="2000" 
d="M858 698q-23 24 -45.5 46.5t-46 46.5t-49 51.5t-54.5 61.5q9 -92 11.5 -179.5t3.5 -178.5l2 -207h-228v926h925v-228l-206 1q-91 1 -178.5 3.5t-179.5 12.5q34 -30 61.5 -55.5t52 -48.5t46.5 -46l733 -732l-162 -161z" />
    <glyph glyph-name="uni2197" unicode="&#x2197;" horiz-adv-x="2000" 
d="M1108 888q23 23 47.5 46t52 48.5t61.5 54.5q-92 -9 -179.5 -11.5t-178.5 -3.5l-207 -1v227h926v-925h-228l1 207q0 91 3 178.5t12 179.5q-29 -34 -54.5 -61.5t-49 -52t-45.5 -47t-45 -45.5l-687 -687l-161 161z" />
    </font>
</defs>
</svg>
