<?xml version="1.0" standalone="no"?>
<!DOCTYPE svg PUBLIC "-//W3C//DTD SVG 1.1//EN" "http://www.w3.org/Graphics/SVG/1.1/DTD/svg11.dtd" >
<svg xmlns="http://www.w3.org/2000/svg" xmlns:xlink="http://www.w3.org/1999/xlink" version="1.1">
<metadata>
Created by FontForge 20150318 at Fri Aug 28 16:55:08 2015
 By uniteet7
2013 published by FontShop International GmbH
</metadata>
<defs>
<font id="MarkWebProItalic" horiz-adv-x="1" >
  <font-face 
    font-family="MarkWebProItalic"
    font-weight="400"
    font-style="italic"
    font-stretch="normal"
    units-per-em="2000"
    panose-1="2 11 5 4 2 1 1 1 1 2"
    ascent="1580"
    descent="-420"
    x-height="947"
    cap-height="1400"
    bbox="-1334 -471 2954 2206"
    underline-thickness="136"
    underline-position="-124"
    slope="-12"
    unicode-range="U+0020-FEFF"
  />
<missing-glyph horiz-adv-x="1179" 
d="M65 1400h1049v-1400h-1049v1400zM978 136v1128h-777v-1128h777z" />
    <glyph glyph-name=".notdef" horiz-adv-x="1179" 
d="M65 1400h1049v-1400h-1049v1400zM978 136v1128h-777v-1128h777z" />
    <glyph glyph-name=".null" horiz-adv-x="0" 
 />
    <glyph glyph-name="nonmarkingreturn" horiz-adv-x="534" 
 />
    <glyph glyph-name="space" unicode=" " horiz-adv-x="534" 
 />
    <glyph glyph-name="exclam" unicode="!" horiz-adv-x="506" 
d="M313 445h-128l173 955h183zM182 233q25 0 47.5 -10t40 -27.5t27.5 -40t10 -47.5t-10 -48t-27.5 -40t-40 -27.5t-47.5 -10.5t-47.5 10.5t-40 27.5t-27.5 40t-10 48t10 47.5t27.5 40t40 27.5t47.5 10z" />
    <glyph glyph-name="quotedbl" unicode="&#x22;" horiz-adv-x="1021" 
d="M624 1440l-108 -507h-149l108 507h149zM958 1440l-108 -507h-149l108 507h149z" />
    <glyph glyph-name="numbersign" unicode="#" horiz-adv-x="1394" 
d="M545 1032l124 368h140l-124 -368h345l124 368h140l-124 -368h228l-45 -133h-227l-132 -391h227l-44 -133h-227l-126 -375h-140l126 375h-345l-126 -375h-140l126 375h-230l44 133h230l132 391h-231l45 133h230zM509 508h345l132 391h-345z" />
    <glyph glyph-name="dollar" unicode="$" horiz-adv-x="1400" 
d="M1239 1111q-72 52 -146 81t-146 42l-100 -472q79 -14 147 -40.5t118 -67t79 -97.5t29 -132q0 -87 -36 -163t-104.5 -132t-167.5 -88.5t-225 -32.5l-41 -196h-138l44 207q-48 7 -99.5 20.5t-103.5 34t-102 49t-94 66.5l91 124q35 -33 77 -58t86.5 -43.5t89 -30.5t85.5 -19
l100 473l-12 2q-83 14 -149 42t-112.5 70.5t-71 98.5t-24.5 125q0 78 30 153t92 134t157 95t224 36h26l40 188h139l-43 -201q87 -15 175 -49t172 -95zM476 994q0 -86 58.5 -135.5t179.5 -72.5l97 461h-4q-89 0 -152 -22.5t-103 -59t-58 -81.5t-18 -90zM1059 407
q0 81 -60.5 130t-183.5 74l-97 -457q80 3 143.5 24t107.5 54.5t67 78.5t23 96z" />
    <glyph glyph-name="percent" unicode="%" horiz-adv-x="1971" 
d="M597 1419q73 0 134.5 -25t106.5 -69t70 -105.5t25 -134.5q0 -79 -29 -149.5t-80.5 -124t-121.5 -84.5t-151 -31q-74 0 -136 24.5t-107 69t-70 105.5t-25 134q0 79 29 150t80.5 124.5t122 84.5t152.5 31zM589 1287q-52 0 -95 -20t-74 -54.5t-48.5 -79.5t-17.5 -96
q0 -46 15 -84.5t42 -66t64.5 -43t81.5 -15.5q52 0 95.5 20t74.5 54t48.5 79t17.5 96q0 46 -15 84.5t-42 66.5t-64.5 43.5t-82.5 15.5zM590 0h-166l1055 1400h166zM1518 703q73 0 135 -24.5t107 -69t70 -105.5t25 -134q0 -80 -29 -150.5t-80.5 -124t-121.5 -84.5t-152 -31
q-74 0 -135.5 25t-106.5 69t-70 105.5t-25 134.5q0 79 29 149.5t80.5 124t121.5 84.5t152 31zM1511 571q-52 0 -95 -20t-74.5 -54t-49 -79t-17.5 -96q0 -46 15 -84.5t42 -66.5t64.5 -43.5t82.5 -15.5q52 0 95 20t74 54.5t48.5 79.5t17.5 96q0 46 -15 84.5t-42 66t-64.5 43
t-81.5 15.5z" />
    <glyph glyph-name="ampersand" unicode="&#x26;" horiz-adv-x="1382" 
d="M1272 672l-287 -356l253 -316h-195l-158 199q-42 -45 -88.5 -85t-99 -69.5t-112 -46.5t-128.5 -17q-83 0 -153 22.5t-120.5 65t-79 103t-28.5 136.5q0 84 31 150.5t82.5 121t118 99t136.5 83.5q-34 46 -58.5 85.5t-40.5 76.5t-24 72.5t-8 73.5q0 67 22.5 130t67.5 111.5
t113.5 78t160.5 29.5q72 0 133 -21.5t105.5 -59t69 -89t24.5 -111.5q0 -72 -29.5 -131t-78.5 -108t-112.5 -90.5t-131.5 -80.5l243 -305l264 327zM473 117q49 0 92 13t82.5 37t77.5 59t77 79l-276 349q-59 -34 -112 -69.5t-93 -75.5t-63.5 -86t-23.5 -101q0 -46 18 -83.5
t49.5 -64.5t75.5 -42t96 -15zM468 1066q0 -22 5.5 -45t18 -50.5t33.5 -60.5t52 -76q56 31 106.5 62.5t88 66t59.5 74t22 86.5q0 70 -48 114t-136 44q-50 0 -87.5 -17.5t-63 -47t-38 -68.5t-12.5 -82z" />
    <glyph glyph-name="quotesingle" unicode="'" horiz-adv-x="687" 
d="M624 1440l-108 -507h-149l108 507h149z" />
    <glyph glyph-name="parenleft" unicode="(" horiz-adv-x="756" 
d="M842 1292q-82 -27 -154.5 -77t-132.5 -117.5t-107 -149t-80 -171t-50 -184.5t-17 -189q0 -179 62 -318.5t183 -237.5l-77 -129q-164 124 -246.5 295.5t-82.5 387.5q0 109 21 219t60 213t96 197t129.5 171t159 134.5t185.5 89.5z" />
    <glyph glyph-name="parenright" unicode=")" horiz-adv-x="756" 
d="M-45 -154q83 27 155 77t132 117.5t107 149t80 171t50 184.5t17 189q0 179 -62 318.5t-183 237.5l77 129q164 -124 246.5 -295.5t82.5 -387.5q0 -109 -21 -219t-60 -213t-96 -197t-129.5 -171t-159 -135t-185.5 -89z" />
    <glyph glyph-name="asterisk" unicode="*" horiz-adv-x="880" 
d="M522 1177l56 263h115l-59 -276l268 57l12 -112l-269 -56l103 -217l-102 -57l-103 216l-193 -192l-79 77l193 193l-233 109l56 105z" />
    <glyph glyph-name="plus" unicode="+" horiz-adv-x="1200" 
d="M437 96l77 365h-363l28 136h364l79 368h138l-79 -368h368l-29 -136h-368l-77 -365h-138z" />
    <glyph glyph-name="comma" unicode="," horiz-adv-x="483" 
d="M308 248l-203 -507h-138l167 507h174z" />
    <glyph glyph-name="hyphen" unicode="-" horiz-adv-x="816" 
d="M678 461h-546l29 136h546z" />
    <glyph glyph-name="period" unicode="." horiz-adv-x="505" 
d="M178 232q25 0 47.5 -10t40 -27.5t27.5 -40t10 -47.5t-10 -48t-27.5 -40t-40 -27.5t-47.5 -10.5t-47.5 10.5t-40 27.5t-27.5 40t-10 48t10 47.5t27.5 40t40 27.5t47.5 10z" />
    <glyph glyph-name="slash" unicode="/" horiz-adv-x="992" 
d="M54 -200h-170l1063 1740h170z" />
    <glyph glyph-name="zero" unicode="0" horiz-adv-x="1410" 
d="M856 1419q114 0 204.5 -40.5t153.5 -113t96.5 -173t33.5 -221.5q0 -102 -21.5 -208t-62 -204.5t-100.5 -185.5t-137 -152t-171 -102.5t-202 -37.5q-114 0 -204.5 40.5t-153.5 113.5t-96.5 173.5t-33.5 220.5q0 101 21 206.5t62 204.5t101 186t137 152t170.5 103t202.5 38
zM848 1271q-84 0 -155.5 -32t-129.5 -86.5t-102.5 -127t-74.5 -153.5t-45.5 -166.5t-15.5 -165.5q0 -94 23.5 -170t67 -129.5t104.5 -82.5t137 -29q84 0 155.5 31.5t130 86t103 127t74.5 153.5t45.5 166.5t15.5 166.5q0 95 -23.5 171t-67 129.5t-105 82t-137.5 28.5z" />
    <glyph glyph-name="one" unicode="1" horiz-adv-x="819" 
d="M514 0h-156l252 1186l-427 -154l35 168l598 217z" />
    <glyph glyph-name="two" unicode="2" horiz-adv-x="1090" 
d="M236 1192q30 42 74 82.5t98.5 72.5t119 51.5t136.5 19.5q102 0 177.5 -31t126 -82t75 -117t24.5 -136q0 -68 -19.5 -129.5t-56.5 -120t-89.5 -115.5t-119.5 -116l-480 -424h629l-31 -147h-863l25 120l608 544q61 54 105.5 101.5t73.5 92t43 89t14 92.5q0 43 -15 85
t-46.5 74.5t-79 52.5t-111.5 20q-50 0 -95.5 -14t-86 -37.5t-74.5 -55.5t-61 -68z" />
    <glyph glyph-name="three" unicode="3" horiz-adv-x="1090" 
d="M221 1215q37 45 82.5 82.5t100.5 64.5t119.5 41.5t141.5 14.5q94 0 169.5 -25t128.5 -69.5t81.5 -105.5t28.5 -134q0 -62 -18.5 -119.5t-54.5 -107.5t-89 -90t-122 -66q81 -41 126.5 -111.5t45.5 -164.5q0 -90 -35.5 -170.5t-102 -141t-162.5 -96t-217 -35.5
q-147 0 -257.5 47t-172.5 128l106 101q54 -64 140.5 -98t185.5 -34q90 0 157 24.5t111.5 65.5t67 94.5t22.5 112.5q0 50 -20 89.5t-56 67t-87 42t-113 14.5h-176l31 141h162q84 0 152 24.5t115.5 64.5t73.5 92t26 106q0 46 -19.5 85t-54 66.5t-83 43t-105.5 15.5
q-56 0 -104.5 -13.5t-90 -36t-76 -52t-61.5 -62.5z" />
    <glyph glyph-name="four" unicode="4" horiz-adv-x="1136" 
d="M839 440h239l-31 -146h-239l-62 -294h-154l62 294h-641l26 125l683 980h182l-669 -959h450l84 390h154z" />
    <glyph glyph-name="five" unicode="5" horiz-adv-x="1124" 
d="M1077 1254h-590l-101 -414h162q135 0 226.5 -39t145 -103.5t69.5 -148t0 -171.5q-19 -103 -67.5 -178t-116.5 -123.5t-152 -72t-175 -23.5q-140 0 -255.5 54t-191.5 164l116 91q63 -87 150.5 -124.5t186.5 -37.5q70 0 129 19t104 53.5t74.5 82.5t39.5 107q10 58 0.5 113
t-46 97.5t-103.5 68t-172 25.5h-302l167 706h733z" />
    <glyph glyph-name="six" unicode="6" horiz-adv-x="1152" 
d="M481 866q28 12 61.5 20t75.5 8q92 0 173 -31.5t142 -87.5t96 -133.5t35 -169.5q0 -100 -38.5 -189t-107.5 -155.5t-164 -105.5t-209 -39q-99 0 -185 30.5t-150 86.5t-100.5 134t-36.5 174q0 43 7.5 85.5t25 87t45 91t67.5 96.5l500 632h194zM586 750q-79 0 -143.5 -26.5
t-111 -72t-72 -106.5t-25.5 -130q0 -64 23.5 -117t66 -91.5t101 -59.5t129.5 -21q77 0 141.5 26.5t111 72.5t72 107.5t25.5 130.5q0 66 -24.5 119t-67.5 90.5t-101 57.5t-125 20z" />
    <glyph glyph-name="seven" unicode="7" horiz-adv-x="1076" 
d="M1169 1273l-791 -1273h-184l789 1254h-753l31 146h931z" />
    <glyph glyph-name="eight" unicode="8" horiz-adv-x="1226" 
d="M778 1418q83 0 161.5 -23.5t139 -68t97.5 -108t37 -144.5q0 -62 -22 -120t-63.5 -107t-102 -87t-137.5 -62q95 -41 152 -111.5t57 -167.5q0 -92 -40 -172t-113.5 -139t-176.5 -93t-229 -34q-92 0 -175 23.5t-146 67.5t-100.5 108t-37.5 144q0 68 22.5 129t65.5 112
t106 89t145 61q-80 39 -128.5 105t-48.5 157q0 87 36 167t104.5 140.5t168.5 97t228 36.5zM628 638q-89 0 -160.5 -23t-121.5 -63t-76.5 -93t-26.5 -114q0 -52 24 -93t65.5 -69t96.5 -43t117 -15q89 0 161 22.5t123 61.5t78.5 92t27.5 115q0 51 -23.5 92.5t-65 70t-98 44
t-121.5 15.5zM768 1274q-87 0 -155 -23t-114.5 -62.5t-71 -92t-24.5 -111.5q0 -49 20.5 -88.5t57 -67t87 -42t111.5 -14.5q85 0 153.5 22.5t117 61t74.5 90t26 109.5q0 52 -23.5 92.5t-62.5 68.5t-90 42.5t-106 14.5z" />
    <glyph glyph-name="nine" unicode="9" horiz-adv-x="1152" 
d="M767 533q-28 -12 -61.5 -19.5t-75.5 -7.5q-92 0 -173 31.5t-141.5 87.5t-96 133.5t-35.5 169.5q0 100 38.5 189t107.5 155.5t164.5 105.5t208.5 39q99 0 185.5 -30.5t150 -86.5t100 -134t36.5 -174q0 -43 -8 -85.5t-25 -87t-44.5 -91t-67.5 -96.5l-499 -632h-194z
M663 650q78 0 143 26.5t111.5 72t72 106.5t25.5 130q0 64 -23.5 117t-66.5 91t-102 59.5t-129 21.5q-77 0 -141 -26.5t-110.5 -72.5t-72 -107.5t-25.5 -130.5q0 -66 24.5 -119t67.5 -90.5t101 -57.5t125 -20z" />
    <glyph glyph-name="colon" unicode=":" horiz-adv-x="505" 
d="M331 966q25 0 47.5 -10t40 -27t27.5 -40t10 -48t-10 -48t-27.5 -40t-40 -27.5t-47.5 -10.5t-47.5 10.5t-40 27.5t-27.5 40t-10 48t10 48t27.5 40t40 27t47.5 10zM175 233q25 0 47.5 -10t40 -27.5t27.5 -40t10 -47.5t-10 -48t-27.5 -40t-40 -27.5t-47.5 -10.5t-47.5 10.5
t-40 27.5t-27.5 40t-10 48t10 47.5t27.5 40t40 27.5t47.5 10z" />
    <glyph glyph-name="semicolon" unicode=";" horiz-adv-x="483" 
d="M310 966q25 0 47.5 -10t39.5 -27t27 -40t10 -48t-10 -48t-27 -40t-39.5 -27.5t-47.5 -10.5t-48 10.5t-40 27.5t-27.5 40t-10.5 48t10.5 48t27.5 40t40 27t48 10zM308 248l-203 -507h-138l167 507h174z" />
    <glyph glyph-name="less" unicode="&#x3c;" horiz-adv-x="1200" 
d="M231 603l866 372l-36 -171l-694 -286l572 -286l-32 -148l-707 372z" />
    <glyph glyph-name="equal" unicode="=" horiz-adv-x="1200" 
d="M993 276h-870l29 136h870zM1071 646h-870l30 136h869z" />
    <glyph glyph-name="greater" unicode="&#x3e;" horiz-adv-x="1200" 
d="M1001 456l-866 -372l36 171l694 286l-572 286l32 148l707 -372z" />
    <glyph glyph-name="question" unicode="?" horiz-adv-x="842" 
d="M200 445l66 314h82q91 0 159 19.5t113 54.5t67 84.5t22 108.5q0 57 -27 101.5t-74.5 74.5t-113 45.5t-143.5 15.5q-20 0 -37.5 -0.5t-31.5 -1.5l6 152q20 2 43.5 3.5t47.5 1.5q108 0 199.5 -26t158 -74.5t104 -117.5t37.5 -154q0 -90 -32 -165.5t-94.5 -131.5
t-155.5 -89.5t-216 -40.5l-45 -174h-135zM206 232q25 0 47.5 -10t40 -27.5t27.5 -40t10 -47.5t-10 -48t-27.5 -40t-40 -27.5t-47.5 -10.5t-47.5 10.5t-40 27.5t-27.5 40t-10 48t10 47.5t27.5 40t40 27.5t47.5 10z" />
    <glyph glyph-name="at" unicode="@" horiz-adv-x="1915" 
d="M1347 -172q-108 -75 -219.5 -106.5t-238.5 -31.5q-157 0 -291 51.5t-232 146t-153.5 226.5t-55.5 293q0 121 30.5 235t86.5 213t136 181.5t179.5 141.5t216.5 91.5t247 32.5q155 0 288 -48t230.5 -136.5t152.5 -212.5t55 -276q0 -116 -27 -214.5t-76 -170.5t-117 -112.5
t-149 -40.5q-45 0 -80.5 12t-61.5 31.5t-44.5 45.5t-28.5 54q-51 -60 -122.5 -96t-162.5 -36q-78 0 -143 25.5t-112 72t-73 110.5t-26 141q0 90 32.5 171t88.5 142.5t132.5 97.5t165.5 36q98 0 170 -40.5t110 -114.5l30 140h127l-98 -455q-5 -23 -7.5 -43.5t-2.5 -38.5
q0 -69 32.5 -103t83.5 -34q49 0 90.5 31.5t71 87.5t46 132.5t16.5 165.5q0 126 -44.5 229t-124.5 175.5t-190 112.5t-242 40q-109 0 -207 -28t-181.5 -78.5t-150 -121.5t-113.5 -156.5t-72 -183.5t-25 -202q0 -141 46.5 -253t127.5 -189.5t192 -119t240 -41.5
q108 0 201.5 26.5t184.5 88.5zM982 776q-63 0 -116.5 -25.5t-92.5 -69t-61.5 -101t-22.5 -120.5q0 -54 17.5 -97.5t48.5 -75t74 -48.5t94 -17q63 0 116.5 25.5t93.5 68.5t62.5 100.5t22.5 122.5q0 53 -17.5 96.5t-49 75t-74.5 48.5t-95 17z" />
    <glyph glyph-name="A" unicode="A" horiz-adv-x="1421" 
d="M1277 0h-165l-74 390h-683l-238 -390h-174l863 1400h199zM448 542h561l-132 699z" />
    <glyph glyph-name="B" unicode="B" horiz-adv-x="1374" 
d="M905 1400q95 0 175.5 -21t139 -62t91 -102.5t32.5 -143.5q0 -61 -18 -118.5t-53 -106t-86.5 -85.5t-118.5 -57q49 -20 88 -53.5t63 -78.5t31 -99.5t-6 -115.5q-24 -109 -75 -178.5t-126.5 -109t-174.5 -54.5t-220 -15h-555l298 1400h515zM391 635l-103 -484h383
q84 0 152.5 10t120 34.5t85 66.5t47.5 105q16 72 0.5 122.5t-56 83t-103.5 47.5t-142 15h-384zM522 1249l-99 -464h360q108 0 183.5 21t122.5 58t68.5 86t21.5 106q0 54 -24 90.5t-65.5 59.5t-97 33t-118.5 10h-352z" />
    <glyph glyph-name="C" unicode="C" horiz-adv-x="1481" 
d="M1348 219q-100 -114 -234.5 -176.5t-290.5 -62.5q-143 0 -264 48.5t-209.5 135.5t-138.5 207.5t-50 265.5q0 111 27 212.5t76.5 188.5t119 157.5t155.5 120t186 76.5t210 27q55 0 128 -10t150 -40.5t150 -86t128 -145.5l-123 -98q-36 60 -86.5 103t-108.5 70.5t-121.5 40
t-126.5 12.5q-125 0 -234 -47.5t-189.5 -130.5t-126.5 -195t-46 -242q0 -114 38.5 -208.5t106 -162.5t159.5 -106t200 -38q121 0 227 50t182 137z" />
    <glyph glyph-name="D" unicode="D" horiz-adv-x="1553" 
d="M850 1400q153 0 273 -41.5t203.5 -118t127.5 -184.5t44 -241q0 -169 -58.5 -317.5t-171 -259t-277.5 -174.5t-378 -64h-521l298 1400h460zM521 1248l-233 -1096h343q169 0 299 50t218.5 137.5t134 205.5t45.5 255q0 100 -31 183t-92.5 141.5t-155 91t-217.5 32.5h-311z
" />
    <glyph glyph-name="E" unicode="E" horiz-adv-x="1306" 
d="M1163 630h-773l-102 -479h805l-32 -151h-969l298 1400h956l-32 -151h-792l-100 -469h773z" />
    <glyph glyph-name="F" unicode="F" horiz-adv-x="1257" 
d="M1155 629h-765l-134 -629h-164l298 1400h949l-33 -152h-785l-99 -467h766z" />
    <glyph glyph-name="G" unicode="G" horiz-adv-x="1612" 
d="M1330 1075q-39 50 -86.5 85.5t-100.5 58.5t-109 34t-111 11q-124 0 -232.5 -46.5t-189.5 -129.5t-127.5 -197.5t-46.5 -250.5q0 -114 37.5 -207t105 -159t161 -102t204.5 -36q105 0 193 31t155.5 90t112.5 143.5t65 191.5h-435l31 149h592q0 -10 -1 -26.5t-3 -34.5
q-19 -155 -79 -283t-154.5 -220.5t-219 -143.5t-272.5 -51q-142 0 -263 47.5t-209.5 132.5t-138.5 203.5t-50 259.5q0 114 27.5 216.5t77.5 190.5t120.5 159.5t157 122t186 77.5t208.5 27q49 0 114.5 -9t135.5 -34.5t139 -71t125 -119.5z" />
    <glyph glyph-name="H" unicode="H" horiz-adv-x="1546" 
d="M422 781h833l132 619h164l-299 -1400h-164l134 629h-832l-134 -629h-164l298 1400h164z" />
    <glyph glyph-name="I" unicode="I" horiz-adv-x="549" 
d="M256 0h-164l298 1400h164z" />
    <glyph glyph-name="J" unicode="J" horiz-adv-x="1098" 
d="M915 469q-52 -251 -183 -369.5t-333 -118.5q-65 0 -125.5 14.5t-113 41.5t-96 65t-74.5 84l117 105q21 -32 52 -60t69 -49.5t83 -34t94 -12.5q136 0 225 89.5t129 281.5l186 894h163z" />
    <glyph glyph-name="K" unicode="K" horiz-adv-x="1351" 
d="M422 780h147l668 620h216l-762 -694l554 -706h-195l-490 628h-171l-133 -628h-164l298 1400h164z" />
    <glyph glyph-name="L" unicode="L" horiz-adv-x="1184" 
d="M288 152h789l-33 -152h-952l298 1400h164z" />
    <glyph glyph-name="M" unicode="M" horiz-adv-x="1824" 
d="M1531 0h-163l257 1205l-682 -1050h-169l-261 1055l-258 -1210h-163l298 1400h236l258 -1061l694 1061h251z" />
    <glyph glyph-name="N" unicode="N" horiz-adv-x="1548" 
d="M1254 0h-149l-605 1147l-245 -1147h-163l298 1400h151l604 -1147l244 1147h164z" />
    <glyph glyph-name="O" unicode="O" horiz-adv-x="1663" 
d="M934 1419q141 0 263 -46t211.5 -130.5t141 -204t51.5 -266.5q0 -108 -26 -208.5t-74.5 -188.5t-117.5 -160.5t-155 -125t-187.5 -81t-214.5 -28.5q-141 0 -263 46t-212 130.5t-141 204t-51 267.5q0 107 26 207.5t74.5 188.5t117.5 160.5t155 125t187.5 81t214.5 28.5z
M921 1265q-132 0 -241 -51t-187.5 -137t-122 -199t-43.5 -238q0 -116 38.5 -209t107 -159t162.5 -101.5t204 -35.5q87 0 165.5 23t144.5 65t118.5 100t89.5 127t56.5 148t19.5 162q0 115 -39 208.5t-107.5 159.5t-162 101.5t-203.5 35.5z" />
    <glyph glyph-name="P" unicode="P" horiz-adv-x="1285" 
d="M376 563l-120 -563h-164l298 1400h467q107 0 189.5 -26t139 -73t85.5 -114t29 -149q0 -102 -36.5 -189t-108.5 -150.5t-179.5 -99.5t-249.5 -36h-350zM521 1248l-113 -534h325q104 0 179.5 23t124.5 64.5t72.5 98t23.5 123.5q0 110 -74 167.5t-217 57.5h-321z" />
    <glyph glyph-name="Q" unicode="Q" horiz-adv-x="1679" 
d="M934 1419q141 0 263 -46t211.5 -130.5t141 -204t51.5 -266.5q0 -146 -45.5 -276t-130.5 -235l182 -261h-181l-109 153q-98 -81 -222 -127t-269 -46q-141 0 -263 46t-212 130.5t-141 204t-51 267.5q0 107 26 207.5t74.5 188.5t117.5 160.5t155 125t187.5 81t214.5 28.5z
M921 1265q-132 0 -241 -51t-187.5 -137t-122 -199t-43.5 -238q0 -116 38.5 -209t107 -159t162.5 -101.5t204 -35.5q115 0 213 39t174 108l-273 391h184l190 -272q51 78 78.5 169t27.5 190q0 115 -39 208.5t-107.5 159.5t-162 101.5t-203.5 35.5z" />
    <glyph glyph-name="R" unicode="R" horiz-adv-x="1326" 
d="M891 1400q106 0 188 -26t137 -72t83.5 -109t28.5 -138q0 -80 -29 -159.5t-93.5 -143.5t-166.5 -103.5t-249 -39.5h-64l445 -609h-192l-431 609h-163l-129 -609h-164l298 1400h501zM521 1248l-105 -493h379q101 0 170.5 23t112.5 62t62 90.5t19 107.5q0 48 -18 86.5
t-54 66t-89 42.5t-123 15h-354z" />
    <glyph glyph-name="S" unicode="S" horiz-adv-x="1324" 
d="M1217 1126q-57 40 -115 67.5t-115 43.5t-112 23t-106 7q-96 0 -163.5 -23.5t-110.5 -61t-62.5 -84.5t-19.5 -94q0 -90 65 -142t198 -75l119 -21q85 -15 158 -42t127 -69.5t85 -102t31 -139.5q0 -92 -38.5 -171t-111 -137.5t-178 -91.5t-239.5 -33q-53 0 -122 9t-144 30.5
t-150 58t-139 91.5l96 130q51 -47 114 -79t126.5 -51.5t123 -27.5t102.5 -8q92 0 164.5 20t123 55.5t77.5 83t27 103.5q0 88 -71.5 140t-216.5 77l-122 21q-87 15 -156.5 44.5t-118 73.5t-74.5 102t-26 130q0 81 32 159t98 139.5t167 99.5t239 38q61 0 127.5 -8t134 -26.5
t135 -50t131.5 -78.5z" />
    <glyph glyph-name="T" unicode="T" horiz-adv-x="1187" 
d="M1313 1248h-469l-265 -1248h-164l265 1248h-477l33 152h1109z" />
    <glyph glyph-name="U" unicode="U" horiz-adv-x="1471" 
d="M1312 540q-32 -149 -92 -255t-143.5 -173.5t-188.5 -99t-225 -31.5q-101 0 -190 25.5t-155.5 78.5t-105 134t-38.5 191q0 70 18 151l179 839h164l-179 -835q-8 -35 -11 -67.5t-3 -61.5q0 -80 25.5 -137t70.5 -93.5t107.5 -53.5t136.5 -17q84 0 159.5 24t136.5 74.5
t105.5 129.5t67.5 190l180 847h164z" />
    <glyph glyph-name="V" unicode="V" horiz-adv-x="1397" 
d="M705 0h-198l-266 1400h163l229 -1242l745 1242h173z" />
    <glyph glyph-name="W" unicode="W" horiz-adv-x="2190" 
d="M1577 0h-193l-132 1182l-624 -1182h-200l-161 1400h163l132 -1224l642 1224h176l132 -1218l636 1218h170z" />
    <glyph glyph-name="X" unicode="X" horiz-adv-x="1349" 
d="M813 706l365 -706h-179l-297 583l-539 -583h-201l664 715l-350 685h179l283 -562l520 562h202z" />
    <glyph glyph-name="Y" unicode="Y" horiz-adv-x="1274" 
d="M741 585l-124 -585h-164l127 601l-370 799h173l303 -657l569 657h203z" />
    <glyph glyph-name="Z" unicode="Z" horiz-adv-x="1305" 
d="M1342 1272l-1049 -1120h848l-33 -152h-1062l29 135l1046 1113h-840l32 152h1056z" />
    <glyph glyph-name="bracketleft" unicode="[" horiz-adv-x="738" 
d="M504 -263h-468l354 1663h468l-29 -138h-315l-295 -1387h315z" />
    <glyph glyph-name="backslash" unicode="\" horiz-adv-x="1732" 
d="M329 1540h170l1063 -1740h-170z" />
    <glyph glyph-name="bracketright" unicode="]" horiz-adv-x="738" 
d="M274 1400h468l-354 -1663h-468l29 138h314l295 1387h-314z" />
    <glyph glyph-name="asciicircum" unicode="^" horiz-adv-x="1200" 
d="M240 648l356 752h146l357 -752h-163l-269 597l-268 -597h-159z" />
    <glyph glyph-name="underscore" unicode="_" horiz-adv-x="937" 
d="M784 -272h-947l28 136h947z" />
    <glyph glyph-name="grave" unicode="`" horiz-adv-x="939" 
d="M672 1092l-251 300h189l209 -300h-147z" />
    <glyph glyph-name="a" unicode="a" horiz-adv-x="1213" 
d="M626 966q63 0 115.5 -14t95 -39.5t73.5 -61t51 -77.5l37 173h149l-202 -947h-148l26 121q-60 -63 -141.5 -101.5t-189.5 -38.5q-88 0 -163 32t-129.5 88.5t-85 133.5t-30.5 168q0 75 19 146t53.5 133.5t83 114.5t109 89.5t130.5 58.5t147 21zM526 122q72 0 136.5 26
t115 72.5t83.5 110t44 137.5q11 75 -4.5 140.5t-53 113.5t-95 75.5t-130.5 27.5q-81 0 -151 -32t-121.5 -87.5t-81.5 -129.5t-30 -157q0 -63 19.5 -117.5t57 -94t90.5 -62.5t121 -23z" />
    <glyph glyph-name="b" unicode="b" horiz-adv-x="1212" 
d="M588 -19q-63 0 -116 14t-95 39.5t-73.5 61t-50.5 78.5l-38 -174h-150l306 1440h150l-127 -597q58 56 135.5 89.5t177.5 33.5q91 0 168.5 -32t133.5 -88t88 -133.5t32 -168.5q0 -75 -19 -146t-53.5 -133.5t-83 -114.5t-108.5 -89.5t-130 -58.5t-147 -21zM687 825
q-72 0 -136.5 -26t-115 -72.5t-84 -110t-43.5 -137.5q-11 -75 4.5 -140.5t53.5 -113.5t95.5 -75.5t130.5 -27.5q80 0 150 32t121.5 87.5t81.5 129.5t30 157q0 63 -19.5 117.5t-57 94t-91 62.5t-120.5 23z" />
    <glyph glyph-name="c" unicode="c" horiz-adv-x="1011" 
d="M877 701q-30 38 -63.5 62t-68 38t-68 19t-64.5 5q-78 0 -146 -31t-118 -83.5t-78.5 -123.5t-28.5 -150q0 -69 23 -126.5t63 -99t94.5 -65t117.5 -23.5q75 0 141.5 27t120.5 79l86 -98q-69 -72 -160.5 -110t-193.5 -38q-101 0 -183 34t-140.5 94t-90.5 141t-32 175
q0 110 40 208t111.5 171.5t169 116t211.5 42.5q126 0 220 -46t154 -134z" />
    <glyph glyph-name="d" unicode="d" horiz-adv-x="1213" 
d="M625 966q63 0 115.5 -14t95 -39.5t73.5 -61t51 -77.5l142 666h150l-306 -1440h-149l26 121q-60 -63 -142 -101.5t-190 -38.5q-88 0 -162.5 32t-129 88.5t-85 133.5t-30.5 168q0 112 41.5 214.5t114 179.5t171.5 123t214 46zM526 122q72 0 136.5 26t115 72.5t83.5 110
t44 137.5q11 75 -4.5 140.5t-53 113.5t-95 75.5t-130.5 27.5q-81 0 -151 -32t-121.5 -87.5t-81.5 -129.5t-30 -157q0 -63 19.5 -117.5t57 -94t90.5 -62.5t121 -23z" />
    <glyph glyph-name="e" unicode="e" horiz-adv-x="1079" 
d="M895 116q-42 -35 -85 -60.5t-89.5 -42.5t-98 -25t-110.5 -8q-103 0 -183 31.5t-135 86.5t-84 130.5t-29 163.5q0 65 15.5 133t46 132t75.5 120t104.5 98t133.5 66.5t162 24.5q87 0 159 -26.5t123.5 -75.5t79.5 -118.5t28 -155.5q0 -44 -8.5 -90t-20.5 -79h-746v-23
q0 -65 20 -118t57.5 -90.5t92.5 -58t125 -20.5q91 0 160 28t132 80zM610 833q-75 0 -134 -24.5t-103 -65t-73.5 -93t-45.5 -108.5h603q3 22 3 44q0 58 -18 104t-51 77.5t-79 48.5t-102 17z" />
    <glyph glyph-name="f" unicode="f" horiz-adv-x="829" 
d="M841 812h-355l-173 -812h-151l173 812h-213l29 135h213l40 188q33 156 120.5 240t226.5 84q74 0 134.5 -22t103.5 -57l-73 -116q-36 27 -81 41t-85 14q-70 0 -123 -49t-76 -155l-36 -168h354z" />
    <glyph glyph-name="g" unicode="g" horiz-adv-x="1211" 
d="M957 61q-24 -114 -72 -202t-115 -147t-150.5 -89.5t-178.5 -30.5q-128 0 -232.5 36.5t-187.5 106.5l85 114q66 -59 151.5 -91t185.5 -32q68 0 128 23.5t108 67t81.5 105.5t48.5 139l11 58q-58 -56 -134 -88.5t-170 -32.5q-97 0 -176 32t-135.5 87.5t-87.5 131t-31 163.5
q0 114 41.5 215t113.5 176.5t170 119t211 43.5q64 0 117 -14t95.5 -39.5t73.5 -61t51 -78.5l38 174h148zM525 138q77 0 144 27t117 76t81 116t37 148q5 69 -14 127.5t-56.5 101t-92 67t-121.5 24.5q-81 0 -150.5 -30t-120 -83.5t-79.5 -126.5t-29 -159q0 -63 20.5 -115.5
t58 -91t90 -60t115.5 -21.5z" />
    <glyph glyph-name="h" unicode="h" horiz-adv-x="1179" 
d="M704 966q81 0 144.5 -24t107.5 -67.5t67.5 -103t23.5 -131.5q0 -25 -2.5 -51t-8.5 -53l-115 -536h-150l114 535q5 21 7.5 41.5t2.5 40.5q0 45 -13.5 82.5t-41 65.5t-70 43.5t-100.5 15.5q-63 0 -118.5 -19.5t-100 -58.5t-77 -96.5t-48.5 -133.5l-110 -516h-151l307 1440
h149l-129 -609q68 75 150 105t162 30z" />
    <glyph glyph-name="i" unicode="i" horiz-adv-x="484" 
d="M216 0h-151l202 947h151zM412 1389q22 0 42 -8t34 -22.5t22.5 -34t8.5 -41.5q0 -23 -8.5 -42t-22.5 -33t-34 -22t-42 -8t-41 8t-33.5 22t-22.5 33t-8 42q0 22 8 41.5t22.5 34t33.5 22.5t41 8z" />
    <glyph glyph-name="j" unicode="j" horiz-adv-x="491" 
d="M189 -162q-27 -128 -100.5 -190.5t-176.5 -62.5q-45 0 -85 11.5t-66 28.5l55 123q19 -11 41.5 -16.5t45.5 -5.5q51 0 88.5 32.5t51.5 98.5l231 1090h151zM419 1389q22 0 42 -8t34 -22.5t22.5 -34t8.5 -41.5q0 -23 -8.5 -42t-22.5 -33t-34 -22t-42 -8t-41 8t-33.5 22
t-22.5 33t-8 42q0 22 8 41.5t22.5 34t33.5 22.5t41 8z" />
    <glyph glyph-name="k" unicode="k" horiz-adv-x="1028" 
d="M335 563h130l412 384h195l-504 -461l334 -486h-169l-286 427h-141l-90 -427h-151l306 1440h151z" />
    <glyph glyph-name="l" unicode="l" horiz-adv-x="483" 
d="M216 0h-151l306 1440h151z" />
    <glyph glyph-name="m" unicode="m" horiz-adv-x="1886" 
d="M1411 966q81 0 144.5 -24t107.5 -67.5t67.5 -103t23.5 -131.5q0 -25 -2.5 -51t-8.5 -53l-116 -536h-150l114 535q5 21 7.5 41.5t2.5 40.5q0 45 -13.5 82.5t-41 65.5t-70.5 43.5t-102 15.5q-63 0 -118.5 -19.5t-100 -58.5t-77 -96.5t-48.5 -133.5l-110 -516h-149l114 535
q12 57 7.5 109.5t-30 92.5t-73 63.5t-120.5 23.5q-63 0 -118.5 -19.5t-100 -58.5t-77 -96.5t-48.5 -133.5l-110 -516h-150l202 947h149l-25 -118q34 38 72 64t78 42.5t81.5 23.5t81.5 7q123 0 204.5 -53.5t115.5 -140.5q38 53 84 90t96 60t102.5 33.5t104.5 10.5z" />
    <glyph glyph-name="n" unicode="n" horiz-adv-x="1179" 
d="M704 966q81 0 144.5 -24t107.5 -67.5t67.5 -103t23.5 -131.5q0 -25 -2.5 -51t-8.5 -53l-115 -536h-150l114 535q5 21 7.5 41.5t2.5 40.5q0 45 -13.5 82.5t-41 65.5t-70.5 43.5t-101 15.5q-63 0 -118.5 -19.5t-100 -58.5t-77 -96.5t-48.5 -133.5l-110 -516h-150l202 947
h149l-25 -118q34 38 72 64t78 42.5t81.5 23.5t81.5 7z" />
    <glyph glyph-name="o" unicode="o" horiz-adv-x="1170" 
d="M626 966q102 0 186 -33.5t144 -93t93.5 -141t33.5 -177.5q0 -111 -41 -209t-113.5 -172t-171 -117t-213.5 -43q-101 0 -185 33.5t-144 93t-93.5 141t-33.5 178.5q0 110 41 208.5t113 172t170.5 116.5t213.5 43zM614 826q-80 0 -148 -31t-118 -84.5t-78.5 -124.5
t-28.5 -151q0 -69 23 -126.5t64.5 -99t98.5 -65t126 -23.5q81 0 150 31t119.5 84.5t79 124t28.5 150.5q0 69 -23 127t-65 99.5t-100 65t-128 23.5z" />
    <glyph glyph-name="p" unicode="p" horiz-adv-x="1211" 
d="M587 -19q-63 0 -115.5 14t-95 39.5t-74 60.5t-50.5 78l-121 -573h-151l287 1347h149l-26 -121q60 63 141.5 101.5t189.5 38.5q88 0 162.5 -32t129 -88t85 -133.5t30.5 -168.5q0 -75 -19 -146t-53.5 -133.5t-83 -114.5t-108.5 -89.5t-130 -58.5t-147 -21zM687 825
q-73 0 -137.5 -26t-114.5 -72.5t-83.5 -110t-43.5 -137.5q-11 -75 4.5 -140.5t53 -113.5t95 -75.5t130.5 -27.5q81 0 151 32t121.5 87.5t81.5 129.5t30 157q0 63 -19.5 117.5t-57 94t-91 62.5t-120.5 23z" />
    <glyph glyph-name="q" unicode="q" horiz-adv-x="1213" 
d="M626 966q63 0 115.5 -14t95 -39.5t73.5 -61t51 -77.5l37 173h149l-287 -1347h-151l107 500q-58 -54 -135 -86.5t-175 -32.5q-91 0 -168.5 32t-133.5 88.5t-88 133.5t-32 168q0 75 19 146t53.5 133.5t83 114.5t109 89.5t130.5 58.5t147 21zM526 122q72 0 136.5 26
t115 72.5t83.5 110t44 137.5q11 75 -4.5 140.5t-53 113.5t-95 75.5t-130.5 27.5q-81 0 -151 -32t-121.5 -87.5t-81.5 -129.5t-30 -157q0 -63 19.5 -117.5t57 -94t90.5 -62.5t121 -23z" />
    <glyph glyph-name="r" unicode="r" horiz-adv-x="804" 
d="M392 836q64 72 139.5 101t150.5 29q45 0 89.5 -10t79.5 -29l-57 -141q-28 18 -67 28t-79 10q-57 0 -108 -19t-93 -57.5t-73.5 -97t-48.5 -137.5l-110 -513h-150l202 947h149z" />
    <glyph glyph-name="s" unicode="s" horiz-adv-x="953" 
d="M844 746q-27 18 -63 34.5t-77.5 28.5t-86 19t-86.5 7q-99 0 -162.5 -35.5t-71.5 -100.5q-8 -68 36.5 -102t131.5 -47l85 -13q156 -24 225.5 -96t56.5 -180q-7 -63 -39 -114.5t-85 -88t-124.5 -56.5t-158.5 -20q-54 0 -110 9t-110 25.5t-103.5 40.5t-89.5 55l83 111
q60 -48 144.5 -79.5t183.5 -31.5q54 0 99.5 9.5t79 28t53.5 46t24 63.5q12 117 -170 144l-87 13q-80 12 -135.5 36.5t-90 60.5t-47.5 81t-7 97q8 66 39.5 117t82.5 86t119 53t149 18q122 0 222 -29t168 -76z" />
    <glyph glyph-name="t" unicode="t" horiz-adv-x="890" 
d="M868 812h-393l-97 -461q-13 -60 -6.5 -103t27.5 -71.5t53.5 -42t73.5 -13.5q54 0 103 17.5t97 50.5l62 -115q-57 -42 -125 -67.5t-154 -25.5q-80 0 -141 24.5t-98.5 71.5t-49.5 117t8 161l97 457h-203l29 135h203l64 301h150l-64 -301h393z" />
    <glyph glyph-name="u" unicode="u" horiz-adv-x="1166" 
d="M992 389q-23 -107 -70 -184t-112 -126.5t-145 -73.5t-167 -24q-78 0 -144.5 21.5t-116 63.5t-77.5 104t-28 142q0 49 12 108l113 527h151l-114 -534q-10 -44 -10 -85q0 -54 17.5 -93t48.5 -64.5t73.5 -37.5t92.5 -12q58 0 111.5 18t97 54.5t75 91.5t47.5 130l113 532h150
z" />
    <glyph glyph-name="v" unicode="v" horiz-adv-x="1027" 
d="M507 -2h-174l-206 949h153l164 -803l494 803h163z" />
    <glyph glyph-name="w" unicode="w" horiz-adv-x="1674" 
d="M1128 159l443 788h164l-544 -947h-177l-125 785l-419 -785h-174l-156 947h150l121 -785l420 785h165z" />
    <glyph glyph-name="x" unicode="x" horiz-adv-x="998" 
d="M584 473l280 -473h-165l-220 371l-347 -371h-179l458 485l-277 462h166l213 -365l343 365h180z" />
    <glyph glyph-name="y" unicode="y" horiz-adv-x="1037" 
d="M156 -404h-171l456 626l-322 725h158l259 -593l419 593h169z" />
    <glyph glyph-name="z" unicode="z" horiz-adv-x="1017" 
d="M968 834l-708 -699h585l-28 -135h-788l24 117l714 695h-579l29 135h776z" />
    <glyph glyph-name="braceleft" unicode="{" horiz-adv-x="844" 
d="M914 1262h-39q-56 0 -101.5 -12t-79.5 -40t-57 -75t-33 -116l-19 -128q-11 -72 -33 -126.5t-55 -94.5t-76.5 -66t-95.5 -42q89 -38 121 -120.5t2 -195.5l-35 -131q-16 -61 -11 -106t28 -74.5t61.5 -44t88.5 -14.5h60l-30 -138h-59q-92 0 -156.5 32t-100.5 87.5t-42.5 131
t16.5 162.5l31 113q16 58 10.5 102.5t-29.5 74t-64.5 44.5t-94.5 15l29 138q124 0 191.5 59.5t87.5 191.5l22 142q15 98 51 168t91.5 114.5t130.5 65.5t167 21h53z" />
    <glyph glyph-name="bar" unicode="|" horiz-adv-x="688" 
d="M262 -265h-149l354 1665h149z" />
    <glyph glyph-name="braceright" unicode="}" horiz-adv-x="844" 
d="M-29 -124h39q56 0 101.5 12t79.5 40t56.5 75t33.5 116l19 128q10 72 32 126t55 94t76.5 66.5t95.5 41.5q-88 38 -120 121t-2 196l35 131q16 61 11 106t-28 74.5t-61.5 44t-88.5 14.5h-60l30 138h59q92 0 156.5 -32t100.5 -87.5t42.5 -131t-16.5 -162.5l-31 -113
q-16 -59 -10.5 -103t29.5 -73.5t64.5 -44.5t94.5 -15l-29 -138q-124 0 -191.5 -59.5t-87.5 -191.5l-22 -142q-15 -98 -51 -168t-91.5 -114.5t-130.5 -65.5t-167 -21h-53z" />
    <glyph glyph-name="asciitilde" unicode="~" horiz-adv-x="1200" 
d="M1055 532q-66 -56 -132 -83.5t-147 -27.5q-44 0 -77 6.5t-60 16t-50.5 20.5t-48.5 20.5t-53 16t-65 6.5q-54 0 -97.5 -21t-93.5 -62l-66 101q66 56 132 83.5t147 27.5q66 0 109 -13.5t79 -29.5t73.5 -29.5t92.5 -13.5q54 0 97.5 21t93.5 62z" />
    <glyph glyph-name="uni00A0" unicode="&#xa0;" horiz-adv-x="534" 
 />
    <glyph glyph-name="exclamdown" unicode="&#xa1;" horiz-adv-x="506" 
d="M193 502h128l-173 -955h-183zM324 714q-25 0 -47.5 10t-40 27.5t-27.5 40t-10 47.5t10 48t27.5 40t40 27.5t47.5 10.5t47.5 -10.5t40 -27.5t27.5 -40t10 -48t-10 -47.5t-27.5 -40t-40 -27.5t-47.5 -10z" />
    <glyph glyph-name="cent" unicode="&#xa2;" horiz-adv-x="1400" 
d="M1130 928q-42 51 -89 77t-93 37l-148 -695q72 3 137 29t116 77l83 -98q-69 -72 -162 -109t-195 -37h-9l-44 -209h-138l48 228q-72 20 -130 60.5t-98.5 96t-62.5 124t-22 145.5q0 107 39 202.5t108 168.5t164 116.5t207 47.5l45 211h138l-47 -221q86 -17 152 -59t114 -108
zM474 664q0 -53 14 -99.5t39.5 -84.5t60.5 -66.5t78 -45.5l145 681q-72 -9 -134 -42.5t-107 -85t-70.5 -117.5t-25.5 -140z" />
    <glyph glyph-name="sterling" unicode="&#xa3;" horiz-adv-x="1400" 
d="M1126 0h-1015l32 147h173l103 485h-174l30 136h173l41 193q25 118 73.5 204t114 142.5t145 83.5t165.5 27q121 0 212 -43t144 -130l-122 -93q-43 63 -106 91t-138 28q-57 0 -109.5 -18t-97 -58.5t-79 -107.5t-55.5 -164l-33 -155h512l-29 -136h-512l-102 -485h685z" />
    <glyph glyph-name="currency" unicode="&#xa4;" horiz-adv-x="1400" 
d="M1299 1082l-167 -138q35 -57 50 -125t6 -142q-9 -77 -42.5 -144t-85.5 -120l97 -122l-100 -81l-97 122q-58 -36 -125.5 -54.5t-139.5 -14.5q-75 5 -139 31.5t-115 72.5l-170 -142l-73 94l167 138q-35 57 -49.5 124t-5.5 142q10 76 42.5 142.5t83.5 119.5l-97 123l100 83
l97 -125q59 37 127 55.5t140 14.5q75 -5 138.5 -31t113.5 -71l170 141zM710 385q66 -3 126.5 18.5t108.5 62t80 96.5t40 122q8 65 -9.5 123.5t-55 103.5t-92 72.5t-120.5 30.5t-127 -18.5t-109 -61.5t-79.5 -96t-39.5 -122t9.5 -124.5t55 -103.5t92 -72.5t120.5 -30.5z" />
    <glyph glyph-name="yen" unicode="&#xa5;" horiz-adv-x="1400" 
d="M1132 317h-388l-67 -317h-155l67 317h-387l27 123h386l42 197h-388l28 123h323l-310 640h173l277 -589l526 589h190l-577 -640h328l-28 -123h-387l-42 -197h389z" />
    <glyph glyph-name="brokenbar" unicode="&#xa6;" horiz-adv-x="688" 
d="M468 706h-149l148 694h149zM262 -265h-149l148 694h149z" />
    <glyph glyph-name="section" unicode="&#xa7;" horiz-adv-x="1242" 
d="M1161 1162q-65 49 -156 83t-206 34q-69 0 -128.5 -14.5t-105.5 -40t-75 -59.5t-37 -73q-10 -51 2 -88t43.5 -62t81 -40t113.5 -22l101 -11q86 -9 154.5 -37t113 -71.5t62.5 -102t3 -128.5q-17 -81 -69 -140t-128 -98q52 -45 75.5 -107.5t6.5 -146.5q-15 -77 -61.5 -137.5
t-115.5 -103.5t-156.5 -65.5t-184.5 -22.5q-69 0 -137.5 12t-131 33t-115 51t-88.5 66l98 113q27 -26 67 -50.5t89 -43t106.5 -30t119.5 -11.5q70 0 131.5 13.5t109 38.5t77.5 60.5t39 78.5q10 51 -4.5 86.5t-49.5 60.5t-88 39.5t-119 23.5l-109 14q-81 10 -144.5 36.5
t-105 67t-58 95t-2.5 121.5q17 85 68.5 144.5t129.5 100.5q-51 42 -73 106t-4 153q15 73 59.5 134t111.5 104.5t153 67.5t183 24q144 0 257 -39.5t188 -101.5zM602 746q-53 6 -102 20q-69 -26 -114 -71t-57 -100q-10 -47 3 -81t46 -57.5t84.5 -38.5t119.5 -22l101 -11
q70 -7 130 -29q67 26 112 68t56 93q10 49 -6 87t-52.5 65t-91 43t-121.5 23z" />
    <glyph glyph-name="dieresis" unicode="&#xa8;" horiz-adv-x="953" 
d="M441 1343q22 0 41.5 -8.5t33.5 -22.5t22.5 -34t8.5 -42q0 -23 -8.5 -42t-22.5 -33t-33.5 -22t-41.5 -8q-45 0 -75.5 30t-30.5 75q0 22 8 42t22.5 34t33.5 22.5t42 8.5zM847 1343q22 0 41.5 -8.5t33.5 -22.5t22.5 -34t8.5 -42q0 -23 -8.5 -42t-22.5 -33t-33.5 -22
t-41.5 -8q-45 0 -75 30t-30 75q0 22 8 42t22 34t33 22.5t42 8.5z" />
    <glyph glyph-name="copyright" unicode="&#xa9;" horiz-adv-x="1892" 
d="M940 -90q-103 0 -199 25t-180 72t-153.5 113.5t-119 148.5t-77 179t-27.5 204q0 111 30.5 217t86 200.5t134 174.5t175 137.5t208 90t234.5 32.5q103 0 199 -25t180 -72t153.5 -113.5t119 -148.5t77 -179t27.5 -204q0 -111 -30.5 -217t-86 -200.5t-134 -174.5
t-175 -137.5t-208.5 -90t-234 -32.5zM1042 1373q-103 0 -196 -27.5t-173.5 -76t-145.5 -115.5t-110.5 -146t-70.5 -167.5t-25 -180.5q0 -135 50 -248.5t136 -196t200.5 -128.5t242.5 -46q103 0 196 27.5t173.5 76t145.5 115.5t110.5 146t70.5 167.5t25 180.5
q0 135 -50 248.5t-136 196t-200.5 128.5t-242.5 46zM1279 870q-20 35 -47 60.5t-59 42t-66.5 24t-68.5 7.5q-68 0 -125 -26t-98.5 -70.5t-64.5 -103.5t-23 -125q0 -62 21 -112t57 -85t84.5 -53.5t103.5 -18.5q73 0 136.5 32t107.5 90l91 -84q-61 -79 -148.5 -123.5
t-193.5 -44.5q-81 0 -154 27t-127.5 77.5t-87 122.5t-32.5 163q0 94 34 178.5t95 148.5t145.5 101t185.5 37q58 0 112 -13.5t100 -39t82 -62t60 -81.5z" />
    <glyph glyph-name="ordfeminine" unicode="&#xaa;" horiz-adv-x="747" 
d="M504 1292q62 0 111 -15.5t83.5 -45t52.5 -72t18 -95.5q0 -18 -2 -36.5t-6 -38.5l-79 -372h-121l15 72q-42 -38 -96.5 -62t-119.5 -24q-48 0 -88 13t-68.5 37t-44.5 57.5t-16 74.5q0 46 18 86t54 70t90 47t126 17h209q2 12 3.5 23t1.5 22q0 64 -41.5 98.5t-121.5 34.5
q-62 0 -110 -19t-88 -43l-34 100q57 35 118 53t136 18zM395 706q55 0 108 24.5t95 67.5l23 116h-180q-44 0 -76 -9.5t-52 -25.5t-29.5 -37t-9.5 -43q0 -44 32 -68.5t89 -24.5z" />
    <glyph glyph-name="guillemotleft" unicode="&#xab;" horiz-adv-x="1021" 
d="M679 514l108 -355h-152l-113 370l271 370h167zM283 514l108 -355h-152l-113 370l271 370h167z" />
    <glyph glyph-name="logicalnot" unicode="&#xac;" horiz-adv-x="1200" 
d="M812 147l66 314h-731l28 136h870l-95 -450h-138z" />
    <glyph glyph-name="uni00AD" unicode="&#xad;" horiz-adv-x="816" 
d="M678 461h-546l29 136h546z" />
    <glyph glyph-name="registered" unicode="&#xae;" horiz-adv-x="985" 
d="M639 1435q78 0 148.5 -28t123 -78.5t83.5 -120.5t31 -154q0 -85 -34 -163.5t-93 -139t-139.5 -96.5t-173.5 -36q-79 0 -149.5 28t-124 78.5t-84.5 120.5t-31 154q0 86 34 164.5t94 138.5t141 96t174 36zM590 709q71 0 132.5 28.5t106.5 76t71 108.5t26 127
q0 65 -23.5 119t-63.5 93t-93 61t-112 22q-72 0 -133.5 -28t-107.5 -75.5t-72 -108.5t-26 -127q0 -65 23.5 -119.5t64 -93.5t94 -61t113.5 -22zM667 1221q36 0 63.5 -11t44.5 -29.5t23.5 -42.5t0.5 -49q-11 -48 -49.5 -73.5t-99.5 -30.5l109 -143h-93l-99 142h-30l-30 -142
h-81l80 379h161zM572 1150l-22 -101h86q32 0 53 10.5t27 35.5q7 25 -9.5 40t-48.5 15h-86z" />
    <glyph glyph-name="macron" unicode="&#xaf;" horiz-adv-x="939" 
d="M348 1296h598l-25 -121h-598z" />
    <glyph glyph-name="degree" unicode="&#xb0;" horiz-adv-x="787" 
d="M497 730q-69 0 -128 25t-102.5 68t-68 101.5t-24.5 124.5q0 74 27.5 140.5t77 117t118 80.5t149.5 30q68 0 127 -25t102.5 -68t68.5 -101.5t25 -124.5q0 -74 -28.5 -140.5t-78.5 -117t-118 -80.5t-147 -30zM504 851q47 0 89.5 19t75 51.5t51.5 76t19 91.5
q0 43 -15.5 80.5t-43 65.5t-64 44.5t-78.5 16.5q-47 0 -90 -19t-75 -52t-51 -76t-19 -91q0 -43 15.5 -81t42.5 -66t64 -44t79 -16z" />
    <glyph glyph-name="plusminus" unicode="&#xb1;" horiz-adv-x="1200" 
d="M490 293l64 303h-364l29 135h364l74 348h138l-74 -348h367l-28 -135h-368l-64 -303h-138zM942 45h-869l28 136h870z" />
    <glyph glyph-name="twosuperior" unicode="&#xb2;" horiz-adv-x="680" 
d="M238 1284q19 23 44.5 45.5t57.5 40.5t71 29t84 11q61 0 106 -18.5t74.5 -48.5t44 -68.5t14.5 -78.5q0 -39 -10.5 -73t-31.5 -66.5t-53 -65.5t-75 -70l-223 -191h329l-24 -113h-508l20 97l326 278q65 56 95 98.5t30 89.5q0 22 -8 43t-24.5 36.5t-40.5 25t-56 9.5
q-55 0 -95 -25t-71 -60z" />
    <glyph glyph-name="threesuperior" unicode="&#xb3;" horiz-adv-x="672" 
d="M227 1303q47 49 109.5 78t150.5 29q56 0 101 -15t77 -41t49 -61t17 -75q0 -34 -11.5 -66.5t-33.5 -60.5t-53 -50t-71 -35q51 -21 79 -61t28 -94q0 -49 -20 -93.5t-58.5 -78t-94.5 -53.5t-129 -20q-88 0 -152 27.5t-100 76.5l81 76q29 -34 74 -52t99 -18q45 0 78.5 11.5
t55 30.5t32 44t10.5 52q0 49 -39.5 77t-102.5 28h-96l22 107h93q43 0 76.5 11.5t57 30t35.5 42.5t12 50q0 45 -36.5 72.5t-96.5 27.5q-57 0 -103 -24t-78 -58z" />
    <glyph glyph-name="acute" unicode="&#xb4;" horiz-adv-x="939" 
d="M425 1092l241 300h194l-282 -300h-153z" />
    <glyph glyph-name="mu" unicode="&#xb5;" horiz-adv-x="1180" 
d="M-30 -400l288 1347h150l-114 -535q-5 -21 -7.5 -41.5t-2.5 -40.5q0 -45 13.5 -82.5t41 -65.5t70 -43.5t101.5 -15.5q63 0 118.5 19.5t100 58.5t77 96.5t48.5 133.5l110 516h150l-202 -947h-149l25 118q-34 -38 -72 -64t-78 -42.5t-81.5 -23.5t-81.5 -7q-82 0 -146 25.5
t-106 76.5l-102 -483h-151z" />
    <glyph glyph-name="paragraph" unicode="&#xb6;" horiz-adv-x="1167" 
d="M605 705q-84 2 -149.5 26t-110 65.5t-67.5 98t-23 124.5q0 62 21.5 129.5t73 123.5t139 92t219.5 36h164l-298 -1400h-119zM976 1400h118l-298 -1400h-118z" />
    <glyph glyph-name="periodcentered" unicode="&#xb7;" horiz-adv-x="681" 
d="M359 654q25 0 47.5 -10t39.5 -27t27 -39.5t10 -47.5q0 -26 -10 -48.5t-27 -40t-39.5 -27.5t-47.5 -10t-48 10t-40 27.5t-27.5 40t-10.5 48.5q0 25 10.5 47.5t27.5 39.5t40 27t48 10z" />
    <glyph glyph-name="cedilla" unicode="&#xb8;" horiz-adv-x="1000" 
d="M385 -323h-168l179 329l154 -1z" />
    <glyph glyph-name="onesuperior" unicode="&#xb9;" horiz-adv-x="528" 
d="M412 617h-122l133 623l-225 -77l26 127l356 119z" />
    <glyph glyph-name="ordmasculine" unicode="&#xba;" horiz-adv-x="843" 
d="M550 1292q70 0 129 -23t101.5 -64.5t66.5 -99t24 -125.5q0 -77 -28.5 -145.5t-79 -120t-119 -81.5t-149.5 -30q-70 0 -129 23t-102 64.5t-67 99t-24 126.5q0 77 28.5 145.5t79 119.5t119.5 81t150 30zM540 1177q-51 0 -95 -20t-76 -54.5t-50.5 -81t-18.5 -98.5
q0 -45 15 -82.5t41.5 -64.5t63.5 -42t82 -15q52 0 96.5 20t77 54.5t51 81t18.5 98.5q0 45 -15 82.5t-42.5 64.5t-65 42t-82.5 15z" />
    <glyph glyph-name="guillemotright" unicode="&#xbb;" horiz-adv-x="1021" 
d="M366 544l-108 355h152l113 -370l-271 -370h-167zM762 544l-108 355h152l113 -370l-271 -370h-167z" />
    <glyph glyph-name="onequarter" unicode="&#xbc;" horiz-adv-x="1564" 
d="M314 0h-157l1055 1400h157zM1360 267h123l-24 -114h-123l-32 -153h-122l32 153h-356l21 97l363 532h140l-352 -515h209l46 214h121zM412 617h-122l133 623l-225 -77l26 127l356 119z" />
    <glyph glyph-name="onehalf" unicode="&#xbd;" horiz-adv-x="1657" 
d="M314 0h-157l1055 1400h157zM1083 667q19 23 44.5 45.5t57.5 40.5t71 29t84 11q61 0 106 -18.5t74.5 -48.5t44 -68.5t14.5 -78.5q0 -39 -10.5 -73t-31.5 -66.5t-53 -65.5t-75 -70l-223 -191h329l-24 -113h-508l20 97l326 278q65 56 95 98.5t30 89.5q0 22 -8 43t-24.5 36.5
t-40.5 25t-56 9.5q-55 0 -95 -25t-71 -60zM412 617h-122l133 623l-225 -77l26 127l356 119z" />
    <glyph glyph-name="threequarters" unicode="&#xbe;" horiz-adv-x="1695" 
d="M445 0h-157l1055 1400h157zM1491 267h123l-24 -114h-123l-32 -153h-122l32 153h-356l21 97l363 532h140l-352 -515h209l46 214h121zM227 1303q47 49 109.5 78t150.5 29q56 0 101 -15t77 -41t49 -61t17 -75q0 -34 -11.5 -66.5t-33.5 -60.5t-53 -50t-71 -35q51 -21 79 -61
t28 -94q0 -49 -20 -93.5t-58.5 -78t-94.5 -53.5t-129 -20q-88 0 -152 27.5t-100 76.5l81 76q29 -34 74 -52t99 -18q45 0 78.5 11.5t55 30.5t32 44t10.5 52q0 49 -39.5 77t-102.5 28h-96l22 107h93q43 0 76.5 11.5t57 30t35.5 42.5t12 50q0 45 -36.5 72.5t-96.5 27.5
q-57 0 -103 -24t-78 -58z" />
    <glyph glyph-name="questiondown" unicode="&#xbf;" horiz-adv-x="842" 
d="M642 502l-66 -314h-82q-91 0 -159 -19.5t-113 -55t-67 -84.5t-22 -108q0 -57 27 -101.5t74.5 -74.5t113 -45.5t143.5 -15.5q20 0 37.5 0.5t31.5 1.5l-6 -152q-20 -2 -43.5 -3.5t-47.5 -1.5q-108 0 -199.5 26t-158 74.5t-104 117t-37.5 154.5q0 90 31.5 165t94.5 131
t156 90t216 41l45 174h135zM636 715q-25 0 -47.5 10t-40 27.5t-27.5 40t-10 47.5t10 48t27.5 40t40 27.5t47.5 10.5t47.5 -10.5t40 -27.5t27.5 -40t10 -48t-10 -47.5t-27.5 -40t-40 -27.5t-47.5 -10z" />
    <glyph glyph-name="Agrave" unicode="&#xc0;" horiz-adv-x="1421" 
d="M1277 0h-165l-74 390h-683l-238 -390h-174l863 1400h199zM448 542h561l-132 699zM648 1807h189l210 -300h-148z" />
    <glyph glyph-name="Aacute" unicode="&#xc1;" horiz-adv-x="1421" 
d="M1277 0h-165l-74 390h-683l-238 -390h-174l863 1400h199zM448 542h561l-132 699zM766 1507l241 300h194l-282 -300h-153z" />
    <glyph glyph-name="Acircumflex" unicode="&#xc2;" horiz-adv-x="1421" 
d="M1277 0h-165l-74 390h-683l-238 -390h-174l863 1400h199zM448 542h561l-132 699zM1077 1508l-130 197l-209 -197h-168l288 288h200l176 -288h-157z" />
    <glyph glyph-name="Atilde" unicode="&#xc3;" horiz-adv-x="1421" 
d="M1277 0h-165l-74 390h-683l-238 -390h-174l863 1400h199zM448 542h561l-132 699zM585 1652q52 56 105 82t122 26q52 0 87.5 -12.5t63 -27t51.5 -27t54 -12.5q40 0 73 17.5t68 50.5l85 -89q-53 -56 -105.5 -82t-121.5 -26q-51 0 -86 12.5t-62.5 27.5t-52.5 27.5t-56 12.5
q-39 0 -72 -18t-68 -51z" />
    <glyph glyph-name="Adieresis" unicode="&#xc4;" horiz-adv-x="1421" 
d="M1277 0h-165l-74 390h-683l-238 -390h-174l863 1400h199zM448 542h561l-132 699zM748 1758q22 0 41.5 -8.5t33.5 -22.5t22.5 -34t8.5 -42q0 -23 -8.5 -42t-22.5 -33t-33.5 -22t-41.5 -8q-45 0 -75.5 30t-30.5 75q0 22 8 42t22.5 34t33.5 22.5t42 8.5zM1154 1758
q22 0 41.5 -8.5t33.5 -22.5t22.5 -34t8.5 -42q0 -23 -8.5 -42t-22.5 -33t-33.5 -22t-41.5 -8q-45 0 -75 30t-30 75q0 22 8 42t22 34t33 22.5t42 8.5z" />
    <glyph glyph-name="Aring" unicode="&#xc5;" horiz-adv-x="1421" 
d="M1277 0h-165l-74 390h-683l-238 -390h-174l863 1400h199zM448 542h561l-132 699zM936 1487q-47 0 -88 17.5t-72 48.5t-49 71.5t-18 87.5q0 46 18 87t49 71.5t72 48t88 17.5t88.5 -17.5t72.5 -48t49 -71.5t18 -87q0 -47 -18 -87.5t-49 -71.5t-72.5 -48.5t-88.5 -17.5z
M936 1582q26 0 49.5 10t41 27.5t27.5 41.5t10 51t-10 50.5t-27.5 41t-41 27.5t-49.5 10t-49.5 -10t-40.5 -27.5t-27 -41t-10 -50.5t10 -51t27 -41.5t40.5 -27.5t49.5 -10z" />
    <glyph glyph-name="AE" unicode="&#xc6;" horiz-adv-x="2262" 
d="M2017 0h-969l77 365h-638l-348 -365h-205l1341 1400h1027l-32 -151h-792l-100 -469h773l-32 -150h-773l-102 -479h805zM1158 517l150 708l-676 -708h526z" />
    <glyph glyph-name="Ccedilla" unicode="&#xc7;" horiz-adv-x="1481" 
d="M1348 219q-100 -114 -234.5 -176.5t-290.5 -62.5q-143 0 -264 48.5t-209.5 135.5t-138.5 207.5t-50 265.5q0 111 27 212.5t76.5 188.5t119 157.5t155.5 120t186 76.5t210 27q55 0 128 -10t150 -40.5t150 -86t128 -145.5l-123 -98q-36 60 -86.5 103t-108.5 70.5t-121.5 40
t-126.5 12.5q-125 0 -234 -47.5t-189.5 -130.5t-126.5 -195t-46 -242q0 -114 38.5 -208.5t106 -162.5t159.5 -106t200 -38q121 0 227 50t182 137zM721 -323h-175l179 329l161 -1z" />
    <glyph glyph-name="Egrave" unicode="&#xc8;" horiz-adv-x="1306" 
d="M1163 630h-773l-102 -479h805l-32 -151h-969l298 1400h956l-32 -151h-792l-100 -469h773zM609 1807h189l210 -300h-148z" />
    <glyph glyph-name="Eacute" unicode="&#xc9;" horiz-adv-x="1306" 
d="M1163 630h-773l-102 -479h805l-32 -151h-969l298 1400h956l-32 -151h-792l-100 -469h773zM727 1507l241 300h194l-282 -300h-153z" />
    <glyph glyph-name="Ecircumflex" unicode="&#xca;" horiz-adv-x="1306" 
d="M1163 630h-773l-102 -479h805l-32 -151h-969l298 1400h956l-32 -151h-792l-100 -469h773zM1038 1508l-130 197l-209 -197h-168l288 288h200l176 -288h-157z" />
    <glyph glyph-name="Edieresis" unicode="&#xcb;" horiz-adv-x="1306" 
d="M1163 630h-773l-102 -479h805l-32 -151h-969l298 1400h956l-32 -151h-792l-100 -469h773zM709 1758q22 0 41.5 -8.5t33.5 -22.5t22.5 -34t8.5 -42q0 -23 -8.5 -42t-22.5 -33t-33.5 -22t-41.5 -8q-45 0 -75.5 30t-30.5 75q0 22 8 42t22.5 34t33.5 22.5t42 8.5zM1115 1758
q22 0 41.5 -8.5t33.5 -22.5t22.5 -34t8.5 -42q0 -23 -8.5 -42t-22.5 -33t-33.5 -22t-41.5 -8q-45 0 -75 30t-30 75q0 22 8 42t22 34t33 22.5t42 8.5z" />
    <glyph glyph-name="Igrave" unicode="&#xcc;" horiz-adv-x="549" 
d="M256 0h-164l298 1400h164zM214 1807h189l210 -300h-148z" />
    <glyph glyph-name="Iacute" unicode="&#xcd;" horiz-adv-x="549" 
d="M256 0h-164l298 1400h164zM332 1507l241 300h194l-282 -300h-153z" />
    <glyph glyph-name="Icircumflex" unicode="&#xce;" horiz-adv-x="549" 
d="M256 0h-164l298 1400h164zM643 1508l-130 197l-209 -197h-168l288 288h200l176 -288h-157z" />
    <glyph glyph-name="Idieresis" unicode="&#xcf;" horiz-adv-x="549" 
d="M256 0h-164l298 1400h164zM314 1758q22 0 41.5 -8.5t33.5 -22.5t22.5 -34t8.5 -42q0 -23 -8.5 -42t-22.5 -33t-33.5 -22t-41.5 -8q-45 0 -75.5 30t-30.5 75q0 22 8 42t22.5 34t33.5 22.5t42 8.5zM720 1758q22 0 41.5 -8.5t33.5 -22.5t22.5 -34t8.5 -42q0 -23 -8.5 -42
t-22.5 -33t-33.5 -22t-41.5 -8q-45 0 -75 30t-30 75q0 22 8 42t22 34t33 22.5t42 8.5z" />
    <glyph glyph-name="Eth" unicode="&#xd0;" horiz-adv-x="1708" 
d="M1005 1400q153 0 273 -41.5t203.5 -118t127.5 -184.5t44 -241q0 -169 -58.5 -317.5t-171 -259t-277.5 -174.5t-378 -64h-521l134 629h-232l33 152h231l132 619h460zM932 629h-387l-102 -477h343q169 0 299 50t218.5 137.5t134 205.5t45.5 255q0 100 -31 183t-92.5 141.5
t-155 91t-217.5 32.5h-311l-99 -467h387z" />
    <glyph glyph-name="Ntilde" unicode="&#xd1;" horiz-adv-x="1548" 
d="M1254 0h-149l-605 1147l-245 -1147h-163l298 1400h151l604 -1147l244 1147h164zM639 1652q52 56 105 82t122 26q52 0 87.5 -12.5t63 -27t51.5 -27t54 -12.5q40 0 73 17.5t68 50.5l85 -89q-53 -56 -105.5 -82t-121.5 -26q-51 0 -86 12.5t-62.5 27.5t-52.5 27.5t-56 12.5
q-39 0 -72 -18t-68 -51z" />
    <glyph glyph-name="Ograve" unicode="&#xd2;" horiz-adv-x="1663" 
d="M934 1419q141 0 263 -46t211.5 -130.5t141 -204t51.5 -266.5q0 -108 -26 -208.5t-74.5 -188.5t-117.5 -160.5t-155 -125t-187.5 -81t-214.5 -28.5q-141 0 -263 46t-212 130.5t-141 204t-51 267.5q0 107 26 207.5t74.5 188.5t117.5 160.5t155 125t187.5 81t214.5 28.5z
M921 1265q-132 0 -241 -51t-187.5 -137t-122 -199t-43.5 -238q0 -116 38.5 -209t107 -159t162.5 -101.5t204 -35.5q87 0 165.5 23t144.5 65t118.5 100t89.5 127t56.5 148t19.5 162q0 115 -39 208.5t-107.5 159.5t-162 101.5t-203.5 35.5zM698 1807h189l210 -300h-148z" />
    <glyph glyph-name="Oacute" unicode="&#xd3;" horiz-adv-x="1663" 
d="M934 1419q141 0 263 -46t211.5 -130.5t141 -204t51.5 -266.5q0 -108 -26 -208.5t-74.5 -188.5t-117.5 -160.5t-155 -125t-187.5 -81t-214.5 -28.5q-141 0 -263 46t-212 130.5t-141 204t-51 267.5q0 107 26 207.5t74.5 188.5t117.5 160.5t155 125t187.5 81t214.5 28.5z
M921 1265q-132 0 -241 -51t-187.5 -137t-122 -199t-43.5 -238q0 -116 38.5 -209t107 -159t162.5 -101.5t204 -35.5q87 0 165.5 23t144.5 65t118.5 100t89.5 127t56.5 148t19.5 162q0 115 -39 208.5t-107.5 159.5t-162 101.5t-203.5 35.5zM816 1507l241 300h194l-282 -300
h-153z" />
    <glyph glyph-name="Ocircumflex" unicode="&#xd4;" horiz-adv-x="1663" 
d="M934 1419q141 0 263 -46t211.5 -130.5t141 -204t51.5 -266.5q0 -108 -26 -208.5t-74.5 -188.5t-117.5 -160.5t-155 -125t-187.5 -81t-214.5 -28.5q-141 0 -263 46t-212 130.5t-141 204t-51 267.5q0 107 26 207.5t74.5 188.5t117.5 160.5t155 125t187.5 81t214.5 28.5z
M921 1265q-132 0 -241 -51t-187.5 -137t-122 -199t-43.5 -238q0 -116 38.5 -209t107 -159t162.5 -101.5t204 -35.5q87 0 165.5 23t144.5 65t118.5 100t89.5 127t56.5 148t19.5 162q0 115 -39 208.5t-107.5 159.5t-162 101.5t-203.5 35.5zM1127 1508l-130 197l-209 -197h-168
l288 288h200l176 -288h-157z" />
    <glyph glyph-name="Otilde" unicode="&#xd5;" horiz-adv-x="1663" 
d="M934 1419q141 0 263 -46t211.5 -130.5t141 -204t51.5 -266.5q0 -108 -26 -208.5t-74.5 -188.5t-117.5 -160.5t-155 -125t-187.5 -81t-214.5 -28.5q-141 0 -263 46t-212 130.5t-141 204t-51 267.5q0 107 26 207.5t74.5 188.5t117.5 160.5t155 125t187.5 81t214.5 28.5z
M921 1265q-132 0 -241 -51t-187.5 -137t-122 -199t-43.5 -238q0 -116 38.5 -209t107 -159t162.5 -101.5t204 -35.5q87 0 165.5 23t144.5 65t118.5 100t89.5 127t56.5 148t19.5 162q0 115 -39 208.5t-107.5 159.5t-162 101.5t-203.5 35.5zM635 1652q52 56 105 82t122 26
q52 0 87.5 -12.5t63 -27t51.5 -27t54 -12.5q40 0 73 17.5t68 50.5l85 -89q-53 -56 -105.5 -82t-121.5 -26q-51 0 -86 12.5t-62.5 27.5t-52.5 27.5t-56 12.5q-39 0 -72 -18t-68 -51z" />
    <glyph glyph-name="Odieresis" unicode="&#xd6;" horiz-adv-x="1663" 
d="M934 1419q141 0 263 -46t211.5 -130.5t141 -204t51.5 -266.5q0 -108 -26 -208.5t-74.5 -188.5t-117.5 -160.5t-155 -125t-187.5 -81t-214.5 -28.5q-141 0 -263 46t-212 130.5t-141 204t-51 267.5q0 107 26 207.5t74.5 188.5t117.5 160.5t155 125t187.5 81t214.5 28.5z
M921 1265q-132 0 -241 -51t-187.5 -137t-122 -199t-43.5 -238q0 -116 38.5 -209t107 -159t162.5 -101.5t204 -35.5q87 0 165.5 23t144.5 65t118.5 100t89.5 127t56.5 148t19.5 162q0 115 -39 208.5t-107.5 159.5t-162 101.5t-203.5 35.5zM798 1758q22 0 41.5 -8.5
t33.5 -22.5t22.5 -34t8.5 -42q0 -23 -8.5 -42t-22.5 -33t-33.5 -22t-41.5 -8q-45 0 -75.5 30t-30.5 75q0 22 8 42t22.5 34t33.5 22.5t42 8.5zM1204 1758q22 0 41.5 -8.5t33.5 -22.5t22.5 -34t8.5 -42q0 -23 -8.5 -42t-22.5 -33t-33.5 -22t-41.5 -8q-45 0 -75 30t-30 75
q0 22 8 42t22 34t33 22.5t42 8.5z" />
    <glyph glyph-name="multiply" unicode="&#xd7;" horiz-adv-x="1200" 
d="M822 146l-226 287l-366 -302l-83 104l356 294l-231 294l106 87l225 -285l368 305l83 -105l-359 -296l233 -296z" />
    <glyph glyph-name="Oslash" unicode="&#xd8;" horiz-adv-x="1663" 
d="M934 1419q139 0 258 -44t209 -126l193 172l96 -108l-195 -173q51 -76 78.5 -168t27.5 -200t-26 -208.5t-74.5 -188.5t-117.5 -160.5t-155 -125t-187.5 -81t-214.5 -28.5q-135 0 -250.5 41t-204.5 117l-178 -158l-96 107l177 158q-55 78 -85 174t-30 209q0 107 26 207.5
t74.5 188.5t117.5 160.5t155 125t187.5 81t214.5 28.5zM921 1265q-132 0 -241 -51t-187.5 -137t-122 -199t-43.5 -238q0 -82 19.5 -152.5t55.5 -128.5l874 779q-68 61 -158.5 94t-196.5 33zM1433 760q0 76 -17.5 142t-49.5 123l-869 -775q67 -56 153.5 -85.5t188.5 -29.5
q87 0 165.5 23t144.5 65t118.5 100t89.5 127t56.5 148t19.5 162z" />
    <glyph glyph-name="Ugrave" unicode="&#xd9;" horiz-adv-x="1471" 
d="M1312 540q-32 -149 -92 -255t-143.5 -173.5t-188.5 -99t-225 -31.5q-101 0 -190 25.5t-155.5 78.5t-105 134t-38.5 191q0 70 18 151l179 839h164l-179 -835q-8 -35 -11 -67.5t-3 -61.5q0 -80 25.5 -137t70.5 -93.5t107.5 -53.5t136.5 -17q84 0 159.5 24t136.5 74.5
t105.5 129.5t67.5 190l180 847h164zM675 1807h189l210 -300h-148z" />
    <glyph glyph-name="Uacute" unicode="&#xda;" horiz-adv-x="1471" 
d="M1312 540q-32 -149 -92 -255t-143.5 -173.5t-188.5 -99t-225 -31.5q-101 0 -190 25.5t-155.5 78.5t-105 134t-38.5 191q0 70 18 151l179 839h164l-179 -835q-8 -35 -11 -67.5t-3 -61.5q0 -80 25.5 -137t70.5 -93.5t107.5 -53.5t136.5 -17q84 0 159.5 24t136.5 74.5
t105.5 129.5t67.5 190l180 847h164zM793 1507l241 300h194l-282 -300h-153z" />
    <glyph glyph-name="Ucircumflex" unicode="&#xdb;" horiz-adv-x="1471" 
d="M1312 540q-32 -149 -92 -255t-143.5 -173.5t-188.5 -99t-225 -31.5q-101 0 -190 25.5t-155.5 78.5t-105 134t-38.5 191q0 70 18 151l179 839h164l-179 -835q-8 -35 -11 -67.5t-3 -61.5q0 -80 25.5 -137t70.5 -93.5t107.5 -53.5t136.5 -17q84 0 159.5 24t136.5 74.5
t105.5 129.5t67.5 190l180 847h164zM1104 1508l-130 197l-209 -197h-168l288 288h200l176 -288h-157z" />
    <glyph glyph-name="Udieresis" unicode="&#xdc;" horiz-adv-x="1471" 
d="M1312 540q-32 -149 -92 -255t-143.5 -173.5t-188.5 -99t-225 -31.5q-101 0 -190 25.5t-155.5 78.5t-105 134t-38.5 191q0 70 18 151l179 839h164l-179 -835q-8 -35 -11 -67.5t-3 -61.5q0 -80 25.5 -137t70.5 -93.5t107.5 -53.5t136.5 -17q84 0 159.5 24t136.5 74.5
t105.5 129.5t67.5 190l180 847h164zM775 1758q22 0 41.5 -8.5t33.5 -22.5t22.5 -34t8.5 -42q0 -23 -8.5 -42t-22.5 -33t-33.5 -22t-41.5 -8q-45 0 -75.5 30t-30.5 75q0 22 8 42t22.5 34t33.5 22.5t42 8.5zM1181 1758q22 0 41.5 -8.5t33.5 -22.5t22.5 -34t8.5 -42
q0 -23 -8.5 -42t-22.5 -33t-33.5 -22t-41.5 -8q-45 0 -75 30t-30 75q0 22 8 42t22 34t33 22.5t42 8.5z" />
    <glyph glyph-name="Yacute" unicode="&#xdd;" horiz-adv-x="1274" 
d="M741 585l-124 -585h-164l127 601l-370 799h173l303 -657l569 657h203zM679 1507l241 300h194l-282 -300h-153z" />
    <glyph glyph-name="Thorn" unicode="&#xde;" horiz-adv-x="1303" 
d="M497 1134h321q107 0 189.5 -26t139 -73.5t85.5 -114t29 -148.5q0 -102 -36.5 -189.5t-108.5 -151t-179.5 -99.5t-249.5 -36h-368l-63 -296h-164l298 1400h164zM465 982l-114 -534h343q104 0 179.5 23t124 64.5t72 98t23.5 123.5q0 109 -74 167t-217 58h-337z" />
    <glyph glyph-name="germandbls" unicode="&#xdf;" horiz-adv-x="1197" 
d="M272 1011q48 224 182 336t338 112q86 0 158.5 -26t125.5 -72.5t82.5 -109.5t29.5 -137q0 -66 -21 -127t-58.5 -112.5t-90 -91t-116.5 -61.5q50 -19 90 -56.5t65 -86t33.5 -105.5t-3.5 -116q-21 -101 -67 -172.5t-110 -117t-142 -66.5t-162 -21q-75 0 -136.5 14t-104.5 37
l64 125q32 -17 78 -27t94 -10q64 0 119.5 15t99.5 45.5t74 77.5t42 111q12 62 -0.5 115t-47.5 92t-91 61t-131 22h-67l30 136h29q79 0 141 16t113 52q30 21 52.5 49t38.5 59.5t24 64.5t8 64q0 50 -20.5 90.5t-55 69t-80 44t-95.5 15.5q-65 0 -123 -17.5t-105.5 -56.5
t-83 -100.5t-53.5 -149.5l-211 -995h-151z" />
    <glyph glyph-name="agrave" unicode="&#xe0;" horiz-adv-x="1213" 
d="M626 966q63 0 115.5 -14t95 -39.5t73.5 -61t51 -77.5l37 173h149l-202 -947h-148l26 121q-60 -63 -141.5 -101.5t-189.5 -38.5q-88 0 -163 32t-129.5 88.5t-85 133.5t-30.5 168q0 75 19 146t53.5 133.5t83 114.5t109 89.5t130.5 58.5t147 21zM526 122q72 0 136.5 26
t115 72.5t83.5 110t44 137.5q11 75 -4.5 140.5t-53 113.5t-95 75.5t-130.5 27.5q-81 0 -151 -32t-121.5 -87.5t-81.5 -129.5t-30 -157q0 -63 19.5 -117.5t57 -94t90.5 -62.5t121 -23zM412 1392h189l210 -300h-148z" />
    <glyph glyph-name="aacute" unicode="&#xe1;" horiz-adv-x="1213" 
d="M626 966q63 0 115.5 -14t95 -39.5t73.5 -61t51 -77.5l37 173h149l-202 -947h-148l26 121q-60 -63 -141.5 -101.5t-189.5 -38.5q-88 0 -163 32t-129.5 88.5t-85 133.5t-30.5 168q0 75 19 146t53.5 133.5t83 114.5t109 89.5t130.5 58.5t147 21zM526 122q72 0 136.5 26
t115 72.5t83.5 110t44 137.5q11 75 -4.5 140.5t-53 113.5t-95 75.5t-130.5 27.5q-81 0 -151 -32t-121.5 -87.5t-81.5 -129.5t-30 -157q0 -63 19.5 -117.5t57 -94t90.5 -62.5t121 -23zM550 1092l241 300h194l-282 -300h-153z" />
    <glyph glyph-name="acircumflex" unicode="&#xe2;" horiz-adv-x="1213" 
d="M626 966q63 0 115.5 -14t95 -39.5t73.5 -61t51 -77.5l37 173h149l-202 -947h-148l26 121q-60 -63 -141.5 -101.5t-189.5 -38.5q-88 0 -163 32t-129.5 88.5t-85 133.5t-30.5 168q0 75 19 146t53.5 133.5t83 114.5t109 89.5t130.5 58.5t147 21zM526 122q72 0 136.5 26
t115 72.5t83.5 110t44 137.5q11 75 -4.5 140.5t-53 113.5t-95 75.5t-130.5 27.5q-81 0 -151 -32t-121.5 -87.5t-81.5 -129.5t-30 -157q0 -63 19.5 -117.5t57 -94t90.5 -62.5t121 -23zM852 1093l-130 197l-209 -197h-168l288 288h200l176 -288h-157z" />
    <glyph glyph-name="atilde" unicode="&#xe3;" horiz-adv-x="1213" 
d="M626 966q63 0 115.5 -14t95 -39.5t73.5 -61t51 -77.5l37 173h149l-202 -947h-148l26 121q-60 -63 -141.5 -101.5t-189.5 -38.5q-88 0 -163 32t-129.5 88.5t-85 133.5t-30.5 168q0 75 19 146t53.5 133.5t83 114.5t109 89.5t130.5 58.5t147 21zM526 122q72 0 136.5 26
t115 72.5t83.5 110t44 137.5q11 75 -4.5 140.5t-53 113.5t-95 75.5t-130.5 27.5q-81 0 -151 -32t-121.5 -87.5t-81.5 -129.5t-30 -157q0 -63 19.5 -117.5t57 -94t90.5 -62.5t121 -23zM342 1237q52 56 105 82t122 26q52 0 87.5 -12.5t63 -27t51.5 -27t54 -12.5q40 0 73 17.5
t68 50.5l85 -89q-53 -56 -105.5 -82t-121.5 -26q-51 0 -86 12.5t-62.5 27.5t-52.5 27.5t-56 12.5q-39 0 -72 -18t-68 -51z" />
    <glyph glyph-name="adieresis" unicode="&#xe4;" horiz-adv-x="1213" 
d="M626 966q63 0 115.5 -14t95 -39.5t73.5 -61t51 -77.5l37 173h149l-202 -947h-148l26 121q-60 -63 -141.5 -101.5t-189.5 -38.5q-88 0 -163 32t-129.5 88.5t-85 133.5t-30.5 168q0 75 19 146t53.5 133.5t83 114.5t109 89.5t130.5 58.5t147 21zM526 122q72 0 136.5 26
t115 72.5t83.5 110t44 137.5q11 75 -4.5 140.5t-53 113.5t-95 75.5t-130.5 27.5q-81 0 -151 -32t-121.5 -87.5t-81.5 -129.5t-30 -157q0 -63 19.5 -117.5t57 -94t90.5 -62.5t121 -23zM511 1343q22 0 41.5 -8.5t33.5 -22.5t22.5 -34t8.5 -42q0 -23 -8.5 -42t-22.5 -33
t-33.5 -22t-41.5 -8q-45 0 -75.5 30t-30.5 75q0 22 8 42t22.5 34t33.5 22.5t42 8.5zM917 1343q22 0 41.5 -8.5t33.5 -22.5t22.5 -34t8.5 -42q0 -23 -8.5 -42t-22.5 -33t-33.5 -22t-41.5 -8q-45 0 -75 30t-30 75q0 22 8 42t22 34t33 22.5t42 8.5z" />
    <glyph glyph-name="aring" unicode="&#xe5;" horiz-adv-x="1213" 
d="M626 966q63 0 115.5 -14t95 -39.5t73.5 -61t51 -77.5l37 173h149l-202 -947h-148l26 121q-60 -63 -141.5 -101.5t-189.5 -38.5q-88 0 -163 32t-129.5 88.5t-85 133.5t-30.5 168q0 75 19 146t53.5 133.5t83 114.5t109 89.5t130.5 58.5t147 21zM526 122q72 0 136.5 26
t115 72.5t83.5 110t44 137.5q11 75 -4.5 140.5t-53 113.5t-95 75.5t-130.5 27.5q-81 0 -151 -32t-121.5 -87.5t-81.5 -129.5t-30 -157q0 -63 19.5 -117.5t57 -94t90.5 -62.5t121 -23zM690 1072q-47 0 -88 17.5t-72 48.5t-49 71.5t-18 87.5q0 46 18 87t49 71.5t72 48t88 17.5
t88.5 -17.5t72.5 -48t49 -71.5t18 -87q0 -47 -18 -87.5t-49 -71.5t-72.5 -48.5t-88.5 -17.5zM690 1167q26 0 49.5 10t41 27.5t27.5 41.5t10 51t-10 50.5t-27.5 41t-41 27.5t-49.5 10t-49.5 -10t-40.5 -27.5t-27 -41t-10 -50.5t10 -51t27 -41.5t40.5 -27.5t49.5 -10z" />
    <glyph glyph-name="ae" unicode="&#xe6;" horiz-adv-x="1767" 
d="M1582 116q-42 -35 -84.5 -60.5t-89 -42.5t-98 -25t-110.5 -8q-135 0 -230 52t-146 141q-86 -91 -192.5 -141.5t-233.5 -50.5q-72 0 -132.5 18.5t-104 53t-68 82t-24.5 106.5q0 63 25 118.5t75 96.5t125.5 65t176.5 24h319l1 5q9 42 9 78q0 99 -63.5 151t-183.5 52
q-86 0 -153.5 -25.5t-122.5 -59.5l-55 117q81 51 167 77t189 26q128 0 211 -47.5t121 -138.5q67 84 167 135t229 51q87 0 159 -26.5t123.5 -75.5t79.5 -118.5t28 -155.5q0 -44 -8.5 -90t-20.5 -79h-747v-23q0 -65 20 -118t58 -90.5t93 -58t125 -20.5q91 0 160 28t132 80z
M1298 833q-75 0 -134 -24.5t-103 -65t-74 -93t-46 -108.5h603q3 22 3 44q0 58 -18 104t-50.5 77.5t-78.5 48.5t-102 17zM418 113q94 0 188.5 45t172.5 134q-10 46 -10 100v29h-288q-66 0 -113.5 -14t-77.5 -37t-44.5 -53t-14.5 -62q0 -68 50 -105t137 -37z" />
    <glyph glyph-name="ccedilla" unicode="&#xe7;" horiz-adv-x="1011" 
d="M877 701q-30 38 -63.5 62t-68 38t-68 19t-64.5 5q-78 0 -146 -31t-118 -83.5t-78.5 -123.5t-28.5 -150q0 -69 23 -126.5t63 -99t94.5 -65t117.5 -23.5q75 0 141.5 27t120.5 79l86 -98q-69 -72 -160.5 -110t-193.5 -38q-101 0 -183 34t-140.5 94t-90.5 141t-32 175
q0 110 40 208t111.5 171.5t169 116t211.5 42.5q126 0 220 -46t154 -134zM432 -323h-168l179 329l154 -1z" />
    <glyph glyph-name="egrave" unicode="&#xe8;" horiz-adv-x="1079" 
d="M895 116q-42 -35 -85 -60.5t-89.5 -42.5t-98 -25t-110.5 -8q-103 0 -183 31.5t-135 86.5t-84 130.5t-29 163.5q0 65 15.5 133t46 132t75.5 120t104.5 98t133.5 66.5t162 24.5q87 0 159 -26.5t123.5 -75.5t79.5 -118.5t28 -155.5q0 -44 -8.5 -90t-20.5 -79h-746v-23
q0 -65 20 -118t57.5 -90.5t92.5 -58t125 -20.5q91 0 160 28t132 80zM610 833q-75 0 -134 -24.5t-103 -65t-73.5 -93t-45.5 -108.5h603q3 22 3 44q0 58 -18 104t-51 77.5t-79 48.5t-102 17zM378 1392h189l210 -300h-148z" />
    <glyph glyph-name="eacute" unicode="&#xe9;" horiz-adv-x="1079" 
d="M895 116q-42 -35 -85 -60.5t-89.5 -42.5t-98 -25t-110.5 -8q-103 0 -183 31.5t-135 86.5t-84 130.5t-29 163.5q0 65 15.5 133t46 132t75.5 120t104.5 98t133.5 66.5t162 24.5q87 0 159 -26.5t123.5 -75.5t79.5 -118.5t28 -155.5q0 -44 -8.5 -90t-20.5 -79h-746v-23
q0 -65 20 -118t57.5 -90.5t92.5 -58t125 -20.5q91 0 160 28t132 80zM610 833q-75 0 -134 -24.5t-103 -65t-73.5 -93t-45.5 -108.5h603q3 22 3 44q0 58 -18 104t-51 77.5t-79 48.5t-102 17zM516 1092l241 300h194l-282 -300h-153z" />
    <glyph glyph-name="ecircumflex" unicode="&#xea;" horiz-adv-x="1079" 
d="M895 116q-42 -35 -85 -60.5t-89.5 -42.5t-98 -25t-110.5 -8q-103 0 -183 31.5t-135 86.5t-84 130.5t-29 163.5q0 65 15.5 133t46 132t75.5 120t104.5 98t133.5 66.5t162 24.5q87 0 159 -26.5t123.5 -75.5t79.5 -118.5t28 -155.5q0 -44 -8.5 -90t-20.5 -79h-746v-23
q0 -65 20 -118t57.5 -90.5t92.5 -58t125 -20.5q91 0 160 28t132 80zM610 833q-75 0 -134 -24.5t-103 -65t-73.5 -93t-45.5 -108.5h603q3 22 3 44q0 58 -18 104t-51 77.5t-79 48.5t-102 17zM818 1093l-130 197l-209 -197h-168l288 288h200l176 -288h-157z" />
    <glyph glyph-name="edieresis" unicode="&#xeb;" horiz-adv-x="1079" 
d="M895 116q-42 -35 -85 -60.5t-89.5 -42.5t-98 -25t-110.5 -8q-103 0 -183 31.5t-135 86.5t-84 130.5t-29 163.5q0 65 15.5 133t46 132t75.5 120t104.5 98t133.5 66.5t162 24.5q87 0 159 -26.5t123.5 -75.5t79.5 -118.5t28 -155.5q0 -44 -8.5 -90t-20.5 -79h-746v-23
q0 -65 20 -118t57.5 -90.5t92.5 -58t125 -20.5q91 0 160 28t132 80zM610 833q-75 0 -134 -24.5t-103 -65t-73.5 -93t-45.5 -108.5h603q3 22 3 44q0 58 -18 104t-51 77.5t-79 48.5t-102 17zM477 1343q22 0 41.5 -8.5t33.5 -22.5t22.5 -34t8.5 -42q0 -23 -8.5 -42t-22.5 -33
t-33.5 -22t-41.5 -8q-45 0 -75.5 30t-30.5 75q0 22 8 42t22.5 34t33.5 22.5t42 8.5zM883 1343q22 0 41.5 -8.5t33.5 -22.5t22.5 -34t8.5 -42q0 -23 -8.5 -42t-22.5 -33t-33.5 -22t-41.5 -8q-45 0 -75 30t-30 75q0 22 8 42t22 34t33 22.5t42 8.5z" />
    <glyph glyph-name="igrave" unicode="&#xec;" horiz-adv-x="484" 
d="M216 0h-151l202 947h151zM101 1392h189l210 -300h-148z" />
    <glyph glyph-name="iacute" unicode="&#xed;" horiz-adv-x="484" 
d="M216 0h-151l202 947h151zM239 1092l241 300h194l-282 -300h-153z" />
    <glyph glyph-name="icircumflex" unicode="&#xee;" horiz-adv-x="484" 
d="M216 0h-151l202 947h151zM541 1093l-130 197l-209 -197h-168l288 288h200l176 -288h-157z" />
    <glyph glyph-name="idieresis" unicode="&#xef;" horiz-adv-x="484" 
d="M216 0h-151l202 947h151zM200 1343q22 0 41.5 -8.5t33.5 -22.5t22.5 -34t8.5 -42q0 -23 -8.5 -42t-22.5 -33t-33.5 -22t-41.5 -8q-45 0 -75.5 30t-30.5 75q0 22 8 42t22.5 34t33.5 22.5t42 8.5zM606 1343q22 0 41.5 -8.5t33.5 -22.5t22.5 -34t8.5 -42q0 -23 -8.5 -42
t-22.5 -33t-33.5 -22t-41.5 -8q-45 0 -75 30t-30 75q0 22 8 42t22 34t33 22.5t42 8.5z" />
    <glyph glyph-name="eth" unicode="&#xf0;" horiz-adv-x="1174" 
d="M1043 1321l-208 -114q130 -130 194 -287.5t64 -328.5q0 -35 -3 -69t-8 -69q-14 -103 -61 -189.5t-117.5 -149.5t-160 -98t-188.5 -35q-103 0 -189 33.5t-148.5 92.5t-97 139.5t-34.5 175.5q0 105 40 200t109.5 166.5t163 114t201.5 42.5q110 0 196 -42.5t141 -117.5
q-26 100 -83 189t-143 166l-239 -130l-51 96l195 107q-105 71 -236 122l68 117q88 -34 162.5 -76t137.5 -92l244 133zM613 804q-92 0 -161.5 -34.5t-116.5 -88.5t-70.5 -120.5t-23.5 -130.5q0 -67 24 -123.5t66.5 -98t102 -64.5t131.5 -23q92 0 161.5 34t116.5 88t71 120
t24 131q0 68 -24 125t-67 98t-102.5 64t-131.5 23z" />
    <glyph glyph-name="ntilde" unicode="&#xf1;" horiz-adv-x="1179" 
d="M704 966q81 0 144.5 -24t107.5 -67.5t67.5 -103t23.5 -131.5q0 -25 -2.5 -51t-8.5 -53l-115 -536h-150l114 535q5 21 7.5 41.5t2.5 40.5q0 45 -13.5 82.5t-41 65.5t-70.5 43.5t-101 15.5q-63 0 -118.5 -19.5t-100 -58.5t-77 -96.5t-48.5 -133.5l-110 -516h-150l202 947
h149l-25 -118q34 38 72 64t78 42.5t81.5 23.5t81.5 7zM373 1237q52 56 105 82t122 26q52 0 87.5 -12.5t63 -27t51.5 -27t54 -12.5q40 0 73 17.5t68 50.5l85 -89q-53 -56 -105.5 -82t-121.5 -26q-51 0 -86 12.5t-62.5 27.5t-52.5 27.5t-56 12.5q-39 0 -72 -18t-68 -51z" />
    <glyph glyph-name="ograve" unicode="&#xf2;" horiz-adv-x="1170" 
d="M626 966q102 0 186 -33.5t144 -93t93.5 -141t33.5 -177.5q0 -111 -41 -209t-113.5 -172t-171 -117t-213.5 -43q-101 0 -185 33.5t-144 93t-93.5 141t-33.5 178.5q0 110 41 208.5t113 172t170.5 116.5t213.5 43zM614 826q-80 0 -148 -31t-118 -84.5t-78.5 -124.5
t-28.5 -151q0 -69 23 -126.5t64.5 -99t98.5 -65t126 -23.5q81 0 150 31t119.5 84.5t79 124t28.5 150.5q0 69 -23 127t-65 99.5t-100 65t-128 23.5zM405 1392h189l210 -300h-148z" />
    <glyph glyph-name="oacute" unicode="&#xf3;" horiz-adv-x="1170" 
d="M626 966q102 0 186 -33.5t144 -93t93.5 -141t33.5 -177.5q0 -111 -41 -209t-113.5 -172t-171 -117t-213.5 -43q-101 0 -185 33.5t-144 93t-93.5 141t-33.5 178.5q0 110 41 208.5t113 172t170.5 116.5t213.5 43zM614 826q-80 0 -148 -31t-118 -84.5t-78.5 -124.5
t-28.5 -151q0 -69 23 -126.5t64.5 -99t98.5 -65t126 -23.5q81 0 150 31t119.5 84.5t79 124t28.5 150.5q0 69 -23 127t-65 99.5t-100 65t-128 23.5zM543 1092l241 300h194l-282 -300h-153z" />
    <glyph glyph-name="ocircumflex" unicode="&#xf4;" horiz-adv-x="1170" 
d="M626 966q102 0 186 -33.5t144 -93t93.5 -141t33.5 -177.5q0 -111 -41 -209t-113.5 -172t-171 -117t-213.5 -43q-101 0 -185 33.5t-144 93t-93.5 141t-33.5 178.5q0 110 41 208.5t113 172t170.5 116.5t213.5 43zM614 826q-80 0 -148 -31t-118 -84.5t-78.5 -124.5
t-28.5 -151q0 -69 23 -126.5t64.5 -99t98.5 -65t126 -23.5q81 0 150 31t119.5 84.5t79 124t28.5 150.5q0 69 -23 127t-65 99.5t-100 65t-128 23.5zM845 1093l-130 197l-209 -197h-168l288 288h200l176 -288h-157z" />
    <glyph glyph-name="otilde" unicode="&#xf5;" horiz-adv-x="1170" 
d="M626 966q102 0 186 -33.5t144 -93t93.5 -141t33.5 -177.5q0 -111 -41 -209t-113.5 -172t-171 -117t-213.5 -43q-101 0 -185 33.5t-144 93t-93.5 141t-33.5 178.5q0 110 41 208.5t113 172t170.5 116.5t213.5 43zM614 826q-80 0 -148 -31t-118 -84.5t-78.5 -124.5
t-28.5 -151q0 -69 23 -126.5t64.5 -99t98.5 -65t126 -23.5q81 0 150 31t119.5 84.5t79 124t28.5 150.5q0 69 -23 127t-65 99.5t-100 65t-128 23.5zM335 1237q52 56 105 82t122 26q52 0 87.5 -12.5t63 -27t51.5 -27t54 -12.5q40 0 73 17.5t68 50.5l85 -89q-53 -56 -105.5 -82
t-121.5 -26q-51 0 -86 12.5t-62.5 27.5t-52.5 27.5t-56 12.5q-39 0 -72 -18t-68 -51z" />
    <glyph glyph-name="odieresis" unicode="&#xf6;" horiz-adv-x="1170" 
d="M626 966q102 0 186 -33.5t144 -93t93.5 -141t33.5 -177.5q0 -111 -41 -209t-113.5 -172t-171 -117t-213.5 -43q-101 0 -185 33.5t-144 93t-93.5 141t-33.5 178.5q0 110 41 208.5t113 172t170.5 116.5t213.5 43zM614 826q-80 0 -148 -31t-118 -84.5t-78.5 -124.5
t-28.5 -151q0 -69 23 -126.5t64.5 -99t98.5 -65t126 -23.5q81 0 150 31t119.5 84.5t79 124t28.5 150.5q0 69 -23 127t-65 99.5t-100 65t-128 23.5zM504 1343q22 0 41.5 -8.5t33.5 -22.5t22.5 -34t8.5 -42q0 -23 -8.5 -42t-22.5 -33t-33.5 -22t-41.5 -8q-45 0 -75.5 30
t-30.5 75q0 22 8 42t22.5 34t33.5 22.5t42 8.5zM910 1343q22 0 41.5 -8.5t33.5 -22.5t22.5 -34t8.5 -42q0 -23 -8.5 -42t-22.5 -33t-33.5 -22t-41.5 -8q-45 0 -75 30t-30 75q0 22 8 42t22 34t33 22.5t42 8.5z" />
    <glyph glyph-name="divide" unicode="&#xf7;" horiz-adv-x="1200" 
d="M1032 461h-869l28 136h870zM672 953q21 0 40 -8t33 -22.5t22.5 -33.5t8.5 -40t-8.5 -39.5t-22.5 -33t-33 -23t-40 -8.5t-39.5 8.5t-33 23t-23 33t-8.5 39.5t8.5 40t23 33.5t33 22.5t39.5 8zM560 313q21 0 39.5 -8t32.5 -22.5t22.5 -33t8.5 -39.5t-8.5 -40t-22.5 -33.5
t-32.5 -23t-39.5 -8.5t-40 8.5t-33.5 23t-23 33.5t-8.5 40t8.5 39.5t23 33t33.5 22.5t40 8z" />
    <glyph glyph-name="oslash" unicode="&#xf8;" horiz-adv-x="1170" 
d="M626 966q92 0 169 -27.5t137 -77.5l134 120l82 -92l-135 -120q34 -53 52 -115.5t18 -132.5q0 -111 -41 -209t-113.5 -172t-171 -117t-213.5 -43q-91 0 -167.5 26.5t-135.5 75.5l-131 -117l-82 91l132 117q-35 54 -53.5 117.5t-18.5 135.5q0 110 41 208.5t113 172
t170.5 116.5t213.5 43zM614 826q-80 0 -148 -31t-118 -84.5t-78.5 -124.5t-28.5 -151q0 -88 37 -157l539 481q-41 32 -92 49.5t-111 17.5zM930 511q0 43 -9 81t-26 72l-539 -480q39 -30 89 -46.5t108 -16.5q81 0 150 31t119.5 84.5t79 124t28.5 150.5z" />
    <glyph glyph-name="ugrave" unicode="&#xf9;" horiz-adv-x="1166" 
d="M992 389q-23 -107 -70 -184t-112 -126.5t-145 -73.5t-167 -24q-78 0 -144.5 21.5t-116 63.5t-77.5 104t-28 142q0 49 12 108l113 527h151l-114 -534q-10 -44 -10 -85q0 -54 17.5 -93t48.5 -64.5t73.5 -37.5t92.5 -12q58 0 111.5 18t97 54.5t75 91.5t47.5 130l113 532h150
zM439 1392h189l210 -300h-148z" />
    <glyph glyph-name="uacute" unicode="&#xfa;" horiz-adv-x="1166" 
d="M992 389q-23 -107 -70 -184t-112 -126.5t-145 -73.5t-167 -24q-78 0 -144.5 21.5t-116 63.5t-77.5 104t-28 142q0 49 12 108l113 527h151l-114 -534q-10 -44 -10 -85q0 -54 17.5 -93t48.5 -64.5t73.5 -37.5t92.5 -12q58 0 111.5 18t97 54.5t75 91.5t47.5 130l113 532h150
zM577 1092l241 300h194l-282 -300h-153z" />
    <glyph glyph-name="ucircumflex" unicode="&#xfb;" horiz-adv-x="1166" 
d="M992 389q-23 -107 -70 -184t-112 -126.5t-145 -73.5t-167 -24q-78 0 -144.5 21.5t-116 63.5t-77.5 104t-28 142q0 49 12 108l113 527h151l-114 -534q-10 -44 -10 -85q0 -54 17.5 -93t48.5 -64.5t73.5 -37.5t92.5 -12q58 0 111.5 18t97 54.5t75 91.5t47.5 130l113 532h150
zM879 1093l-130 197l-209 -197h-168l288 288h200l176 -288h-157z" />
    <glyph glyph-name="udieresis" unicode="&#xfc;" horiz-adv-x="1166" 
d="M992 389q-23 -107 -70 -184t-112 -126.5t-145 -73.5t-167 -24q-78 0 -144.5 21.5t-116 63.5t-77.5 104t-28 142q0 49 12 108l113 527h151l-114 -534q-10 -44 -10 -85q0 -54 17.5 -93t48.5 -64.5t73.5 -37.5t92.5 -12q58 0 111.5 18t97 54.5t75 91.5t47.5 130l113 532h150
zM538 1343q22 0 41.5 -8.5t33.5 -22.5t22.5 -34t8.5 -42q0 -23 -8.5 -42t-22.5 -33t-33.5 -22t-41.5 -8q-45 0 -75.5 30t-30.5 75q0 22 8 42t22.5 34t33.5 22.5t42 8.5zM944 1343q22 0 41.5 -8.5t33.5 -22.5t22.5 -34t8.5 -42q0 -23 -8.5 -42t-22.5 -33t-33.5 -22t-41.5 -8
q-45 0 -75 30t-30 75q0 22 8 42t22 34t33 22.5t42 8.5z" />
    <glyph glyph-name="yacute" unicode="&#xfd;" horiz-adv-x="1037" 
d="M156 -404h-171l456 626l-322 725h158l259 -593l419 593h169zM492 1092l241 300h194l-282 -300h-153z" />
    <glyph glyph-name="thorn" unicode="&#xfe;" horiz-adv-x="1211" 
d="M587 -19q-63 0 -115.5 14t-95 39.5t-74 60.5t-50.5 78l-121 -573h-151l391 1840h151l-128 -595q59 55 136 88t177 33q91 0 168 -32t133.5 -88t88 -133.5t31.5 -168.5q0 -75 -19 -146t-53.5 -133.5t-83 -114.5t-108.5 -89.5t-130 -58.5t-147 -21zM687 825
q-73 0 -137.5 -26t-114.5 -72.5t-83.5 -110t-43.5 -137.5q-11 -75 4.5 -140.5t53 -113.5t95 -75.5t130.5 -27.5q81 0 151 32t121.5 87.5t81.5 129.5t30 157q0 63 -19.5 117.5t-57 94t-91 62.5t-120.5 23z" />
    <glyph glyph-name="ydieresis" unicode="&#xff;" horiz-adv-x="1037" 
d="M156 -404h-171l456 626l-322 725h158l259 -593l419 593h169zM453 1343q22 0 41.5 -8.5t33.5 -22.5t22.5 -34t8.5 -42q0 -23 -8.5 -42t-22.5 -33t-33.5 -22t-41.5 -8q-45 0 -75.5 30t-30.5 75q0 22 8 42t22.5 34t33.5 22.5t42 8.5zM859 1343q22 0 41.5 -8.5t33.5 -22.5
t22.5 -34t8.5 -42q0 -23 -8.5 -42t-22.5 -33t-33.5 -22t-41.5 -8q-45 0 -75 30t-30 75q0 22 8 42t22 34t33 22.5t42 8.5z" />
    <glyph glyph-name="Amacron" unicode="&#x100;" horiz-adv-x="1421" 
d="M1277 0h-165l-74 390h-683l-238 -390h-174l863 1400h199zM448 542h561l-132 699zM659 1711h598l-25 -121h-598z" />
    <glyph glyph-name="amacron" unicode="&#x101;" horiz-adv-x="1213" 
d="M626 966q63 0 115.5 -14t95 -39.5t73.5 -61t51 -77.5l37 173h149l-202 -947h-148l26 121q-60 -63 -141.5 -101.5t-189.5 -38.5q-88 0 -163 32t-129.5 88.5t-85 133.5t-30.5 168q0 75 19 146t53.5 133.5t83 114.5t109 89.5t130.5 58.5t147 21zM526 122q72 0 136.5 26
t115 72.5t83.5 110t44 137.5q11 75 -4.5 140.5t-53 113.5t-95 75.5t-130.5 27.5q-81 0 -151 -32t-121.5 -87.5t-81.5 -129.5t-30 -157q0 -63 19.5 -117.5t57 -94t90.5 -62.5t121 -23zM428 1296h598l-25 -121h-598z" />
    <glyph glyph-name="Abreve" unicode="&#x102;" horiz-adv-x="1421" 
d="M1277 0h-165l-74 390h-683l-238 -390h-174l863 1400h199zM448 542h561l-132 699zM755 1818q8 -97 56.5 -144t126.5 -47q152 0 245 191l119 -37q-66 -138 -158 -209t-219 -71q-62 0 -113.5 18t-89.5 53t-61 87.5t-27 121.5z" />
    <glyph glyph-name="abreve" unicode="&#x103;" horiz-adv-x="1213" 
d="M626 966q63 0 115.5 -14t95 -39.5t73.5 -61t51 -77.5l37 173h149l-202 -947h-148l26 121q-60 -63 -141.5 -101.5t-189.5 -38.5q-88 0 -163 32t-129.5 88.5t-85 133.5t-30.5 168q0 75 19 146t53.5 133.5t83 114.5t109 89.5t130.5 58.5t147 21zM526 122q72 0 136.5 26
t115 72.5t83.5 110t44 137.5q11 75 -4.5 140.5t-53 113.5t-95 75.5t-130.5 27.5q-81 0 -151 -32t-121.5 -87.5t-81.5 -129.5t-30 -157q0 -63 19.5 -117.5t57 -94t90.5 -62.5t121 -23zM512 1403q8 -97 56.5 -144t126.5 -47q152 0 245 191l119 -37q-66 -138 -158 -209
t-219 -71q-62 0 -113.5 18t-89.5 53t-61 87.5t-27 121.5z" />
    <glyph glyph-name="Aogonek" unicode="&#x104;" horiz-adv-x="1421" 
d="M1277 0h-165l-74 390h-683l-238 -390h-174l863 1400h199zM448 542h561l-132 699zM1232 -335q-46 -42 -94 -60.5t-100 -18.5q-45 0 -82 11t-64 32t-42 51t-15 68q0 49 22.5 90t68 78.5t113.5 72t159 69.5l28 -58q-68 -30 -114.5 -58t-76 -55t-42.5 -53t-13 -51
q0 -32 22 -50.5t57 -18.5q29 0 55 12.5t50 35.5z" />
    <glyph glyph-name="aogonek" unicode="&#x105;" horiz-adv-x="1213" 
d="M626 966q63 0 115.5 -14t95 -39.5t73.5 -61t51 -77.5l37 173h149l-202 -947h-148l26 121q-60 -63 -141.5 -101.5t-189.5 -38.5q-88 0 -163 32t-129.5 88.5t-85 133.5t-30.5 168q0 75 19 146t53.5 133.5t83 114.5t109 89.5t130.5 58.5t147 21zM526 122q72 0 136.5 26
t115 72.5t83.5 110t44 137.5q11 75 -4.5 140.5t-53 113.5t-95 75.5t-130.5 27.5q-81 0 -151 -32t-121.5 -87.5t-81.5 -129.5t-30 -157q0 -63 19.5 -117.5t57 -94t90.5 -62.5t121 -23zM951 -335q-46 -42 -94 -60.5t-100 -18.5q-45 0 -82 11t-64 32t-42 51t-15 68
q0 49 22.5 90t68 78.5t113.5 72t159 69.5l28 -58q-68 -30 -114.5 -58t-76 -55t-42.5 -53t-13 -51q0 -32 22 -50.5t57 -18.5q29 0 55 12.5t50 35.5z" />
    <glyph glyph-name="Cacute" unicode="&#x106;" horiz-adv-x="1481" 
d="M1348 219q-100 -114 -234.5 -176.5t-290.5 -62.5q-143 0 -264 48.5t-209.5 135.5t-138.5 207.5t-50 265.5q0 111 27 212.5t76.5 188.5t119 157.5t155.5 120t186 76.5t210 27q55 0 128 -10t150 -40.5t150 -86t128 -145.5l-123 -98q-36 60 -86.5 103t-108.5 70.5t-121.5 40
t-126.5 12.5q-125 0 -234 -47.5t-189.5 -130.5t-126.5 -195t-46 -242q0 -114 38.5 -208.5t106 -162.5t159.5 -106t200 -38q121 0 227 50t182 137zM802 1507l241 300h194l-282 -300h-153z" />
    <glyph glyph-name="cacute" unicode="&#x107;" horiz-adv-x="1011" 
d="M877 701q-30 38 -63.5 62t-68 38t-68 19t-64.5 5q-78 0 -146 -31t-118 -83.5t-78.5 -123.5t-28.5 -150q0 -69 23 -126.5t63 -99t94.5 -65t117.5 -23.5q75 0 141.5 27t120.5 79l86 -98q-69 -72 -160.5 -110t-193.5 -38q-101 0 -183 34t-140.5 94t-90.5 141t-32 175
q0 110 40 208t111.5 171.5t169 116t211.5 42.5q126 0 220 -46t154 -134zM511 1092l241 300h194l-282 -300h-153z" />
    <glyph glyph-name="Ccircumflex" unicode="&#x108;" horiz-adv-x="1481" 
d="M1348 219q-100 -114 -234.5 -176.5t-290.5 -62.5q-143 0 -264 48.5t-209.5 135.5t-138.5 207.5t-50 265.5q0 111 27 212.5t76.5 188.5t119 157.5t155.5 120t186 76.5t210 27q55 0 128 -10t150 -40.5t150 -86t128 -145.5l-123 -98q-36 60 -86.5 103t-108.5 70.5t-121.5 40
t-126.5 12.5q-125 0 -234 -47.5t-189.5 -130.5t-126.5 -195t-46 -242q0 -114 38.5 -208.5t106 -162.5t159.5 -106t200 -38q121 0 227 50t182 137zM1113 1508l-130 197l-209 -197h-168l288 288h200l176 -288h-157z" />
    <glyph glyph-name="ccircumflex" unicode="&#x109;" horiz-adv-x="1011" 
d="M877 701q-30 38 -63.5 62t-68 38t-68 19t-64.5 5q-78 0 -146 -31t-118 -83.5t-78.5 -123.5t-28.5 -150q0 -69 23 -126.5t63 -99t94.5 -65t117.5 -23.5q75 0 141.5 27t120.5 79l86 -98q-69 -72 -160.5 -110t-193.5 -38q-101 0 -183 34t-140.5 94t-90.5 141t-32 175
q0 110 40 208t111.5 171.5t169 116t211.5 42.5q126 0 220 -46t154 -134zM813 1093l-130 197l-209 -197h-168l288 288h200l176 -288h-157z" />
    <glyph glyph-name="Cdotaccent" unicode="&#x10a;" horiz-adv-x="1481" 
d="M1348 219q-100 -114 -234.5 -176.5t-290.5 -62.5q-143 0 -264 48.5t-209.5 135.5t-138.5 207.5t-50 265.5q0 111 27 212.5t76.5 188.5t119 157.5t155.5 120t186 76.5t210 27q55 0 128 -10t150 -40.5t150 -86t128 -145.5l-123 -98q-36 60 -86.5 103t-108.5 70.5t-121.5 40
t-126.5 12.5q-125 0 -234 -47.5t-189.5 -130.5t-126.5 -195t-46 -242q0 -114 38.5 -208.5t106 -162.5t159.5 -106t200 -38q121 0 227 50t182 137zM976.306 1767.43q23.0996 0 44.0996 -8.39941q20.999 -8.40039 35.6992 -23.625t23.625 -35.6992t8.9248 -43.5742
q0 -24.1504 -8.9248 -44.0996q-8.9248 -19.9502 -23.625 -34.6504q-14.7002 -14.6992 -35.6992 -23.0996q-21 -8.39941 -44.0996 -8.39941t-43.0498 8.39941q-19.9492 8.40039 -35.1748 23.0996q-15.2246 14.7002 -23.624 34.6504q-8.40039 19.9492 -8.40039 44.0996
q0 23.0996 8.40039 43.5742q8.39941 20.4746 23.624 35.6992q15.2256 15.2246 35.1748 23.625q19.9502 8.39941 43.0498 8.39941z" />
    <glyph glyph-name="cdotaccent" unicode="&#x10b;" horiz-adv-x="1011" 
d="M877 701q-30 38 -63.5 62t-68 38t-68 19t-64.5 5q-78 0 -146 -31t-118 -83.5t-78.5 -123.5t-28.5 -150q0 -69 23 -126.5t63 -99t94.5 -65t117.5 -23.5q75 0 141.5 27t120.5 79l86 -98q-69 -72 -160.5 -110t-193.5 -38q-101 0 -183 34t-140.5 94t-90.5 141t-32 175
q0 110 40 208t111.5 171.5t169 116t211.5 42.5q126 0 220 -46t154 -134zM684 1389q22 0 42 -8t34 -22.5t22.5 -34t8.5 -41.5q0 -23 -8.5 -42t-22.5 -33t-34 -22t-42 -8t-41 8t-33.5 22t-22.5 33t-8 42q0 22 8 41.5t22.5 34t33.5 22.5t41 8z" />
    <glyph glyph-name="Ccaron" unicode="&#x10c;" horiz-adv-x="1481" 
d="M1348 219q-100 -114 -234.5 -176.5t-290.5 -62.5q-143 0 -264 48.5t-209.5 135.5t-138.5 207.5t-50 265.5q0 111 27 212.5t76.5 188.5t119 157.5t155.5 120t186 76.5t210 27q55 0 128 -10t150 -40.5t150 -86t128 -145.5l-123 -98q-36 60 -86.5 103t-108.5 70.5t-121.5 40
t-126.5 12.5q-125 0 -234 -47.5t-189.5 -130.5t-126.5 -195t-46 -242q0 -114 38.5 -208.5t106 -162.5t159.5 -106t200 -38q121 0 227 50t182 137zM835 1794l129 -198l210 198h168l-288 -288h-200l-176 288h157z" />
    <glyph glyph-name="ccaron" unicode="&#x10d;" horiz-adv-x="1011" 
d="M877 701q-30 38 -63.5 62t-68 38t-68 19t-64.5 5q-78 0 -146 -31t-118 -83.5t-78.5 -123.5t-28.5 -150q0 -69 23 -126.5t63 -99t94.5 -65t117.5 -23.5q75 0 141.5 27t120.5 79l86 -98q-69 -72 -160.5 -110t-193.5 -38q-101 0 -183 34t-140.5 94t-90.5 141t-32 175
q0 110 40 208t111.5 171.5t169 116t211.5 42.5q126 0 220 -46t154 -134zM523 1379l129 -198l210 198h168l-288 -288h-200l-176 288h157z" />
    <glyph glyph-name="Dcaron" unicode="&#x10e;" horiz-adv-x="1553" 
d="M850 1400q153 0 273 -41.5t203.5 -118t127.5 -184.5t44 -241q0 -169 -58.5 -317.5t-171 -259t-277.5 -174.5t-378 -64h-521l298 1400h460zM521 1248l-233 -1096h343q169 0 299 50t218.5 137.5t134 205.5t45.5 255q0 100 -31 183t-92.5 141.5t-155 91t-217.5 32.5h-311z
M789 1794l129 -198l210 198h168l-288 -288h-200l-176 288h157z" />
    <glyph glyph-name="dcaron" unicode="&#x10f;" horiz-adv-x="1287" 
d="M625 966q63 0 115.5 -14t95 -39.5t73.5 -61t51 -77.5l142 666h150l-306 -1440h-149l26 121q-60 -63 -142 -101.5t-190 -38.5q-88 0 -162.5 32t-129 88.5t-85 133.5t-30.5 168q0 112 41.5 214.5t114 179.5t171.5 123t214 46zM526 122q72 0 136.5 26t115 72.5t83.5 110
t44 137.5q11 75 -4.5 140.5t-53 113.5t-95 75.5t-130.5 27.5q-81 0 -151 -32t-121.5 -87.5t-81.5 -129.5t-30 -157q0 -63 19.5 -117.5t57 -94t90.5 -62.5t121 -23zM1302 1051l89 389h166l-131 -389h-124z" />
    <glyph glyph-name="Dcroat" unicode="&#x110;" horiz-adv-x="1708" 
d="M1005 1400q153 0 273 -41.5t203.5 -118t127.5 -184.5t44 -241q0 -169 -58.5 -317.5t-171 -259t-277.5 -174.5t-378 -64h-521l134 629h-232l33 152h231l132 619h460zM932 629h-387l-102 -477h343q169 0 299 50t218.5 137.5t134 205.5t45.5 255q0 100 -31 183t-92.5 141.5
t-155 91t-217.5 32.5h-311l-99 -467h387z" />
    <glyph glyph-name="dcroat" unicode="&#x111;" horiz-adv-x="1213" 
d="M1355 1115h-172l-237 -1115h-149l26 121q-60 -63 -142 -101.5t-190 -38.5q-88 0 -162.5 32t-129 88.5t-85 133.5t-30.5 168q0 112 41.5 214.5t114 179.5t171.5 123t214 46q63 0 115.5 -14t95 -39.5t73.5 -61t51 -77.5l72 341h-383l27 136h385l41 189h150l-40 -189h171z
M526 122q72 0 136.5 26t115 72.5t83.5 110t44 137.5q11 75 -4.5 140.5t-53 113.5t-95 75.5t-130.5 27.5q-81 0 -151 -32t-121.5 -87.5t-81.5 -129.5t-30 -157q0 -63 19.5 -117.5t57 -94t90.5 -62.5t121 -23z" />
    <glyph glyph-name="Emacron" unicode="&#x112;" horiz-adv-x="1306" 
d="M1163 630h-773l-102 -479h805l-32 -151h-969l298 1400h956l-32 -151h-792l-100 -469h773zM620 1711h598l-25 -121h-598z" />
    <glyph glyph-name="emacron" unicode="&#x113;" horiz-adv-x="1079" 
d="M895 116q-42 -35 -85 -60.5t-89.5 -42.5t-98 -25t-110.5 -8q-103 0 -183 31.5t-135 86.5t-84 130.5t-29 163.5q0 65 15.5 133t46 132t75.5 120t104.5 98t133.5 66.5t162 24.5q87 0 159 -26.5t123.5 -75.5t79.5 -118.5t28 -155.5q0 -44 -8.5 -90t-20.5 -79h-746v-23
q0 -65 20 -118t57.5 -90.5t92.5 -58t125 -20.5q91 0 160 28t132 80zM610 833q-75 0 -134 -24.5t-103 -65t-73.5 -93t-45.5 -108.5h603q3 22 3 44q0 58 -18 104t-51 77.5t-79 48.5t-102 17zM394 1296h598l-25 -121h-598z" />
    <glyph glyph-name="Ebreve" unicode="&#x114;" horiz-adv-x="1306" 
d="M1163 630h-773l-102 -479h805l-32 -151h-969l298 1400h956l-32 -151h-792l-100 -469h773zM716 1818q8 -97 56.5 -144t126.5 -47q152 0 245 191l119 -37q-66 -138 -158 -209t-219 -71q-62 0 -113.5 18t-89.5 53t-61 87.5t-27 121.5z" />
    <glyph glyph-name="ebreve" unicode="&#x115;" horiz-adv-x="1079" 
d="M895 116q-42 -35 -85 -60.5t-89.5 -42.5t-98 -25t-110.5 -8q-103 0 -183 31.5t-135 86.5t-84 130.5t-29 163.5q0 65 15.5 133t46 132t75.5 120t104.5 98t133.5 66.5t162 24.5q87 0 159 -26.5t123.5 -75.5t79.5 -118.5t28 -155.5q0 -44 -8.5 -90t-20.5 -79h-746v-23
q0 -65 20 -118t57.5 -90.5t92.5 -58t125 -20.5q91 0 160 28t132 80zM610 833q-75 0 -134 -24.5t-103 -65t-73.5 -93t-45.5 -108.5h603q3 22 3 44q0 58 -18 104t-51 77.5t-79 48.5t-102 17zM478 1403q8 -97 56.5 -144t126.5 -47q152 0 245 191l119 -37q-66 -138 -158 -209
t-219 -71q-62 0 -113.5 18t-89.5 53t-61 87.5t-27 121.5z" />
    <glyph glyph-name="Edotaccent" unicode="&#x116;" horiz-adv-x="1306" 
d="M1163 630h-773l-102 -479h805l-32 -151h-969l298 1400h956l-32 -151h-792l-100 -469h773zM901.306 1767.43q23.0996 0 44.0996 -8.39941q20.999 -8.40039 35.6992 -23.625t23.625 -35.6992t8.9248 -43.5742q0 -24.1504 -8.9248 -44.0996
q-8.9248 -19.9502 -23.625 -34.6504q-14.7002 -14.6992 -35.6992 -23.0996q-21 -8.39941 -44.0996 -8.39941t-43.0498 8.39941q-19.9492 8.40039 -35.1748 23.0996q-15.2246 14.7002 -23.624 34.6504q-8.40039 19.9492 -8.40039 44.0996q0 23.0996 8.40039 43.5742
q8.39941 20.4746 23.624 35.6992q15.2256 15.2246 35.1748 23.625q19.9502 8.39941 43.0498 8.39941z" />
    <glyph glyph-name="edotaccent" unicode="&#x117;" horiz-adv-x="1079" 
d="M895 116q-42 -35 -85 -60.5t-89.5 -42.5t-98 -25t-110.5 -8q-103 0 -183 31.5t-135 86.5t-84 130.5t-29 163.5q0 65 15.5 133t46 132t75.5 120t104.5 98t133.5 66.5t162 24.5q87 0 159 -26.5t123.5 -75.5t79.5 -118.5t28 -155.5q0 -44 -8.5 -90t-20.5 -79h-746v-23
q0 -65 20 -118t57.5 -90.5t92.5 -58t125 -20.5q91 0 160 28t132 80zM610 833q-75 0 -134 -24.5t-103 -65t-73.5 -93t-45.5 -108.5h603q3 22 3 44q0 58 -18 104t-51 77.5t-79 48.5t-102 17zM689 1389q22 0 42 -8t34 -22.5t22.5 -34t8.5 -41.5q0 -23 -8.5 -42t-22.5 -33
t-34 -22t-42 -8t-41 8t-33.5 22t-22.5 33t-8 42q0 22 8 41.5t22.5 34t33.5 22.5t41 8z" />
    <glyph glyph-name="Eogonek" unicode="&#x118;" horiz-adv-x="1306" 
d="M1163 630h-773l-102 -479h805l-32 -151h-969l298 1400h956l-32 -151h-792l-100 -469h773zM940 11q-64 -26 -107 -51.5t-68.5 -52t-36.5 -52.5t-11 -51q0 -40 31 -65t86 -25q38 0 74.5 13t68.5 37l58 -104q-51 -37 -108 -55.5t-117 -18.5q-57 0 -102.5 14t-78 39.5
t-49.5 59.5t-17 75q0 46 18.5 86.5t61.5 77t113.5 69t174.5 62.5z" />
    <glyph glyph-name="eogonek" unicode="&#x119;" horiz-adv-x="1079" 
d="M895 116q-42 -35 -85 -60.5t-89.5 -42.5t-98 -25t-110.5 -8q-103 0 -183 31.5t-135 86.5t-84 130.5t-29 163.5q0 65 15.5 133t46 132t75.5 120t104.5 98t133.5 66.5t162 24.5q87 0 159 -26.5t123.5 -75.5t79.5 -118.5t28 -155.5q0 -44 -8.5 -90t-20.5 -79h-746v-23
q0 -65 20 -118t57.5 -90.5t92.5 -58t125 -20.5q91 0 160 28t132 80zM610 833q-75 0 -134 -24.5t-103 -65t-73.5 -93t-45.5 -108.5h603q3 22 3 44q0 58 -18 104t-51 77.5t-79 48.5t-102 17zM838 -337q-46 -38 -101.5 -58t-114.5 -20t-107 15.5t-82 42.5t-52.5 64.5
t-18.5 81.5q0 40 16.5 80t58.5 78t114 72.5t183 63.5l24 -55q-74 -27 -122 -54.5t-76 -54.5t-39 -54t-11 -53q0 -45 32 -72t89 -27q38 0 73 13t67 37z" />
    <glyph glyph-name="Ecaron" unicode="&#x11a;" horiz-adv-x="1306" 
d="M1163 630h-773l-102 -479h805l-32 -151h-969l298 1400h956l-32 -151h-792l-100 -469h773zM760 1794l129 -198l210 198h168l-288 -288h-200l-176 288h157z" />
    <glyph glyph-name="ecaron" unicode="&#x11b;" horiz-adv-x="1079" 
d="M895 116q-42 -35 -85 -60.5t-89.5 -42.5t-98 -25t-110.5 -8q-103 0 -183 31.5t-135 86.5t-84 130.5t-29 163.5q0 65 15.5 133t46 132t75.5 120t104.5 98t133.5 66.5t162 24.5q87 0 159 -26.5t123.5 -75.5t79.5 -118.5t28 -155.5q0 -44 -8.5 -90t-20.5 -79h-746v-23
q0 -65 20 -118t57.5 -90.5t92.5 -58t125 -20.5q91 0 160 28t132 80zM610 833q-75 0 -134 -24.5t-103 -65t-73.5 -93t-45.5 -108.5h603q3 22 3 44q0 58 -18 104t-51 77.5t-79 48.5t-102 17zM528 1379l129 -198l210 198h168l-288 -288h-200l-176 288h157z" />
    <glyph glyph-name="Gcircumflex" unicode="&#x11c;" horiz-adv-x="1612" 
d="M1330 1075q-39 50 -86.5 85.5t-100.5 58.5t-109 34t-111 11q-124 0 -232.5 -46.5t-189.5 -129.5t-127.5 -197.5t-46.5 -250.5q0 -114 37.5 -207t105 -159t161 -102t204.5 -36q105 0 193 31t155.5 90t112.5 143.5t65 191.5h-435l31 149h592q0 -10 -1 -26.5t-3 -34.5
q-19 -155 -79 -283t-154.5 -220.5t-219 -143.5t-272.5 -51q-142 0 -263 47.5t-209.5 132.5t-138.5 203.5t-50 259.5q0 114 27.5 216.5t77.5 190.5t120.5 159.5t157 122t186 77.5t208.5 27q49 0 114.5 -9t135.5 -34.5t139 -71t125 -119.5zM1107 1508l-130 197l-209 -197h-168
l288 288h200l176 -288h-157z" />
    <glyph glyph-name="gcircumflex" unicode="&#x11d;" horiz-adv-x="1211" 
d="M957 61q-24 -114 -72 -202t-115 -147t-150.5 -89.5t-178.5 -30.5q-128 0 -232.5 36.5t-187.5 106.5l85 114q66 -59 151.5 -91t185.5 -32q68 0 128 23.5t108 67t81.5 105.5t48.5 139l11 58q-58 -56 -134 -88.5t-170 -32.5q-97 0 -176 32t-135.5 87.5t-87.5 131t-31 163.5
q0 114 41.5 215t113.5 176.5t170 119t211 43.5q64 0 117 -14t95.5 -39.5t73.5 -61t51 -78.5l38 174h148zM525 138q77 0 144 27t117 76t81 116t37 148q5 69 -14 127.5t-56.5 101t-92 67t-121.5 24.5q-81 0 -150.5 -30t-120 -83.5t-79.5 -126.5t-29 -159q0 -63 20.5 -115.5
t58 -91t90 -60t115.5 -21.5zM845 1093l-130 197l-209 -197h-168l288 288h200l176 -288h-157z" />
    <glyph glyph-name="Gbreve" unicode="&#x11e;" horiz-adv-x="1612" 
d="M1330 1075q-39 50 -86.5 85.5t-100.5 58.5t-109 34t-111 11q-124 0 -232.5 -46.5t-189.5 -129.5t-127.5 -197.5t-46.5 -250.5q0 -114 37.5 -207t105 -159t161 -102t204.5 -36q105 0 193 31t155.5 90t112.5 143.5t65 191.5h-435l31 149h592q0 -10 -1 -26.5t-3 -34.5
q-19 -155 -79 -283t-154.5 -220.5t-219 -143.5t-272.5 -51q-142 0 -263 47.5t-209.5 132.5t-138.5 203.5t-50 259.5q0 114 27.5 216.5t77.5 190.5t120.5 159.5t157 122t186 77.5t208.5 27q49 0 114.5 -9t135.5 -34.5t139 -71t125 -119.5zM785 1818q8 -97 56.5 -144
t126.5 -47q152 0 245 191l119 -37q-66 -138 -158 -209t-219 -71q-62 0 -113.5 18t-89.5 53t-61 87.5t-27 121.5z" />
    <glyph glyph-name="gbreve" unicode="&#x11f;" horiz-adv-x="1211" 
d="M957 61q-24 -114 -72 -202t-115 -147t-150.5 -89.5t-178.5 -30.5q-128 0 -232.5 36.5t-187.5 106.5l85 114q66 -59 151.5 -91t185.5 -32q68 0 128 23.5t108 67t81.5 105.5t48.5 139l11 58q-58 -56 -134 -88.5t-170 -32.5q-97 0 -176 32t-135.5 87.5t-87.5 131t-31 163.5
q0 114 41.5 215t113.5 176.5t170 119t211 43.5q64 0 117 -14t95.5 -39.5t73.5 -61t51 -78.5l38 174h148zM525 138q77 0 144 27t117 76t81 116t37 148q5 69 -14 127.5t-56.5 101t-92 67t-121.5 24.5q-81 0 -150.5 -30t-120 -83.5t-79.5 -126.5t-29 -159q0 -63 20.5 -115.5
t58 -91t90 -60t115.5 -21.5zM505 1403q8 -97 56.5 -144t126.5 -47q152 0 245 191l119 -37q-66 -138 -158 -209t-219 -71q-62 0 -113.5 18t-89.5 53t-61 87.5t-27 121.5z" />
    <glyph glyph-name="Gdotaccent" unicode="&#x120;" horiz-adv-x="1612" 
d="M1330 1075q-39 50 -86.5 85.5t-100.5 58.5t-109 34t-111 11q-124 0 -232.5 -46.5t-189.5 -129.5t-127.5 -197.5t-46.5 -250.5q0 -114 37.5 -207t105 -159t161 -102t204.5 -36q105 0 193 31t155.5 90t112.5 143.5t65 191.5h-435l31 149h592q0 -10 -1 -26.5t-3 -34.5
q-19 -155 -79 -283t-154.5 -220.5t-219 -143.5t-272.5 -51q-142 0 -263 47.5t-209.5 132.5t-138.5 203.5t-50 259.5q0 114 27.5 216.5t77.5 190.5t120.5 159.5t157 122t186 77.5t208.5 27q49 0 114.5 -9t135.5 -34.5t139 -71t125 -119.5zM970.306 1767.43
q23.0996 0 44.0996 -8.39941q20.999 -8.40039 35.6992 -23.625t23.625 -35.6992t8.9248 -43.5742q0 -24.1504 -8.9248 -44.0996q-8.9248 -19.9502 -23.625 -34.6504q-14.7002 -14.6992 -35.6992 -23.0996q-21 -8.39941 -44.0996 -8.39941t-43.0498 8.39941
q-19.9492 8.40039 -35.1748 23.0996q-15.2246 14.7002 -23.624 34.6504q-8.40039 19.9492 -8.40039 44.0996q0 23.0996 8.40039 43.5742q8.39941 20.4746 23.624 35.6992q15.2256 15.2246 35.1748 23.625q19.9502 8.39941 43.0498 8.39941z" />
    <glyph glyph-name="gdotaccent" unicode="&#x121;" horiz-adv-x="1211" 
d="M957 61q-24 -114 -72 -202t-115 -147t-150.5 -89.5t-178.5 -30.5q-128 0 -232.5 36.5t-187.5 106.5l85 114q66 -59 151.5 -91t185.5 -32q68 0 128 23.5t108 67t81.5 105.5t48.5 139l11 58q-58 -56 -134 -88.5t-170 -32.5q-97 0 -176 32t-135.5 87.5t-87.5 131t-31 163.5
q0 114 41.5 215t113.5 176.5t170 119t211 43.5q64 0 117 -14t95.5 -39.5t73.5 -61t51 -78.5l38 174h148zM525 138q77 0 144 27t117 76t81 116t37 148q5 69 -14 127.5t-56.5 101t-92 67t-121.5 24.5q-81 0 -150.5 -30t-120 -83.5t-79.5 -126.5t-29 -159q0 -63 20.5 -115.5
t58 -91t90 -60t115.5 -21.5zM716 1389q22 0 42 -8t34 -22.5t22.5 -34t8.5 -41.5q0 -23 -8.5 -42t-22.5 -33t-34 -22t-42 -8t-41 8t-33.5 22t-22.5 33t-8 42q0 22 8 41.5t22.5 34t33.5 22.5t41 8z" />
    <glyph glyph-name="Gcommaaccent" unicode="&#x122;" horiz-adv-x="1612" 
d="M1330 1075q-39 50 -86.5 85.5t-100.5 58.5t-109 34t-111 11q-124 0 -232.5 -46.5t-189.5 -129.5t-127.5 -197.5t-46.5 -250.5q0 -114 37.5 -207t105 -159t161 -102t204.5 -36q105 0 193 31t155.5 90t112.5 143.5t65 191.5h-435l31 149h592q0 -10 -1 -26.5t-3 -34.5
q-19 -155 -79 -283t-154.5 -220.5t-219 -143.5t-272.5 -51q-142 0 -263 47.5t-209.5 132.5t-138.5 203.5t-50 259.5q0 114 27.5 216.5t77.5 190.5t120.5 159.5t157 122t186 77.5t208.5 27q49 0 114.5 -9t135.5 -34.5t139 -71t125 -119.5zM860 -88l-141 -350h-142l116 350
h167z" />
    <glyph glyph-name="gcommaaccent" unicode="&#x123;" horiz-adv-x="1211" 
d="M957 61q-24 -114 -72 -202t-115 -147t-150.5 -89.5t-178.5 -30.5q-128 0 -232.5 36.5t-187.5 106.5l85 114q66 -59 151.5 -91t185.5 -32q68 0 128 23.5t108 67t81.5 105.5t48.5 139l11 58q-58 -56 -134 -88.5t-170 -32.5q-97 0 -176 32t-135.5 87.5t-87.5 131t-31 163.5
q0 114 41.5 215t113.5 176.5t170 119t211 43.5q64 0 117 -14t95.5 -39.5t73.5 -61t51 -78.5l38 174h148zM525 138q77 0 144 27t117 76t81 116t37 148q5 69 -14 127.5t-56.5 101t-92 67t-121.5 24.5q-81 0 -150.5 -30t-120 -83.5t-79.5 -126.5t-29 -159q0 -63 20.5 -115.5
t58 -91t90 -60t115.5 -21.5zM594 1092l141 351h141l-116 -351h-166z" />
    <glyph glyph-name="Hcircumflex" unicode="&#x124;" horiz-adv-x="1546" 
d="M422 781h833l132 619h164l-299 -1400h-164l134 629h-832l-134 -629h-164l298 1400h164zM1145 1508l-130 197l-209 -197h-168l288 288h200l176 -288h-157z" />
    <glyph glyph-name="hcircumflex" unicode="&#x125;" horiz-adv-x="1179" 
d="M704 966q81 0 144.5 -24t107.5 -67.5t67.5 -103t23.5 -131.5q0 -25 -2.5 -51t-8.5 -53l-115 -536h-150l114 535q5 21 7.5 41.5t2.5 40.5q0 45 -13.5 82.5t-41 65.5t-70 43.5t-100.5 15.5q-63 0 -118.5 -19.5t-100 -58.5t-77 -96.5t-48.5 -133.5l-110 -516h-151l307 1440
h149l-129 -609q68 75 150 105t162 30zM967 1546l-130 197l-209 -197h-168l288 288h200l176 -288h-157z" />
    <glyph glyph-name="Hbar" unicode="&#x126;" horiz-adv-x="1589" 
d="M1645 1010h-155l-215 -1010h-164l134 629h-832l-134 -629h-164l215 1010h-157l28 136h158l54 254h164l-54 -254h833l54 254h164l-55 -254h153zM1278 781l49 229h-833l-49 -229h833z" />
    <glyph glyph-name="hbar" unicode="&#x127;" horiz-adv-x="1179" 
d="M846 1115h-394l-60 -284q68 75 150 105t162 30q81 0 144.5 -24t107.5 -67.5t67.5 -103t23.5 -131.5q0 -25 -2.5 -51t-8.5 -53l-115 -536h-150l114 535q5 21 7.5 41.5t2.5 40.5q0 45 -13.5 82.5t-41 65.5t-70 43.5t-100.5 15.5q-63 0 -118.5 -19.5t-100 -58.5t-77 -96.5
t-48.5 -133.5l-110 -516h-151l237 1115h-162l27 136h164l41 189h149l-40 -189h393z" />
    <glyph glyph-name="Itilde" unicode="&#x128;" horiz-adv-x="549" 
d="M256 0h-164l298 1400h164zM151 1652q52 56 105 82t122 26q52 0 87.5 -12.5t63 -27t51.5 -27t54 -12.5q40 0 73 17.5t68 50.5l85 -89q-53 -56 -105.5 -82t-121.5 -26q-51 0 -86 12.5t-62.5 27.5t-52.5 27.5t-56 12.5q-39 0 -72 -18t-68 -51z" />
    <glyph glyph-name="itilde" unicode="&#x129;" horiz-adv-x="484" 
d="M216 0h-151l202 947h151zM31 1237q52 56 105 82t122 26q52 0 87.5 -12.5t63 -27t51.5 -27t54 -12.5q40 0 73 17.5t68 50.5l85 -89q-53 -56 -105.5 -82t-121.5 -26q-51 0 -86 12.5t-62.5 27.5t-52.5 27.5t-56 12.5q-39 0 -72 -18t-68 -51z" />
    <glyph glyph-name="Imacron" unicode="&#x12a;" horiz-adv-x="549" 
d="M256 0h-164l298 1400h164zM225 1711h598l-25 -121h-598z" />
    <glyph glyph-name="imacron" unicode="&#x12b;" horiz-adv-x="484" 
d="M216 0h-151l202 947h151zM117 1296h598l-25 -121h-598z" />
    <glyph glyph-name="Ibreve" unicode="&#x12c;" horiz-adv-x="549" 
d="M256 0h-164l298 1400h164zM321 1818q8 -97 56.5 -144t126.5 -47q152 0 245 191l119 -37q-66 -138 -158 -209t-219 -71q-62 0 -113.5 18t-89.5 53t-61 87.5t-27 121.5z" />
    <glyph glyph-name="ibreve" unicode="&#x12d;" horiz-adv-x="484" 
d="M216 0h-151l202 947h151zM201 1403q8 -97 56.5 -144t126.5 -47q152 0 245 191l119 -37q-66 -138 -158 -209t-219 -71q-62 0 -113.5 18t-89.5 53t-61 87.5t-27 121.5z" />
    <glyph glyph-name="Iogonek" unicode="&#x12e;" horiz-adv-x="549" 
d="M256 0h-164l298 1400h164zM333 -342q-43 -38 -87.5 -54.5t-93.5 -16.5q-47 0 -86 12t-67.5 34t-44.5 53.5t-16 69.5q0 39 13 74.5t45 71.5t86.5 73.5t137.5 79.5l36 -55q-51 -34 -84.5 -64t-54 -56.5t-28.5 -50t-8 -44.5q0 -32 22.5 -51.5t61.5 -19.5q52 0 100 45z" />
    <glyph glyph-name="iogonek" unicode="&#x12f;" horiz-adv-x="484" 
d="M293 -342q-43 -38 -87.5 -54.5t-93.5 -16.5q-47 0 -86 12t-67.5 34t-44.5 53.5t-16 69.5q0 39 13 74.5t45 71.5t86.5 73.5t137.5 79.5l36 -55q-51 -34 -84.5 -64t-54 -56.5t-28.5 -50t-8 -44.5q0 -32 22.5 -51.5t61.5 -19.5q52 0 100 45zM216 0h-151l202 947h151z
M412 1389q22 0 42 -8t34 -22.5t22.5 -34t8.5 -41.5q0 -23 -8.5 -42t-22.5 -33t-34 -22t-42 -8t-41 8t-33.5 22t-22.5 33t-8 42q0 22 8 41.5t22.5 34t33.5 22.5t41 8z" />
    <glyph glyph-name="Idotaccent" unicode="&#x130;" horiz-adv-x="549" 
d="M256 0h-164l298 1400h164zM506.306 1767.43q23.0996 0 44.0996 -8.39941q20.999 -8.40039 35.6992 -23.625t23.625 -35.6992t8.9248 -43.5742q0 -24.1504 -8.9248 -44.0996q-8.9248 -19.9502 -23.625 -34.6504q-14.7002 -14.6992 -35.6992 -23.0996
q-21 -8.39941 -44.0996 -8.39941t-43.0498 8.39941q-19.9492 8.40039 -35.1748 23.0996q-15.2246 14.7002 -23.624 34.6504q-8.40039 19.9492 -8.40039 44.0996q0 23.0996 8.40039 43.5742q8.39941 20.4746 23.624 35.6992q15.2256 15.2246 35.1748 23.625
q19.9502 8.39941 43.0498 8.39941z" />
    <glyph glyph-name="dotlessi" unicode="&#x131;" horiz-adv-x="484" 
d="M216 0h-151l202 947h151z" />
    <glyph glyph-name="IJ" unicode="&#x132;" horiz-adv-x="1647" 
d="M256 0h-164l298 1400h164zM1464 469q-52 -251 -183 -369.5t-333 -118.5q-65 0 -125.5 14.5t-113 41.5t-96 65t-74.5 84l117 105q21 -32 52 -60t69 -49.5t83 -34t94 -12.5q136 0 225 89.5t129 281.5l186 894h163z" />
    <glyph glyph-name="ij" unicode="&#x133;" horiz-adv-x="975" 
d="M673 -162q-27 -128 -100.5 -190.5t-176.5 -62.5q-45 0 -85 11.5t-66 28.5l55 123q19 -11 41.5 -16.5t45.5 -5.5q51 0 88.5 32.5t51.5 98.5l231 1090h151zM903 1389q22 0 42 -8t34 -22.5t22.5 -34t8.5 -41.5q0 -23 -8.5 -42t-22.5 -33t-34 -22t-42 -8t-41 8t-33.5 22
t-22.5 33t-8 42q0 22 8 41.5t22.5 34t33.5 22.5t41 8zM216 0h-151l202 947h151zM412 1389q22 0 42 -8t34 -22.5t22.5 -34t8.5 -41.5q0 -23 -8.5 -42t-22.5 -33t-34 -22t-42 -8t-41 8t-33.5 22t-22.5 33t-8 42q0 22 8 41.5t22.5 34t33.5 22.5t41 8z" />
    <glyph glyph-name="Jcircumflex" unicode="&#x134;" horiz-adv-x="1098" 
d="M915 469q-52 -251 -183 -369.5t-333 -118.5q-65 0 -125.5 14.5t-113 41.5t-96 65t-74.5 84l117 105q21 -32 52 -60t69 -49.5t83 -34t94 -12.5q136 0 225 89.5t129 281.5l186 894h163zM1198 1508l-130 197l-209 -197h-168l288 288h200l176 -288h-157z" />
    <glyph glyph-name="jcircumflex" unicode="&#x135;" horiz-adv-x="491" 
d="M189 -162q-27 -128 -100.5 -190.5t-176.5 -62.5q-45 0 -85 11.5t-66 28.5l55 123q19 -11 41.5 -16.5t45.5 -5.5q51 0 88.5 32.5t51.5 98.5l231 1090h151zM548 1093l-130 197l-209 -197h-168l288 288h200l176 -288h-157z" />
    <glyph glyph-name="Kcommaaccent" unicode="&#x136;" horiz-adv-x="1351" 
d="M422 780h147l668 620h216l-762 -694l554 -706h-195l-490 628h-171l-133 -628h-164l298 1400h164zM716 -88l-141 -350h-142l116 350h167z" />
    <glyph glyph-name="kcommaaccent" unicode="&#x137;" horiz-adv-x="1028" 
d="M335 563h130l412 384h195l-504 -461l334 -486h-169l-286 427h-141l-90 -427h-151l306 1440h151zM538 -88l-141 -350h-142l116 350h167z" />
    <glyph glyph-name="kgreenlandic" unicode="&#x138;" horiz-adv-x="1028" 
d="M901 0h-168l-287 427h-139l-91 -427h-151l202 947h151l-82 -384h128l413 384h195l-504 -461z" />
    <glyph glyph-name="Lacute" unicode="&#x139;" horiz-adv-x="1184" 
d="M288 152h789l-33 -152h-952l298 1400h164zM332 1507l241 300h194l-282 -300h-153z" />
    <glyph glyph-name="lacute" unicode="&#x13a;" horiz-adv-x="483" 
d="M216 0h-151l306 1440h151zM298 1507l241 300h194l-282 -300h-153z" />
    <glyph glyph-name="Lcommaaccent" unicode="&#x13b;" horiz-adv-x="1184" 
d="M288 152h789l-33 -152h-952l298 1400h164zM670 -88l-141 -350h-142l116 350h167z" />
    <glyph glyph-name="lcommaaccent" unicode="&#x13c;" horiz-adv-x="483" 
d="M216 0h-151l306 1440h151zM216 -88l-141 -350h-142l116 350h167z" />
    <glyph glyph-name="Lcaron" unicode="&#x13d;" horiz-adv-x="1184" 
d="M288 152h789l-33 -152h-952l298 1400h164zM714 1012l89 389h166l-131 -389h-124z" />
    <glyph glyph-name="lcaron" unicode="&#x13e;" horiz-adv-x="557" 
d="M216 0h-151l306 1440h151zM572 1051l89 389h166l-131 -389h-124z" />
    <glyph glyph-name="Ldot" unicode="&#x13f;" horiz-adv-x="1184" 
d="M288 152h789l-33 -152h-952l298 1400h164zM885.306 818.433q23.0996 0 44.0996 -8.39941q20.999 -8.40039 35.6992 -23.625t23.625 -35.6992t8.9248 -43.5742q0 -24.1504 -8.9248 -44.0996q-8.9248 -19.9502 -23.625 -34.6504q-14.7002 -14.6992 -35.6992 -23.0996
q-21 -8.39941 -44.0996 -8.39941t-43.0498 8.39941q-19.9492 8.40039 -35.1748 23.0996q-15.2246 14.7002 -23.624 34.6504q-8.40039 19.9492 -8.40039 44.0996q0 23.0996 8.40039 43.5742q8.39941 20.4746 23.624 35.6992q15.2256 15.2246 35.1748 23.625
q19.9502 8.39941 43.0498 8.39941z" />
    <glyph glyph-name="ldot" unicode="&#x140;" horiz-adv-x="601" 
d="M216 0h-151l306 1440h151zM593 837q22 0 42 -8t34 -22.5t22.5 -34t8.5 -41.5q0 -23 -8.5 -42t-22.5 -33t-34 -22t-42 -8t-41 8t-33.5 22t-22.5 33t-8 42q0 22 8 41.5t22.5 34t33.5 22.5t41 8z" />
    <glyph glyph-name="Lslash" unicode="&#x141;" horiz-adv-x="1326" 
d="M564 782l518 259l-38 -179l-518 -259l-96 -451h789l-33 -152h-952l109 511l-245 -122l38 179l245 122l151 710h164z" />
    <glyph glyph-name="lslash" unicode="&#x142;" horiz-adv-x="652" 
d="M480 887l240 140l-35 -164l-240 -140l-153 -723h-151l132 622l-219 -128l35 164l219 128l139 654h151z" />
    <glyph glyph-name="Nacute" unicode="&#x143;" horiz-adv-x="1548" 
d="M1254 0h-149l-605 1147l-245 -1147h-163l298 1400h151l604 -1147l244 1147h164zM820 1507l241 300h194l-282 -300h-153z" />
    <glyph glyph-name="nacute" unicode="&#x144;" horiz-adv-x="1179" 
d="M704 966q81 0 144.5 -24t107.5 -67.5t67.5 -103t23.5 -131.5q0 -25 -2.5 -51t-8.5 -53l-115 -536h-150l114 535q5 21 7.5 41.5t2.5 40.5q0 45 -13.5 82.5t-41 65.5t-70.5 43.5t-101 15.5q-63 0 -118.5 -19.5t-100 -58.5t-77 -96.5t-48.5 -133.5l-110 -516h-150l202 947
h149l-25 -118q34 38 72 64t78 42.5t81.5 23.5t81.5 7zM581 1092l241 300h194l-282 -300h-153z" />
    <glyph glyph-name="Ncommaaccent" unicode="&#x145;" horiz-adv-x="1548" 
d="M1254 0h-149l-605 1147l-245 -1147h-163l298 1400h151l604 -1147l244 1147h164zM771 -88l-141 -350h-142l116 350h167z" />
    <glyph glyph-name="ncommaaccent" unicode="&#x146;" horiz-adv-x="1179" 
d="M704 966q81 0 144.5 -24t107.5 -67.5t67.5 -103t23.5 -131.5q0 -25 -2.5 -51t-8.5 -53l-115 -536h-150l114 535q5 21 7.5 41.5t2.5 40.5q0 45 -13.5 82.5t-41 65.5t-70.5 43.5t-101 15.5q-63 0 -118.5 -19.5t-100 -58.5t-77 -96.5t-48.5 -133.5l-110 -516h-150l202 947
h149l-25 -118q34 38 72 64t78 42.5t81.5 23.5t81.5 7zM568 -88l-141 -350h-142l116 350h167z" />
    <glyph glyph-name="Ncaron" unicode="&#x147;" horiz-adv-x="1548" 
d="M1254 0h-149l-605 1147l-245 -1147h-163l298 1400h151l604 -1147l244 1147h164zM853 1794l129 -198l210 198h168l-288 -288h-200l-176 288h157z" />
    <glyph glyph-name="ncaron" unicode="&#x148;" horiz-adv-x="1179" 
d="M704 966q81 0 144.5 -24t107.5 -67.5t67.5 -103t23.5 -131.5q0 -25 -2.5 -51t-8.5 -53l-115 -536h-150l114 535q5 21 7.5 41.5t2.5 40.5q0 45 -13.5 82.5t-41 65.5t-70.5 43.5t-101 15.5q-63 0 -118.5 -19.5t-100 -58.5t-77 -96.5t-48.5 -133.5l-110 -516h-150l202 947
h149l-25 -118q34 38 72 64t78 42.5t81.5 23.5t81.5 7zM593 1379l129 -198l210 198h168l-288 -288h-200l-176 288h157z" />
    <glyph glyph-name="napostrophe" unicode="&#x149;" horiz-adv-x="1454" 
d="M561 1440l-203 -507h-138l167 507h174zM979 966q81 0 144.5 -24t107.5 -67.5t67.5 -103t23.5 -131.5q0 -25 -2.5 -51t-8.5 -53l-115 -536h-150l114 535q5 21 7.5 41.5t2.5 40.5q0 45 -13.5 82.5t-41 65.5t-70.5 43.5t-101 15.5q-63 0 -118.5 -19.5t-100 -58.5t-77 -96.5
t-48.5 -133.5l-110 -516h-150l202 947h149l-25 -118q34 38 72 64t78 42.5t81.5 23.5t81.5 7z" />
    <glyph glyph-name="Eng" unicode="&#x14a;" horiz-adv-x="1548" 
d="M1241 -65q-17 -82 -49.5 -147t-80.5 -110t-113 -69t-147 -24q-83 0 -151.5 21t-113.5 56l76 133q35 -26 82 -40.5t108 -14.5q101 0 156.5 59t78.5 171l9 44l-596 1135l-245 -1149h-163l298 1402h151l604 -1151l244 1149h164z" />
    <glyph glyph-name="eng" unicode="&#x14b;" horiz-adv-x="1180" 
d="M704 966q81 0 144.5 -24t107.5 -67.5t67.5 -103t23.5 -131.5q0 -25 -2.5 -51t-8.5 -53l-131 -619q-27 -128 -101 -190.5t-176 -62.5q-45 0 -85 11.5t-67 28.5l55 123q20 -11 42.5 -17t45.5 -6q51 0 88 33t51 99l127 599q5 21 7.5 41.5t2.5 40.5q0 45 -13.5 82.5t-41 65.5
t-70.5 43.5t-101 15.5q-63 0 -118.5 -19.5t-100 -58.5t-77 -96.5t-48.5 -133.5l-110 -516h-150l202 947h149l-25 -118q34 38 72 64t78 42.5t81.5 23.5t81.5 7z" />
    <glyph glyph-name="Omacron" unicode="&#x14c;" horiz-adv-x="1663" 
d="M934 1419q141 0 263 -46t211.5 -130.5t141 -204t51.5 -266.5q0 -108 -26 -208.5t-74.5 -188.5t-117.5 -160.5t-155 -125t-187.5 -81t-214.5 -28.5q-141 0 -263 46t-212 130.5t-141 204t-51 267.5q0 107 26 207.5t74.5 188.5t117.5 160.5t155 125t187.5 81t214.5 28.5z
M921 1265q-132 0 -241 -51t-187.5 -137t-122 -199t-43.5 -238q0 -116 38.5 -209t107 -159t162.5 -101.5t204 -35.5q87 0 165.5 23t144.5 65t118.5 100t89.5 127t56.5 148t19.5 162q0 115 -39 208.5t-107.5 159.5t-162 101.5t-203.5 35.5zM709 1711h598l-25 -121h-598z" />
    <glyph glyph-name="omacron" unicode="&#x14d;" horiz-adv-x="1170" 
d="M626 966q102 0 186 -33.5t144 -93t93.5 -141t33.5 -177.5q0 -111 -41 -209t-113.5 -172t-171 -117t-213.5 -43q-101 0 -185 33.5t-144 93t-93.5 141t-33.5 178.5q0 110 41 208.5t113 172t170.5 116.5t213.5 43zM614 826q-80 0 -148 -31t-118 -84.5t-78.5 -124.5
t-28.5 -151q0 -69 23 -126.5t64.5 -99t98.5 -65t126 -23.5q81 0 150 31t119.5 84.5t79 124t28.5 150.5q0 69 -23 127t-65 99.5t-100 65t-128 23.5zM421 1296h598l-25 -121h-598z" />
    <glyph glyph-name="Obreve" unicode="&#x14e;" horiz-adv-x="1663" 
d="M934 1419q141 0 263 -46t211.5 -130.5t141 -204t51.5 -266.5q0 -108 -26 -208.5t-74.5 -188.5t-117.5 -160.5t-155 -125t-187.5 -81t-214.5 -28.5q-141 0 -263 46t-212 130.5t-141 204t-51 267.5q0 107 26 207.5t74.5 188.5t117.5 160.5t155 125t187.5 81t214.5 28.5z
M921 1265q-132 0 -241 -51t-187.5 -137t-122 -199t-43.5 -238q0 -116 38.5 -209t107 -159t162.5 -101.5t204 -35.5q87 0 165.5 23t144.5 65t118.5 100t89.5 127t56.5 148t19.5 162q0 115 -39 208.5t-107.5 159.5t-162 101.5t-203.5 35.5zM805 1818q8 -97 56.5 -144
t126.5 -47q152 0 245 191l119 -37q-66 -138 -158 -209t-219 -71q-62 0 -113.5 18t-89.5 53t-61 87.5t-27 121.5z" />
    <glyph glyph-name="obreve" unicode="&#x14f;" horiz-adv-x="1170" 
d="M626 966q102 0 186 -33.5t144 -93t93.5 -141t33.5 -177.5q0 -111 -41 -209t-113.5 -172t-171 -117t-213.5 -43q-101 0 -185 33.5t-144 93t-93.5 141t-33.5 178.5q0 110 41 208.5t113 172t170.5 116.5t213.5 43zM614 826q-80 0 -148 -31t-118 -84.5t-78.5 -124.5
t-28.5 -151q0 -69 23 -126.5t64.5 -99t98.5 -65t126 -23.5q81 0 150 31t119.5 84.5t79 124t28.5 150.5q0 69 -23 127t-65 99.5t-100 65t-128 23.5zM505 1403q8 -97 56.5 -144t126.5 -47q152 0 245 191l119 -37q-66 -138 -158 -209t-219 -71q-62 0 -113.5 18t-89.5 53
t-61 87.5t-27 121.5z" />
    <glyph glyph-name="Ohungarumlaut" unicode="&#x150;" horiz-adv-x="1663" 
d="M934 1419q141 0 263 -46t211.5 -130.5t141 -204t51.5 -266.5q0 -108 -26 -208.5t-74.5 -188.5t-117.5 -160.5t-155 -125t-187.5 -81t-214.5 -28.5q-141 0 -263 46t-212 130.5t-141 204t-51 267.5q0 107 26 207.5t74.5 188.5t117.5 160.5t155 125t187.5 81t214.5 28.5z
M921 1265q-132 0 -241 -51t-187.5 -137t-122 -199t-43.5 -238q0 -116 38.5 -209t107 -159t162.5 -101.5t204 -35.5q87 0 165.5 23t144.5 65t118.5 100t89.5 127t56.5 148t19.5 162q0 115 -39 208.5t-107.5 159.5t-162 101.5t-203.5 35.5zM1045 1507l248 300h179l-272 -300
h-155zM701 1507l233 300h174l-250 -300h-157z" />
    <glyph glyph-name="ohungarumlaut" unicode="&#x151;" horiz-adv-x="1170" 
d="M626 966q102 0 186 -33.5t144 -93t93.5 -141t33.5 -177.5q0 -111 -41 -209t-113.5 -172t-171 -117t-213.5 -43q-101 0 -185 33.5t-144 93t-93.5 141t-33.5 178.5q0 110 41 208.5t113 172t170.5 116.5t213.5 43zM614 826q-80 0 -148 -31t-118 -84.5t-78.5 -124.5
t-28.5 -151q0 -69 23 -126.5t64.5 -99t98.5 -65t126 -23.5q81 0 150 31t119.5 84.5t79 124t28.5 150.5q0 69 -23 127t-65 99.5t-100 65t-128 23.5zM748 1092l248 300h179l-272 -300h-155zM404 1092l233 300h174l-250 -300h-157z" />
    <glyph glyph-name="OE" unicode="&#x152;" horiz-adv-x="2186" 
d="M2043 630h-773l-102 -479h805l-32 -151h-1142q-152 0 -272.5 41.5t-204 118t-127.5 184.5t-44 241q0 169 58.5 317.5t171 259t278 174.5t378.5 64h1189l-32 -151h-792l-100 -469h773zM321 600q0 -101 31 -183.5t92.5 -141t154.5 -91t218 -32.5h187l233 1096h-218
q-169 0 -299.5 -50t-219 -137.5t-134 -206t-45.5 -254.5z" />
    <glyph glyph-name="oe" unicode="&#x153;" horiz-adv-x="1914" 
d="M1730 116q-83 -70 -174 -103t-208 -33q-140 0 -236 60t-142 159q-71 -100 -181 -159.5t-245 -59.5q-101 0 -185 33.5t-144 93t-93.5 141t-33.5 178.5q0 110 41 208.5t113 172t170.5 116.5t213.5 43q69 0 130 -17t112 -48t90.5 -75.5t65.5 -98.5q33 52 76 95.5t97 75.5
t118 50t138 18q88 0 160 -26.5t123 -75.5t79 -118.5t28 -155.5q0 -44 -8 -90t-21 -79h-746v-23q0 -65 20 -118t58 -90.5t93 -58t125 -20.5q90 0 159 28t132 80zM614 826q-80 0 -148 -31t-118 -84.5t-78.5 -124.5t-28.5 -151q0 -69 23 -126.5t64.5 -99t98.5 -65t126 -23.5
q81 0 150 31t119.5 84.5t79 124t28.5 150.5q0 69 -23 127t-65 99.5t-100 65t-128 23.5zM1446 833q-75 0 -134 -24.5t-103 -65t-74 -93t-46 -108.5h603q3 22 3 44q0 58 -18 104t-50.5 77.5t-78.5 48.5t-102 17z" />
    <glyph glyph-name="Racute" unicode="&#x154;" horiz-adv-x="1326" 
d="M891 1400q106 0 188 -26t137 -72t83.5 -109t28.5 -138q0 -80 -29 -159.5t-93.5 -143.5t-166.5 -103.5t-249 -39.5h-64l445 -609h-192l-431 609h-163l-129 -609h-164l298 1400h501zM521 1248l-105 -493h379q101 0 170.5 23t112.5 62t62 90.5t19 107.5q0 48 -18 86.5
t-54 66t-89 42.5t-123 15h-354zM680 1507l241 300h194l-282 -300h-153z" />
    <glyph glyph-name="racute" unicode="&#x155;" horiz-adv-x="804" 
d="M392 836q64 72 139.5 101t150.5 29q45 0 89.5 -10t79.5 -29l-57 -141q-28 18 -67 28t-79 10q-57 0 -108 -19t-93 -57.5t-73.5 -97t-48.5 -137.5l-110 -513h-150l202 947h149zM440 1092l241 300h194l-282 -300h-153z" />
    <glyph glyph-name="Rcommaaccent" unicode="&#x156;" horiz-adv-x="1326" 
d="M891 1400q106 0 188 -26t137 -72t83.5 -109t28.5 -138q0 -80 -29 -159.5t-93.5 -143.5t-166.5 -103.5t-249 -39.5h-64l445 -609h-192l-431 609h-163l-129 -609h-164l298 1400h501zM521 1248l-105 -493h379q101 0 170.5 23t112.5 62t62 90.5t19 107.5q0 48 -18 86.5
t-54 66t-89 42.5t-123 15h-354zM690 -88l-141 -350h-142l116 350h167z" />
    <glyph glyph-name="rcommaaccent" unicode="&#x157;" horiz-adv-x="804" 
d="M392 836q64 72 139.5 101t150.5 29q45 0 89.5 -10t79.5 -29l-57 -141q-28 18 -67 28t-79 10q-57 0 -108 -19t-93 -57.5t-73.5 -97t-48.5 -137.5l-110 -513h-150l202 947h149zM216 -88l-141 -350h-142l116 350h167z" />
    <glyph glyph-name="Rcaron" unicode="&#x158;" horiz-adv-x="1326" 
d="M891 1400q106 0 188 -26t137 -72t83.5 -109t28.5 -138q0 -80 -29 -159.5t-93.5 -143.5t-166.5 -103.5t-249 -39.5h-64l445 -609h-192l-431 609h-163l-129 -609h-164l298 1400h501zM521 1248l-105 -493h379q101 0 170.5 23t112.5 62t62 90.5t19 107.5q0 48 -18 86.5
t-54 66t-89 42.5t-123 15h-354zM713 1794l129 -198l210 198h168l-288 -288h-200l-176 288h157z" />
    <glyph glyph-name="rcaron" unicode="&#x159;" horiz-adv-x="804" 
d="M392 836q64 72 139.5 101t150.5 29q45 0 89.5 -10t79.5 -29l-57 -141q-28 18 -67 28t-79 10q-57 0 -108 -19t-93 -57.5t-73.5 -97t-48.5 -137.5l-110 -513h-150l202 947h149zM452 1379l129 -198l210 198h168l-288 -288h-200l-176 288h157z" />
    <glyph glyph-name="Sacute" unicode="&#x15a;" horiz-adv-x="1324" 
d="M1217 1126q-57 40 -115 67.5t-115 43.5t-112 23t-106 7q-96 0 -163.5 -23.5t-110.5 -61t-62.5 -84.5t-19.5 -94q0 -90 65 -142t198 -75l119 -21q85 -15 158 -42t127 -69.5t85 -102t31 -139.5q0 -92 -38.5 -171t-111 -137.5t-178 -91.5t-239.5 -33q-53 0 -122 9t-144 30.5
t-150 58t-139 91.5l96 130q51 -47 114 -79t126.5 -51.5t123 -27.5t102.5 -8q92 0 164.5 20t123 55.5t77.5 83t27 103.5q0 88 -71.5 140t-216.5 77l-122 21q-87 15 -156.5 44.5t-118 73.5t-74.5 102t-26 130q0 81 32 159t98 139.5t167 99.5t239 38q61 0 127.5 -8t134 -26.5
t135 -50t131.5 -78.5zM671 1507l241 300h194l-282 -300h-153z" />
    <glyph glyph-name="sacute" unicode="&#x15b;" horiz-adv-x="953" 
d="M844 746q-27 18 -63 34.5t-77.5 28.5t-86 19t-86.5 7q-99 0 -162.5 -35.5t-71.5 -100.5q-8 -68 36.5 -102t131.5 -47l85 -13q156 -24 225.5 -96t56.5 -180q-7 -63 -39 -114.5t-85 -88t-124.5 -56.5t-158.5 -20q-54 0 -110 9t-110 25.5t-103.5 40.5t-89.5 55l83 111
q60 -48 144.5 -79.5t183.5 -31.5q54 0 99.5 9.5t79 28t53.5 46t24 63.5q12 117 -170 144l-87 13q-80 12 -135.5 36.5t-90 60.5t-47.5 81t-7 97q8 66 39.5 117t82.5 86t119 53t149 18q122 0 222 -29t168 -76zM463 1092l241 300h194l-282 -300h-153z" />
    <glyph glyph-name="Scircumflex" unicode="&#x15c;" horiz-adv-x="1324" 
d="M1217 1126q-57 40 -115 67.5t-115 43.5t-112 23t-106 7q-96 0 -163.5 -23.5t-110.5 -61t-62.5 -84.5t-19.5 -94q0 -90 65 -142t198 -75l119 -21q85 -15 158 -42t127 -69.5t85 -102t31 -139.5q0 -92 -38.5 -171t-111 -137.5t-178 -91.5t-239.5 -33q-53 0 -122 9t-144 30.5
t-150 58t-139 91.5l96 130q51 -47 114 -79t126.5 -51.5t123 -27.5t102.5 -8q92 0 164.5 20t123 55.5t77.5 83t27 103.5q0 88 -71.5 140t-216.5 77l-122 21q-87 15 -156.5 44.5t-118 73.5t-74.5 102t-26 130q0 81 32 159t98 139.5t167 99.5t239 38q61 0 127.5 -8t134 -26.5
t135 -50t131.5 -78.5zM982 1508l-130 197l-209 -197h-168l288 288h200l176 -288h-157z" />
    <glyph glyph-name="scircumflex" unicode="&#x15d;" horiz-adv-x="953" 
d="M844 746q-27 18 -63 34.5t-77.5 28.5t-86 19t-86.5 7q-99 0 -162.5 -35.5t-71.5 -100.5q-8 -68 36.5 -102t131.5 -47l85 -13q156 -24 225.5 -96t56.5 -180q-7 -63 -39 -114.5t-85 -88t-124.5 -56.5t-158.5 -20q-54 0 -110 9t-110 25.5t-103.5 40.5t-89.5 55l83 111
q60 -48 144.5 -79.5t183.5 -31.5q54 0 99.5 9.5t79 28t53.5 46t24 63.5q12 117 -170 144l-87 13q-80 12 -135.5 36.5t-90 60.5t-47.5 81t-7 97q8 66 39.5 117t82.5 86t119 53t149 18q122 0 222 -29t168 -76zM765 1093l-130 197l-209 -197h-168l288 288h200l176 -288h-157z
" />
    <glyph glyph-name="Scedilla" unicode="&#x15e;" horiz-adv-x="1324" 
d="M1217 1126q-57 40 -115 67.5t-115 43.5t-112 23t-106 7q-96 0 -163.5 -23.5t-110.5 -61t-62.5 -84.5t-19.5 -94q0 -90 65 -142t198 -75l119 -21q85 -15 158 -42t127 -69.5t85 -102t31 -139.5q0 -92 -38.5 -171t-111 -137.5t-178 -91.5t-239.5 -33q-53 0 -122 9t-144 30.5
t-150 58t-139 91.5l96 130q51 -47 114 -79t126.5 -51.5t123 -27.5t102.5 -8q92 0 164.5 20t123 55.5t77.5 83t27 103.5q0 88 -71.5 140t-216.5 77l-122 21q-87 15 -156.5 44.5t-118 73.5t-74.5 102t-26 130q0 81 32 159t98 139.5t167 99.5t239 38q61 0 127.5 -8t134 -26.5
t135 -50t131.5 -78.5zM582 -323h-175l179 329l161 -1z" />
    <glyph glyph-name="scedilla" unicode="&#x15f;" horiz-adv-x="953" 
d="M844 746q-27 18 -63 34.5t-77.5 28.5t-86 19t-86.5 7q-99 0 -162.5 -35.5t-71.5 -100.5q-8 -68 36.5 -102t131.5 -47l85 -13q156 -24 225.5 -96t56.5 -180q-7 -63 -39 -114.5t-85 -88t-124.5 -56.5t-158.5 -20q-54 0 -110 9t-110 25.5t-103.5 40.5t-89.5 55l83 111
q60 -48 144.5 -79.5t183.5 -31.5q54 0 99.5 9.5t79 28t53.5 46t24 63.5q12 117 -170 144l-87 13q-80 12 -135.5 36.5t-90 60.5t-47.5 81t-7 97q8 66 39.5 117t82.5 86t119 53t149 18q122 0 222 -29t168 -76zM347 -323h-168l179 329l154 -1z" />
    <glyph glyph-name="Scaron" unicode="&#x160;" horiz-adv-x="1324" 
d="M1217 1126q-57 40 -115 67.5t-115 43.5t-112 23t-106 7q-96 0 -163.5 -23.5t-110.5 -61t-62.5 -84.5t-19.5 -94q0 -90 65 -142t198 -75l119 -21q85 -15 158 -42t127 -69.5t85 -102t31 -139.5q0 -92 -38.5 -171t-111 -137.5t-178 -91.5t-239.5 -33q-53 0 -122 9t-144 30.5
t-150 58t-139 91.5l96 130q51 -47 114 -79t126.5 -51.5t123 -27.5t102.5 -8q92 0 164.5 20t123 55.5t77.5 83t27 103.5q0 88 -71.5 140t-216.5 77l-122 21q-87 15 -156.5 44.5t-118 73.5t-74.5 102t-26 130q0 81 32 159t98 139.5t167 99.5t239 38q61 0 127.5 -8t134 -26.5
t135 -50t131.5 -78.5zM704 1794l129 -198l210 198h168l-288 -288h-200l-176 288h157z" />
    <glyph glyph-name="scaron" unicode="&#x161;" horiz-adv-x="953" 
d="M844 746q-27 18 -63 34.5t-77.5 28.5t-86 19t-86.5 7q-99 0 -162.5 -35.5t-71.5 -100.5q-8 -68 36.5 -102t131.5 -47l85 -13q156 -24 225.5 -96t56.5 -180q-7 -63 -39 -114.5t-85 -88t-124.5 -56.5t-158.5 -20q-54 0 -110 9t-110 25.5t-103.5 40.5t-89.5 55l83 111
q60 -48 144.5 -79.5t183.5 -31.5q54 0 99.5 9.5t79 28t53.5 46t24 63.5q12 117 -170 144l-87 13q-80 12 -135.5 36.5t-90 60.5t-47.5 81t-7 97q8 66 39.5 117t82.5 86t119 53t149 18q122 0 222 -29t168 -76zM475 1379l129 -198l210 198h168l-288 -288h-200l-176 288h157z
" />
    <glyph glyph-name="Tcommaaccent" unicode="&#x162;" horiz-adv-x="1187" 
d="M1313 1248h-469l-265 -1248h-164l265 1248h-477l33 152h1109zM413 -323h-175l179 329l161 -1z" />
    <glyph glyph-name="tcommaaccent" unicode="&#x163;" horiz-adv-x="890" 
d="M868 812h-393l-97 -461q-13 -60 -6.5 -103t27.5 -71.5t53.5 -42t73.5 -13.5q54 0 103 17.5t97 50.5l62 -115q-57 -42 -125 -67.5t-154 -25.5q-80 0 -141 24.5t-98.5 71.5t-49.5 117t8 161l97 457h-203l29 135h203l64 301h150l-64 -301h393zM386 -323h-168l179 329l154 -1
z" />
    <glyph glyph-name="Tcaron" unicode="&#x164;" horiz-adv-x="1187" 
d="M1313 1248h-469l-265 -1248h-164l265 1248h-477l33 152h1109zM688 1794l129 -198l210 198h168l-288 -288h-200l-176 288h157z" />
    <glyph glyph-name="tcaron" unicode="&#x165;" horiz-adv-x="890" 
d="M868 812h-393l-97 -461q-13 -60 -6.5 -103t27.5 -71.5t53.5 -42t73.5 -13.5q54 0 103 17.5t97 50.5l62 -115q-57 -42 -125 -67.5t-154 -25.5q-80 0 -141 24.5t-98.5 71.5t-49.5 117t8 161l97 457h-203l29 135h203l64 301h150l-64 -301h393zM647 1051l89 389h166
l-131 -389h-124z" />
    <glyph glyph-name="Tbar" unicode="&#x166;" horiz-adv-x="1187" 
d="M1034 629h-322l-133 -629h-164l133 629h-297l33 152h297l99 467h-477l33 152h1109l-32 -152h-469l-99 -467h321z" />
    <glyph glyph-name="tbar" unicode="&#x167;" horiz-adv-x="890" 
d="M868 812h-393l-47 -222h326l-28 -136h-327l-21 -103q-12 -60 -5.5 -103t27 -71.5t53 -42t73.5 -13.5q54 0 103 17.5t97 50.5l62 -115q-57 -42 -125 -67.5t-154 -25.5q-80 0 -141 24.5t-98.5 71.5t-49.5 117t8 161l21 99h-159l29 136h159l47 222h-203l29 135h203l64 301
h150l-64 -301h393z" />
    <glyph glyph-name="Utilde" unicode="&#x168;" horiz-adv-x="1471" 
d="M1312 540q-32 -149 -92 -255t-143.5 -173.5t-188.5 -99t-225 -31.5q-101 0 -190 25.5t-155.5 78.5t-105 134t-38.5 191q0 70 18 151l179 839h164l-179 -835q-8 -35 -11 -67.5t-3 -61.5q0 -80 25.5 -137t70.5 -93.5t107.5 -53.5t136.5 -17q84 0 159.5 24t136.5 74.5
t105.5 129.5t67.5 190l180 847h164zM612 1652q52 56 105 82t122 26q52 0 87.5 -12.5t63 -27t51.5 -27t54 -12.5q40 0 73 17.5t68 50.5l85 -89q-53 -56 -105.5 -82t-121.5 -26q-51 0 -86 12.5t-62.5 27.5t-52.5 27.5t-56 12.5q-39 0 -72 -18t-68 -51z" />
    <glyph glyph-name="utilde" unicode="&#x169;" horiz-adv-x="1166" 
d="M992 389q-23 -107 -70 -184t-112 -126.5t-145 -73.5t-167 -24q-78 0 -144.5 21.5t-116 63.5t-77.5 104t-28 142q0 49 12 108l113 527h151l-114 -534q-10 -44 -10 -85q0 -54 17.5 -93t48.5 -64.5t73.5 -37.5t92.5 -12q58 0 111.5 18t97 54.5t75 91.5t47.5 130l113 532h150
zM369 1237q52 56 105 82t122 26q52 0 87.5 -12.5t63 -27t51.5 -27t54 -12.5q40 0 73 17.5t68 50.5l85 -89q-53 -56 -105.5 -82t-121.5 -26q-51 0 -86 12.5t-62.5 27.5t-52.5 27.5t-56 12.5q-39 0 -72 -18t-68 -51z" />
    <glyph glyph-name="Umacron" unicode="&#x16a;" horiz-adv-x="1471" 
d="M1312 540q-32 -149 -92 -255t-143.5 -173.5t-188.5 -99t-225 -31.5q-101 0 -190 25.5t-155.5 78.5t-105 134t-38.5 191q0 70 18 151l179 839h164l-179 -835q-8 -35 -11 -67.5t-3 -61.5q0 -80 25.5 -137t70.5 -93.5t107.5 -53.5t136.5 -17q84 0 159.5 24t136.5 74.5
t105.5 129.5t67.5 190l180 847h164zM686 1711h598l-25 -121h-598z" />
    <glyph glyph-name="umacron" unicode="&#x16b;" horiz-adv-x="1166" 
d="M992 389q-23 -107 -70 -184t-112 -126.5t-145 -73.5t-167 -24q-78 0 -144.5 21.5t-116 63.5t-77.5 104t-28 142q0 49 12 108l113 527h151l-114 -534q-10 -44 -10 -85q0 -54 17.5 -93t48.5 -64.5t73.5 -37.5t92.5 -12q58 0 111.5 18t97 54.5t75 91.5t47.5 130l113 532h150
zM455 1296h598l-25 -121h-598z" />
    <glyph glyph-name="Ubreve" unicode="&#x16c;" horiz-adv-x="1471" 
d="M1312 540q-32 -149 -92 -255t-143.5 -173.5t-188.5 -99t-225 -31.5q-101 0 -190 25.5t-155.5 78.5t-105 134t-38.5 191q0 70 18 151l179 839h164l-179 -835q-8 -35 -11 -67.5t-3 -61.5q0 -80 25.5 -137t70.5 -93.5t107.5 -53.5t136.5 -17q84 0 159.5 24t136.5 74.5
t105.5 129.5t67.5 190l180 847h164zM782 1818q8 -97 56.5 -144t126.5 -47q152 0 245 191l119 -37q-66 -138 -158 -209t-219 -71q-62 0 -113.5 18t-89.5 53t-61 87.5t-27 121.5z" />
    <glyph glyph-name="ubreve" unicode="&#x16d;" horiz-adv-x="1166" 
d="M992 389q-23 -107 -70 -184t-112 -126.5t-145 -73.5t-167 -24q-78 0 -144.5 21.5t-116 63.5t-77.5 104t-28 142q0 49 12 108l113 527h151l-114 -534q-10 -44 -10 -85q0 -54 17.5 -93t48.5 -64.5t73.5 -37.5t92.5 -12q58 0 111.5 18t97 54.5t75 91.5t47.5 130l113 532h150
zM539 1403q8 -97 56.5 -144t126.5 -47q152 0 245 191l119 -37q-66 -138 -158 -209t-219 -71q-62 0 -113.5 18t-89.5 53t-61 87.5t-27 121.5z" />
    <glyph glyph-name="Uring" unicode="&#x16e;" horiz-adv-x="1471" 
d="M1312 540q-32 -149 -92 -255t-143.5 -173.5t-188.5 -99t-225 -31.5q-101 0 -190 25.5t-155.5 78.5t-105 134t-38.5 191q0 70 18 151l179 839h164l-179 -835q-8 -35 -11 -67.5t-3 -61.5q0 -80 25.5 -137t70.5 -93.5t107.5 -53.5t136.5 -17q84 0 159.5 24t136.5 74.5
t105.5 129.5t67.5 190l180 847h164zM963 1487q-47 0 -88 17.5t-72 48.5t-49 71.5t-18 87.5q0 46 18 87t49 71.5t72 48t88 17.5t88.5 -17.5t72.5 -48t49 -71.5t18 -87q0 -47 -18 -87.5t-49 -71.5t-72.5 -48.5t-88.5 -17.5zM963 1582q26 0 49.5 10t41 27.5t27.5 41.5t10 51
t-10 50.5t-27.5 41t-41 27.5t-49.5 10t-49.5 -10t-40.5 -27.5t-27 -41t-10 -50.5t10 -51t27 -41.5t40.5 -27.5t49.5 -10z" />
    <glyph glyph-name="uring" unicode="&#x16f;" horiz-adv-x="1166" 
d="M992 389q-23 -107 -70 -184t-112 -126.5t-145 -73.5t-167 -24q-78 0 -144.5 21.5t-116 63.5t-77.5 104t-28 142q0 49 12 108l113 527h151l-114 -534q-10 -44 -10 -85q0 -54 17.5 -93t48.5 -64.5t73.5 -37.5t92.5 -12q58 0 111.5 18t97 54.5t75 91.5t47.5 130l113 532h150
zM717 1072q-47 0 -88 17.5t-72 48.5t-49 71.5t-18 87.5q0 46 18 87t49 71.5t72 48t88 17.5t88.5 -17.5t72.5 -48t49 -71.5t18 -87q0 -47 -18 -87.5t-49 -71.5t-72.5 -48.5t-88.5 -17.5zM717 1167q26 0 49.5 10t41 27.5t27.5 41.5t10 51t-10 50.5t-27.5 41t-41 27.5t-49.5 10
t-49.5 -10t-40.5 -27.5t-27 -41t-10 -50.5t10 -51t27 -41.5t40.5 -27.5t49.5 -10z" />
    <glyph glyph-name="Uhungarumlaut" unicode="&#x170;" horiz-adv-x="1471" 
d="M1312 540q-32 -149 -92 -255t-143.5 -173.5t-188.5 -99t-225 -31.5q-101 0 -190 25.5t-155.5 78.5t-105 134t-38.5 191q0 70 18 151l179 839h164l-179 -835q-8 -35 -11 -67.5t-3 -61.5q0 -80 25.5 -137t70.5 -93.5t107.5 -53.5t136.5 -17q84 0 159.5 24t136.5 74.5
t105.5 129.5t67.5 190l180 847h164zM1022 1507l248 300h179l-272 -300h-155zM678 1507l233 300h174l-250 -300h-157z" />
    <glyph glyph-name="uhungarumlaut" unicode="&#x171;" horiz-adv-x="1166" 
d="M992 389q-23 -107 -70 -184t-112 -126.5t-145 -73.5t-167 -24q-78 0 -144.5 21.5t-116 63.5t-77.5 104t-28 142q0 49 12 108l113 527h151l-114 -534q-10 -44 -10 -85q0 -54 17.5 -93t48.5 -64.5t73.5 -37.5t92.5 -12q58 0 111.5 18t97 54.5t75 91.5t47.5 130l113 532h150
zM782 1092l248 300h179l-272 -300h-155zM438 1092l233 300h174l-250 -300h-157z" />
    <glyph glyph-name="Uogonek" unicode="&#x172;" horiz-adv-x="1471" 
d="M1312 540q-32 -149 -92 -255t-143.5 -173.5t-188.5 -99t-225 -31.5q-101 0 -190 25.5t-155.5 78.5t-105 134t-38.5 191q0 70 18 151l179 839h164l-179 -835q-8 -35 -11 -67.5t-3 -61.5q0 -80 25.5 -137t70.5 -93.5t107.5 -53.5t136.5 -17q84 0 159.5 24t136.5 74.5
t105.5 129.5t67.5 190l180 847h164zM1055 -337q-46 -38 -101.5 -58t-114.5 -20t-107 15t-82 41t-52.5 62.5t-18.5 78.5q0 46 17 87t59 78.5t112 71t175 65.5l15 -45q-66 -29 -110 -58t-70.5 -58t-38 -57.5t-11.5 -56.5q0 -42 32 -69t89 -27q38 0 73 13t67 37z" />
    <glyph glyph-name="uogonek" unicode="&#x173;" horiz-adv-x="1166" 
d="M992 389q-23 -107 -70 -184t-112 -126.5t-145 -73.5t-167 -24q-78 0 -144.5 21.5t-116 63.5t-77.5 104t-28 142q0 49 12 108l113 527h151l-114 -534q-10 -44 -10 -85q0 -54 17.5 -93t48.5 -64.5t73.5 -37.5t92.5 -12q58 0 111.5 18t97 54.5t75 91.5t47.5 130l113 532h150
zM847 -337q-46 -38 -101.5 -58t-114.5 -20t-107 15t-82 41t-52.5 62.5t-18.5 78.5q0 46 17 87t59 78.5t112 71t175 65.5l15 -45q-66 -29 -110 -58t-70.5 -58t-38 -57.5t-11.5 -56.5q0 -42 32 -69t89 -27q38 0 73 13t67 37z" />
    <glyph glyph-name="Wcircumflex" unicode="&#x174;" horiz-adv-x="2190" 
d="M1577 0h-193l-132 1182l-624 -1182h-200l-161 1400h163l132 -1224l642 1224h176l132 -1218l636 1218h170zM1463 1508l-130 197l-209 -197h-168l288 288h200l176 -288h-157z" />
    <glyph glyph-name="wcircumflex" unicode="&#x175;" horiz-adv-x="1674" 
d="M1128 159l443 788h164l-544 -947h-177l-125 785l-419 -785h-174l-156 947h150l121 -785l420 785h165zM1113 1093l-130 197l-209 -197h-168l288 288h200l176 -288h-157z" />
    <glyph glyph-name="Ycircumflex" unicode="&#x176;" horiz-adv-x="1274" 
d="M741 585l-124 -585h-164l127 601l-370 799h173l303 -657l569 657h203zM990 1508l-130 197l-209 -197h-168l288 288h200l176 -288h-157z" />
    <glyph glyph-name="ycircumflex" unicode="&#x177;" horiz-adv-x="1037" 
d="M156 -404h-171l456 626l-322 725h158l259 -593l419 593h169zM794 1093l-130 197l-209 -197h-168l288 288h200l176 -288h-157z" />
    <glyph glyph-name="Ydieresis" unicode="&#x178;" horiz-adv-x="1274" 
d="M741 585l-124 -585h-164l127 601l-370 799h173l303 -657l569 657h203zM661 1758q22 0 41.5 -8.5t33.5 -22.5t22.5 -34t8.5 -42q0 -23 -8.5 -42t-22.5 -33t-33.5 -22t-41.5 -8q-45 0 -75.5 30t-30.5 75q0 22 8 42t22.5 34t33.5 22.5t42 8.5zM1067 1758q22 0 41.5 -8.5
t33.5 -22.5t22.5 -34t8.5 -42q0 -23 -8.5 -42t-22.5 -33t-33.5 -22t-41.5 -8q-45 0 -75 30t-30 75q0 22 8 42t22 34t33 22.5t42 8.5z" />
    <glyph glyph-name="Zacute" unicode="&#x179;" horiz-adv-x="1305" 
d="M1342 1272l-1049 -1120h848l-33 -152h-1062l29 135l1046 1113h-840l32 152h1056zM676 1507l241 300h194l-282 -300h-153z" />
    <glyph glyph-name="zacute" unicode="&#x17a;" horiz-adv-x="1017" 
d="M968 834l-708 -699h585l-28 -135h-788l24 117l714 695h-579l29 135h776zM478 1092l241 300h194l-282 -300h-153z" />
    <glyph glyph-name="Zdotaccent" unicode="&#x17b;" horiz-adv-x="1305" 
d="M1342 1272l-1049 -1120h848l-33 -152h-1062l29 135l1046 1113h-840l32 152h1056zM850.306 1767.43q23.0996 0 44.0996 -8.39941q20.999 -8.40039 35.6992 -23.625t23.625 -35.6992t8.9248 -43.5742q0 -24.1504 -8.9248 -44.0996q-8.9248 -19.9502 -23.625 -34.6504
q-14.7002 -14.6992 -35.6992 -23.0996q-21 -8.39941 -44.0996 -8.39941t-43.0498 8.39941q-19.9492 8.40039 -35.1748 23.0996q-15.2246 14.7002 -23.624 34.6504q-8.40039 19.9492 -8.40039 44.0996q0 23.0996 8.40039 43.5742q8.39941 20.4746 23.624 35.6992
q15.2256 15.2246 35.1748 23.625q19.9502 8.39941 43.0498 8.39941z" />
    <glyph glyph-name="zdotaccent" unicode="&#x17c;" horiz-adv-x="1017" 
d="M968 834l-708 -699h585l-28 -135h-788l24 117l714 695h-579l29 135h776zM651 1389q22 0 42 -8t34 -22.5t22.5 -34t8.5 -41.5q0 -23 -8.5 -42t-22.5 -33t-34 -22t-42 -8t-41 8t-33.5 22t-22.5 33t-8 42q0 22 8 41.5t22.5 34t33.5 22.5t41 8z" />
    <glyph glyph-name="Zcaron" unicode="&#x17d;" horiz-adv-x="1305" 
d="M1342 1272l-1049 -1120h848l-33 -152h-1062l29 135l1046 1113h-840l32 152h1056zM709 1794l129 -198l210 198h168l-288 -288h-200l-176 288h157z" />
    <glyph glyph-name="zcaron" unicode="&#x17e;" horiz-adv-x="1017" 
d="M968 834l-708 -699h585l-28 -135h-788l24 117l714 695h-579l29 135h776zM490 1379l129 -198l210 198h168l-288 -288h-200l-176 288h157z" />
    <glyph glyph-name="longs" unicode="&#x17f;" horiz-adv-x="632" 
d="M811 1264q-36 27 -81 41t-85 14q-71 0 -124 -49t-76 -155l-237 -1115h-151l242 1135q33 156 120.5 240t226.5 84q73 0 134 -22t104 -57z" />
    <glyph glyph-name="uni018F" unicode="&#x18f;" horiz-adv-x="1597" 
d="M303 1159q117 120 260.5 189.5t319.5 69.5q142 0 261.5 -47.5t206.5 -133t135.5 -204.5t48.5 -261q0 -108 -26 -208.5t-73.5 -188.5t-114.5 -160.5t-150.5 -125t-180.5 -81t-204 -28.5q-143 0 -259 46.5t-199 130.5t-128 200t-45 255q0 44 5 81t11 80h1195
q-2 108 -40 198t-103.5 155.5t-155 101.5t-195.5 36q-144 0 -261 -60t-214 -164zM799 135q104 0 195.5 37t164.5 102.5t123 154.5t71 193h-1026v-17q0 -102 34 -188t96.5 -148.5t149.5 -98t192 -35.5z" />
    <glyph glyph-name="florin" unicode="&#x192;" horiz-adv-x="1400" 
d="M1108 657h-297l-79 -355q-18 -80 -44.5 -140t-64.5 -100t-90 -60t-121 -20t-122.5 18t-93.5 47l66 120q27 -21 67.5 -35.5t81.5 -14.5q74 0 114.5 47.5t60.5 138.5l79 354h-275l29 136h277l68 305q18 79 44.5 139t64.5 100.5t90 60.5t121 20t122.5 -18t92.5 -47l-66 -120
q-27 21 -67 35.5t-82 14.5q-74 0 -114.5 -47.5t-60.5 -138.5l-68 -304h295z" />
    <glyph glyph-name="uni01B5" unicode="&#x1b5;" horiz-adv-x="1305" 
d="M1342 1272l-467 -499h241l-31 -148h-348l-444 -473h848l-33 -152h-1062l29 135l465 495h-248l31 148h356l442 470h-840l32 152h1056z" />
    <glyph glyph-name="uni01B6" unicode="&#x1b6;" horiz-adv-x="1017" 
d="M968 834l-302 -297h168l-24 -115h-260l-290 -287h585l-28 -135h-788l24 117l319 310h-172l24 115h266l277 270h-579l29 135h776z" />
    <glyph glyph-name="uni01CD" unicode="&#x1cd;" horiz-adv-x="1421" 
d="M1277 0h-165l-74 390h-683l-238 -390h-174l863 1400h199zM448 542h561l-132 699zM799 1794l129 -198l210 198h168l-288 -288h-200l-176 288h157z" />
    <glyph glyph-name="uni01CE" unicode="&#x1ce;" horiz-adv-x="1213" 
d="M626 966q63 0 115.5 -14t95 -39.5t73.5 -61t51 -77.5l37 173h149l-202 -947h-148l26 121q-60 -63 -141.5 -101.5t-189.5 -38.5q-88 0 -163 32t-129.5 88.5t-85 133.5t-30.5 168q0 75 19 146t53.5 133.5t83 114.5t109 89.5t130.5 58.5t147 21zM526 122q72 0 136.5 26
t115 72.5t83.5 110t44 137.5q11 75 -4.5 140.5t-53 113.5t-95 75.5t-130.5 27.5q-81 0 -151 -32t-121.5 -87.5t-81.5 -129.5t-30 -157q0 -63 19.5 -117.5t57 -94t90.5 -62.5t121 -23zM562 1379l129 -198l210 198h168l-288 -288h-200l-176 288h157z" />
    <glyph glyph-name="uni01CF" unicode="&#x1cf;" horiz-adv-x="549" 
d="M256 0h-164l298 1400h164zM365 1794l129 -198l210 198h168l-288 -288h-200l-176 288h157z" />
    <glyph glyph-name="uni01D0" unicode="&#x1d0;" horiz-adv-x="484" 
d="M216 0h-151l202 947h151zM251 1379l129 -198l210 198h168l-288 -288h-200l-176 288h157z" />
    <glyph glyph-name="uni01D1" unicode="&#x1d1;" horiz-adv-x="1663" 
d="M934 1419q141 0 263 -46t211.5 -130.5t141 -204t51.5 -266.5q0 -108 -26 -208.5t-74.5 -188.5t-117.5 -160.5t-155 -125t-187.5 -81t-214.5 -28.5q-141 0 -263 46t-212 130.5t-141 204t-51 267.5q0 107 26 207.5t74.5 188.5t117.5 160.5t155 125t187.5 81t214.5 28.5z
M921 1265q-132 0 -241 -51t-187.5 -137t-122 -199t-43.5 -238q0 -116 38.5 -209t107 -159t162.5 -101.5t204 -35.5q87 0 165.5 23t144.5 65t118.5 100t89.5 127t56.5 148t19.5 162q0 115 -39 208.5t-107.5 159.5t-162 101.5t-203.5 35.5zM849 1794l129 -198l210 198h168
l-288 -288h-200l-176 288h157z" />
    <glyph glyph-name="uni01D2" unicode="&#x1d2;" horiz-adv-x="1170" 
d="M626 966q102 0 186 -33.5t144 -93t93.5 -141t33.5 -177.5q0 -111 -41 -209t-113.5 -172t-171 -117t-213.5 -43q-101 0 -185 33.5t-144 93t-93.5 141t-33.5 178.5q0 110 41 208.5t113 172t170.5 116.5t213.5 43zM614 826q-80 0 -148 -31t-118 -84.5t-78.5 -124.5
t-28.5 -151q0 -69 23 -126.5t64.5 -99t98.5 -65t126 -23.5q81 0 150 31t119.5 84.5t79 124t28.5 150.5q0 69 -23 127t-65 99.5t-100 65t-128 23.5zM555 1379l129 -198l210 198h168l-288 -288h-200l-176 288h157z" />
    <glyph glyph-name="uni01D3" unicode="&#x1d3;" horiz-adv-x="1471" 
d="M1312 540q-32 -149 -92 -255t-143.5 -173.5t-188.5 -99t-225 -31.5q-101 0 -190 25.5t-155.5 78.5t-105 134t-38.5 191q0 70 18 151l179 839h164l-179 -835q-8 -35 -11 -67.5t-3 -61.5q0 -80 25.5 -137t70.5 -93.5t107.5 -53.5t136.5 -17q84 0 159.5 24t136.5 74.5
t105.5 129.5t67.5 190l180 847h164zM826 1794l129 -198l210 198h168l-288 -288h-200l-176 288h157z" />
    <glyph glyph-name="uni01D4" unicode="&#x1d4;" horiz-adv-x="1166" 
d="M992 389q-23 -107 -70 -184t-112 -126.5t-145 -73.5t-167 -24q-78 0 -144.5 21.5t-116 63.5t-77.5 104t-28 142q0 49 12 108l113 527h151l-114 -534q-10 -44 -10 -85q0 -54 17.5 -93t48.5 -64.5t73.5 -37.5t92.5 -12q58 0 111.5 18t97 54.5t75 91.5t47.5 130l113 532h150
zM589 1379l129 -198l210 198h168l-288 -288h-200l-176 288h157z" />
    <glyph glyph-name="uni01D5" unicode="&#x1d5;" horiz-adv-x="1471" 
d="M1312 540q-32 -149 -92 -255t-143.5 -173.5t-188.5 -99t-225 -31.5q-101 0 -190 25.5t-155.5 78.5t-105 134t-38.5 191q0 70 18 151l179 839h164l-179 -835q-8 -35 -11 -67.5t-3 -61.5q0 -80 25.5 -137t70.5 -93.5t107.5 -53.5t136.5 -17q84 0 159.5 24t136.5 74.5
t105.5 129.5t67.5 190l180 847h164zM751 2045h598l-25 -121h-598zM775 1758q22 0 41.5 -8.5t33.5 -22.5t22.5 -34t8.5 -42q0 -23 -8.5 -42t-22.5 -33t-33.5 -22t-41.5 -8q-45 0 -75.5 30t-30.5 75q0 22 8 42t22.5 34t33.5 22.5t42 8.5zM1181 1758q22 0 41.5 -8.5t33.5 -22.5
t22.5 -34t8.5 -42q0 -23 -8.5 -42t-22.5 -33t-33.5 -22t-41.5 -8q-45 0 -75 30t-30 75q0 22 8 42t22 34t33 22.5t42 8.5z" />
    <glyph glyph-name="uni01D6" unicode="&#x1d6;" horiz-adv-x="1166" 
d="M992 389q-23 -107 -70 -184t-112 -126.5t-145 -73.5t-167 -24q-78 0 -144.5 21.5t-116 63.5t-77.5 104t-28 142q0 49 12 108l113 527h151l-114 -534q-10 -44 -10 -85q0 -54 17.5 -93t48.5 -64.5t73.5 -37.5t92.5 -12q58 0 111.5 18t97 54.5t75 91.5t47.5 130l113 532h150
zM538 1343q22 0 41.5 -8.5t33.5 -22.5t22.5 -34t8.5 -42q0 -23 -8.5 -42t-22.5 -33t-33.5 -22t-41.5 -8q-45 0 -75.5 30t-30.5 75q0 22 8 42t22.5 34t33.5 22.5t42 8.5zM944 1343q22 0 41.5 -8.5t33.5 -22.5t22.5 -34t8.5 -42q0 -23 -8.5 -42t-22.5 -33t-33.5 -22t-41.5 -8
q-45 0 -75 30t-30 75q0 22 8 42t22 34t33 22.5t42 8.5zM519 1631h598l-25 -121h-598z" />
    <glyph glyph-name="uni01D7" unicode="&#x1d7;" horiz-adv-x="1471" 
d="M1312 540q-32 -149 -92 -255t-143.5 -173.5t-188.5 -99t-225 -31.5q-101 0 -190 25.5t-155.5 78.5t-105 134t-38.5 191q0 70 18 151l179 839h164l-179 -835q-8 -35 -11 -67.5t-3 -61.5q0 -80 25.5 -137t70.5 -93.5t107.5 -53.5t136.5 -17q84 0 159.5 24t136.5 74.5
t105.5 129.5t67.5 190l180 847h164zM866 1906l241 300h194l-282 -300h-153zM775 1758q22 0 41.5 -8.5t33.5 -22.5t22.5 -34t8.5 -42q0 -23 -8.5 -42t-22.5 -33t-33.5 -22t-41.5 -8q-45 0 -75.5 30t-30.5 75q0 22 8 42t22.5 34t33.5 22.5t42 8.5zM1181 1758q22 0 41.5 -8.5
t33.5 -22.5t22.5 -34t8.5 -42q0 -23 -8.5 -42t-22.5 -33t-33.5 -22t-41.5 -8q-45 0 -75 30t-30 75q0 22 8 42t22 34t33 22.5t42 8.5z" />
    <glyph glyph-name="uni01D8" unicode="&#x1d8;" horiz-adv-x="1166" 
d="M992 389q-23 -107 -70 -184t-112 -126.5t-145 -73.5t-167 -24q-78 0 -144.5 21.5t-116 63.5t-77.5 104t-28 142q0 49 12 108l113 527h151l-114 -534q-10 -44 -10 -85q0 -54 17.5 -93t48.5 -64.5t73.5 -37.5t92.5 -12q58 0 111.5 18t97 54.5t75 91.5t47.5 130l113 532h150
zM538 1343q22 0 41.5 -8.5t33.5 -22.5t22.5 -34t8.5 -42q0 -23 -8.5 -42t-22.5 -33t-33.5 -22t-41.5 -8q-45 0 -75.5 30t-30.5 75q0 22 8 42t22.5 34t33.5 22.5t42 8.5zM944 1343q22 0 41.5 -8.5t33.5 -22.5t22.5 -34t8.5 -42q0 -23 -8.5 -42t-22.5 -33t-33.5 -22t-41.5 -8
q-45 0 -75 30t-30 75q0 22 8 42t22 34t33 22.5t42 8.5zM634 1492l241 300h194l-282 -300h-153z" />
    <glyph glyph-name="uni01D9" unicode="&#x1d9;" horiz-adv-x="1471" 
d="M1312 540q-32 -149 -92 -255t-143.5 -173.5t-188.5 -99t-225 -31.5q-101 0 -190 25.5t-155.5 78.5t-105 134t-38.5 191q0 70 18 151l179 839h164l-179 -835q-8 -35 -11 -67.5t-3 -61.5q0 -80 25.5 -137t70.5 -93.5t107.5 -53.5t136.5 -17q84 0 159.5 24t136.5 74.5
t105.5 129.5t67.5 190l180 847h164zM898 2193l129 -198l210 198h168l-288 -288h-200l-176 288h157zM775 1758q22 0 41.5 -8.5t33.5 -22.5t22.5 -34t8.5 -42q0 -23 -8.5 -42t-22.5 -33t-33.5 -22t-41.5 -8q-45 0 -75.5 30t-30.5 75q0 22 8 42t22.5 34t33.5 22.5t42 8.5z
M1181 1758q22 0 41.5 -8.5t33.5 -22.5t22.5 -34t8.5 -42q0 -23 -8.5 -42t-22.5 -33t-33.5 -22t-41.5 -8q-45 0 -75 30t-30 75q0 22 8 42t22 34t33 22.5t42 8.5z" />
    <glyph glyph-name="uni01DA" unicode="&#x1da;" horiz-adv-x="1166" 
d="M992 389q-23 -107 -70 -184t-112 -126.5t-145 -73.5t-167 -24q-78 0 -144.5 21.5t-116 63.5t-77.5 104t-28 142q0 49 12 108l113 527h151l-114 -534q-10 -44 -10 -85q0 -54 17.5 -93t48.5 -64.5t73.5 -37.5t92.5 -12q58 0 111.5 18t97 54.5t75 91.5t47.5 130l113 532h150
zM538 1343q22 0 41.5 -8.5t33.5 -22.5t22.5 -34t8.5 -42q0 -23 -8.5 -42t-22.5 -33t-33.5 -22t-41.5 -8q-45 0 -75.5 30t-30.5 75q0 22 8 42t22.5 34t33.5 22.5t42 8.5zM944 1343q22 0 41.5 -8.5t33.5 -22.5t22.5 -34t8.5 -42q0 -23 -8.5 -42t-22.5 -33t-33.5 -22t-41.5 -8
q-45 0 -75 30t-30 75q0 22 8 42t22 34t33 22.5t42 8.5zM666 1779l129 -198l210 198h168l-288 -288h-200l-176 288h157z" />
    <glyph glyph-name="uni01DB" unicode="&#x1db;" horiz-adv-x="1471" 
d="M1312 540q-32 -149 -92 -255t-143.5 -173.5t-188.5 -99t-225 -31.5q-101 0 -190 25.5t-155.5 78.5t-105 134t-38.5 191q0 70 18 151l179 839h164l-179 -835q-8 -35 -11 -67.5t-3 -61.5q0 -80 25.5 -137t70.5 -93.5t107.5 -53.5t136.5 -17q84 0 159.5 24t136.5 74.5
t105.5 129.5t67.5 190l180 847h164zM747 2206h189l210 -300h-148zM775 1758q22 0 41.5 -8.5t33.5 -22.5t22.5 -34t8.5 -42q0 -23 -8.5 -42t-22.5 -33t-33.5 -22t-41.5 -8q-45 0 -75.5 30t-30.5 75q0 22 8 42t22.5 34t33.5 22.5t42 8.5zM1181 1758q22 0 41.5 -8.5t33.5 -22.5
t22.5 -34t8.5 -42q0 -23 -8.5 -42t-22.5 -33t-33.5 -22t-41.5 -8q-45 0 -75 30t-30 75q0 22 8 42t22 34t33 22.5t42 8.5z" />
    <glyph glyph-name="uni01DC" unicode="&#x1dc;" horiz-adv-x="1166" 
d="M992 389q-23 -107 -70 -184t-112 -126.5t-145 -73.5t-167 -24q-78 0 -144.5 21.5t-116 63.5t-77.5 104t-28 142q0 49 12 108l113 527h151l-114 -534q-10 -44 -10 -85q0 -54 17.5 -93t48.5 -64.5t73.5 -37.5t92.5 -12q58 0 111.5 18t97 54.5t75 91.5t47.5 130l113 532h150
zM538 1343q22 0 41.5 -8.5t33.5 -22.5t22.5 -34t8.5 -42q0 -23 -8.5 -42t-22.5 -33t-33.5 -22t-41.5 -8q-45 0 -75.5 30t-30.5 75q0 22 8 42t22.5 34t33.5 22.5t42 8.5zM944 1343q22 0 41.5 -8.5t33.5 -22.5t22.5 -34t8.5 -42q0 -23 -8.5 -42t-22.5 -33t-33.5 -22t-41.5 -8
q-45 0 -75 30t-30 75q0 22 8 42t22 34t33 22.5t42 8.5zM515 1792h189l210 -300h-148z" />
    <glyph glyph-name="uni01E2" unicode="&#x1e2;" horiz-adv-x="2262" 
d="M2017 0h-969l77 365h-638l-348 -365h-205l1341 1400h1027l-32 -151h-792l-100 -469h773l-32 -150h-773l-102 -479h805zM1158 517l150 708l-676 -708h526zM1492 1711h598l-25 -121h-598z" />
    <glyph glyph-name="uni01E3" unicode="&#x1e3;" horiz-adv-x="1767" 
d="M1582 116q-42 -35 -84.5 -60.5t-89 -42.5t-98 -25t-110.5 -8q-135 0 -230 52t-146 141q-86 -91 -192.5 -141.5t-233.5 -50.5q-72 0 -132.5 18.5t-104 53t-68 82t-24.5 106.5q0 63 25 118.5t75 96.5t125.5 65t176.5 24h319l1 5q9 42 9 78q0 99 -63.5 151t-183.5 52
q-86 0 -153.5 -25.5t-122.5 -59.5l-55 117q81 51 167 77t189 26q128 0 211 -47.5t121 -138.5q67 84 167 135t229 51q87 0 159 -26.5t123.5 -75.5t79.5 -118.5t28 -155.5q0 -44 -8.5 -90t-20.5 -79h-747v-23q0 -65 20 -118t58 -90.5t93 -58t125 -20.5q91 0 160 28t132 80z
M1298 833q-75 0 -134 -24.5t-103 -65t-74 -93t-46 -108.5h603q3 22 3 44q0 58 -18 104t-50.5 77.5t-78.5 48.5t-102 17zM418 113q94 0 188.5 45t172.5 134q-10 46 -10 100v29h-288q-66 0 -113.5 -14t-77.5 -37t-44.5 -53t-14.5 -62q0 -68 50 -105t137 -37zM709 1296h598
l-25 -121h-598z" />
    <glyph glyph-name="Gcaron" unicode="&#x1e6;" horiz-adv-x="1612" 
d="M1330 1075q-39 50 -86.5 85.5t-100.5 58.5t-109 34t-111 11q-124 0 -232.5 -46.5t-189.5 -129.5t-127.5 -197.5t-46.5 -250.5q0 -114 37.5 -207t105 -159t161 -102t204.5 -36q105 0 193 31t155.5 90t112.5 143.5t65 191.5h-435l31 149h592q0 -10 -1 -26.5t-3 -34.5
q-19 -155 -79 -283t-154.5 -220.5t-219 -143.5t-272.5 -51q-142 0 -263 47.5t-209.5 132.5t-138.5 203.5t-50 259.5q0 114 27.5 216.5t77.5 190.5t120.5 159.5t157 122t186 77.5t208.5 27q49 0 114.5 -9t135.5 -34.5t139 -71t125 -119.5zM829 1794l129 -198l210 198h168
l-288 -288h-200l-176 288h157z" />
    <glyph glyph-name="gcaron" unicode="&#x1e7;" horiz-adv-x="1211" 
d="M957 61q-24 -114 -72 -202t-115 -147t-150.5 -89.5t-178.5 -30.5q-128 0 -232.5 36.5t-187.5 106.5l85 114q66 -59 151.5 -91t185.5 -32q68 0 128 23.5t108 67t81.5 105.5t48.5 139l11 58q-58 -56 -134 -88.5t-170 -32.5q-97 0 -176 32t-135.5 87.5t-87.5 131t-31 163.5
q0 114 41.5 215t113.5 176.5t170 119t211 43.5q64 0 117 -14t95.5 -39.5t73.5 -61t51 -78.5l38 174h148zM525 138q77 0 144 27t117 76t81 116t37 148q5 69 -14 127.5t-56.5 101t-92 67t-121.5 24.5q-81 0 -150.5 -30t-120 -83.5t-79.5 -126.5t-29 -159q0 -63 20.5 -115.5
t58 -91t90 -60t115.5 -21.5zM555 1379l129 -198l210 198h168l-288 -288h-200l-176 288h157z" />
    <glyph glyph-name="Aringacute" unicode="&#x1fa;" horiz-adv-x="1421" 
d="M1277 0h-165l-74 390h-683l-238 -390h-174l863 1400h199zM448 542h561l-132 699zM772 1823l241 300h194l-282 -300h-153zM912 1314q-47 0 -88 17.5t-72 48.5t-49 71.5t-18 87.5q0 46 18 87t49 71.5t72 48t88 17.5t88.5 -17.5t72.5 -48t49 -71.5t18 -87q0 -47 -18 -87.5
t-49 -71.5t-72.5 -48.5t-88.5 -17.5zM912 1409q26 0 49.5 10t41 27.5t27.5 41.5t10 51t-10 50.5t-27.5 41t-41 27.5t-49.5 10t-49.5 -10t-40.5 -27.5t-27 -41t-10 -50.5t10 -51t27 -41.5t40.5 -27.5t49.5 -10z" />
    <glyph glyph-name="aringacute" unicode="&#x1fb;" horiz-adv-x="1213" 
d="M626 966q63 0 115.5 -14t95 -39.5t73.5 -61t51 -77.5l37 173h149l-202 -947h-148l26 121q-60 -63 -141.5 -101.5t-189.5 -38.5q-88 0 -163 32t-129.5 88.5t-85 133.5t-30.5 168q0 75 19 146t53.5 133.5t83 114.5t109 89.5t130.5 58.5t147 21zM526 122q72 0 136.5 26
t115 72.5t83.5 110t44 137.5q11 75 -4.5 140.5t-53 113.5t-95 75.5t-130.5 27.5q-81 0 -151 -32t-121.5 -87.5t-81.5 -129.5t-30 -157q0 -63 19.5 -117.5t57 -94t90.5 -62.5t121 -23zM722 1039q-47 0 -88 17.5t-72 48.5t-49 71.5t-18 87.5q0 46 18 87t49 71.5t72 48t88 17.5
t88.5 -17.5t72.5 -48t49 -71.5t18 -87q0 -47 -18 -87.5t-49 -71.5t-72.5 -48.5t-88.5 -17.5zM722 1134q26 0 49.5 10t41 27.5t27.5 41.5t10 51t-10 50.5t-27.5 41t-41 27.5t-49.5 10t-49.5 -10t-40.5 -27.5t-27 -41t-10 -50.5t10 -51t27 -41.5t40.5 -27.5t49.5 -10z
M583 1545l241 300h194l-282 -300h-153z" />
    <glyph glyph-name="AEacute" unicode="&#x1fc;" horiz-adv-x="2262" 
d="M2017 0h-969l77 365h-638l-348 -365h-205l1341 1400h1027l-32 -151h-792l-100 -469h773l-32 -150h-773l-102 -479h805zM1158 517l150 708l-676 -708h526zM1599 1507l241 300h194l-282 -300h-153z" />
    <glyph glyph-name="aeacute" unicode="&#x1fd;" horiz-adv-x="1767" 
d="M1582 116q-42 -35 -84.5 -60.5t-89 -42.5t-98 -25t-110.5 -8q-135 0 -230 52t-146 141q-86 -91 -192.5 -141.5t-233.5 -50.5q-72 0 -132.5 18.5t-104 53t-68 82t-24.5 106.5q0 63 25 118.5t75 96.5t125.5 65t176.5 24h319l1 5q9 42 9 78q0 99 -63.5 151t-183.5 52
q-86 0 -153.5 -25.5t-122.5 -59.5l-55 117q81 51 167 77t189 26q128 0 211 -47.5t121 -138.5q67 84 167 135t229 51q87 0 159 -26.5t123.5 -75.5t79.5 -118.5t28 -155.5q0 -44 -8.5 -90t-20.5 -79h-747v-23q0 -65 20 -118t58 -90.5t93 -58t125 -20.5q91 0 160 28t132 80z
M1298 833q-75 0 -134 -24.5t-103 -65t-74 -93t-46 -108.5h603q3 22 3 44q0 58 -18 104t-50.5 77.5t-78.5 48.5t-102 17zM418 113q94 0 188.5 45t172.5 134q-10 46 -10 100v29h-288q-66 0 -113.5 -14t-77.5 -37t-44.5 -53t-14.5 -62q0 -68 50 -105t137 -37zM831 1092l241 300
h194l-282 -300h-153z" />
    <glyph glyph-name="Oslashacute" unicode="&#x1fe;" horiz-adv-x="1663" 
d="M934 1419q139 0 258 -44t209 -126l193 172l96 -108l-195 -173q51 -76 78.5 -168t27.5 -200t-26 -208.5t-74.5 -188.5t-117.5 -160.5t-155 -125t-187.5 -81t-214.5 -28.5q-135 0 -250.5 41t-204.5 117l-178 -158l-96 107l177 158q-55 78 -85 174t-30 209q0 107 26 207.5
t74.5 188.5t117.5 160.5t155 125t187.5 81t214.5 28.5zM921 1265q-132 0 -241 -51t-187.5 -137t-122 -199t-43.5 -238q0 -82 19.5 -152.5t55.5 -128.5l874 779q-68 61 -158.5 94t-196.5 33zM1433 760q0 76 -17.5 142t-49.5 123l-869 -775q67 -56 153.5 -85.5t188.5 -29.5
q87 0 165.5 23t144.5 65t118.5 100t89.5 127t56.5 148t19.5 162zM823 1507l241 300h194l-282 -300h-153z" />
    <glyph glyph-name="oslashacute" unicode="&#x1ff;" horiz-adv-x="1170" 
d="M626 966q92 0 169 -27.5t137 -77.5l134 120l82 -92l-135 -120q34 -53 52 -115.5t18 -132.5q0 -111 -41 -209t-113.5 -172t-171 -117t-213.5 -43q-91 0 -167.5 26.5t-135.5 75.5l-131 -117l-82 91l132 117q-35 54 -53.5 117.5t-18.5 135.5q0 110 41 208.5t113 172
t170.5 116.5t213.5 43zM614 826q-80 0 -148 -31t-118 -84.5t-78.5 -124.5t-28.5 -151q0 -88 37 -157l539 481q-41 32 -92 49.5t-111 17.5zM930 511q0 43 -9 81t-26 72l-539 -480q39 -30 89 -46.5t108 -16.5q81 0 150 31t119.5 84.5t79 124t28.5 150.5zM560 1092l241 300h194
l-282 -300h-153z" />
    <glyph glyph-name="Scommaaccent" unicode="&#x218;" horiz-adv-x="1324" 
d="M1217 1126q-57 40 -115 67.5t-115 43.5t-112 23t-106 7q-96 0 -163.5 -23.5t-110.5 -61t-62.5 -84.5t-19.5 -94q0 -90 65 -142t198 -75l119 -21q85 -15 158 -42t127 -69.5t85 -102t31 -139.5q0 -92 -38.5 -171t-111 -137.5t-178 -91.5t-239.5 -33q-53 0 -122 9t-144 30.5
t-150 58t-139 91.5l96 130q51 -47 114 -79t126.5 -51.5t123 -27.5t102.5 -8q92 0 164.5 20t123 55.5t77.5 83t27 103.5q0 88 -71.5 140t-216.5 77l-122 21q-87 15 -156.5 44.5t-118 73.5t-74.5 102t-26 130q0 81 32 159t98 139.5t167 99.5t239 38q61 0 127.5 -8t134 -26.5
t135 -50t131.5 -78.5zM737 -88l-141 -350h-142l116 350h167z" />
    <glyph glyph-name="scommaaccent" unicode="&#x219;" horiz-adv-x="953" 
d="M844 746q-27 18 -63 34.5t-77.5 28.5t-86 19t-86.5 7q-99 0 -162.5 -35.5t-71.5 -100.5q-8 -68 36.5 -102t131.5 -47l85 -13q156 -24 225.5 -96t56.5 -180q-7 -63 -39 -114.5t-85 -88t-124.5 -56.5t-158.5 -20q-54 0 -110 9t-110 25.5t-103.5 40.5t-89.5 55l83 111
q60 -48 144.5 -79.5t183.5 -31.5q54 0 99.5 9.5t79 28t53.5 46t24 63.5q12 117 -170 144l-87 13q-80 12 -135.5 36.5t-90 60.5t-47.5 81t-7 97q8 66 39.5 117t82.5 86t119 53t149 18q122 0 222 -29t168 -76zM509 -88l-141 -350h-142l116 350h167z" />
    <glyph glyph-name="uni021A" unicode="&#x21a;" horiz-adv-x="1187" 
d="M1313 1248h-469l-265 -1248h-164l265 1248h-477l33 152h1109zM568 -88l-141 -350h-142l116 350h167z" />
    <glyph glyph-name="uni021B" unicode="&#x21b;" horiz-adv-x="890" 
d="M868 812h-393l-97 -461q-13 -60 -6.5 -103t27.5 -71.5t53.5 -42t73.5 -13.5q54 0 103 17.5t97 50.5l62 -115q-57 -42 -125 -67.5t-154 -25.5q-80 0 -141 24.5t-98.5 71.5t-49.5 117t8 161l97 457h-203l29 135h203l64 301h150l-64 -301h393zM548 -88l-141 -350h-142
l116 350h167z" />
    <glyph glyph-name="uni0232" unicode="&#x232;" horiz-adv-x="1274" 
d="M741 585l-124 -585h-164l127 601l-370 799h173l303 -657l569 657h203zM572 1711h598l-25 -121h-598z" />
    <glyph glyph-name="uni0233" unicode="&#x233;" horiz-adv-x="1037" 
d="M156 -404h-171l456 626l-322 725h158l259 -593l419 593h169zM370 1296h598l-25 -121h-598z" />
    <glyph glyph-name="uni0237" unicode="&#x237;" horiz-adv-x="491" 
d="M189 -162q-27 -128 -100.5 -190.5t-176.5 -62.5q-45 0 -85 11.5t-66 28.5l55 123q19 -11 41.5 -16.5t45.5 -5.5q51 0 88.5 32.5t51.5 98.5l231 1090h151z" />
    <glyph glyph-name="uni0259" unicode="&#x259;" horiz-adv-x="1079" 
d="M184 831q42 35 85 60.5t89.5 42.5t98 25t110.5 8q103 0 183 -31.5t135 -86.5t84 -130.5t29 -163.5q0 -66 -15.5 -133.5t-46 -131.5t-75.5 -120t-104.5 -98t-133.5 -66.5t-162 -24.5q-87 0 -159 26.5t-123.5 75.5t-79.5 118.5t-28 155.5q0 44 8.5 90t20.5 79h746v23
q0 65 -20 118t-57.5 90.5t-92.5 58t-125 20.5q-93 0 -165.5 -30t-136.5 -85zM469 114q75 0 134 24.5t103 65t73.5 93t45.5 108.5h-603q-3 -23 -3 -44q0 -58 18 -104t51 -77.5t79 -48.5t102 -17z" />
    <glyph glyph-name="uni02BB" unicode="&#x2bb;" horiz-adv-x="483" 
d="M225 933l203 507h138l-167 -507h-174z" />
    <glyph glyph-name="afii57929" unicode="&#x2bc;" horiz-adv-x="483" 
d="M561 1440l-203 -507h-138l167 507h174z" />
    <glyph glyph-name="uni02BE" unicode="&#x2be;" horiz-adv-x="549" 
d="M342 1451q63 -6 116.5 -34t92.5 -72.5t61 -102.5t22 -123q0 -75 -28.5 -142t-79 -118t-119 -80.5t-147.5 -29.5q-18 0 -32 1t-34 5l29 136q12 -3 23 -4t23 -1q45 0 85 19t69.5 50.5t47 73.5t17.5 88q0 40 -13.5 75t-37 61.5t-55.5 42.5t-69 19z" />
    <glyph glyph-name="uni02BF" unicode="&#x2bf;" horiz-adv-x="549" 
d="M473 749q-63 6 -116.5 34t-92.5 72.5t-61 102.5t-22 123q0 75 28.5 142t79 118t118.5 80.5t148 29.5q18 0 32 -1t34 -5l-29 -136q-12 3 -23 4t-23 1q-45 0 -85 -19t-69.5 -50.5t-47 -73.5t-17.5 -88q0 -40 13.5 -75t37 -61.5t55.5 -42.5t69 -19z" />
    <glyph glyph-name="circumflex" unicode="&#x2c6;" horiz-adv-x="939" 
d="M770 1093l-130 197l-209 -197h-168l288 288h200l176 -288h-157z" />
    <glyph glyph-name="caron" unicode="&#x2c7;" horiz-adv-x="939" 
d="M471 1379l129 -198l210 198h168l-288 -288h-200l-176 288h157z" />
    <glyph glyph-name="breve" unicode="&#x2d8;" horiz-adv-x="939" 
d="M440 1403q8 -97 56.5 -144t126.5 -47q152 0 245 191l119 -37q-66 -138 -158 -209t-219 -71q-62 0 -113.5 18t-89.5 53t-61 87.5t-27 121.5z" />
    <glyph glyph-name="dotaccent" unicode="&#x2d9;" horiz-adv-x="549" 
d="M445 1389q22 0 42 -8t34 -22.5t22.5 -34t8.5 -41.5q0 -23 -8.5 -42t-22.5 -33t-34 -22t-42 -8t-41 8t-33.5 22t-22.5 33t-8 42q0 22 8 41.5t22.5 34t33.5 22.5t41 8z" />
    <glyph glyph-name="ring" unicode="&#x2da;" horiz-adv-x="939" 
d="M644 1072q-47 0 -88 17.5t-72 48.5t-49 71.5t-18 87.5q0 46 18 87t49 71.5t72 48t88 17.5t88.5 -17.5t72.5 -48t49 -71.5t18 -87q0 -47 -18 -87.5t-49 -71.5t-72.5 -48.5t-88.5 -17.5zM644 1167q26 0 49.5 10t41 27.5t27.5 41.5t10 51t-10 50.5t-27.5 41t-41 27.5
t-49.5 10t-49.5 -10t-40.5 -27.5t-27 -41t-10 -50.5t10 -51t27 -41.5t40.5 -27.5t49.5 -10z" />
    <glyph glyph-name="ogonek" unicode="&#x2db;" horiz-adv-x="1088" 
d="M881 -337q-46 -38 -101.5 -58t-114.5 -20t-107 15t-82 41t-52.5 62.5t-18.5 78.5q0 46 17 87t59 78.5t112 71t175 65.5l15 -45q-66 -29 -110 -58t-70.5 -58t-38 -57.5t-11.5 -56.5q0 -42 32 -69t89 -27q38 0 73 13t67 37z" />
    <glyph glyph-name="tilde" unicode="&#x2dc;" horiz-adv-x="939" 
d="M287 1237q52 56 105 82t122 26q52 0 87.5 -12.5t63 -27t51.5 -27t54 -12.5q40 0 73 17.5t68 50.5l85 -89q-53 -56 -105.5 -82t-121.5 -26q-51 0 -86 12.5t-62.5 27.5t-52.5 27.5t-56 12.5q-39 0 -72 -18t-68 -51z" />
    <glyph glyph-name="hungarumlaut" unicode="&#x2dd;" horiz-adv-x="939" 
d="M602 1092l248 300h179l-272 -300h-155zM258 1092l233 300h174l-250 -300h-157z" />
    <glyph glyph-name="gravecomb" unicode="&#x300;" 
d="M-765 1392h189l210 -300h-148z" />
    <glyph glyph-name="acutecomb" unicode="&#x301;" 
d="M-627 1092l241 300h194l-282 -300h-153z" />
    <glyph glyph-name="uni0302" unicode="&#x302;" 
d="M-325 1093l-130 197l-209 -197h-168l288 288h200l176 -288h-157z" />
    <glyph glyph-name="tildecomb" unicode="&#x303;" 
d="M-835 1237q52 56 105 82t122 26q52 0 87.5 -12.5t63 -27t51.5 -27t54 -12.5q40 0 73 17.5t68 50.5l85 -89q-53 -56 -105.5 -82t-121.5 -26q-51 0 -86 12.5t-62.5 27.5t-52.5 27.5t-56 12.5q-39 0 -72 -18t-68 -51z" />
    <glyph glyph-name="uni0304" unicode="&#x304;" 
d="M-749 1296h598l-25 -121h-598z" />
    <glyph glyph-name="uni0306" unicode="&#x306;" 
d="M-665 1403q8 -97 56.5 -144t126.5 -47q152 0 245 191l119 -37q-66 -138 -158 -209t-219 -71q-62 0 -113.5 18t-89.5 53t-61 87.5t-27 121.5z" />
    <glyph glyph-name="uni0307" unicode="&#x307;" 
d="M-454 1389q22 0 42 -8t34 -22.5t22.5 -34t8.5 -41.5q0 -23 -8.5 -42t-22.5 -33t-34 -22t-42 -8t-41 8t-33.5 22t-22.5 33t-8 42q0 22 8 41.5t22.5 34t33.5 22.5t41 8z" />
    <glyph glyph-name="uni0308" unicode="&#x308;" 
d="M-666 1343q22 0 41.5 -8.5t33.5 -22.5t22.5 -34t8.5 -42q0 -23 -8.5 -42t-22.5 -33t-33.5 -22t-41.5 -8q-45 0 -75.5 30t-30.5 75q0 22 8 42t22.5 34t33.5 22.5t42 8.5zM-260 1343q22 0 41.5 -8.5t33.5 -22.5t22.5 -34t8.5 -42q0 -23 -8.5 -42t-22.5 -33t-33.5 -22
t-41.5 -8q-45 0 -75 30t-30 75q0 22 8 42t22 34t33 22.5t42 8.5z" />
    <glyph glyph-name="uni030A" unicode="&#x30a;" 
d="M-487 1072q-47 0 -88 17.5t-72 48.5t-49 71.5t-18 87.5q0 46 18 87t49 71.5t72 48t88 17.5t88.5 -17.5t72.5 -48t49 -71.5t18 -87q0 -47 -18 -87.5t-49 -71.5t-72.5 -48.5t-88.5 -17.5zM-487 1167q26 0 49.5 10t41 27.5t27.5 41.5t10 51t-10 50.5t-27.5 41t-41 27.5
t-49.5 10t-49.5 -10t-40.5 -27.5t-27 -41t-10 -50.5t10 -51t27 -41.5t40.5 -27.5t49.5 -10z" />
    <glyph glyph-name="uni030B" unicode="&#x30b;" 
d="M-422 1092l248 300h179l-272 -300h-155zM-766 1092l233 300h174l-250 -300h-157z" />
    <glyph glyph-name="uni030C" unicode="&#x30c;" 
d="M-615 1379l129 -198l210 198h168l-288 -288h-200l-176 288h157z" />
    <glyph glyph-name="uni0312" unicode="&#x312;" 
d="M-576 1092l141 351h141l-116 -351h-166z" />
    <glyph glyph-name="dotbelowcomb" unicode="&#x323;" 
d="M-544 -158q22 0 42 -8t34 -22.5t22.5 -34t8.5 -41.5q0 -23 -8.5 -42t-22.5 -33t-34 -22t-42 -8t-41 8t-33.5 22t-22.5 33t-8 42q0 22 8 41.5t22.5 34t33.5 22.5t41 8z" />
    <glyph glyph-name="uni0326" unicode="&#x326;" 
d="M-469 -88l-141 -350h-142l116 350h167z" />
    <glyph glyph-name="uni0327" unicode="&#x327;" 
d="M-542 -323h-168l179 329l154 -1z" />
    <glyph glyph-name="uni0328" unicode="&#x328;" 
d="M-306 -337q-46 -38 -101.5 -58t-114.5 -20t-107 15t-82 41t-52.5 62.5t-18.5 78.5q0 46 17 87t59 78.5t112 71t175 65.5l15 -45q-66 -29 -110 -58t-70.5 -58t-38 -57.5t-11.5 -56.5q0 -42 32 -69t89 -27q38 0 73 13t67 37z" />
    <glyph glyph-name="uni032E" unicode="&#x32e;" 
d="M-777 -100q7 -97 56 -144t127 -47q152 0 245 191l119 -36q-66 -138 -158.5 -209.5t-219.5 -71.5q-61 0 -112.5 18t-89.5 53.5t-61.5 88t-27.5 121.5z" />
    <glyph glyph-name="uni0331" unicode="&#x331;" 
d="M-886 -202h598l-26 -122h-598z" />
    <glyph glyph-name="uni0335" unicode="&#x335;" 
d="M-246 461h-706l27 136h707z" />
    <glyph glyph-name="uni0336" unicode="&#x336;" 
d="M138 461h-1472l28 136h1471z" />
    <glyph glyph-name="uni0394" unicode="&#x394;" horiz-adv-x="1404" 
d="M1253 124l-26 -124h-1250l26 124l798 1278h198zM873 1240l-676 -1088h889z" />
    <glyph glyph-name="uni03A9" unicode="&#x3a9;" horiz-adv-x="1711" 
d="M1572 0h-596l28 136q103 26 187.5 85.5t143.5 142t91.5 183t32.5 209.5q0 113 -38.5 207t-108 161.5t-165.5 105t-210 37.5q-129 0 -238.5 -49t-190 -133.5t-125.5 -198.5t-45 -243q0 -94 25 -175t71.5 -145.5t111.5 -111t145 -70.5l-29 -141h-601l32 152h353
q-64 40 -115 93t-86.5 117.5t-54.5 138.5t-19 157q0 105 26.5 202.5t75.5 182t118.5 154t155 118.5t185.5 76.5t211 27.5q150 0 275.5 -47.5t217 -133t142.5 -205t51 -262.5q0 -97 -22 -187t-66 -169t-109.5 -145.5t-152.5 -117.5h325z" />
    <glyph glyph-name="uni03BC" unicode="&#x3bc;" horiz-adv-x="1180" 
d="M-30 -400l288 1347h150l-114 -535q-5 -21 -7.5 -41.5t-2.5 -40.5q0 -45 13.5 -82.5t41 -65.5t70 -43.5t101.5 -15.5q63 0 118.5 19.5t100 58.5t77 96.5t48.5 133.5l110 516h150l-202 -947h-149l25 118q-34 -38 -72 -64t-78 -42.5t-81.5 -23.5t-81.5 -7q-82 0 -146 25.5
t-106 76.5l-102 -483h-151z" />
    <glyph glyph-name="pi" unicode="&#x3c0;" horiz-adv-x="1177" 
d="M919 0h-149l173 812h-556l-172 -812h-150l202 947h854z" />
    <glyph glyph-name="uni1E0C" unicode="&#x1e0c;" horiz-adv-x="1553" 
d="M850 1400q153 0 273 -41.5t203.5 -118t127.5 -184.5t44 -241q0 -169 -58.5 -317.5t-171 -259t-277.5 -174.5t-378 -64h-521l298 1400h460zM521 1248l-233 -1096h343q169 0 299 50t218.5 137.5t134 205.5t45.5 255q0 100 -31 183t-92.5 141.5t-155 91t-217.5 32.5h-311z
M643 -158q22 0 42 -8t34 -22.5t22.5 -34t8.5 -41.5q0 -23 -8.5 -42t-22.5 -33t-34 -22t-42 -8t-41 8t-33.5 22t-22.5 33t-8 42q0 22 8 41.5t22.5 34t33.5 22.5t41 8z" />
    <glyph glyph-name="uni1E0D" unicode="&#x1e0d;" horiz-adv-x="1213" 
d="M625 966q63 0 115.5 -14t95 -39.5t73.5 -61t51 -77.5l142 666h150l-306 -1440h-149l26 121q-60 -63 -142 -101.5t-190 -38.5q-88 0 -162.5 32t-129 88.5t-85 133.5t-30.5 168q0 112 41.5 214.5t114 179.5t171.5 123t214 46zM526 122q72 0 136.5 26t115 72.5t83.5 110
t44 137.5q11 75 -4.5 140.5t-53 113.5t-95 75.5t-130.5 27.5q-81 0 -151 -32t-121.5 -87.5t-81.5 -129.5t-30 -157q0 -63 19.5 -117.5t57 -94t90.5 -62.5t121 -23zM486 -158q22 0 42 -8t34 -22.5t22.5 -34t8.5 -41.5q0 -23 -8.5 -42t-22.5 -33t-34 -22t-42 -8t-41 8
t-33.5 22t-22.5 33t-8 42q0 22 8 41.5t22.5 34t33.5 22.5t41 8z" />
    <glyph glyph-name="uni1E0E" unicode="&#x1e0e;" horiz-adv-x="1553" 
d="M850 1400q153 0 273 -41.5t203.5 -118t127.5 -184.5t44 -241q0 -169 -58.5 -317.5t-171 -259t-277.5 -174.5t-378 -64h-521l298 1400h460zM521 1248l-233 -1096h343q169 0 299 50t218.5 137.5t134 205.5t45.5 255q0 100 -31 183t-92.5 141.5t-155 91t-217.5 32.5h-311z
M360 -202h598l-26 -122h-598z" />
    <glyph glyph-name="uni1E0F" unicode="&#x1e0f;" horiz-adv-x="1213" 
d="M625 966q63 0 115.5 -14t95 -39.5t73.5 -61t51 -77.5l142 666h150l-306 -1440h-149l26 121q-60 -63 -142 -101.5t-190 -38.5q-88 0 -162.5 32t-129 88.5t-85 133.5t-30.5 168q0 112 41.5 214.5t114 179.5t171.5 123t214 46zM526 122q72 0 136.5 26t115 72.5t83.5 110
t44 137.5q11 75 -4.5 140.5t-53 113.5t-95 75.5t-130.5 27.5q-81 0 -151 -32t-121.5 -87.5t-81.5 -129.5t-30 -157q0 -63 19.5 -117.5t57 -94t90.5 -62.5t121 -23zM202 -202h598l-26 -122h-598z" />
    <glyph glyph-name="uni1E24" unicode="&#x1e24;" horiz-adv-x="1546" 
d="M422 781h833l132 619h164l-299 -1400h-164l134 629h-832l-134 -629h-164l298 1400h164zM613 -158q22 0 42 -8t34 -22.5t22.5 -34t8.5 -41.5q0 -23 -8.5 -42t-22.5 -33t-34 -22t-42 -8t-41 8t-33.5 22t-22.5 33t-8 42q0 22 8 41.5t22.5 34t33.5 22.5t41 8z" />
    <glyph glyph-name="uni1E25" unicode="&#x1e25;" horiz-adv-x="1179" 
d="M704 966q81 0 144.5 -24t107.5 -67.5t67.5 -103t23.5 -131.5q0 -25 -2.5 -51t-8.5 -53l-115 -536h-150l114 535q5 21 7.5 41.5t2.5 40.5q0 45 -13.5 82.5t-41 65.5t-70 43.5t-100.5 15.5q-63 0 -118.5 -19.5t-100 -58.5t-77 -96.5t-48.5 -133.5l-110 -516h-151l307 1440
h149l-129 -609q68 75 150 105t162 30zM436 -158q22 0 42 -8t34 -22.5t22.5 -34t8.5 -41.5q0 -23 -8.5 -42t-22.5 -33t-34 -22t-42 -8t-41 8t-33.5 22t-22.5 33t-8 42q0 22 8 41.5t22.5 34t33.5 22.5t41 8z" />
    <glyph glyph-name="uni1E28" unicode="&#x1e28;" horiz-adv-x="1546" 
d="M422 781h833l132 619h164l-299 -1400h-164l134 629h-832l-134 -629h-164l298 1400h164zM92 -323h-175l179 329l161 -1z" />
    <glyph glyph-name="uni1E29" unicode="&#x1e29;" horiz-adv-x="1179" 
d="M704 966q81 0 144.5 -24t107.5 -67.5t67.5 -103t23.5 -131.5q0 -25 -2.5 -51t-8.5 -53l-115 -536h-150l114 535q5 21 7.5 41.5t2.5 40.5q0 45 -13.5 82.5t-41 65.5t-70 43.5t-100.5 15.5q-63 0 -118.5 -19.5t-100 -58.5t-77 -96.5t-48.5 -133.5l-110 -516h-151l307 1440
h149l-129 -609q68 75 150 105t162 30zM54 -323h-168l179 329l154 -1z" />
    <glyph glyph-name="uni1E2A" unicode="&#x1e2a;" horiz-adv-x="1546" 
d="M422 781h833l132 619h164l-299 -1400h-164l134 629h-832l-134 -629h-164l298 1400h164zM439 -100q7 -97 56 -144t127 -47q152 0 245 191l119 -36q-66 -138 -158.5 -209.5t-219.5 -71.5q-61 0 -112.5 18t-89.5 53.5t-61.5 88t-27.5 121.5z" />
    <glyph glyph-name="uni1E2B" unicode="&#x1e2b;" horiz-adv-x="1179" 
d="M704 966q81 0 144.5 -24t107.5 -67.5t67.5 -103t23.5 -131.5q0 -25 -2.5 -51t-8.5 -53l-115 -536h-150l114 535q5 21 7.5 41.5t2.5 40.5q0 45 -13.5 82.5t-41 65.5t-70 43.5t-100.5 15.5q-63 0 -118.5 -19.5t-100 -58.5t-77 -96.5t-48.5 -133.5l-110 -516h-151l307 1440
h149l-129 -609q68 75 150 105t162 30zM261 -100q7 -97 56 -144t127 -47q152 0 245 191l119 -36q-66 -138 -158.5 -209.5t-219.5 -71.5q-61 0 -112.5 18t-89.5 53.5t-61.5 88t-27.5 121.5z" />
    <glyph glyph-name="uni1E32" unicode="&#x1e32;" horiz-adv-x="1351" 
d="M422 780h147l668 620h216l-762 -694l554 -706h-195l-490 628h-171l-133 -628h-164l298 1400h164zM586 -158q22 0 42 -8t34 -22.5t22.5 -34t8.5 -41.5q0 -23 -8.5 -42t-22.5 -33t-34 -22t-42 -8t-41 8t-33.5 22t-22.5 33t-8 42q0 22 8 41.5t22.5 34t33.5 22.5t41 8z" />
    <glyph glyph-name="uni1E33" unicode="&#x1e33;" horiz-adv-x="1028" 
d="M335 563h130l412 384h195l-504 -461l334 -486h-169l-286 427h-141l-90 -427h-151l306 1440h151zM405 -158q22 0 42 -8t34 -22.5t22.5 -34t8.5 -41.5q0 -23 -8.5 -42t-22.5 -33t-34 -22t-42 -8t-41 8t-33.5 22t-22.5 33t-8 42q0 22 8 41.5t22.5 34t33.5 22.5t41 8z" />
    <glyph glyph-name="uni1E36" unicode="&#x1e36;" horiz-adv-x="1184" 
d="M288 152h789l-33 -152h-952l298 1400h164zM540 -158q22 0 42 -8t34 -22.5t22.5 -34t8.5 -41.5q0 -23 -8.5 -42t-22.5 -33t-34 -22t-42 -8t-41 8t-33.5 22t-22.5 33t-8 42q0 22 8 41.5t22.5 34t33.5 22.5t41 8z" />
    <glyph glyph-name="uni1E37" unicode="&#x1e37;" horiz-adv-x="483" 
d="M216 0h-151l306 1440h151zM83 -158q22 0 42 -8t34 -22.5t22.5 -34t8.5 -41.5q0 -23 -8.5 -42t-22.5 -33t-34 -22t-42 -8t-41 8t-33.5 22t-22.5 33t-8 42q0 22 8 41.5t22.5 34t33.5 22.5t41 8z" />
    <glyph glyph-name="uni1E38" unicode="&#x1e38;" horiz-adv-x="1184" 
d="M288 152h789l-33 -152h-952l298 1400h164zM540 -158q22 0 42 -8t34 -22.5t22.5 -34t8.5 -41.5q0 -23 -8.5 -42t-22.5 -33t-34 -22t-42 -8t-41 8t-33.5 22t-22.5 33t-8 42q0 22 8 41.5t22.5 34t33.5 22.5t41 8zM225 1711h598l-25 -121h-598z" />
    <glyph glyph-name="uni1E39" unicode="&#x1e39;" horiz-adv-x="483" 
d="M216 0h-151l306 1440h151zM213 1749h598l-25 -121h-598zM83 -158q22 0 42 -8t34 -22.5t22.5 -34t8.5 -41.5q0 -23 -8.5 -42t-22.5 -33t-34 -22t-42 -8t-41 8t-33.5 22t-22.5 33t-8 42q0 22 8 41.5t22.5 34t33.5 22.5t41 8z" />
    <glyph glyph-name="uni1E3A" unicode="&#x1e3a;" horiz-adv-x="1184" 
d="M288 152h789l-33 -152h-952l298 1400h164zM257 -202h598l-26 -122h-598z" />
    <glyph glyph-name="uni1E3B" unicode="&#x1e3b;" horiz-adv-x="483" 
d="M216 0h-151l306 1440h151zM-201 -202h598l-26 -122h-598z" />
    <glyph glyph-name="uni1E40" unicode="&#x1e40;" horiz-adv-x="1824" 
d="M1531 0h-163l257 1205l-682 -1050h-169l-261 1055l-258 -1210h-163l298 1400h236l258 -1061l694 1061h251zM1123.31 1767.43q23.0996 0 44.0996 -8.39941q20.999 -8.40039 35.6992 -23.625t23.625 -35.6992t8.9248 -43.5742q0 -24.1504 -8.9248 -44.0996
q-8.9248 -19.9502 -23.625 -34.6504q-14.7002 -14.6992 -35.6992 -23.0996q-21 -8.39941 -44.0996 -8.39941t-43.0498 8.39941q-19.9492 8.40039 -35.1748 23.0996q-15.2246 14.7002 -23.624 34.6504q-8.40039 19.9492 -8.40039 44.0996q0 23.0996 8.40039 43.5742
q8.39941 20.4746 23.624 35.6992q15.2256 15.2246 35.1748 23.625q19.9502 8.39941 43.0498 8.39941z" />
    <glyph glyph-name="uni1E41" unicode="&#x1e41;" horiz-adv-x="1886" 
d="M1411 966q81 0 144.5 -24t107.5 -67.5t67.5 -103t23.5 -131.5q0 -25 -2.5 -51t-8.5 -53l-116 -536h-150l114 535q5 21 7.5 41.5t2.5 40.5q0 45 -13.5 82.5t-41 65.5t-70.5 43.5t-102 15.5q-63 0 -118.5 -19.5t-100 -58.5t-77 -96.5t-48.5 -133.5l-110 -516h-149l114 535
q12 57 7.5 109.5t-30 92.5t-73 63.5t-120.5 23.5q-63 0 -118.5 -19.5t-100 -58.5t-77 -96.5t-48.5 -133.5l-110 -516h-150l202 947h149l-25 -118q34 38 72 64t78 42.5t81.5 23.5t81.5 7q123 0 204.5 -53.5t115.5 -140.5q38 53 84 90t96 60t102.5 33.5t104.5 10.5zM1116 1400
q22 0 42 -8t34 -22.5t22.5 -34t8.5 -41.5q0 -23 -8.5 -42t-22.5 -33t-34 -22t-42 -8t-41 8t-33.5 22t-22.5 33t-8 42q0 22 8 41.5t22.5 34t33.5 22.5t41 8z" />
    <glyph glyph-name="uni1E42" unicode="&#x1e42;" horiz-adv-x="1824" 
d="M1531 0h-163l257 1205l-682 -1050h-169l-261 1055l-258 -1210h-163l298 1400h236l258 -1061l694 1061h251zM784 -158q22 0 42 -8t34 -22.5t22.5 -34t8.5 -41.5q0 -23 -8.5 -42t-22.5 -33t-34 -22t-42 -8t-41 8t-33.5 22t-22.5 33t-8 42q0 22 8 41.5t22.5 34t33.5 22.5
t41 8z" />
    <glyph glyph-name="uni1E43" unicode="&#x1e43;" horiz-adv-x="1886" 
d="M1411 966q81 0 144.5 -24t107.5 -67.5t67.5 -103t23.5 -131.5q0 -25 -2.5 -51t-8.5 -53l-116 -536h-150l114 535q5 21 7.5 41.5t2.5 40.5q0 45 -13.5 82.5t-41 65.5t-70.5 43.5t-102 15.5q-63 0 -118.5 -19.5t-100 -58.5t-77 -96.5t-48.5 -133.5l-110 -516h-149l114 535
q12 57 7.5 109.5t-30 92.5t-73 63.5t-120.5 23.5q-63 0 -118.5 -19.5t-100 -58.5t-77 -96.5t-48.5 -133.5l-110 -516h-150l202 947h149l-25 -118q34 38 72 64t78 42.5t81.5 23.5t81.5 7q123 0 204.5 -53.5t115.5 -140.5q38 53 84 90t96 60t102.5 33.5t104.5 10.5zM787 -158
q22 0 42 -8t34 -22.5t22.5 -34t8.5 -41.5q0 -23 -8.5 -42t-22.5 -33t-34 -22t-42 -8t-41 8t-33.5 22t-22.5 33t-8 42q0 22 8 41.5t22.5 34t33.5 22.5t41 8z" />
    <glyph glyph-name="uni1E44" unicode="&#x1e44;" horiz-adv-x="1548" 
d="M1254 0h-149l-605 1147l-245 -1147h-163l298 1400h151l604 -1147l244 1147h164zM994.306 1767.43q23.0996 0 44.0996 -8.39941q20.999 -8.40039 35.6992 -23.625t23.625 -35.6992t8.9248 -43.5742q0 -24.1504 -8.9248 -44.0996q-8.9248 -19.9502 -23.625 -34.6504
q-14.7002 -14.6992 -35.6992 -23.0996q-21 -8.39941 -44.0996 -8.39941t-43.0498 8.39941q-19.9492 8.40039 -35.1748 23.0996q-15.2246 14.7002 -23.624 34.6504q-8.40039 19.9492 -8.40039 44.0996q0 23.0996 8.40039 43.5742q8.39941 20.4746 23.624 35.6992
q15.2256 15.2246 35.1748 23.625q19.9502 8.39941 43.0498 8.39941z" />
    <glyph glyph-name="uni1E45" unicode="&#x1e45;" horiz-adv-x="1179" 
d="M704 966q81 0 144.5 -24t107.5 -67.5t67.5 -103t23.5 -131.5q0 -25 -2.5 -51t-8.5 -53l-115 -536h-150l114 535q5 21 7.5 41.5t2.5 40.5q0 45 -13.5 82.5t-41 65.5t-70.5 43.5t-101 15.5q-63 0 -118.5 -19.5t-100 -58.5t-77 -96.5t-48.5 -133.5l-110 -516h-150l202 947
h149l-25 -118q34 38 72 64t78 42.5t81.5 23.5t81.5 7zM754 1389q22 0 42 -8t34 -22.5t22.5 -34t8.5 -41.5q0 -23 -8.5 -42t-22.5 -33t-34 -22t-42 -8t-41 8t-33.5 22t-22.5 33t-8 42q0 22 8 41.5t22.5 34t33.5 22.5t41 8z" />
    <glyph glyph-name="uni1E46" unicode="&#x1e46;" horiz-adv-x="1548" 
d="M1254 0h-149l-605 1147l-245 -1147h-163l298 1400h151l604 -1147l244 1147h164zM641 -158q22 0 42 -8t34 -22.5t22.5 -34t8.5 -41.5q0 -23 -8.5 -42t-22.5 -33t-34 -22t-42 -8t-41 8t-33.5 22t-22.5 33t-8 42q0 22 8 41.5t22.5 34t33.5 22.5t41 8z" />
    <glyph glyph-name="uni1E47" unicode="&#x1e47;" horiz-adv-x="1179" 
d="M704 966q81 0 144.5 -24t107.5 -67.5t67.5 -103t23.5 -131.5q0 -25 -2.5 -51t-8.5 -53l-115 -536h-150l114 535q5 21 7.5 41.5t2.5 40.5q0 45 -13.5 82.5t-41 65.5t-70.5 43.5t-101 15.5q-63 0 -118.5 -19.5t-100 -58.5t-77 -96.5t-48.5 -133.5l-110 -516h-150l202 947
h149l-25 -118q34 38 72 64t78 42.5t81.5 23.5t81.5 7zM435 -158q22 0 42 -8t34 -22.5t22.5 -34t8.5 -41.5q0 -23 -8.5 -42t-22.5 -33t-34 -22t-42 -8t-41 8t-33.5 22t-22.5 33t-8 42q0 22 8 41.5t22.5 34t33.5 22.5t41 8z" />
    <glyph glyph-name="uni1E48" unicode="&#x1e48;" horiz-adv-x="1548" 
d="M1254 0h-149l-605 1147l-245 -1147h-163l298 1400h151l604 -1147l244 1147h164zM358 -202h598l-26 -122h-598z" />
    <glyph glyph-name="uni1E49" unicode="&#x1e49;" horiz-adv-x="1179" 
d="M704 966q81 0 144.5 -24t107.5 -67.5t67.5 -103t23.5 -131.5q0 -25 -2.5 -51t-8.5 -53l-115 -536h-150l114 535q5 21 7.5 41.5t2.5 40.5q0 45 -13.5 82.5t-41 65.5t-70.5 43.5t-101 15.5q-63 0 -118.5 -19.5t-100 -58.5t-77 -96.5t-48.5 -133.5l-110 -516h-150l202 947
h149l-25 -118q34 38 72 64t78 42.5t81.5 23.5t81.5 7zM151 -202h598l-26 -122h-598z" />
    <glyph glyph-name="uni1E58" unicode="&#x1e58;" horiz-adv-x="1326" 
d="M891 1400q106 0 188 -26t137 -72t83.5 -109t28.5 -138q0 -80 -29 -159.5t-93.5 -143.5t-166.5 -103.5t-249 -39.5h-64l445 -609h-192l-431 609h-163l-129 -609h-164l298 1400h501zM521 1248l-105 -493h379q101 0 170.5 23t112.5 62t62 90.5t19 107.5q0 48 -18 86.5
t-54 66t-89 42.5t-123 15h-354zM854.306 1767.43q23.0996 0 44.0996 -8.39941q20.999 -8.40039 35.6992 -23.625t23.625 -35.6992t8.9248 -43.5742q0 -24.1504 -8.9248 -44.0996q-8.9248 -19.9502 -23.625 -34.6504q-14.7002 -14.6992 -35.6992 -23.0996
q-21 -8.39941 -44.0996 -8.39941t-43.0498 8.39941q-19.9492 8.40039 -35.1748 23.0996q-15.2246 14.7002 -23.624 34.6504q-8.40039 19.9492 -8.40039 44.0996q0 23.0996 8.40039 43.5742q8.39941 20.4746 23.624 35.6992q15.2256 15.2246 35.1748 23.625
q19.9502 8.39941 43.0498 8.39941z" />
    <glyph glyph-name="uni1E59" unicode="&#x1e59;" horiz-adv-x="804" 
d="M392 836q64 72 139.5 101t150.5 29q45 0 89.5 -10t79.5 -29l-57 -141q-28 18 -67 28t-79 10q-57 0 -108 -19t-93 -57.5t-73.5 -97t-48.5 -137.5l-110 -513h-150l202 947h149zM613 1389q22 0 42 -8t34 -22.5t22.5 -34t8.5 -41.5q0 -23 -8.5 -42t-22.5 -33t-34 -22t-42 -8
t-41 8t-33.5 22t-22.5 33t-8 42q0 22 8 41.5t22.5 34t33.5 22.5t41 8z" />
    <glyph glyph-name="uni1E5A" unicode="&#x1e5a;" horiz-adv-x="1326" 
d="M891 1400q106 0 188 -26t137 -72t83.5 -109t28.5 -138q0 -80 -29 -159.5t-93.5 -143.5t-166.5 -103.5t-249 -39.5h-64l445 -609h-192l-431 609h-163l-129 -609h-164l298 1400h501zM521 1248l-105 -493h379q101 0 170.5 23t112.5 62t62 90.5t19 107.5q0 48 -18 86.5
t-54 66t-89 42.5t-123 15h-354zM560 -158q22 0 42 -8t34 -22.5t22.5 -34t8.5 -41.5q0 -23 -8.5 -42t-22.5 -33t-34 -22t-42 -8t-41 8t-33.5 22t-22.5 33t-8 42q0 22 8 41.5t22.5 34t33.5 22.5t41 8z" />
    <glyph glyph-name="uni1E5B" unicode="&#x1e5b;" horiz-adv-x="804" 
d="M392 836q64 72 139.5 101t150.5 29q45 0 89.5 -10t79.5 -29l-57 -141q-28 18 -67 28t-79 10q-57 0 -108 -19t-93 -57.5t-73.5 -97t-48.5 -137.5l-110 -513h-150l202 947h149zM83 -158q22 0 42 -8t34 -22.5t22.5 -34t8.5 -41.5q0 -23 -8.5 -42t-22.5 -33t-34 -22t-42 -8
t-41 8t-33.5 22t-22.5 33t-8 42q0 22 8 41.5t22.5 34t33.5 22.5t41 8z" />
    <glyph glyph-name="uni1E5C" unicode="&#x1e5c;" horiz-adv-x="1326" 
d="M891 1400q106 0 188 -26t137 -72t83.5 -109t28.5 -138q0 -80 -29 -159.5t-93.5 -143.5t-166.5 -103.5t-249 -39.5h-64l445 -609h-192l-431 609h-163l-129 -609h-164l298 1400h501zM521 1248l-105 -493h379q101 0 170.5 23t112.5 62t62 90.5t19 107.5q0 48 -18 86.5
t-54 66t-89 42.5t-123 15h-354zM560 -158q22 0 42 -8t34 -22.5t22.5 -34t8.5 -41.5q0 -23 -8.5 -42t-22.5 -33t-34 -22t-42 -8t-41 8t-33.5 22t-22.5 33t-8 42q0 22 8 41.5t22.5 34t33.5 22.5t41 8zM573 1711h598l-25 -121h-598z" />
    <glyph glyph-name="uni1E5D" unicode="&#x1e5d;" horiz-adv-x="804" 
d="M392 836q64 72 139.5 101t150.5 29q45 0 89.5 -10t79.5 -29l-57 -141q-28 18 -67 28t-79 10q-57 0 -108 -19t-93 -57.5t-73.5 -97t-48.5 -137.5l-110 -513h-150l202 947h149zM318 1296h598l-25 -121h-598zM83 -158q22 0 42 -8t34 -22.5t22.5 -34t8.5 -41.5
q0 -23 -8.5 -42t-22.5 -33t-34 -22t-42 -8t-41 8t-33.5 22t-22.5 33t-8 42q0 22 8 41.5t22.5 34t33.5 22.5t41 8z" />
    <glyph glyph-name="uni1E5E" unicode="&#x1e5e;" horiz-adv-x="1326" 
d="M891 1400q106 0 188 -26t137 -72t83.5 -109t28.5 -138q0 -80 -29 -159.5t-93.5 -143.5t-166.5 -103.5t-249 -39.5h-64l445 -609h-192l-431 609h-163l-129 -609h-164l298 1400h501zM521 1248l-105 -493h379q101 0 170.5 23t112.5 62t62 90.5t19 107.5q0 48 -18 86.5
t-54 66t-89 42.5t-123 15h-354zM277 -202h598l-26 -122h-598z" />
    <glyph glyph-name="uni1E5F" unicode="&#x1e5f;" horiz-adv-x="804" 
d="M392 836q64 72 139.5 101t150.5 29q45 0 89.5 -10t79.5 -29l-57 -141q-28 18 -67 28t-79 10q-57 0 -108 -19t-93 -57.5t-73.5 -97t-48.5 -137.5l-110 -513h-150l202 947h149zM-201 -202h598l-26 -122h-598z" />
    <glyph glyph-name="uni1E62" unicode="&#x1e62;" horiz-adv-x="1324" 
d="M1217 1126q-57 40 -115 67.5t-115 43.5t-112 23t-106 7q-96 0 -163.5 -23.5t-110.5 -61t-62.5 -84.5t-19.5 -94q0 -90 65 -142t198 -75l119 -21q85 -15 158 -42t127 -69.5t85 -102t31 -139.5q0 -92 -38.5 -171t-111 -137.5t-178 -91.5t-239.5 -33q-53 0 -122 9t-144 30.5
t-150 58t-139 91.5l96 130q51 -47 114 -79t126.5 -51.5t123 -27.5t102.5 -8q92 0 164.5 20t123 55.5t77.5 83t27 103.5q0 88 -71.5 140t-216.5 77l-122 21q-87 15 -156.5 44.5t-118 73.5t-74.5 102t-26 130q0 81 32 159t98 139.5t167 99.5t239 38q61 0 127.5 -8t134 -26.5
t135 -50t131.5 -78.5zM607 -158q22 0 42 -8t34 -22.5t22.5 -34t8.5 -41.5q0 -23 -8.5 -42t-22.5 -33t-34 -22t-42 -8t-41 8t-33.5 22t-22.5 33t-8 42q0 22 8 41.5t22.5 34t33.5 22.5t41 8z" />
    <glyph glyph-name="uni1E63" unicode="&#x1e63;" horiz-adv-x="953" 
d="M844 746q-27 18 -63 34.5t-77.5 28.5t-86 19t-86.5 7q-99 0 -162.5 -35.5t-71.5 -100.5q-8 -68 36.5 -102t131.5 -47l85 -13q156 -24 225.5 -96t56.5 -180q-7 -63 -39 -114.5t-85 -88t-124.5 -56.5t-158.5 -20q-54 0 -110 9t-110 25.5t-103.5 40.5t-89.5 55l83 111
q60 -48 144.5 -79.5t183.5 -31.5q54 0 99.5 9.5t79 28t53.5 46t24 63.5q12 117 -170 144l-87 13q-80 12 -135.5 36.5t-90 60.5t-47.5 81t-7 97q8 66 39.5 117t82.5 86t119 53t149 18q122 0 222 -29t168 -76zM376 -158q22 0 42 -8t34 -22.5t22.5 -34t8.5 -41.5
q0 -23 -8.5 -42t-22.5 -33t-34 -22t-42 -8t-41 8t-33.5 22t-22.5 33t-8 42q0 22 8 41.5t22.5 34t33.5 22.5t41 8z" />
    <glyph glyph-name="uni1E6C" unicode="&#x1e6c;" horiz-adv-x="1187" 
d="M1313 1248h-469l-265 -1248h-164l265 1248h-477l33 152h1109zM438 -158q22 0 42 -8t34 -22.5t22.5 -34t8.5 -41.5q0 -23 -8.5 -42t-22.5 -33t-34 -22t-42 -8t-41 8t-33.5 22t-22.5 33t-8 42q0 22 8 41.5t22.5 34t33.5 22.5t41 8z" />
    <glyph glyph-name="uni1E6D" unicode="&#x1e6d;" horiz-adv-x="890" 
d="M868 812h-393l-97 -461q-13 -60 -6.5 -103t27.5 -71.5t53.5 -42t73.5 -13.5q54 0 103 17.5t97 50.5l62 -115q-57 -42 -125 -67.5t-154 -25.5q-80 0 -141 24.5t-98.5 71.5t-49.5 117t8 161l97 457h-203l29 135h203l64 301h150l-64 -301h393zM415 -158q22 0 42 -8t34 -22.5
t22.5 -34t8.5 -41.5q0 -23 -8.5 -42t-22.5 -33t-34 -22t-42 -8t-41 8t-33.5 22t-22.5 33t-8 42q0 22 8 41.5t22.5 34t33.5 22.5t41 8z" />
    <glyph glyph-name="uni1E6E" unicode="&#x1e6e;" horiz-adv-x="1187" 
d="M1313 1248h-469l-265 -1248h-164l265 1248h-477l33 152h1109zM155 -202h598l-26 -122h-598z" />
    <glyph glyph-name="uni1E6F" unicode="&#x1e6f;" horiz-adv-x="890" 
d="M868 812h-393l-97 -461q-13 -60 -6.5 -103t27.5 -71.5t53.5 -42t73.5 -13.5q54 0 103 17.5t97 50.5l62 -115q-57 -42 -125 -67.5t-154 -25.5q-80 0 -141 24.5t-98.5 71.5t-49.5 117t8 161l97 457h-203l29 135h203l64 301h150l-64 -301h393zM131 -202h598l-26 -122h-598z
" />
    <glyph glyph-name="Wgrave" unicode="&#x1e80;" horiz-adv-x="2190" 
d="M1577 0h-193l-132 1182l-624 -1182h-200l-161 1400h163l132 -1224l642 1224h176l132 -1218l636 1218h170zM1034 1807h189l210 -300h-148z" />
    <glyph glyph-name="wgrave" unicode="&#x1e81;" horiz-adv-x="1674" 
d="M1128 159l443 788h164l-544 -947h-177l-125 785l-419 -785h-174l-156 947h150l121 -785l420 785h165zM673 1392h189l210 -300h-148z" />
    <glyph glyph-name="Wacute" unicode="&#x1e82;" horiz-adv-x="2190" 
d="M1577 0h-193l-132 1182l-624 -1182h-200l-161 1400h163l132 -1224l642 1224h176l132 -1218l636 1218h170zM1152 1507l241 300h194l-282 -300h-153z" />
    <glyph glyph-name="wacute" unicode="&#x1e83;" horiz-adv-x="1674" 
d="M1128 159l443 788h164l-544 -947h-177l-125 785l-419 -785h-174l-156 947h150l121 -785l420 785h165zM811 1092l241 300h194l-282 -300h-153z" />
    <glyph glyph-name="Wdieresis" unicode="&#x1e84;" horiz-adv-x="2190" 
d="M1577 0h-193l-132 1182l-624 -1182h-200l-161 1400h163l132 -1224l642 1224h176l132 -1218l636 1218h170zM1134 1758q22 0 41.5 -8.5t33.5 -22.5t22.5 -34t8.5 -42q0 -23 -8.5 -42t-22.5 -33t-33.5 -22t-41.5 -8q-45 0 -75.5 30t-30.5 75q0 22 8 42t22.5 34t33.5 22.5
t42 8.5zM1540 1758q22 0 41.5 -8.5t33.5 -22.5t22.5 -34t8.5 -42q0 -23 -8.5 -42t-22.5 -33t-33.5 -22t-41.5 -8q-45 0 -75 30t-30 75q0 22 8 42t22 34t33 22.5t42 8.5z" />
    <glyph glyph-name="wdieresis" unicode="&#x1e85;" horiz-adv-x="1674" 
d="M1128 159l443 788h164l-544 -947h-177l-125 785l-419 -785h-174l-156 947h150l121 -785l420 785h165zM772 1343q22 0 41.5 -8.5t33.5 -22.5t22.5 -34t8.5 -42q0 -23 -8.5 -42t-22.5 -33t-33.5 -22t-41.5 -8q-45 0 -75.5 30t-30.5 75q0 22 8 42t22.5 34t33.5 22.5t42 8.5z
M1178 1343q22 0 41.5 -8.5t33.5 -22.5t22.5 -34t8.5 -42q0 -23 -8.5 -42t-22.5 -33t-33.5 -22t-41.5 -8q-45 0 -75 30t-30 75q0 22 8 42t22 34t33 22.5t42 8.5z" />
    <glyph glyph-name="uni1E88" unicode="&#x1e88;" horiz-adv-x="2190" 
d="M1577 0h-193l-132 1182l-624 -1182h-200l-161 1400h163l132 -1224l642 1224h176l132 -1218l636 1218h170zM975 -158q22 0 42 -8t34 -22.5t22.5 -34t8.5 -41.5q0 -23 -8.5 -42t-22.5 -33t-34 -22t-42 -8t-41 8t-33.5 22t-22.5 33t-8 42q0 22 8 41.5t22.5 34t33.5 22.5
t41 8z" />
    <glyph glyph-name="uni1E89" unicode="&#x1e89;" horiz-adv-x="1674" 
d="M1128 159l443 788h164l-544 -947h-177l-125 785l-419 -785h-174l-156 947h150l121 -785l420 785h165zM695 -158q22 0 42 -8t34 -22.5t22.5 -34t8.5 -41.5q0 -23 -8.5 -42t-22.5 -33t-34 -22t-42 -8t-41 8t-33.5 22t-22.5 33t-8 42q0 22 8 41.5t22.5 34t33.5 22.5t41 8z
" />
    <glyph glyph-name="uni1E92" unicode="&#x1e92;" horiz-adv-x="1305" 
d="M1342 1272l-1049 -1120h848l-33 -152h-1062l29 135l1046 1113h-840l32 152h1056zM551 -158q22 0 42 -8t34 -22.5t22.5 -34t8.5 -41.5q0 -23 -8.5 -42t-22.5 -33t-34 -22t-42 -8t-41 8t-33.5 22t-22.5 33t-8 42q0 22 8 41.5t22.5 34t33.5 22.5t41 8z" />
    <glyph glyph-name="uni1E93" unicode="&#x1e93;" horiz-adv-x="1017" 
d="M968 834l-708 -699h585l-28 -135h-788l24 117l714 695h-579l29 135h776zM385 -158q22 0 42 -8t34 -22.5t22.5 -34t8.5 -41.5q0 -23 -8.5 -42t-22.5 -33t-34 -22t-42 -8t-41 8t-33.5 22t-22.5 33t-8 42q0 22 8 41.5t22.5 34t33.5 22.5t41 8z" />
    <glyph glyph-name="uni1E94" unicode="&#x1e94;" horiz-adv-x="1305" 
d="M1342 1272l-1049 -1120h848l-33 -152h-1062l29 135l1046 1113h-840l32 152h1056zM268 -202h598l-26 -122h-598z" />
    <glyph glyph-name="uni1E95" unicode="&#x1e95;" horiz-adv-x="1017" 
d="M968 834l-708 -699h585l-28 -135h-788l24 117l714 695h-579l29 135h776zM101 -202h598l-26 -122h-598z" />
    <glyph glyph-name="uni1E96" unicode="&#x1e96;" horiz-adv-x="1179" 
d="M704 966q81 0 144.5 -24t107.5 -67.5t67.5 -103t23.5 -131.5q0 -25 -2.5 -51t-8.5 -53l-115 -536h-150l114 535q5 21 7.5 41.5t2.5 40.5q0 45 -13.5 82.5t-41 65.5t-70 43.5t-100.5 15.5q-63 0 -118.5 -19.5t-100 -58.5t-77 -96.5t-48.5 -133.5l-110 -516h-151l307 1440
h149l-129 -609q68 75 150 105t162 30zM152 -202h598l-26 -122h-598z" />
    <glyph glyph-name="uni1E9E" unicode="&#x1e9e;" horiz-adv-x="1454" 
d="M271 935q22 103 71.5 192t125 153.5t175 101.5t221.5 37q93 0 175 -20t150.5 -57t122 -89t88.5 -116l-444 -379q92 -18 164.5 -54t120.5 -88.5t68.5 -120.5t9.5 -150q-12 -87 -57.5 -154.5t-114.5 -114t-157 -71t-184 -24.5q-37 0 -80.5 3.5t-89.5 11t-93 20t-91 31.5
l59 149q77 -35 153.5 -47.5t141.5 -12.5q72 0 132 14.5t105 42.5t73 69.5t35 94.5q8 58 -13 108.5t-66.5 87t-114 57.5t-154.5 21h-87l27 125l447 385q-60 63 -148 93.5t-188 30.5q-80 0 -149.5 -25t-125 -71t-93.5 -111t-55 -145l-194 -913h-164z" />
    <glyph glyph-name="Ygrave" unicode="&#x1ef2;" horiz-adv-x="1274" 
d="M741 585l-124 -585h-164l127 601l-370 799h173l303 -657l569 657h203zM561 1807h189l210 -300h-148z" />
    <glyph glyph-name="ygrave" unicode="&#x1ef3;" horiz-adv-x="1037" 
d="M156 -404h-171l456 626l-322 725h158l259 -593l419 593h169zM354 1392h189l210 -300h-148z" />
    <glyph glyph-name="uni1EF4" unicode="&#x1ef4;" horiz-adv-x="1274" 
d="M741 585l-124 -585h-164l127 601l-370 799h173l303 -657l569 657h203zM477 -158q22 0 42 -8t34 -22.5t22.5 -34t8.5 -41.5q0 -23 -8.5 -42t-22.5 -33t-34 -22t-42 -8t-41 8t-33.5 22t-22.5 33t-8 42q0 22 8 41.5t22.5 34t33.5 22.5t41 8z" />
    <glyph glyph-name="uni1EF5" unicode="&#x1ef5;" horiz-adv-x="1037" 
d="M156 -404h-171l456 626l-322 725h158l259 -593l419 593h169zM667 -158q22 0 42 -8t34 -22.5t22.5 -34t8.5 -41.5q0 -23 -8.5 -42t-22.5 -33t-34 -22t-42 -8t-41 8t-33.5 22t-22.5 33t-8 42q0 22 8 41.5t22.5 34t33.5 22.5t41 8z" />
    <glyph glyph-name="uni2007" unicode="&#x2007;" horiz-adv-x="1410" 
 />
    <glyph glyph-name="uni2008" unicode="&#x2008;" horiz-adv-x="505" 
 />
    <glyph glyph-name="uni2009" unicode="&#x2009;" horiz-adv-x="178" 
 />
    <glyph glyph-name="uni200B" unicode="&#x200b;" horiz-adv-x="0" 
 />
    <glyph glyph-name="uni2010" unicode="&#x2010;" horiz-adv-x="816" 
d="M678 461h-546l29 136h546z" />
    <glyph glyph-name="uni2011" unicode="&#x2011;" horiz-adv-x="816" 
d="M678 461h-546l29 136h546z" />
    <glyph glyph-name="figuredash" unicode="&#x2012;" horiz-adv-x="1200" 
d="M1050 461h-933l28 136h933z" />
    <glyph glyph-name="endash" unicode="&#x2013;" horiz-adv-x="1164" 
d="M1046 461h-933l28 136h933z" />
    <glyph glyph-name="emdash" unicode="&#x2014;" horiz-adv-x="1592" 
d="M1532 461h-1475l27 136h1475z" />
    <glyph glyph-name="quoteleft" unicode="&#x2018;" horiz-adv-x="483" 
d="M225 933l203 507h138l-167 -507h-174z" />
    <glyph glyph-name="quoteright" unicode="&#x2019;" horiz-adv-x="483" 
d="M561 1440l-203 -507h-138l167 507h174z" />
    <glyph glyph-name="quotesinglbase" unicode="&#x201a;" horiz-adv-x="483" 
d="M308 248l-203 -507h-138l167 507h174z" />
    <glyph glyph-name="quotedblleft" unicode="&#x201c;" horiz-adv-x="837" 
d="M225 933l203 507h138l-167 -507h-174zM579 933l203 507h138l-167 -507h-174z" />
    <glyph glyph-name="quotedblright" unicode="&#x201d;" horiz-adv-x="837" 
d="M915 1440l-203 -507h-138l167 507h174zM561 1440l-203 -507h-138l167 507h174z" />
    <glyph glyph-name="quotedblbase" unicode="&#x201e;" horiz-adv-x="837" 
d="M662 248l-203 -507h-138l167 507h174zM308 248l-203 -507h-138l167 507h174z" />
    <glyph glyph-name="dagger" unicode="&#x2020;" horiz-adv-x="732" 
d="M347 673l92 439h-207l25 120h208l44 208h123l-44 -208h208l-25 -120h-209l-92 -439h-123z" />
    <glyph glyph-name="daggerdbl" unicode="&#x2021;" horiz-adv-x="733" 
d="M595 1260h208l-26 -120h-208l-35 -166h207l-25 -121h-208l-38 -180h-123l38 180h-208l25 121h208l35 166h-207l26 120h207l38 180h124z" />
    <glyph glyph-name="bullet" unicode="&#x2022;" horiz-adv-x="839" 
d="M436 756q46 0 87.5 -18t72.5 -48.5t49 -72t18 -88.5t-18 -88.5t-49 -72t-72.5 -48.5t-87.5 -18q-47 0 -88.5 18t-72.5 48.5t-48.5 72t-17.5 88.5t17.5 88.5t48.5 72t72.5 48.5t88.5 18z" />
    <glyph glyph-name="uni2023" unicode="&#x2023;" horiz-adv-x="1015" 
d="M190 180l149 698l529 -349z" />
    <glyph glyph-name="ellipsis" unicode="&#x2026;" horiz-adv-x="1472" 
d="M179 233q25 0 47.5 -10t39.5 -27.5t27 -40t10 -47.5t-10 -48t-27 -40t-39.5 -27.5t-47.5 -10.5t-48 10.5t-40 27.5t-27.5 40t-10.5 48t10.5 47.5t27.5 40t40 27.5t48 10zM662 233q25 0 47.5 -10t40 -27.5t27.5 -40t10 -47.5t-10 -48t-27.5 -40t-40 -27.5t-47.5 -10.5
t-47.5 10.5t-40 27.5t-27.5 40t-10 48t10 47.5t27.5 40t40 27.5t47.5 10zM1145 233q25 0 47.5 -10t40 -27.5t27.5 -40t10 -47.5t-10 -48t-27.5 -40t-40 -27.5t-47.5 -10.5t-47.5 10.5t-40 27.5t-27.5 40t-10 48t10 47.5t27.5 40t40 27.5t47.5 10z" />
    <glyph glyph-name="perthousand" unicode="&#x2030;" horiz-adv-x="2785" 
d="M597 1419q73 0 134.5 -25t106.5 -69t70 -105.5t25 -134.5q0 -79 -29 -149.5t-80.5 -124t-121.5 -84.5t-151 -31q-74 0 -136 24.5t-107 69t-70 105.5t-25 134q0 79 29 150t80.5 124.5t122 84.5t152.5 31zM589 1287q-52 0 -95 -20t-74 -54.5t-48.5 -79.5t-17.5 -96
q0 -46 15 -84.5t42 -66t64.5 -43t81.5 -15.5q52 0 95.5 20t74.5 54t48.5 79t17.5 96q0 46 -15 84.5t-42 66.5t-64.5 43.5t-82.5 15.5zM590 0h-166l1055 1400h166zM1518 703q73 0 135 -24.5t107 -69t70 -105.5t25 -134q0 -80 -29 -150.5t-80.5 -124t-121.5 -84.5t-152 -31
q-74 0 -135.5 25t-106.5 69t-70 105.5t-25 134.5q0 79 29 149.5t80.5 124t121.5 84.5t152 31zM1511 571q-52 0 -95 -20t-74.5 -54t-49 -79t-17.5 -96q0 -46 15 -84.5t42 -66.5t64.5 -43.5t82.5 -15.5q52 0 95 20t74 54.5t48.5 79.5t17.5 96q0 46 -15 84.5t-42 66t-64.5 43
t-81.5 15.5zM2333 703q73 0 134.5 -24.5t106.5 -69t70 -105.5t25 -134q0 -80 -29 -150.5t-80.5 -124t-121.5 -84.5t-152 -31q-74 0 -135.5 25t-106.5 69t-70 105.5t-25 134.5q0 79 29 149.5t80.5 124t122 84.5t152.5 31zM2325 571q-52 0 -95 -20t-74.5 -54t-49 -79
t-17.5 -96q0 -46 15.5 -84.5t42.5 -66.5t64.5 -43.5t81.5 -15.5q52 0 95 20t74.5 54.5t49 79.5t17.5 96q0 46 -15.5 84.5t-42.5 66t-64.5 43t-81.5 15.5z" />
    <glyph glyph-name="minute" unicode="&#x2032;" horiz-adv-x="534" 
d="M603 1400l-268 -632h-150l268 632h150z" />
    <glyph glyph-name="second" unicode="&#x2033;" horiz-adv-x="854" 
d="M923 1400l-268 -632h-150l268 632h150zM603 1400l-268 -632h-150l268 632h150z" />
    <glyph glyph-name="uni2034" unicode="&#x2034;" horiz-adv-x="1125" 
d="M898 1400l-268 -632h-150l268 632h150zM1194 1400l-268 -632h-150l268 632h150zM603 1400l-268 -632h-150l268 632h150z" />
    <glyph glyph-name="guilsinglleft" unicode="&#x2039;" horiz-adv-x="625" 
d="M283 514l108 -355h-152l-113 370l271 370h167z" />
    <glyph glyph-name="guilsinglright" unicode="&#x203a;" horiz-adv-x="626" 
d="M367 544l-108 355h152l113 -370l-271 -370h-167z" />
    <glyph glyph-name="fraction" unicode="&#x2044;" horiz-adv-x="436" 
d="M-227 0h-157l1055 1400h157z" />
    <glyph glyph-name="uni2070" unicode="&#x2070;" horiz-adv-x="863" 
d="M605 1411q64 0 117 -21.5t90.5 -62t58.5 -98t21 -128.5q0 -56 -12 -114.5t-35 -113.5t-57 -103.5t-78.5 -85t-98.5 -57.5t-117 -21q-64 0 -117 21.5t-90.5 62t-58.5 98t-21 128.5q0 56 12 114.5t35 113.5t57 103.5t78.5 85t98.5 57.5t117 21zM599 1294q-64 0 -113 -35
t-82.5 -89t-50.5 -119t-17 -125q0 -95 44.5 -149.5t119.5 -54.5q64 0 113 34.5t82.5 88.5t50.5 119t17 126q0 97 -44.5 150.5t-119.5 53.5z" />
    <glyph glyph-name="uni2071" unicode="&#x2071;" horiz-adv-x="407" 
d="M300 617h-123l140 662h123zM422 1588q35 0 59 -23.5t24 -58.5t-24 -58t-59 -23t-58 23t-23 58t23 58.5t58 23.5z" />
    <glyph glyph-name="uni2074" unicode="&#x2074;" horiz-adv-x="678" 
d="M605 884h123l-24 -114h-123l-32 -153h-122l32 153h-356l21 97l363 532h140l-352 -515h209l46 214h121z" />
    <glyph glyph-name="uni2075" unicode="&#x2075;" horiz-adv-x="685" 
d="M717 1287h-320l-49 -192h77q74 0 127 -21.5t84.5 -57.5t42 -84t0.5 -100q-12 -58 -39.5 -100.5t-67.5 -70.5t-90.5 -41.5t-106.5 -13.5q-81 0 -148 29.5t-109 86.5l77 78q34 -43 82 -63t103 -20q73 0 118.5 33.5t56.5 89.5q5 29 0 55.5t-24 46.5t-53.5 32t-87.5 12h-175
l98 413h428z" />
    <glyph glyph-name="uni2076" unicode="&#x2076;" horiz-adv-x="702" 
d="M428 1121q16 3 37 3q55 0 103.5 -17t84 -47.5t56 -74.5t20.5 -98q0 -57 -22.5 -108t-62.5 -89.5t-96 -60.5t-123 -22q-59 0 -109.5 17.5t-88.5 49t-59.5 76.5t-21.5 100q0 49 20.5 101.5t68.5 112.5l272 335h154zM446 1019q-39 0 -70.5 -13t-54 -35t-35 -52t-12.5 -63
q0 -31 11.5 -56.5t31.5 -44t48.5 -29t63.5 -10.5q38 0 70 13t54.5 35t35 52t12.5 63q0 31 -12 57t-32.5 44.5t-49 28.5t-61.5 10z" />
    <glyph glyph-name="uni2077" unicode="&#x2077;" horiz-adv-x="650" 
d="M770 1298l-430 -681h-145l429 669h-401l24 113h543z" />
    <glyph glyph-name="uni2078" unicode="&#x2078;" horiz-adv-x="750" 
d="M558 1410q51 0 97 -13t81 -38t55.5 -60t20.5 -80q0 -71 -47 -127.5t-134 -84.5q53 -23 85 -61.5t32 -92.5q0 -51 -22.5 -96t-65 -78.5t-103 -53t-136.5 -19.5q-55 0 -103.5 13.5t-85 38.5t-57.5 61t-21 81q0 74 48.5 131.5t139.5 84.5q-44 22 -70 58t-26 87q0 50 21.5 95
t61.5 79.5t98 54.5t131 20zM471 964q-42 0 -76 -11t-58 -30t-37.5 -45.5t-13.5 -56.5q0 -26 11.5 -46t31.5 -34t46.5 -21t56.5 -7q41 0 75.5 10.5t59 29.5t38.5 45t14 57q0 25 -11.5 45t-31.5 34.5t-47 22t-58 7.5zM547 1301q-40 0 -72 -10.5t-54 -29t-34 -43.5t-12 -54
q0 -47 36.5 -74.5t94.5 -27.5q39 0 71 10.5t55.5 29t36 43t12.5 53.5q0 25 -11 44t-29.5 32t-42.5 20t-51 7z" />
    <glyph glyph-name="uni2079" unicode="&#x2079;" horiz-adv-x="702" 
d="M499 895q-17 -3 -35 -3q-56 0 -104 17t-83.5 47.5t-56 74.5t-20.5 98q0 57 22.5 108t63 89.5t96 60.5t122.5 22q58 0 109 -17.5t89 -49t59.5 -76.5t21.5 -100q0 -49 -20.5 -101.5t-68.5 -112.5l-272 -335h-155zM484 998q38 0 69.5 13t54 35t35 51.5t12.5 62.5
q0 31 -11.5 56.5t-31.5 44t-49 29t-63 10.5q-38 0 -70 -13t-54.5 -35t-35 -52t-12.5 -63q0 -31 12 -56.5t33 -44t49.5 -28.5t61.5 -10z" />
    <glyph glyph-name="uni207F" unicode="&#x207f;" horiz-adv-x="818" 
d="M607 1292q55 0 99 -16.5t74 -46.5t46 -71.5t16 -90.5q0 -36 -9 -73l-81 -377h-124l80 373q6 27 6 52q0 58 -35 96t-110 38q-80 0 -140 -51.5t-81 -150.5l-75 -357h-123l140 662h121l-19 -84q45 53 100.5 75t114.5 22z" />
    <glyph glyph-name="uni2080" unicode="&#x2080;" horiz-adv-x="863" 
d="M402 424q64 0 117 -21.5t90.5 -62t58.5 -98t21 -128.5q0 -56 -12 -114.5t-35 -113.5t-57 -103.5t-78.5 -85t-98.5 -57.5t-117 -21q-64 0 -117 21.5t-90.5 62t-58.5 98t-21 128.5q0 56 12 114.5t35 113.5t57 103.5t78.5 85t98.5 57.5t117 21zM396 307q-64 0 -113 -35
t-82.5 -89t-50.5 -119t-17 -125q0 -95 44.5 -149.5t119.5 -54.5q64 0 113 34.5t82.5 88.5t50.5 119t17 126q0 97 -44.5 150.5t-119.5 53.5z" />
    <glyph glyph-name="uni2081" unicode="&#x2081;" horiz-adv-x="522" 
d="M206 -370h-122l133 623l-225 -77l26 127l356 119z" />
    <glyph glyph-name="uni2082" unicode="&#x2082;" horiz-adv-x="679" 
d="M33 297q19 23 44.5 45.5t57.5 40.5t71 29t84 11q61 0 106 -18.5t74.5 -48.5t44 -68.5t14.5 -78.5q0 -39 -10.5 -73t-31.5 -66.5t-53 -65.5t-75 -70l-223 -191h329l-24 -113h-508l20 97l326 278q65 56 95 98.5t30 89.5q0 22 -8 43t-24.5 36.5t-40.5 25t-56 9.5
q-55 0 -95 -25t-71 -60z" />
    <glyph glyph-name="uni2083" unicode="&#x2083;" horiz-adv-x="675" 
d="M21 316q47 49 109.5 78t150.5 29q56 0 101 -15t77 -41t49 -61t17 -75q0 -34 -11.5 -66.5t-33.5 -60.5t-53 -50t-71 -35q51 -21 79 -61t28 -94q0 -49 -20 -93.5t-58.5 -78t-94.5 -53.5t-129 -20q-88 0 -152 27.5t-100 76.5l81 76q29 -34 74 -52t99 -18q45 0 78.5 11.5
t55 30.5t32 44t10.5 52q0 49 -39.5 77t-102.5 28h-96l22 107h93q43 0 76.5 11.5t57 30t35.5 42.5t12 50q0 45 -36.5 72.5t-96.5 27.5q-57 0 -103 -24t-78 -58z" />
    <glyph glyph-name="uni2084" unicode="&#x2084;" horiz-adv-x="678" 
d="M399 -103h123l-24 -114h-123l-32 -153h-122l32 153h-356l21 97l363 532h140l-352 -515h209l46 214h121z" />
    <glyph glyph-name="uni2085" unicode="&#x2085;" horiz-adv-x="684" 
d="M512 300h-320l-49 -192h77q74 0 127 -21.5t84.5 -57.5t42 -84t0.5 -100q-12 -58 -39.5 -100.5t-67.5 -70.5t-90.5 -41.5t-106.5 -13.5q-81 0 -148 29.5t-109 86.5l77 78q34 -43 82 -63t103 -20q73 0 118.5 33.5t56.5 89.5q5 29 0 55.5t-24 46.5t-53.5 32t-87.5 12h-175
l98 413h428z" />
    <glyph glyph-name="uni2086" unicode="&#x2086;" horiz-adv-x="703" 
d="M223 134q16 3 37 3q55 0 103.5 -17t84 -47.5t56 -74.5t20.5 -98q0 -57 -22.5 -108t-62.5 -89.5t-96 -60.5t-123 -22q-59 0 -109.5 17.5t-88.5 49t-59.5 76.5t-21.5 100q0 49 20.5 101.5t68.5 112.5l272 335h154zM241 32q-39 0 -70.5 -13t-54 -35t-35 -52t-12.5 -63
q0 -31 11.5 -56.5t31.5 -44t48.5 -29t63.5 -10.5q38 0 70 13t54.5 35t35 52t12.5 63q0 31 -12 57t-32.5 44.5t-49 28.5t-61.5 10z" />
    <glyph glyph-name="uni2087" unicode="&#x2087;" horiz-adv-x="649" 
d="M564 311l-430 -681h-145l429 669h-401l24 113h543z" />
    <glyph glyph-name="uni2088" unicode="&#x2088;" horiz-adv-x="750" 
d="M354 423q51 0 97 -13t81 -38t55.5 -60t20.5 -80q0 -71 -47 -127.5t-134 -84.5q53 -23 85 -61.5t32 -92.5q0 -51 -22.5 -96t-65 -78.5t-103 -53t-136.5 -19.5q-55 0 -103.5 13.5t-85 38.5t-57.5 61t-21 81q0 74 48.5 131.5t139.5 84.5q-44 22 -70 58t-26 87q0 50 21.5 95
t61.5 79.5t98 54.5t131 20zM267 -23q-42 0 -76 -11t-58 -30t-37.5 -45.5t-13.5 -56.5q0 -26 11.5 -46t31.5 -34t46.5 -21t56.5 -7q41 0 75.5 10.5t59 29.5t38.5 45t14 57q0 25 -11.5 45t-31.5 34.5t-47 22t-58 7.5zM343 314q-40 0 -72 -10.5t-54 -29t-34 -43.5t-12 -54
q0 -47 36.5 -74.5t94.5 -27.5q39 0 71 10.5t55.5 29t36 43t12.5 53.5q0 25 -11 44t-29.5 32t-42.5 20t-51 7z" />
    <glyph glyph-name="uni2089" unicode="&#x2089;" horiz-adv-x="703" 
d="M287 -92q-17 -3 -35 -3q-56 0 -104 17t-83.5 47.5t-56 74.5t-20.5 98q0 57 22.5 108t63 89.5t96 60.5t122.5 22q58 0 109 -17.5t89 -49t59.5 -76.5t21.5 -100q0 -49 -20.5 -101.5t-68.5 -112.5l-272 -335h-155zM272 11q38 0 69.5 13t54 35t35 51.5t12.5 62.5
q0 31 -11.5 56.5t-31.5 44t-49 29t-63 10.5q-38 0 -70 -13t-54.5 -35t-35 -52t-12.5 -63q0 -31 12 -56.5t33 -44t49.5 -28.5t61.5 -10z" />
    <glyph glyph-name="Euro" unicode="&#x20ac;" horiz-adv-x="1400" 
d="M1299 234q-80 -115 -198 -181t-266 -66q-106 0 -198.5 32.5t-164.5 95t-119.5 155t-62.5 212.5h-189l25 124h157q0 61 9 127q2 17 4.5 34.5t6.5 34.5h-139l25 124h146q37 114 99 205t144.5 154t183 97t215.5 34q63 0 127 -11.5t125.5 -39.5t119 -75.5t107.5 -120.5
l-115 -98q-38 57 -81 96t-90 63t-98 34t-104 10q-82 0 -154 -23.5t-132 -68.5t-107 -109.5t-78 -146.5h646l-27 -124h-654q-4 -19 -7.5 -37.5t-5.5 -38.5q-5 -32 -6.5 -61.5t-1.5 -58.5h634l-26 -124h-598q15 -88 51.5 -154t88 -110.5t116 -66.5t136.5 -22q58 0 111.5 15
t99.5 41.5t84.5 64t68.5 82.5z" />
    <glyph glyph-name="uni20BA" unicode="&#x20ba;" horiz-adv-x="1400" 
d="M1253 366q-44 -107 -106 -177.5t-138.5 -112.5t-164.5 -59t-183 -17h-403l72 339l-212 -94l29 141l213 94l43 202l-213 -94l28 141l215 95l123 576h155l-106 -500l508 225l-28 -141l-510 -226l-43 -202l509 226l-28 -142l-511 -226l-57 -265h232q72 0 138 12.5
t123.5 44.5t105 87t82.5 140z" />
    <glyph glyph-name="uni2100" unicode="&#x2100;" horiz-adv-x="1909" 
d="M643 1419q62 0 111 -15.5t83.5 -45t52.5 -72t18 -95.5q0 -18 -2 -36.5t-6 -38.5l-79 -372h-121l15 72q-42 -38 -96.5 -62t-119.5 -24q-48 0 -88 13t-68.5 37t-44.5 57.5t-16 74.5q0 46 18 86t54 70t90 47t126 17h209q2 12 3.5 23t1.5 22q0 64 -41.5 98.5t-121.5 34.5
q-62 0 -110 -19t-88 -43l-34 100q57 35 118 53t136 18zM534 833q55 0 108 24.5t95 67.5l23 116h-180q-44 0 -76 -9.5t-52 -25.5t-29.5 -37t-9.5 -43q0 -44 32 -68.5t89 -24.5zM594 0h-157l1055 1400h157zM1675 468q-36 49 -82 67t-89 18q-51 0 -95.5 -20t-76.5 -54.5
t-50.5 -80t-18.5 -97.5q0 -45 14.5 -82.5t40.5 -64.5t61.5 -42t77.5 -15q49 0 92.5 18.5t78.5 53.5l79 -77q-49 -54 -114.5 -82t-140.5 -28q-71 0 -129 23.5t-99 65t-64 98.5t-23 124q0 76 27.5 144.5t77 119.5t118 81t149.5 30q92 0 160 -36t108 -102z" />
    <glyph glyph-name="uni2101" unicode="&#x2101;" horiz-adv-x="1909" 
d="M632 1419q62 0 111 -15.5t83.5 -45t52.5 -72t18 -95.5q0 -18 -2 -36.5t-6 -38.5l-79 -372h-121l15 72q-42 -38 -96.5 -62t-119.5 -24q-48 0 -88 13t-68.5 37t-44.5 57.5t-16 74.5q0 46 18 86t54 70t90 47t126 17h209q2 12 3.5 23t1.5 22q0 64 -41.5 98.5t-121.5 34.5
q-62 0 -110 -19t-88 -43l-34 100q57 35 118 53t136 18zM523 833q55 0 108 24.5t95 67.5l23 116h-180q-44 0 -76 -9.5t-52 -25.5t-29.5 -37t-9.5 -43q0 -44 32 -68.5t89 -24.5zM581 0h-157l1055 1400h157zM1687 502q-21 14 -47.5 25.5t-56 19.5t-59 12.5t-56.5 4.5
q-63 0 -103.5 -22t-45.5 -63q-5 -43 24 -63.5t91 -31.5l58 -10q107 -18 154 -68.5t38 -125.5q-11 -94 -88 -146.5t-201 -52.5q-39 0 -80 6.5t-79 18t-72 28.5t-61 38l61 91q45 -33 105 -55.5t127 -22.5q70 0 113.5 23t48.5 69q4 38 -24 60.5t-91 32.5l-58 9q-56 9 -95 26.5
t-62.5 43t-32 57.5t-3.5 69q6 47 28 83t58 61t84.5 37.5t106.5 12.5q84 0 154 -20.5t122 -54.5z" />
    <glyph glyph-name="afii61248" unicode="&#x2105;" horiz-adv-x="1909" 
d="M780 1218q-36 49 -82 67t-89 18q-51 0 -95.5 -20t-76.5 -54.5t-50.5 -80t-18.5 -97.5q0 -45 14.5 -82.5t40.5 -64.5t61.5 -42t77.5 -15q49 0 92.5 18.5t78.5 53.5l79 -77q-49 -54 -114.5 -82t-140.5 -28q-71 0 -129 23.5t-99 65t-64 98.5t-23 124q0 76 27.5 144.5
t77 119.5t118 81t149.5 30q92 0 160 -36t108 -102zM523 0h-157l1055 1400h157zM1443 669q70 0 129 -23t101.5 -64.5t66.5 -99t24 -125.5q0 -77 -28.5 -145.5t-79 -120t-119 -81.5t-149.5 -30q-70 0 -129 23t-102 64.5t-67 99t-24 126.5q0 77 28.5 145.5t79 119.5t119.5 81
t150 30zM1433 554q-51 0 -95 -20t-76 -54.5t-50.5 -81t-18.5 -98.5q0 -45 15 -82.5t41.5 -64.5t63.5 -42t82 -15q52 0 96.5 20t77 54.5t51 81t18.5 98.5q0 45 -15 82.5t-42.5 64.5t-65 42t-82.5 15z" />
    <glyph glyph-name="uni2106" unicode="&#x2106;" horiz-adv-x="1909" 
d="M784 1218q-36 49 -82 67t-89 18q-51 0 -95.5 -20t-76.5 -54.5t-50.5 -80t-18.5 -97.5q0 -45 14.5 -82.5t40.5 -64.5t61.5 -42t77.5 -15q49 0 92.5 18.5t78.5 53.5l79 -77q-49 -54 -114.5 -82t-140.5 -28q-71 0 -129 23.5t-99 65t-64 98.5t-23 124q0 76 27.5 144.5
t77 119.5t118 81t149.5 30q92 0 160 -36t108 -102zM519 0h-157l1055 1400h157zM1721 272q-16 -75 -49 -129t-78.5 -88.5t-101 -51t-115.5 -16.5q-56 0 -104 15t-83 45t-55 74t-20 101q0 36 9 78l77 362h124l-80 -371q-6 -30 -6 -54q0 -35 11 -60t31 -41.5t47.5 -24.5
t60.5 -8q38 0 72.5 12t62 36t48 60t30.5 84l78 367h124z" />
    <glyph glyph-name="afii61289" unicode="&#x2113;" horiz-adv-x="1072" 
d="M171 506q42 17 83 36t79 40l1 505q0 80 22 148.5t61.5 118t96.5 77.5t128 28q66 0 120.5 -22.5t94 -63.5t61 -97.5t21.5 -123.5q0 -99 -34.5 -189.5t-96 -171.5t-145 -152t-181.5 -131v-175q0 -56 13.5 -96t37.5 -65.5t57 -38t72 -12.5q57 0 108 20t93 52l60 -119
q-52 -40 -120 -67t-153 -27q-149 0 -233 86t-84 265v95q-54 -26 -108 -48zM482 674q69 49 125.5 104.5t96 116t61 125t21.5 132.5q0 78 -38 122.5t-106 44.5q-35 0 -64 -16t-50 -46t-33 -73t-12 -97z" />
    <glyph glyph-name="afii61352" unicode="&#x2116;" horiz-adv-x="2363" 
d="M2285 444h-664l29 135h664zM2083 1413q72 0 133 -23t104.5 -65t68 -100t24.5 -127q0 -75 -28.5 -142t-78.5 -117t-118 -79.5t-148 -29.5q-73 0 -133.5 23.5t-104 65.5t-67.5 99t-24 125q0 75 28 142t77.5 118t117.5 80.5t149 29.5zM2077 1299q-53 0 -97 -20t-76 -54
t-50 -79t-18 -95q0 -45 15.5 -83t43 -65.5t66 -43t84.5 -15.5q53 0 97.5 20t77 53.5t50.5 78.5t18 96q0 45 -15.5 83t-43.5 65.5t-67 43t-85 15.5zM1254 0h-149l-605 1147l-245 -1147h-163l298 1400h151l604 -1147l244 1147h164z" />
    <glyph glyph-name="uni2117" unicode="&#x2117;" horiz-adv-x="1892" 
d="M940 -90q-103 0 -199 25t-180 72t-153.5 113.5t-119 148.5t-77 179t-27.5 204q0 111 30.5 217t86 200.5t134 174.5t175 137.5t208 90t234.5 32.5q103 0 199 -25t180 -72t153.5 -113.5t119 -148.5t77 -179t27.5 -204q0 -111 -30.5 -217t-86 -200.5t-134 -174.5
t-175 -137.5t-208.5 -90t-234 -32.5zM1042 1373q-103 0 -196 -27.5t-173.5 -76t-145.5 -115.5t-110.5 -146t-70.5 -167.5t-25 -180.5q0 -135 50 -248.5t136 -196t200.5 -128.5t242.5 -46q103 0 196 27.5t173.5 76t145.5 115.5t110.5 146t70.5 167.5t25 180.5
q0 135 -50 248.5t-136 196t-200.5 128.5t-242.5 46zM1128 1124q79 0 140 -22.5t99 -61.5t52.5 -91.5t1.5 -113.5q-13 -60 -44 -104.5t-78 -73.5t-107.5 -43t-132.5 -14h-228l-68 -321h-133l179 845h319zM917 1003l-60 -284h202q95 0 154.5 29t73.5 100q13 68 -29 111.5
t-137 43.5h-204z" />
    <glyph glyph-name="uni2120" unicode="&#x2120;" horiz-adv-x="1454" 
d="M695 1253q-24 16 -50 27t-51.5 18t-49.5 9.5t-43 2.5q-33 0 -57 -6.5t-39.5 -17.5t-23 -25t-7.5 -29q0 -33 30.5 -50t81.5 -25l40 -6q81 -12 129 -50.5t48 -102.5q0 -42 -18 -77.5t-51 -60.5t-80.5 -39t-107.5 -14q-30 0 -64.5 4.5t-69.5 14t-68 24.5t-60 36l59 85
q24 -18 51.5 -31t55 -21t53.5 -11.5t49 -3.5q64 0 100 22t36 57q0 32 -29 48t-88 26l-41 6q-81 13 -126 52.5t-45 102.5q0 39 15.5 73t46 60t76 41t105.5 15q26 0 56 -2.5t62 -10t65 -21t65 -35.5zM1342 815l93 443l-245 -382h-113l-84 381l-94 -442h-108l125 586h148
l91 -403l261 403h158l-125 -586h-107z" />
    <glyph glyph-name="trademark" unicode="&#x2122;" horiz-adv-x="1427" 
d="M1315 815l93 443l-245 -382h-113l-84 381l-94 -442h-108l125 586h148l91 -403l261 403h158l-125 -586h-107zM346 815l103 486h-195l20 99h500l-21 -99h-196l-103 -486h-108z" />
    <glyph glyph-name="Omega" unicode="&#x2126;" horiz-adv-x="1711" 
d="M1572 0h-596l28 136q103 26 187.5 85.5t143.5 142t91.5 183t32.5 209.5q0 113 -38.5 207t-108 161.5t-165.5 105t-210 37.5q-129 0 -238.5 -49t-190 -133.5t-125.5 -198.5t-45 -243q0 -94 25 -175t71.5 -145.5t111.5 -111t145 -70.5l-29 -141h-601l32 152h353
q-64 40 -115 93t-86.5 117.5t-54.5 138.5t-19 157q0 105 26.5 202.5t75.5 182t118.5 154t155 118.5t185.5 76.5t211 27.5q150 0 275.5 -47.5t217 -133t142.5 -205t51 -262.5q0 -97 -22 -187t-66 -169t-109.5 -145.5t-152.5 -117.5h325z" />
    <glyph glyph-name="estimated" unicode="&#x212e;" horiz-adv-x="2000" 
d="M516 326q0 -74 22 -130t82 -100q93 -69 205.5 -105t238.5 -36q97 0 187 21.5t169 62.5t145 100t116 134l47 -36q-54 -80 -125.5 -143.5t-157 -107.5t-182 -67t-199.5 -23q-109 0 -211 26t-190.5 75t-161.5 120t-125.5 160.5t-81 195.5t-28.5 227q0 120 28.5 226.5t81 196
t125.5 160.5t161.5 120t190 75t211.5 26q165 0 310 -58t253.5 -163.5t171.5 -253.5t63 -329v-29h-1346v-345zM1623 729v335q0 74 -21 130t-80 101q-95 73 -211 111.5t-247 38.5q-126 0 -238.5 -36t-205.5 -105q-60 -44 -82 -100t-22 -130v-345h1107z" />
    <glyph glyph-name="uni214D" unicode="&#x214d;" horiz-adv-x="1909" 
d="M882 671h-125l-30 179h-323l-104 -179h-136l439 729h147zM1722 553q-28 21 -59 34.5t-62 22t-60 12t-52 3.5q-41 0 -70.5 -9t-48.5 -24t-28 -33.5t-9 -37.5q0 -43 37.5 -65t100.5 -33l48 -9q98 -18 153 -63.5t55 -122.5q0 -52 -21 -95.5t-61 -75.5t-97.5 -50t-130.5 -18
q-37 0 -78.5 5.5t-83 17.5t-80.5 30.5t-71 44.5l69 99q60 -46 128 -65t125 -19q81 0 123.5 31t42.5 77q0 41 -35.5 61.5t-105.5 33.5l-49 9q-98 18 -150.5 65t-52.5 124q0 47 18.5 89.5t55 75t90.5 51.5t126 19q31 0 67 -3.5t74.5 -13t78 -26.5t78.5 -44zM470 963h238
l-53 316zM610 0h-157l1055 1400h157z" />
    <glyph glyph-name="uni2150" unicode="&#x2150;" horiz-adv-x="1649" 
d="M314 0h-157l1055 1400h157zM1636 681l-430 -681h-145l429 669h-401l24 113h543zM412 617h-122l133 623l-225 -77l26 127l356 119z" />
    <glyph glyph-name="uni2151" unicode="&#x2151;" horiz-adv-x="1680" 
d="M314 0h-157l1055 1400h157zM1346 278q-17 -3 -35 -3q-56 0 -104 17t-83.5 47.5t-56 74.5t-20.5 98q0 57 22.5 108t63 89.5t96 60.5t122.5 22q58 0 109 -17.5t89 -49t59.5 -76.5t21.5 -100q0 -49 -20.5 -101.5t-68.5 -112.5l-272 -335h-155zM1331 381q38 0 69.5 13t54 35
t35 51.5t12.5 62.5q0 31 -11.5 56.5t-31.5 44t-49 29t-63 10.5q-38 0 -70 -13t-54.5 -35t-35 -52t-12.5 -63q0 -31 12 -56.5t33 -44t49.5 -28.5t61.5 -10zM412 617h-122l133 623l-225 -77l26 127l356 119z" />
    <glyph glyph-name="uni2152" unicode="&#x2152;" horiz-adv-x="2376" 
d="M314 0h-157l1055 1400h157zM1264 0h-122l133 623l-225 -77l26 127l356 119zM1986 794q64 0 117 -21.5t90.5 -62t58.5 -98t21 -128.5q0 -56 -12 -114.5t-35 -113.5t-57 -103.5t-78.5 -85t-98.5 -57.5t-117 -21q-64 0 -117 21.5t-90.5 62t-58.5 98t-21 128.5q0 56 12 114.5
t35 113.5t57 103.5t78.5 85t98.5 57.5t117 21zM1980 677q-64 0 -113 -35t-82.5 -89t-50.5 -119t-17 -125q0 -95 44.5 -149.5t119.5 -54.5q64 0 113 34.5t82.5 88.5t50.5 119t17 126q0 97 -44.5 150.5t-119.5 53.5zM412 617h-122l133 623l-225 -77l26 127l356 119z" />
    <glyph glyph-name="onethird" unicode="&#x2153;" horiz-adv-x="1649" 
d="M314 0h-157l1055 1400h157zM1072 686q47 49 109.5 78t150.5 29q56 0 101 -15t77 -41t49 -61t17 -75q0 -34 -11.5 -66.5t-33.5 -60.5t-53 -50t-71 -35q51 -21 79 -61t28 -94q0 -49 -20 -93.5t-58.5 -78t-94.5 -53.5t-129 -20q-88 0 -152 27.5t-100 76.5l81 76
q29 -34 74 -52t99 -18q45 0 78.5 11.5t55 30.5t32 44t10.5 52q0 49 -39.5 77t-102.5 28h-96l22 107h93q43 0 76.5 11.5t57 30t35.5 42.5t12 50q0 45 -36.5 72.5t-96.5 27.5q-57 0 -103 -24t-78 -58zM412 617h-122l133 623l-225 -77l26 127l356 119z" />
    <glyph glyph-name="twothirds" unicode="&#x2154;" horiz-adv-x="1829" 
d="M494 0h-157l1055 1400h157zM1252 686q47 49 109.5 78t150.5 29q56 0 101 -15t77 -41t49 -61t17 -75q0 -34 -11.5 -66.5t-33.5 -60.5t-53 -50t-71 -35q51 -21 79 -61t28 -94q0 -49 -20 -93.5t-58.5 -78t-94.5 -53.5t-129 -20q-88 0 -152 27.5t-100 76.5l81 76
q29 -34 74 -52t99 -18q45 0 78.5 11.5t55 30.5t32 44t10.5 52q0 49 -39.5 77t-102.5 28h-96l22 107h93q43 0 76.5 11.5t57 30t35.5 42.5t12 50q0 45 -36.5 72.5t-96.5 27.5q-57 0 -103 -24t-78 -58zM238 1284q19 23 44.5 45.5t57.5 40.5t71 29t84 11q61 0 106 -18.5
t74.5 -48.5t44 -68.5t14.5 -78.5q0 -39 -10.5 -73t-31.5 -66.5t-53 -65.5t-75 -70l-223 -191h329l-24 -113h-508l20 97l326 278q65 56 95 98.5t30 89.5q0 22 -8 43t-24.5 36.5t-40.5 25t-56 9.5q-55 0 -95 -25t-71 -60z" />
    <glyph glyph-name="uni2155" unicode="&#x2155;" horiz-adv-x="1664" 
d="M314 0h-157l1055 1400h157zM1562 670h-320l-49 -192h77q74 0 127 -21.5t84.5 -57.5t42 -84t0.5 -100q-12 -58 -39.5 -100.5t-67.5 -70.5t-90.5 -41.5t-106.5 -13.5q-81 0 -148 29.5t-109 86.5l77 78q34 -43 82 -63t103 -20q73 0 118.5 33.5t56.5 89.5q5 29 0 55.5
t-24 46.5t-53.5 32t-87.5 12h-175l98 413h428zM412 617h-122l133 623l-225 -77l26 127l356 119z" />
    <glyph glyph-name="uni2156" unicode="&#x2156;" horiz-adv-x="1843" 
d="M494 0h-157l1055 1400h157zM1742 670h-320l-49 -192h77q74 0 127 -21.5t84.5 -57.5t42 -84t0.5 -100q-12 -58 -39.5 -100.5t-67.5 -70.5t-90.5 -41.5t-106.5 -13.5q-81 0 -148 29.5t-109 86.5l77 78q34 -43 82 -63t103 -20q73 0 118.5 33.5t56.5 89.5q5 29 0 55.5
t-24 46.5t-53.5 32t-87.5 12h-175l98 413h428zM238 1284q19 23 44.5 45.5t57.5 40.5t71 29t84 11q61 0 106 -18.5t74.5 -48.5t44 -68.5t14.5 -78.5q0 -39 -10.5 -73t-31.5 -66.5t-53 -65.5t-75 -70l-223 -191h329l-24 -113h-508l20 97l326 278q65 56 95 98.5t30 89.5
q0 22 -8 43t-24.5 36.5t-40.5 25t-56 9.5q-55 0 -95 -25t-71 -60z" />
    <glyph glyph-name="uni2157" unicode="&#x2157;" horiz-adv-x="1794" 
d="M445 0h-157l1055 1400h157zM1693 670h-320l-49 -192h77q74 0 127 -21.5t84.5 -57.5t42 -84t0.5 -100q-12 -58 -39.5 -100.5t-67.5 -70.5t-90.5 -41.5t-106.5 -13.5q-81 0 -148 29.5t-109 86.5l77 78q34 -43 82 -63t103 -20q73 0 118.5 33.5t56.5 89.5q5 29 0 55.5
t-24 46.5t-53.5 32t-87.5 12h-175l98 413h428zM227 1303q47 49 109.5 78t150.5 29q56 0 101 -15t77 -41t49 -61t17 -75q0 -34 -11.5 -66.5t-33.5 -60.5t-53 -50t-71 -35q51 -21 79 -61t28 -94q0 -49 -20 -93.5t-58.5 -78t-94.5 -53.5t-129 -20q-88 0 -152 27.5t-100 76.5
l81 76q29 -34 74 -52t99 -18q45 0 78.5 11.5t55 30.5t32 44t10.5 52q0 49 -39.5 77t-102.5 28h-96l22 107h93q43 0 76.5 11.5t57 30t35.5 42.5t12 50q0 45 -36.5 72.5t-96.5 27.5q-57 0 -103 -24t-78 -58z" />
    <glyph glyph-name="uni2158" unicode="&#x2158;" horiz-adv-x="1821" 
d="M472 0h-157l1055 1400h157zM1719 670h-320l-49 -192h77q74 0 127 -21.5t84.5 -57.5t42 -84t0.5 -100q-12 -58 -39.5 -100.5t-67.5 -70.5t-90.5 -41.5t-106.5 -13.5q-81 0 -148 29.5t-109 86.5l77 78q34 -43 82 -63t103 -20q73 0 118.5 33.5t56.5 89.5q5 29 0 55.5
t-24 46.5t-53.5 32t-87.5 12h-175l98 413h428zM605 884h123l-24 -114h-123l-32 -153h-122l32 153h-356l21 97l363 532h140l-352 -515h209l46 214h121z" />
    <glyph glyph-name="uni2159" unicode="&#x2159;" horiz-adv-x="1588" 
d="M314 0h-157l1055 1400h157zM1182 504q16 3 37 3q55 0 103.5 -17t84 -47.5t56 -74.5t20.5 -98q0 -57 -22.5 -108t-62.5 -89.5t-96 -60.5t-123 -22q-59 0 -109.5 17.5t-88.5 49t-59.5 76.5t-21.5 100q0 49 20.5 101.5t68.5 112.5l272 335h154zM1200 402q-39 0 -70.5 -13
t-54 -35t-35 -52t-12.5 -63q0 -31 11.5 -56.5t31.5 -44t48.5 -29t63.5 -10.5q38 0 70 13t54.5 35t35 52t12.5 63q0 31 -12 57t-32.5 44.5t-49 28.5t-61.5 10zM412 617h-122l133 623l-225 -77l26 127l356 119z" />
    <glyph glyph-name="uni215A" unicode="&#x215a;" horiz-adv-x="1733" 
d="M459 0h-157l1055 1400h157zM1327 504q16 3 37 3q55 0 103.5 -17t84 -47.5t56 -74.5t20.5 -98q0 -57 -22.5 -108t-62.5 -89.5t-96 -60.5t-123 -22q-59 0 -109.5 17.5t-88.5 49t-59.5 76.5t-21.5 100q0 49 20.5 101.5t68.5 112.5l272 335h154zM1345 402q-39 0 -70.5 -13
t-54 -35t-35 -52t-12.5 -63q0 -31 11.5 -56.5t31.5 -44t48.5 -29t63.5 -10.5q38 0 70 13t54.5 35t35 52t12.5 63q0 31 -12 57t-32.5 44.5t-49 28.5t-61.5 10zM717 1287h-320l-49 -192h77q74 0 127 -21.5t84.5 -57.5t42 -84t0.5 -100q-12 -58 -39.5 -100.5t-67.5 -70.5
t-90.5 -41.5t-106.5 -13.5q-81 0 -148 29.5t-109 86.5l77 78q34 -43 82 -63t103 -20q73 0 118.5 33.5t56.5 89.5q5 29 0 55.5t-24 46.5t-53.5 32t-87.5 12h-175l98 413h428z" />
    <glyph glyph-name="oneeighth" unicode="&#x215b;" horiz-adv-x="1698" 
d="M314 0h-157l1055 1400h157zM1374 793q51 0 97 -13t81 -38t55.5 -60t20.5 -80q0 -71 -47 -127.5t-134 -84.5q53 -23 85 -61.5t32 -92.5q0 -51 -22.5 -96t-65 -78.5t-103 -53t-136.5 -19.5q-55 0 -103.5 13.5t-85 38.5t-57.5 61t-21 81q0 74 48.5 131.5t139.5 84.5
q-44 22 -70 58t-26 87q0 50 21.5 95t61.5 79.5t98 54.5t131 20zM1287 347q-42 0 -76 -11t-58 -30t-37.5 -45.5t-13.5 -56.5q0 -26 11.5 -46t31.5 -34t46.5 -21t56.5 -7q41 0 75.5 10.5t59 29.5t38.5 45t14 57q0 25 -11.5 45t-31.5 34.5t-47 22t-58 7.5zM1363 684
q-40 0 -72 -10.5t-54 -29t-34 -43.5t-12 -54q0 -47 36.5 -74.5t94.5 -27.5q39 0 71 10.5t55.5 29t36 43t12.5 53.5q0 25 -11 44t-29.5 32t-42.5 20t-51 7zM412 617h-122l133 623l-225 -77l26 127l356 119z" />
    <glyph glyph-name="threeeighths" unicode="&#x215c;" horiz-adv-x="1828" 
d="M445 0h-157l1055 1400h157zM1505 793q51 0 97 -13t81 -38t55.5 -60t20.5 -80q0 -71 -47 -127.5t-134 -84.5q53 -23 85 -61.5t32 -92.5q0 -51 -22.5 -96t-65 -78.5t-103 -53t-136.5 -19.5q-55 0 -103.5 13.5t-85 38.5t-57.5 61t-21 81q0 74 48.5 131.5t139.5 84.5
q-44 22 -70 58t-26 87q0 50 21.5 95t61.5 79.5t98 54.5t131 20zM1418 347q-42 0 -76 -11t-58 -30t-37.5 -45.5t-13.5 -56.5q0 -26 11.5 -46t31.5 -34t46.5 -21t56.5 -7q41 0 75.5 10.5t59 29.5t38.5 45t14 57q0 25 -11.5 45t-31.5 34.5t-47 22t-58 7.5zM1494 684
q-40 0 -72 -10.5t-54 -29t-34 -43.5t-12 -54q0 -47 36.5 -74.5t94.5 -27.5q39 0 71 10.5t55.5 29t36 43t12.5 53.5q0 25 -11 44t-29.5 32t-42.5 20t-51 7zM227 1303q47 49 109.5 78t150.5 29q56 0 101 -15t77 -41t49 -61t17 -75q0 -34 -11.5 -66.5t-33.5 -60.5t-53 -50
t-71 -35q51 -21 79 -61t28 -94q0 -49 -20 -93.5t-58.5 -78t-94.5 -53.5t-129 -20q-88 0 -152 27.5t-100 76.5l81 76q29 -34 74 -52t99 -18q45 0 78.5 11.5t55 30.5t32 44t10.5 52q0 49 -39.5 77t-102.5 28h-96l22 107h93q43 0 76.5 11.5t57 30t35.5 42.5t12 50
q0 45 -36.5 72.5t-96.5 27.5q-57 0 -103 -24t-78 -58z" />
    </font>
</defs>
</svg>
